<svg width="3968.5622070312497px" height="129.2px" xmlns="http://www.w3.org/2000/svg" viewBox="-1734.2811035156249 10.400000000000006 3968.5622070312497 129.2" style="background: rgba(0, 0, 0, 0);" preserveAspectRatio="xMidYMid"><defs><filter id="editing-extrusion" x="-100%" y="-100%" width="300%" height="300%"><feFlood result="color1" flood-color="#000000"></feFlood><feConvolveMatrix order="2,2" divisor="1" kernelMatrix="1 0 0 1" in="SourceAlpha" result="extrude"></feConvolveMatrix><feComposite in="color1" in2="extrude" result="comp-extrude" operator="in"></feComposite><feOffset dx="1" dy="1" in="comp-extrude" result="offset-extrude"></feOffset><feMerge><feMergeNode in="offset-extrude"></feMergeNode><feMergeNode in="SourceGraphic"></feMergeNode></feMerge></filter></defs><g filter="url(#editing-extrusion)"><g transform="translate(-1202.0298290252686, 99.63999938964844)"><path d="M3.58 0L3.58-46.02L41.98-46.02L41.98-46.02Q45.18-46.02 47.42-43.78L47.42-43.78L47.42-43.78Q49.66-41.54 49.66-38.34L49.66-38.34L49.66-24.83L49.66-24.83Q49.66-21.63 47.42-19.39L47.42-19.39L47.42-19.39Q45.18-17.15 41.98-17.15L41.98-17.15L11.26-17.15L11.26-17.15Q10.69-17.15 8.77-17.41L8.77-17.41L8.77 0L3.58 0ZM44.48-24.83L44.48-24.83L44.48-38.34L44.48-38.34Q44.48-39.36 43.74-40.10L43.74-40.10L43.74-40.10Q43.01-40.83 41.98-40.83L41.98-40.83L11.26-40.83L11.26-40.83Q10.24-40.83 9.50-40.10L9.50-40.10L9.50-40.10Q8.77-39.36 8.77-38.34L8.77-38.34L8.77-24.83L8.77-24.83Q8.77-23.81 9.50-23.10L9.50-23.10L9.50-23.10Q10.24-22.40 11.26-22.40L11.26-22.40L41.98-22.40L41.98-22.40Q43.01-22.40 43.74-23.10L43.74-23.10L43.74-23.10Q44.48-23.81 44.48-24.83ZM53.95-7.74L53.95-49.28L59.20-49.28L59.20-7.74L59.20-7.74Q59.20-6.72 59.94-5.98L59.94-5.98L59.94-5.98Q60.67-5.25 61.70-5.25L61.70-5.25L67.97-5.25L67.97 0L61.70 0L61.70 0Q58.50 0 56.22-2.27L56.22-2.27L56.22-2.27Q53.95-4.54 53.95-7.74L53.95-7.74ZM72.64-37.12L102.66-37.12L102.66-37.12Q105.92-37.12 108.19-34.85L108.19-34.85L108.19-34.85Q110.46-32.58 110.46-29.38L110.46-29.38L110.46 0L80.38 0L80.38 0Q77.18 0 74.91-2.27L74.91-2.27L74.91-2.27Q72.64-4.54 72.64-7.74L72.64-7.74L72.64-21.18L105.15-21.18L105.15-29.38L105.15-29.38Q105.15-30.40 104.42-31.14L104.42-31.14L104.42-31.14Q103.68-31.87 102.66-31.87L102.66-31.87L72.64-31.87L72.64-37.12ZM80.38-5.25L105.15-5.25L105.15-15.94L77.89-15.94L77.89-7.74L77.89-7.74Q77.89-6.72 78.62-5.98L78.62-5.98L78.62-5.98Q79.36-5.25 80.38-5.25L80.38-5.25ZM138.43-37.12L138.43-31.87L122.37-31.87L122.37-7.74L122.37-7.74Q122.37-6.72 123.10-5.98L123.10-5.98L123.10-5.98Q123.84-5.25 124.86-5.25L124.86-5.25L138.43-5.25L138.43 0L124.86 0L124.86 0Q121.60 0 119.36-2.27L119.36-2.27L119.36-2.27Q117.12-4.54 117.12-7.74L117.12-7.74L117.12-49.28L122.37-49.28L122.37-37.12L138.43-37.12ZM150.98-37.12L173.25-37.12L173.25-37.12Q176.51-37.12 178.78-34.85L178.78-34.85L178.78-34.85Q181.06-32.58 181.06-29.38L181.06-29.38L181.06-15.94L148.48-15.94L148.48-7.74L148.48-7.74Q148.48-6.72 149.22-5.98L149.22-5.98L149.22-5.98Q149.95-5.25 150.98-5.25L150.98-5.25L181.06-5.25L181.06 0L150.98 0L150.98 0Q147.78 0 145.50-2.27L145.50-2.27L145.50-2.27Q143.23-4.54 143.23-7.74L143.23-7.74L143.23-29.38L143.23-29.38Q143.23-32.58 145.50-34.85L145.50-34.85L145.50-34.85Q147.78-37.12 150.98-37.12L150.98-37.12ZM148.48-29.38L148.48-21.18L175.74-21.18L175.74-29.38L175.74-29.38Q175.74-30.40 175.01-31.14L175.01-31.14L175.01-31.14Q174.27-31.87 173.25-31.87L173.25-31.87L150.98-31.87L150.98-31.87Q149.95-31.87 149.22-31.14L149.22-31.14L149.22-31.14Q148.48-30.40 148.48-29.38L148.48-29.38ZM208.96-44.03L195.39-44.03L195.39-44.03Q194.37-44.03 193.63-43.30L193.63-43.30L193.63-43.30Q192.90-42.56 192.90-41.54L192.90-41.54L192.90-37.12L208.96-37.12L208.96-31.87L192.90-31.87L192.90 0L187.65 0L187.65-41.54L187.65-41.54Q187.65-44.80 189.89-47.04L189.89-47.04L189.89-47.04Q192.13-49.28 195.39-49.28L195.39-49.28L208.96-49.28L208.96-44.03ZM221.31-37.12L221.31-37.12L243.58-37.12L243.58-37.12Q246.85-37.12 249.12-34.85L249.12-34.85L249.12-34.85Q251.39-32.58 251.39-29.38L251.39-29.38L251.39-7.74L251.39-7.74Q251.39-4.54 249.12-2.27L249.12-2.27L249.12-2.27Q246.85 0 243.58 0L243.58 0L221.31 0L221.31 0Q218.11 0 215.84-2.27L215.84-2.27L215.84-2.27Q213.57-4.54 213.57-7.74L213.57-7.74L213.57-29.38L213.57-29.38Q213.57-32.58 215.84-34.85L215.84-34.85L215.84-34.85Q218.11-37.12 221.31-37.12ZM243.58-31.87L243.58-31.87L221.31-31.87L221.31-31.87Q220.29-31.87 219.55-31.14L219.55-31.14L219.55-31.14Q218.82-30.40 218.82-29.38L218.82-29.38L218.82-7.74L218.82-7.74Q218.82-6.72 219.55-5.98L219.55-5.98L219.55-5.98Q220.29-5.25 221.31-5.25L221.31-5.25L243.58-5.25L243.58-5.25Q244.61-5.25 245.34-5.98L245.34-5.98L245.34-5.98Q246.08-6.72 246.08-7.74L246.08-7.74L246.08-29.38L246.08-29.38Q246.08-30.40 245.34-31.14L245.34-31.14L245.34-31.14Q244.61-31.87 243.58-31.87ZM265.02-37.12L265.02-37.12L285.89-37.12L285.89-31.87L265.02-31.87L265.02-31.87Q264.00-31.87 263.26-31.14L263.26-31.14L263.26-31.14Q262.53-30.40 262.53-29.38L262.53-29.38L262.53 0L257.28 0L257.28-29.38L257.28-29.38Q257.28-32.58 259.55-34.85L259.55-34.85L259.55-34.85Q261.82-37.12 265.02-37.12ZM290.18-37.12L339.20-37.12L339.20-37.12Q342.46-37.12 344.70-34.85L344.70-34.85L344.70-34.85Q346.94-32.58 346.94-29.38L346.94-29.38L346.94 0L341.76 0L341.76-29.38L341.76-29.38Q341.76-30.40 340.99-31.14L340.99-31.14L340.99-31.14Q340.22-31.87 339.20-31.87L339.20-31.87L323.78-31.87L323.78-31.87Q322.75-31.87 322.02-31.14L322.02-31.14L322.02-31.14Q321.28-30.40 321.28-29.38L321.28-29.38L321.28 0L315.97 0L315.97-29.38L315.97-29.38Q315.97-30.40 315.23-31.14L315.23-31.14L315.23-31.14Q314.50-31.87 313.47-31.87L313.47-31.87L297.98-31.87L297.98-31.87Q296.96-31.87 296.22-31.14L296.22-31.14L296.22-31.14Q295.49-30.40 295.49-29.38L295.49-29.38L295.49 0L290.18 0L290.18-37.12ZM360.32-37.12L382.59-37.12L382.59-37.12Q385.86-37.12 388.13-34.85L388.13-34.85L388.13-34.85Q390.40-32.58 390.40-29.38L390.40-29.38L390.40-15.94L357.82-15.94L357.82-7.74L357.82-7.74Q357.82-6.72 358.56-5.98L358.56-5.98L358.56-5.98Q359.30-5.25 360.32-5.25L360.32-5.25L390.40-5.25L390.40 0L360.32 0L360.32 0Q357.12 0 354.85-2.27L354.85-2.27L354.85-2.27Q352.58-4.54 352.58-7.74L352.58-7.74L352.58-29.38L352.58-29.38Q352.58-32.58 354.85-34.85L354.85-34.85L354.85-34.85Q357.12-37.12 360.32-37.12L360.32-37.12ZM357.82-29.38L357.82-21.18L385.09-21.18L385.09-29.38L385.09-29.38Q385.09-30.40 384.35-31.14L384.35-31.14L384.35-31.14Q383.62-31.87 382.59-31.87L382.59-31.87L360.32-31.87L360.32-31.87Q359.30-31.87 358.56-31.14L358.56-31.14L358.56-31.14Q357.82-30.40 357.82-29.38L357.82-29.38ZM414.72 0L414.72-46.08L456.77-46.08L456.77-40.90L419.90-40.90L419.90-25.66L449.54-25.66L449.54-20.42L419.90-20.42L419.90 0L414.72 0ZM465.86 0L460.61 0L460.61-37.12L465.86-37.12L465.86 0ZM460.61-44.03L460.61-49.28L465.86-49.28L465.86-44.03L460.61-44.03ZM480.64-5.25L480.64-5.25L510.72-5.25L510.72 0L480.64 0L480.64 0Q477.44 0 475.17-2.27L475.17-2.27L475.17-2.27Q472.90-4.54 472.90-7.74L472.90-7.74L472.90-29.38L472.90-29.38Q472.90-32.58 475.17-34.85L475.17-34.85L475.17-34.85Q477.44-37.12 480.64-37.12L480.64-37.12L510.59-37.12L510.59-31.87L480.64-31.87L480.64-31.87Q479.62-31.87 478.88-31.14L478.88-31.14L478.88-31.14Q478.14-30.40 478.14-29.38L478.14-29.38L478.14-7.74L478.14-7.74Q478.14-6.72 478.88-5.98L478.88-5.98L478.88-5.98Q479.62-5.25 480.64-5.25ZM537.22-37.12L537.22-31.87L521.15-31.87L521.15-7.74L521.15-7.74Q521.15-6.72 521.89-5.98L521.89-5.98L521.89-5.98Q522.62-5.25 523.65-5.25L523.65-5.25L537.22-5.25L537.22 0L523.65 0L523.65 0Q520.38 0 518.14-2.27L518.14-2.27L518.14-2.27Q515.90-4.54 515.90-7.74L515.90-7.74L515.90-49.28L521.15-49.28L521.15-37.12L537.22-37.12ZM547.65 0L542.40 0L542.40-37.12L547.65-37.12L547.65 0ZM542.40-44.03L542.40-49.28L547.65-49.28L547.65-44.03L542.40-44.03ZM576.96-5.12L594.37-37.12L600.51-37.12L579.97 0L573.89 0L553.41-37.12L559.55-37.12L576.96-5.12ZM611.71-37.12L633.98-37.12L633.98-37.12Q637.25-37.12 639.52-34.85L639.52-34.85L639.52-34.85Q641.79-32.58 641.79-29.38L641.79-29.38L641.79-15.94L609.22-15.94L609.22-7.74L609.22-7.74Q609.22-6.72 609.95-5.98L609.95-5.98L609.95-5.98Q610.69-5.25 611.71-5.25L611.71-5.25L641.79-5.25L641.79 0L611.71 0L611.71 0Q608.51 0 606.24-2.27L606.24-2.27L606.24-2.27Q603.97-4.54 603.97-7.74L603.97-7.74L603.97-29.38L603.97-29.38Q603.97-32.58 606.24-34.85L606.24-34.85L606.24-34.85Q608.51-37.12 611.71-37.12L611.71-37.12ZM609.22-29.38L609.22-21.18L636.48-21.18L636.48-29.38L636.48-29.38Q636.48-30.40 635.74-31.14L635.74-31.14L635.74-31.14Q635.01-31.87 633.98-31.87L633.98-31.87L611.71-31.87L611.71-31.87Q610.69-31.87 609.95-31.14L609.95-31.14L609.95-31.14Q609.22-30.40 609.22-29.38L609.22-29.38ZM666.11 0L666.11-46.08L704.51-46.08L704.51-46.08Q707.71-46.08 709.95-43.84L709.95-43.84L709.95-43.84Q712.19-41.60 712.19-38.40L712.19-38.40L712.19-7.68L712.19-7.68Q712.19-4.48 709.95-2.24L709.95-2.24L709.95-2.24Q707.71 0 704.51 0L704.51 0L666.11 0ZM707.01-7.68L707.01-7.68L707.01-38.40L707.01-38.40Q707.01-39.42 706.27-40.16L706.27-40.16L706.27-40.16Q705.54-40.90 704.51-40.90L704.51-40.90L673.79-40.90L673.79-40.90Q672.77-40.90 672.03-40.16L672.03-40.16L672.03-40.16Q671.30-39.42 671.30-38.40L671.30-38.40L671.30-7.68L671.30-7.68Q671.30-6.66 672.03-5.92L672.03-5.92L672.03-5.92Q672.77-5.18 673.79-5.18L673.79-5.18L704.51-5.18L704.51-5.18Q705.54-5.18 706.27-5.92L706.27-5.92L706.27-5.92Q707.01-6.66 707.01-7.68ZM726.78-37.12L749.06-37.12L749.06-37.12Q752.32-37.12 754.59-34.85L754.59-34.85L754.59-34.85Q756.86-32.58 756.86-29.38L756.86-29.38L756.86-15.94L724.29-15.94L724.29-7.74L724.29-7.74Q724.29-6.72 725.02-5.98L725.02-5.98L725.02-5.98Q725.76-5.25 726.78-5.25L726.78-5.25L756.86-5.25L756.86 0L726.78 0L726.78 0Q723.58 0 721.31-2.27L721.31-2.27L721.31-2.27Q719.04-4.54 719.04-7.74L719.04-7.74L719.04-29.38L719.04-29.38Q719.04-32.58 721.31-34.85L721.31-34.85L721.31-34.85Q723.58-37.12 726.78-37.12L726.78-37.12ZM724.29-29.38L724.29-21.18L751.55-21.18L751.55-29.38L751.55-29.38Q751.55-30.40 750.82-31.14L750.82-31.14L750.82-31.14Q750.08-31.87 749.06-31.87L749.06-31.87L726.78-31.87L726.78-31.87Q725.76-31.87 725.02-31.14L725.02-31.14L725.02-31.14Q724.29-30.40 724.29-29.38L724.29-29.38ZM788.16-46.08L807.30-23.30L826.43-46.08L833.54-46.08L833.54 0L828.35 0L828.35-40.19L807.30-15.17L786.24-40.19L786.24 0L781.06 0L781.06-46.08L788.16-46.08ZM845.44 0L840.19 0L840.19-37.12L845.44-37.12L845.44 0ZM840.19-44.03L840.19-49.28L845.44-49.28L845.44-44.03L840.19-44.03ZM891.07-29.38L891.07-29.38L891.07-28.86L885.76-28.86L885.76-29.38L885.76-29.38Q885.76-30.40 885.02-31.14L885.02-31.14L885.02-31.14Q884.29-31.87 883.26-31.87L883.26-31.87L860.99-31.87L860.99-31.87Q859.97-31.87 859.23-31.14L859.23-31.14L859.23-31.14Q858.50-30.40 858.50-29.38L858.50-29.38L858.50-23.68L858.50-23.68Q858.50-22.66 859.23-21.92L859.23-21.92L859.23-21.92Q859.97-21.18 860.99-21.18L860.99-21.18L883.26-21.18L883.26-21.18Q886.53-21.18 888.80-18.91L888.80-18.91L888.80-18.91Q891.07-16.64 891.07-13.44L891.07-13.44L891.07-7.74L891.07-7.74Q891.07-4.54 888.80-2.27L888.80-2.27L888.80-2.27Q886.53 0 883.26 0L883.26 0L860.99 0L860.99 0Q857.79 0 855.52-2.27L855.52-2.27L855.52-2.27Q853.25-4.54 853.25-7.74L853.25-7.74L853.25-8.26L858.50-8.26L858.50-7.74L858.50-7.74Q858.50-6.72 859.23-5.98L859.23-5.98L859.23-5.98Q859.97-5.25 860.99-5.25L860.99-5.25L883.26-5.25L883.26-5.25Q884.29-5.25 885.02-5.98L885.02-5.98L885.02-5.98Q885.76-6.72 885.76-7.74L885.76-7.74L885.76-13.44L885.76-13.44Q885.76-14.46 885.02-15.20L885.02-15.20L885.02-15.20Q884.29-15.94 883.26-15.94L883.26-15.94L860.99-15.94L860.99-15.94Q857.79-15.94 855.52-18.21L855.52-18.21L855.52-18.21Q853.25-20.48 853.25-23.68L853.25-23.68L853.25-29.38L853.25-29.38Q853.25-32.58 855.52-34.85L855.52-34.85L855.52-34.85Q857.79-37.12 860.99-37.12L860.99-37.12L883.26-37.12L883.26-37.12Q886.53-37.12 888.80-34.85L888.80-34.85L888.80-34.85Q891.07-32.58 891.07-29.38ZM904.13-37.12L926.40-37.12L926.40-37.12Q929.66-37.12 931.94-34.85L931.94-34.85L931.94-34.85Q934.21-32.58 934.21-29.38L934.21-29.38L934.21-15.94L901.63-15.94L901.63-7.74L901.63-7.74Q901.63-6.72 902.37-5.98L902.37-5.98L902.37-5.98Q903.10-5.25 904.13-5.25L904.13-5.25L934.21-5.25L934.21 0L904.13 0L904.13 0Q900.93 0 898.66-2.27L898.66-2.27L898.66-2.27Q896.38-4.54 896.38-7.74L896.38-7.74L896.38-29.38L896.38-29.38Q896.38-32.58 898.66-34.85L898.66-34.85L898.66-34.85Q900.93-37.12 904.13-37.12L904.13-37.12ZM901.63-29.38L901.63-21.18L928.90-21.18L928.90-29.38L928.90-29.38Q928.90-30.40 928.16-31.14L928.16-31.14L928.16-31.14Q927.42-31.87 926.40-31.87L926.40-31.87L904.13-31.87L904.13-31.87Q903.10-31.87 902.37-31.14L902.37-31.14L902.37-31.14Q901.63-30.40 901.63-29.38L901.63-29.38ZM958.53-46.08L1000.58-46.08L1000.58-40.90L963.71-40.90L963.71-25.66L993.34-25.66L993.34-20.42L963.71-20.42L963.71-5.18L1000.58-5.18L1000.58 0L958.53 0L958.53-46.08ZM1007.30-37.12L1037.38-37.12L1037.38-37.12Q1040.58-37.12 1042.85-34.85L1042.85-34.85L1042.85-34.85Q1045.12-32.58 1045.12-29.38L1045.12-29.38L1045.12 0L1039.87 0L1039.87-29.38L1039.87-29.38Q1039.87-30.40 1039.14-31.14L1039.14-31.14L1039.14-31.14Q1038.40-31.87 1037.38-31.87L1037.38-31.87L1015.10-31.87L1015.10-31.87Q1014.08-31.87 1013.31-31.14L1013.31-31.14L1013.31-31.14Q1012.54-30.40 1012.54-29.38L1012.54-29.38L1012.54 0L1007.30 0L1007.30-37.12ZM1115.39-38.34L1115.39-38.34L1115.39-24.83L1115.39-24.83Q1115.39-21.63 1113.15-19.39L1113.15-19.39L1113.15-19.39Q1110.91-17.15 1107.71-17.15L1107.71-17.15L1100.67-17.15L1115.14 0L1108.29 0L1093.89-17.15L1076.99-17.15L1076.99-17.15Q1076.42-17.15 1074.50-17.41L1074.50-17.41L1074.50 0L1069.31 0L1069.31-46.02L1107.71-46.02L1107.71-46.02Q1110.91-46.02 1113.15-43.78L1113.15-43.78L1113.15-43.78Q1115.39-41.54 1115.39-38.34ZM1076.99-22.40L1076.99-22.40L1107.71-22.40L1107.71-22.40Q1108.74-22.40 1109.44-23.10L1109.44-23.10L1109.44-23.10Q1110.14-23.81 1110.14-24.83L1110.14-24.83L1110.14-38.34L1110.14-38.34Q1110.14-39.36 1109.44-40.10L1109.44-40.10L1109.44-40.10Q1108.74-40.83 1107.71-40.83L1107.71-40.83L1076.99-40.83L1076.99-40.83Q1075.97-40.83 1075.23-40.10L1075.23-40.10L1075.23-40.10Q1074.50-39.36 1074.50-38.34L1074.50-38.34L1074.50-24.83L1074.50-24.83Q1074.50-23.81 1075.23-23.10L1075.23-23.10L1075.23-23.10Q1075.97-22.40 1076.99-22.40ZM1129.60-37.12L1151.87-37.12L1151.87-37.12Q1155.14-37.12 1157.41-34.85L1157.41-34.85L1157.41-34.85Q1159.68-32.58 1159.68-29.38L1159.68-29.38L1159.68-15.94L1127.10-15.94L1127.10-7.74L1127.10-7.74Q1127.10-6.72 1127.84-5.98L1127.84-5.98L1127.84-5.98Q1128.58-5.25 1129.60-5.25L1129.60-5.25L1159.68-5.25L1159.68 0L1129.60 0L1129.60 0Q1126.40 0 1124.13-2.27L1124.13-2.27L1124.13-2.27Q1121.86-4.54 1121.86-7.74L1121.86-7.74L1121.86-29.38L1121.86-29.38Q1121.86-32.58 1124.13-34.85L1124.13-34.85L1124.13-34.85Q1126.40-37.12 1129.60-37.12L1129.60-37.12ZM1127.10-29.38L1127.10-21.18L1154.37-21.18L1154.37-29.38L1154.37-29.38Q1154.37-30.40 1153.63-31.14L1153.63-31.14L1153.63-31.14Q1152.90-31.87 1151.87-31.87L1151.87-31.87L1129.60-31.87L1129.60-31.87Q1128.58-31.87 1127.84-31.14L1127.84-31.14L1127.84-31.14Q1127.10-30.40 1127.10-29.38L1127.10-29.38ZM1164.93-7.74L1164.93-49.28L1170.18-49.28L1170.18-7.74L1170.18-7.74Q1170.18-6.72 1170.91-5.98L1170.91-5.98L1170.91-5.98Q1171.65-5.25 1172.67-5.25L1172.67-5.25L1178.94-5.25L1178.94 0L1172.67 0L1172.67 0Q1169.47 0 1167.20-2.27L1167.20-2.27L1167.20-2.27Q1164.93-4.54 1164.93-7.74L1164.93-7.74ZM1183.62-37.12L1213.63-37.12L1213.63-37.12Q1216.90-37.12 1219.17-34.85L1219.17-34.85L1219.17-34.85Q1221.44-32.58 1221.44-29.38L1221.44-29.38L1221.44 0L1191.36 0L1191.36 0Q1188.16 0 1185.89-2.27L1185.89-2.27L1185.89-2.27Q1183.62-4.54 1183.62-7.74L1183.62-7.74L1183.62-21.18L1216.13-21.18L1216.13-29.38L1216.13-29.38Q1216.13-30.40 1215.39-31.14L1215.39-31.14L1215.39-31.14Q1214.66-31.87 1213.63-31.87L1213.63-31.87L1183.62-31.87L1183.62-37.12ZM1191.36-5.25L1216.13-5.25L1216.13-15.94L1188.86-15.94L1188.86-7.74L1188.86-7.74Q1188.86-6.72 1189.60-5.98L1189.60-5.98L1189.60-5.98Q1190.34-5.25 1191.36-5.25L1191.36-5.25ZM1249.41-37.12L1249.41-31.87L1233.34-31.87L1233.34-7.74L1233.34-7.74Q1233.34-6.72 1234.08-5.98L1234.08-5.98L1234.08-5.98Q1234.82-5.25 1235.84-5.25L1235.84-5.25L1249.41-5.25L1249.41 0L1235.84 0L1235.84 0Q1232.58 0 1230.34-2.27L1230.34-2.27L1230.34-2.27Q1228.10-4.54 1228.10-7.74L1228.10-7.74L1228.10-49.28L1233.34-49.28L1233.34-37.12L1249.41-37.12ZM1259.84 0L1254.59 0L1254.59-37.12L1259.84-37.12L1259.84 0ZM1254.59-44.03L1254.59-49.28L1259.84-49.28L1259.84-44.03L1254.59-44.03ZM1275.58-37.12L1275.58-37.12L1297.86-37.12L1297.86-37.12Q1301.12-37.12 1303.39-34.85L1303.39-34.85L1303.39-34.85Q1305.66-32.58 1305.66-29.38L1305.66-29.38L1305.66-7.74L1305.66-7.74Q1305.66-4.54 1303.39-2.27L1303.39-2.27L1303.39-2.27Q1301.12 0 1297.86 0L1297.86 0L1275.58 0L1275.58 0Q1272.38 0 1270.11-2.27L1270.11-2.27L1270.11-2.27Q1267.84-4.54 1267.84-7.74L1267.84-7.74L1267.84-29.38L1267.84-29.38Q1267.84-32.58 1270.11-34.85L1270.11-34.85L1270.11-34.85Q1272.38-37.12 1275.58-37.12ZM1297.86-31.87L1297.86-31.87L1275.58-31.87L1275.58-31.87Q1274.56-31.87 1273.82-31.14L1273.82-31.14L1273.82-31.14Q1273.09-30.40 1273.09-29.38L1273.09-29.38L1273.09-7.74L1273.09-7.74Q1273.09-6.72 1273.82-5.98L1273.82-5.98L1273.82-5.98Q1274.56-5.25 1275.58-5.25L1275.58-5.25L1297.86-5.25L1297.86-5.25Q1298.88-5.25 1299.62-5.98L1299.62-5.98L1299.62-5.98Q1300.35-6.72 1300.35-7.74L1300.35-7.74L1300.35-29.38L1300.35-29.38Q1300.35-30.40 1299.62-31.14L1299.62-31.14L1299.62-31.14Q1298.88-31.87 1297.86-31.87ZM1311.36-37.12L1341.44-37.12L1341.44-37.12Q1344.64-37.12 1346.91-34.85L1346.91-34.85L1346.91-34.85Q1349.18-32.58 1349.18-29.38L1349.18-29.38L1349.18 0L1343.94 0L1343.94-29.38L1343.94-29.38Q1343.94-30.40 1343.20-31.14L1343.20-31.14L1343.20-31.14Q1342.46-31.87 1341.44-31.87L1341.44-31.87L1319.17-31.87L1319.17-31.87Q1318.14-31.87 1317.38-31.14L1317.38-31.14L1317.38-31.14Q1316.61-30.40 1316.61-29.38L1316.61-29.38L1316.61 0L1311.36 0L1311.36-37.12ZM1373.57 0L1373.57-46.08L1411.97-46.08L1411.97-46.08Q1415.17-46.08 1417.41-43.84L1417.41-43.84L1417.41-43.84Q1419.65-41.60 1419.65-38.40L1419.65-38.40L1419.65-7.68L1419.65-7.68Q1419.65-4.48 1417.41-2.24L1417.41-2.24L1417.41-2.24Q1415.17 0 1411.97 0L1411.97 0L1373.57 0ZM1414.46-7.68L1414.46-7.68L1414.46-38.40L1414.46-38.40Q1414.46-39.42 1413.73-40.16L1413.73-40.16L1413.73-40.16Q1412.99-40.90 1411.97-40.90L1411.97-40.90L1381.25-40.90L1381.25-40.90Q1380.22-40.90 1379.49-40.16L1379.49-40.16L1379.49-40.16Q1378.75-39.42 1378.75-38.40L1378.75-38.40L1378.75-7.68L1378.75-7.68Q1378.75-6.66 1379.49-5.92L1379.49-5.92L1379.49-5.92Q1380.22-5.18 1381.25-5.18L1381.25-5.18L1411.97-5.18L1411.97-5.18Q1412.99-5.18 1413.73-5.92L1413.73-5.92L1413.73-5.92Q1414.46-6.66 1414.46-7.68ZM1434.24-37.12L1456.51-37.12L1456.51-37.12Q1459.78-37.12 1462.05-34.85L1462.05-34.85L1462.05-34.85Q1464.32-32.58 1464.32-29.38L1464.32-29.38L1464.32-15.94L1431.74-15.94L1431.74-7.74L1431.74-7.74Q1431.74-6.72 1432.48-5.98L1432.48-5.98L1432.48-5.98Q1433.22-5.25 1434.24-5.25L1434.24-5.25L1464.32-5.25L1464.32 0L1434.24 0L1434.24 0Q1431.04 0 1428.77-2.27L1428.77-2.27L1428.77-2.27Q1426.50-4.54 1426.50-7.74L1426.50-7.74L1426.50-29.38L1426.50-29.38Q1426.50-32.58 1428.77-34.85L1428.77-34.85L1428.77-34.85Q1431.04-37.12 1434.24-37.12L1434.24-37.12ZM1431.74-29.38L1431.74-21.18L1459.01-21.18L1459.01-29.38L1459.01-29.38Q1459.01-30.40 1458.27-31.14L1458.27-31.14L1458.27-31.14Q1457.54-31.87 1456.51-31.87L1456.51-31.87L1434.24-31.87L1434.24-31.87Q1433.22-31.87 1432.48-31.14L1432.48-31.14L1432.48-31.14Q1431.74-30.40 1431.74-29.38L1431.74-29.38ZM1488.51 0L1488.51-46.02L1526.91-46.02L1526.91-46.02Q1530.11-46.02 1532.35-43.78L1532.35-43.78L1532.35-43.78Q1534.59-41.54 1534.59-38.34L1534.59-38.34L1534.59-24.83L1534.59-24.83Q1534.59-21.63 1532.35-19.39L1532.35-19.39L1532.35-19.39Q1530.11-17.15 1526.91-17.15L1526.91-17.15L1496.19-17.15L1496.19-17.15Q1495.62-17.15 1493.70-17.41L1493.70-17.41L1493.70 0L1488.51 0ZM1529.41-24.83L1529.41-24.83L1529.41-38.34L1529.41-38.34Q1529.41-39.36 1528.67-40.10L1528.67-40.10L1528.67-40.10Q1527.94-40.83 1526.91-40.83L1526.91-40.83L1496.19-40.83L1496.19-40.83Q1495.17-40.83 1494.43-40.10L1494.43-40.10L1494.43-40.10Q1493.70-39.36 1493.70-38.34L1493.70-38.34L1493.70-24.83L1493.70-24.83Q1493.70-23.81 1494.43-23.10L1494.43-23.10L1494.43-23.10Q1495.17-22.40 1496.19-22.40L1496.19-22.40L1526.91-22.40L1526.91-22.40Q1527.94-22.40 1528.67-23.10L1528.67-23.10L1528.67-23.10Q1529.41-23.81 1529.41-24.83ZM1546.62-37.12L1546.62-37.12L1567.49-37.12L1567.49-31.87L1546.62-31.87L1546.62-31.87Q1545.60-31.87 1544.86-31.14L1544.86-31.14L1544.86-31.14Q1544.13-30.40 1544.13-29.38L1544.13-29.38L1544.13 0L1538.88 0L1538.88-29.38L1538.88-29.38Q1538.88-32.58 1541.15-34.85L1541.15-34.85L1541.15-34.85Q1543.42-37.12 1546.62-37.12ZM1579.01-37.12L1579.01-37.12L1601.28-37.12L1601.28-37.12Q1604.54-37.12 1606.82-34.85L1606.82-34.85L1606.82-34.85Q1609.09-32.58 1609.09-29.38L1609.09-29.38L1609.09-7.74L1609.09-7.74Q1609.09-4.54 1606.82-2.27L1606.82-2.27L1606.82-2.27Q1604.54 0 1601.28 0L1601.28 0L1579.01 0L1579.01 0Q1575.81 0 1573.54-2.27L1573.54-2.27L1573.54-2.27Q1571.26-4.54 1571.26-7.74L1571.26-7.74L1571.26-29.38L1571.26-29.38Q1571.26-32.58 1573.54-34.85L1573.54-34.85L1573.54-34.85Q1575.81-37.12 1579.01-37.12ZM1601.28-31.87L1601.28-31.87L1579.01-31.87L1579.01-31.87Q1577.98-31.87 1577.25-31.14L1577.25-31.14L1577.25-31.14Q1576.51-30.40 1576.51-29.38L1576.51-29.38L1576.51-7.74L1576.51-7.74Q1576.51-6.72 1577.25-5.98L1577.25-5.98L1577.25-5.98Q1577.98-5.25 1579.01-5.25L1579.01-5.25L1601.28-5.25L1601.28-5.25Q1602.30-5.25 1603.04-5.98L1603.04-5.98L1603.04-5.98Q1603.78-6.72 1603.78-7.74L1603.78-7.74L1603.78-29.38L1603.78-29.38Q1603.78-30.40 1603.04-31.14L1603.04-31.14L1603.04-31.14Q1602.30-31.87 1601.28-31.87ZM1646.34-37.12L1646.34-49.28L1651.58-49.28L1651.58 0L1621.57 0L1621.57 0Q1618.30 0 1616.03-2.27L1616.03-2.27L1616.03-2.27Q1613.76-4.54 1613.76-7.74L1613.76-7.74L1613.76-29.38L1613.76-29.38Q1613.76-32.58 1616.03-34.85L1616.03-34.85L1616.03-34.85Q1618.30-37.12 1621.57-37.12L1621.57-37.12L1646.34-37.12ZM1621.57-5.25L1621.57-5.25L1643.84-5.25L1643.84-5.25Q1644.86-5.25 1645.60-5.98L1645.60-5.98L1645.60-5.98Q1646.34-6.72 1646.34-7.74L1646.34-7.74L1646.34-29.38L1646.34-29.38Q1646.34-30.40 1645.60-31.14L1645.60-31.14L1645.60-31.14Q1644.86-31.87 1643.84-31.87L1643.84-31.87L1621.57-31.87L1621.57-31.87Q1620.54-31.87 1619.81-31.14L1619.81-31.14L1619.81-31.14Q1619.07-30.40 1619.07-29.38L1619.07-29.38L1619.07-7.74L1619.07-7.74Q1619.07-6.72 1619.81-5.98L1619.81-5.98L1619.81-5.98Q1620.54-5.25 1621.57-5.25ZM1689.47-7.74L1689.47-37.12L1694.72-37.12L1694.72-7.74L1694.72-7.74Q1694.72-4.54 1692.45-2.27L1692.45-2.27L1692.45-2.27Q1690.18 0 1686.91 0L1686.91 0L1664.64 0L1664.64 0Q1661.44 0 1659.17-2.27L1659.17-2.27L1659.17-2.27Q1656.90-4.54 1656.90-7.74L1656.90-7.74L1656.90-37.12L1662.14-37.12L1662.14-7.74L1662.14-7.74Q1662.14-6.72 1662.88-5.98L1662.88-5.98L1662.88-5.98Q1663.62-5.25 1664.64-5.25L1664.64-5.25L1686.91-5.25L1686.91-5.25Q1687.94-5.25 1688.70-5.98L1688.70-5.98L1688.70-5.98Q1689.47-6.72 1689.47-7.74L1689.47-7.74ZM1707.71-5.25L1707.71-5.25L1737.79-5.25L1737.79 0L1707.71 0L1707.71 0Q1704.51 0 1702.24-2.27L1702.24-2.27L1702.24-2.27Q1699.97-4.54 1699.97-7.74L1699.97-7.74L1699.97-29.38L1699.97-29.38Q1699.97-32.58 1702.24-34.85L1702.24-34.85L1702.24-34.85Q1704.51-37.12 1707.71-37.12L1707.71-37.12L1737.66-37.12L1737.66-31.87L1707.71-31.87L1707.71-31.87Q1706.69-31.87 1705.95-31.14L1705.95-31.14L1705.95-31.14Q1705.22-30.40 1705.22-29.38L1705.22-29.38L1705.22-7.74L1705.22-7.74Q1705.22-6.72 1705.95-5.98L1705.95-5.98L1705.95-5.98Q1706.69-5.25 1707.71-5.25ZM1764.29-37.12L1764.29-31.87L1748.22-31.87L1748.22-7.74L1748.22-7.74Q1748.22-6.72 1748.96-5.98L1748.96-5.98L1748.96-5.98Q1749.70-5.25 1750.72-5.25L1750.72-5.25L1764.29-5.25L1764.29 0L1750.72 0L1750.72 0Q1747.46 0 1745.22-2.27L1745.22-2.27L1745.22-2.27Q1742.98-4.54 1742.98-7.74L1742.98-7.74L1742.98-49.28L1748.22-49.28L1748.22-37.12L1764.29-37.12ZM1776.83-37.12L1799.10-37.12L1799.10-37.12Q1802.37-37.12 1804.64-34.85L1804.64-34.85L1804.64-34.85Q1806.91-32.58 1806.91-29.38L1806.91-29.38L1806.91-15.94L1774.34-15.94L1774.34-7.74L1774.34-7.74Q1774.34-6.72 1775.07-5.98L1775.07-5.98L1775.07-5.98Q1775.81-5.25 1776.83-5.25L1776.83-5.25L1806.91-5.25L1806.91 0L1776.83 0L1776.83 0Q1773.63 0 1771.36-2.27L1771.36-2.27L1771.36-2.27Q1769.09-4.54 1769.09-7.74L1769.09-7.74L1769.09-29.38L1769.09-29.38Q1769.09-32.58 1771.36-34.85L1771.36-34.85L1771.36-34.85Q1773.63-37.12 1776.83-37.12L1776.83-37.12ZM1774.34-29.38L1774.34-21.18L1801.60-21.18L1801.60-29.38L1801.60-29.38Q1801.60-30.40 1800.86-31.14L1800.86-31.14L1800.86-31.14Q1800.13-31.87 1799.10-31.87L1799.10-31.87L1776.83-31.87L1776.83-31.87Q1775.81-31.87 1775.07-31.14L1775.07-31.14L1775.07-31.14Q1774.34-30.40 1774.34-29.38L1774.34-29.38ZM1846.08-7.74L1846.08-37.12L1851.33-37.12L1851.33-7.74L1851.33-7.74Q1851.33-4.54 1849.06-2.27L1849.06-2.27L1849.06-2.27Q1846.78 0 1843.52 0L1843.52 0L1821.25 0L1821.25 0Q1818.05 0 1815.78-2.27L1815.78-2.27L1815.78-2.27Q1813.50-4.54 1813.50-7.74L1813.50-7.74L1813.50-37.12L1818.75-37.12L1818.75-7.74L1818.75-7.74Q1818.75-6.72 1819.49-5.98L1819.49-5.98L1819.49-5.98Q1820.22-5.25 1821.25-5.25L1821.25-5.25L1843.52-5.25L1843.52-5.25Q1844.54-5.25 1845.31-5.98L1845.31-5.98L1845.31-5.98Q1846.08-6.72 1846.08-7.74L1846.08-7.74ZM1865.66-37.12L1865.66-37.12L1886.53-37.12L1886.53-31.87L1865.66-31.87L1865.66-31.87Q1864.64-31.87 1863.90-31.14L1863.90-31.14L1863.90-31.14Q1863.17-30.40 1863.17-29.38L1863.17-29.38L1863.17 0L1857.92 0L1857.92-29.38L1857.92-29.38Q1857.92-32.58 1860.19-34.85L1860.19-34.85L1860.19-34.85Q1862.46-37.12 1865.66-37.12ZM1928.26-29.38L1928.26-29.38L1928.26-28.86L1922.94-28.86L1922.94-29.38L1922.94-29.38Q1922.94-30.40 1922.21-31.14L1922.21-31.14L1922.21-31.14Q1921.47-31.87 1920.45-31.87L1920.45-31.87L1898.18-31.87L1898.18-31.87Q1897.15-31.87 1896.42-31.14L1896.42-31.14L1896.42-31.14Q1895.68-30.40 1895.68-29.38L1895.68-29.38L1895.68-23.68L1895.68-23.68Q1895.68-22.66 1896.42-21.92L1896.42-21.92L1896.42-21.92Q1897.15-21.18 1898.18-21.18L1898.18-21.18L1920.45-21.18L1920.45-21.18Q1923.71-21.18 1925.98-18.91L1925.98-18.91L1925.98-18.91Q1928.26-16.64 1928.26-13.44L1928.26-13.44L1928.26-7.74L1928.26-7.74Q1928.26-4.54 1925.98-2.27L1925.98-2.27L1925.98-2.27Q1923.71 0 1920.45 0L1920.45 0L1898.18 0L1898.18 0Q1894.98 0 1892.70-2.27L1892.70-2.27L1892.70-2.27Q1890.43-4.54 1890.43-7.74L1890.43-7.74L1890.43-8.26L1895.68-8.26L1895.68-7.74L1895.68-7.74Q1895.68-6.72 1896.42-5.98L1896.42-5.98L1896.42-5.98Q1897.15-5.25 1898.18-5.25L1898.18-5.25L1920.45-5.25L1920.45-5.25Q1921.47-5.25 1922.21-5.98L1922.21-5.98L1922.21-5.98Q1922.94-6.72 1922.94-7.74L1922.94-7.74L1922.94-13.44L1922.94-13.44Q1922.94-14.46 1922.21-15.20L1922.21-15.20L1922.21-15.20Q1921.47-15.94 1920.45-15.94L1920.45-15.94L1898.18-15.94L1898.18-15.94Q1894.98-15.94 1892.70-18.21L1892.70-18.21L1892.70-18.21Q1890.43-20.48 1890.43-23.68L1890.43-23.68L1890.43-29.38L1890.43-29.38Q1890.43-32.58 1892.70-34.85L1892.70-34.85L1892.70-34.85Q1894.98-37.12 1898.18-37.12L1898.18-37.12L1920.45-37.12L1920.45-37.12Q1923.71-37.12 1925.98-34.85L1925.98-34.85L1925.98-34.85Q1928.26-32.58 1928.26-29.38ZM1998.40 0L1952.32 0L1952.32-46.14L1957.50-46.14L1957.50-5.18L1998.40-5.18L1998.40 0ZM2009.54-37.12L2009.54-37.12L2031.81-37.12L2031.81-37.12Q2035.07-37.12 2037.34-34.85L2037.34-34.85L2037.34-34.85Q2039.62-32.58 2039.62-29.38L2039.62-29.38L2039.62-7.74L2039.62-7.74Q2039.62-4.54 2037.34-2.27L2037.34-2.27L2037.34-2.27Q2035.07 0 2031.81 0L2031.81 0L2009.54 0L2009.54 0Q2006.34 0 2004.06-2.27L2004.06-2.27L2004.06-2.27Q2001.79-4.54 2001.79-7.74L2001.79-7.74L2001.79-29.38L2001.79-29.38Q2001.79-32.58 2004.06-34.85L2004.06-34.85L2004.06-34.85Q2006.34-37.12 2009.54-37.12ZM2031.81-31.87L2031.81-31.87L2009.54-31.87L2009.54-31.87Q2008.51-31.87 2007.78-31.14L2007.78-31.14L2007.78-31.14Q2007.04-30.40 2007.04-29.38L2007.04-29.38L2007.04-7.74L2007.04-7.74Q2007.04-6.72 2007.78-5.98L2007.78-5.98L2007.78-5.98Q2008.51-5.25 2009.54-5.25L2009.54-5.25L2031.81-5.25L2031.81-5.25Q2032.83-5.25 2033.57-5.98L2033.57-5.98L2033.57-5.98Q2034.30-6.72 2034.30-7.74L2034.30-7.74L2034.30-29.38L2034.30-29.38Q2034.30-30.40 2033.57-31.14L2033.57-31.14L2033.57-31.14Q2032.83-31.87 2031.81-31.87ZM2053.82-5.25L2053.82-5.25L2083.90-5.25L2083.90 0L2053.82 0L2053.82 0Q2050.62 0 2048.35-2.27L2048.35-2.27L2048.35-2.27Q2046.08-4.54 2046.08-7.74L2046.08-7.74L2046.08-29.38L2046.08-29.38Q2046.08-32.58 2048.35-34.85L2048.35-34.85L2048.35-34.85Q2050.62-37.12 2053.82-37.12L2053.82-37.12L2083.78-37.12L2083.78-31.87L2053.82-31.87L2053.82-31.87Q2052.80-31.87 2052.06-31.14L2052.06-31.14L2052.06-31.14Q2051.33-30.40 2051.33-29.38L2051.33-29.38L2051.33-7.74L2051.33-7.74Q2051.33-6.72 2052.06-5.98L2052.06-5.98L2052.06-5.98Q2052.80-5.25 2053.82-5.25ZM2090.62-37.12L2120.64-37.12L2120.64-37.12Q2123.90-37.12 2126.18-34.85L2126.18-34.85L2126.18-34.85Q2128.45-32.58 2128.45-29.38L2128.45-29.38L2128.45 0L2098.37 0L2098.37 0Q2095.17 0 2092.90-2.27L2092.90-2.27L2092.90-2.27Q2090.62-4.54 2090.62-7.74L2090.62-7.74L2090.62-21.18L2123.14-21.18L2123.14-29.38L2123.14-29.38Q2123.14-30.40 2122.40-31.14L2122.40-31.14L2122.40-31.14Q2121.66-31.87 2120.64-31.87L2120.64-31.87L2090.62-31.87L2090.62-37.12ZM2098.37-5.25L2123.14-5.25L2123.14-15.94L2095.87-15.94L2095.87-7.74L2095.87-7.74Q2095.87-6.72 2096.61-5.98L2096.61-5.98L2096.61-5.98Q2097.34-5.25 2098.37-5.25L2098.37-5.25ZM2167.68-7.74L2167.68-37.12L2172.93-37.12L2172.93-7.74L2172.93-7.74Q2172.93-4.54 2170.66-2.27L2170.66-2.27L2170.66-2.27Q2168.38 0 2165.12 0L2165.12 0L2142.85 0L2142.85 0Q2139.65 0 2137.38-2.27L2137.38-2.27L2137.38-2.27Q2135.10-4.54 2135.10-7.74L2135.10-7.74L2135.10-37.12L2140.35-37.12L2140.35-7.74L2140.35-7.74Q2140.35-6.72 2141.09-5.98L2141.09-5.98L2141.09-5.98Q2141.82-5.25 2142.85-5.25L2142.85-5.25L2165.12-5.25L2165.12-5.25Q2166.14-5.25 2166.91-5.98L2166.91-5.98L2166.91-5.98Q2167.68-6.72 2167.68-7.74L2167.68-7.74ZM2197.12-23.04L2209.22-37.12L2216.06-37.12L2200.58-18.88L2216.13 0L2209.22 0L2197.12-14.85L2185.09 0L2178.18 0L2193.66-18.88L2178.18-37.12L2185.09-37.12L2197.12-23.04ZM2286.85-21.31L2286.85-10.69L2295.42-5.63L2295.42-1.02L2286.66-5.95L2286.66-5.95Q2285.57-3.26 2283.55-1.63L2283.55-1.63L2283.55-1.63Q2281.54 0 2279.10 0L2279.10 0L2248.06 0L2248.06 0Q2244.86 0 2242.59-2.27L2242.59-2.27L2242.59-2.27Q2240.32-4.54 2240.32-7.74L2240.32-7.74L2240.32-21.50L2240.32-21.50Q2240.32-22.91 2242.05-24.29L2242.05-24.29L2242.05-24.29Q2243.78-25.66 2246.66-25.66L2246.66-25.66L2246.66-25.66Q2243.01-28.42 2243.01-31.81L2243.01-31.81L2243.01-38.21L2243.01-38.21Q2243.01-41.47 2245.28-43.74L2245.28-43.74L2245.28-43.74Q2247.55-46.02 2250.75-46.02L2250.75-46.02L2277.06-46.02L2277.06-46.02Q2279.68-46.02 2281.89-44.06L2281.89-44.06L2281.89-44.06Q2284.10-42.11 2284.86-39.49L2284.86-39.49L2284.86-35.97L2279.55-35.97L2279.55-38.14L2279.55-38.14Q2279.55-39.17 2278.82-39.90L2278.82-39.90L2278.82-39.90Q2278.08-40.64 2277.06-40.64L2277.06-40.64L2250.75-40.64L2250.75-40.64Q2249.73-40.64 2248.99-39.90L2248.99-39.90L2248.99-39.90Q2248.26-39.17 2248.26-38.14L2248.26-38.14L2248.26-29.25L2281.60-12.42L2281.60-21.31L2286.85-21.31ZM2248.06-5.25L2248.06-5.25L2279.10-5.25L2279.10-5.25Q2279.81-5.25 2280.51-5.89L2280.51-5.89L2280.51-5.89Q2281.22-6.53 2281.66-7.55L2281.66-7.55L2249.02-24L2248.06-24L2248.06-24Q2247.04-24 2246.30-23.26L2246.30-23.26L2246.30-23.26Q2245.57-22.53 2245.57-21.50L2245.57-21.50L2245.57-7.74L2245.57-7.74Q2245.57-6.72 2246.30-5.98L2246.30-5.98L2246.30-5.98Q2247.04-5.25 2248.06-5.25ZM2363.90-46.08L2363.90-40.90L2325.63-40.90L2325.63-40.90Q2324.61-40.90 2323.87-40.16L2323.87-40.16L2323.87-40.16Q2323.14-39.42 2323.14-38.40L2323.14-38.40L2323.14-7.68L2323.14-7.68Q2323.14-6.66 2323.87-5.92L2323.87-5.92L2323.87-5.92Q2324.61-5.18 2325.63-5.18L2325.63-5.18L2363.90-5.18L2363.90 0L2325.63 0L2325.63 0Q2322.43 0 2320.19-2.24L2320.19-2.24L2320.19-2.24Q2317.95-4.48 2317.95-7.68L2317.95-7.68L2317.95-38.40L2317.95-38.40Q2317.95-41.60 2320.19-43.84L2320.19-43.84L2320.19-43.84Q2322.43-46.08 2325.63-46.08L2325.63-46.08L2363.90-46.08ZM2377.98-37.12L2377.98-37.12L2400.26-37.12L2400.26-37.12Q2403.52-37.12 2405.79-34.85L2405.79-34.85L2405.79-34.85Q2408.06-32.58 2408.06-29.38L2408.06-29.38L2408.06-7.74L2408.06-7.74Q2408.06-4.54 2405.79-2.27L2405.79-2.27L2405.79-2.27Q2403.52 0 2400.26 0L2400.26 0L2377.98 0L2377.98 0Q2374.78 0 2372.51-2.27L2372.51-2.27L2372.51-2.27Q2370.24-4.54 2370.24-7.74L2370.24-7.74L2370.24-29.38L2370.24-29.38Q2370.24-32.58 2372.51-34.85L2372.51-34.85L2372.51-34.85Q2374.78-37.12 2377.98-37.12ZM2400.26-31.87L2400.26-31.87L2377.98-31.87L2377.98-31.87Q2376.96-31.87 2376.22-31.14L2376.22-31.14L2376.22-31.14Q2375.49-30.40 2375.49-29.38L2375.49-29.38L2375.49-7.74L2375.49-7.74Q2375.49-6.72 2376.22-5.98L2376.22-5.98L2376.22-5.98Q2376.96-5.25 2377.98-5.25L2377.98-5.25L2400.26-5.25L2400.26-5.25Q2401.28-5.25 2402.02-5.98L2402.02-5.98L2402.02-5.98Q2402.75-6.72 2402.75-7.74L2402.75-7.74L2402.75-29.38L2402.75-29.38Q2402.75-30.40 2402.02-31.14L2402.02-31.14L2402.02-31.14Q2401.28-31.87 2400.26-31.87ZM2413.76-37.12L2443.84-37.12L2443.84-37.12Q2447.04-37.12 2449.31-34.85L2449.31-34.85L2449.31-34.85Q2451.58-32.58 2451.58-29.38L2451.58-29.38L2451.58 0L2446.34 0L2446.34-29.38L2446.34-29.38Q2446.34-30.40 2445.60-31.14L2445.60-31.14L2445.60-31.14Q2444.86-31.87 2443.84-31.87L2443.84-31.87L2421.57-31.87L2421.57-31.87Q2420.54-31.87 2419.78-31.14L2419.78-31.14L2419.78-31.14Q2419.01-30.40 2419.01-29.38L2419.01-29.38L2419.01 0L2413.76 0L2413.76-37.12ZM2495.74-29.38L2495.74-29.38L2495.74-28.86L2490.43-28.86L2490.43-29.38L2490.43-29.38Q2490.43-30.40 2489.70-31.14L2489.70-31.14L2489.70-31.14Q2488.96-31.87 2487.94-31.87L2487.94-31.87L2465.66-31.87L2465.66-31.87Q2464.64-31.87 2463.90-31.14L2463.90-31.14L2463.90-31.14Q2463.17-30.40 2463.17-29.38L2463.17-29.38L2463.17-23.68L2463.17-23.68Q2463.17-22.66 2463.90-21.92L2463.90-21.92L2463.90-21.92Q2464.64-21.18 2465.66-21.18L2465.66-21.18L2487.94-21.18L2487.94-21.18Q2491.20-21.18 2493.47-18.91L2493.47-18.91L2493.47-18.91Q2495.74-16.64 2495.74-13.44L2495.74-13.44L2495.74-7.74L2495.74-7.74Q2495.74-4.54 2493.47-2.27L2493.47-2.27L2493.47-2.27Q2491.20 0 2487.94 0L2487.94 0L2465.66 0L2465.66 0Q2462.46 0 2460.19-2.27L2460.19-2.27L2460.19-2.27Q2457.92-4.54 2457.92-7.74L2457.92-7.74L2457.92-8.26L2463.17-8.26L2463.17-7.74L2463.17-7.74Q2463.17-6.72 2463.90-5.98L2463.90-5.98L2463.90-5.98Q2464.64-5.25 2465.66-5.25L2465.66-5.25L2487.94-5.25L2487.94-5.25Q2488.96-5.25 2489.70-5.98L2489.70-5.98L2489.70-5.98Q2490.43-6.72 2490.43-7.74L2490.43-7.74L2490.43-13.44L2490.43-13.44Q2490.43-14.46 2489.70-15.20L2489.70-15.20L2489.70-15.20Q2488.96-15.94 2487.94-15.94L2487.94-15.94L2465.66-15.94L2465.66-15.94Q2462.46-15.94 2460.19-18.21L2460.19-18.21L2460.19-18.21Q2457.92-20.48 2457.92-23.68L2457.92-23.68L2457.92-29.38L2457.92-29.38Q2457.92-32.58 2460.19-34.85L2460.19-34.85L2460.19-34.85Q2462.46-37.12 2465.66-37.12L2465.66-37.12L2487.94-37.12L2487.94-37.12Q2491.20-37.12 2493.47-34.85L2493.47-34.85L2493.47-34.85Q2495.74-32.58 2495.74-29.38ZM2509.76-37.12L2509.76-37.12L2532.03-37.12L2532.03-37.12Q2535.30-37.12 2537.57-34.85L2537.57-34.85L2537.57-34.85Q2539.84-32.58 2539.84-29.38L2539.84-29.38L2539.84-7.74L2539.84-7.74Q2539.84-4.54 2537.57-2.27L2537.57-2.27L2537.57-2.27Q2535.30 0 2532.03 0L2532.03 0L2509.76 0L2509.76 0Q2506.56 0 2504.29-2.27L2504.29-2.27L2504.29-2.27Q2502.02-4.54 2502.02-7.74L2502.02-7.74L2502.02-29.38L2502.02-29.38Q2502.02-32.58 2504.29-34.85L2504.29-34.85L2504.29-34.85Q2506.56-37.12 2509.76-37.12ZM2532.03-31.87L2532.03-31.87L2509.76-31.87L2509.76-31.87Q2508.74-31.87 2508-31.14L2508-31.14L2508-31.14Q2507.26-30.40 2507.26-29.38L2507.26-29.38L2507.26-7.74L2507.26-7.74Q2507.26-6.72 2508-5.98L2508-5.98L2508-5.98Q2508.74-5.25 2509.76-5.25L2509.76-5.25L2532.03-5.25L2532.03-5.25Q2533.06-5.25 2533.79-5.98L2533.79-5.98L2533.79-5.98Q2534.53-6.72 2534.53-7.74L2534.53-7.74L2534.53-29.38L2534.53-29.38Q2534.53-30.40 2533.79-31.14L2533.79-31.14L2533.79-31.14Q2533.06-31.87 2532.03-31.87ZM2546.50-37.12L2595.52-37.12L2595.52-37.12Q2598.78-37.12 2601.02-34.85L2601.02-34.85L2601.02-34.85Q2603.26-32.58 2603.26-29.38L2603.26-29.38L2603.26 0L2598.08 0L2598.08-29.38L2598.08-29.38Q2598.08-30.40 2597.31-31.14L2597.31-31.14L2597.31-31.14Q2596.54-31.87 2595.52-31.87L2595.52-31.87L2580.10-31.87L2580.10-31.87Q2579.07-31.87 2578.34-31.14L2578.34-31.14L2578.34-31.14Q2577.60-30.40 2577.60-29.38L2577.60-29.38L2577.60 0L2572.29 0L2572.29-29.38L2572.29-29.38Q2572.29-30.40 2571.55-31.14L2571.55-31.14L2571.55-31.14Q2570.82-31.87 2569.79-31.87L2569.79-31.87L2554.30-31.87L2554.30-31.87Q2553.28-31.87 2552.54-31.14L2552.54-31.14L2552.54-31.14Q2551.81-30.40 2551.81-29.38L2551.81-29.38L2551.81 0L2546.50 0L2546.50-37.12ZM2608.26-37.12L2657.28-37.12L2657.28-37.12Q2660.54-37.12 2662.78-34.85L2662.78-34.85L2662.78-34.85Q2665.02-32.58 2665.02-29.38L2665.02-29.38L2665.02 0L2659.84 0L2659.84-29.38L2659.84-29.38Q2659.84-30.40 2659.07-31.14L2659.07-31.14L2659.07-31.14Q2658.30-31.87 2657.28-31.87L2657.28-31.87L2641.86-31.87L2641.86-31.87Q2640.83-31.87 2640.10-31.14L2640.10-31.14L2640.10-31.14Q2639.36-30.40 2639.36-29.38L2639.36-29.38L2639.36 0L2634.05 0L2634.05-29.38L2634.05-29.38Q2634.05-30.40 2633.31-31.14L2633.31-31.14L2633.31-31.14Q2632.58-31.87 2631.55-31.87L2631.55-31.87L2616.06-31.87L2616.06-31.87Q2615.04-31.87 2614.30-31.14L2614.30-31.14L2614.30-31.14Q2613.57-30.40 2613.57-29.38L2613.57-29.38L2613.57 0L2608.26 0L2608.26-37.12ZM2670.72-37.12L2700.74-37.12L2700.74-37.12Q2704.00-37.12 2706.27-34.85L2706.27-34.85L2706.27-34.85Q2708.54-32.58 2708.54-29.38L2708.54-29.38L2708.54 0L2678.46 0L2678.46 0Q2675.26 0 2672.99-2.27L2672.99-2.27L2672.99-2.27Q2670.72-4.54 2670.72-7.74L2670.72-7.74L2670.72-21.18L2703.23-21.18L2703.23-29.38L2703.23-29.38Q2703.23-30.40 2702.50-31.14L2702.50-31.14L2702.50-31.14Q2701.76-31.87 2700.74-31.87L2700.74-31.87L2670.72-31.87L2670.72-37.12ZM2678.46-5.25L2703.23-5.25L2703.23-15.94L2675.97-15.94L2675.97-7.74L2675.97-7.74Q2675.97-6.72 2676.70-5.98L2676.70-5.98L2676.70-5.98Q2677.44-5.25 2678.46-5.25L2678.46-5.25ZM2736.51-37.12L2736.51-31.87L2720.45-31.87L2720.45-7.74L2720.45-7.74Q2720.45-6.72 2721.18-5.98L2721.18-5.98L2721.18-5.98Q2721.92-5.25 2722.94-5.25L2722.94-5.25L2736.51-5.25L2736.51 0L2722.94 0L2722.94 0Q2719.68 0 2717.44-2.27L2717.44-2.27L2717.44-2.27Q2715.20-4.54 2715.20-7.74L2715.20-7.74L2715.20-49.28L2720.45-49.28L2720.45-37.12L2736.51-37.12ZM2749.06-37.12L2771.33-37.12L2771.33-37.12Q2774.59-37.12 2776.86-34.85L2776.86-34.85L2776.86-34.85Q2779.14-32.58 2779.14-29.38L2779.14-29.38L2779.14-15.94L2746.56-15.94L2746.56-7.74L2746.56-7.74Q2746.56-6.72 2747.30-5.98L2747.30-5.98L2747.30-5.98Q2748.03-5.25 2749.06-5.25L2749.06-5.25L2779.14-5.25L2779.14 0L2749.06 0L2749.06 0Q2745.86 0 2743.58-2.27L2743.58-2.27L2743.58-2.27Q2741.31-4.54 2741.31-7.74L2741.31-7.74L2741.31-29.38L2741.31-29.38Q2741.31-32.58 2743.58-34.85L2743.58-34.85L2743.58-34.85Q2745.86-37.12 2749.06-37.12L2749.06-37.12ZM2746.56-29.38L2746.56-21.18L2773.82-21.18L2773.82-29.38L2773.82-29.38Q2773.82-30.40 2773.09-31.14L2773.09-31.14L2773.09-31.14Q2772.35-31.87 2771.33-31.87L2771.33-31.87L2749.06-31.87L2749.06-31.87Q2748.03-31.87 2747.30-31.14L2747.30-31.14L2747.30-31.14Q2746.56-30.40 2746.56-29.38L2746.56-29.38ZM2818.30-7.74L2818.30-37.12L2823.55-37.12L2823.55-7.74L2823.55-7.74Q2823.55-4.54 2821.28-2.27L2821.28-2.27L2821.28-2.27Q2819.01 0 2815.74 0L2815.74 0L2793.47 0L2793.47 0Q2790.27 0 2788.00-2.27L2788.00-2.27L2788.00-2.27Q2785.73-4.54 2785.73-7.74L2785.73-7.74L2785.73-37.12L2790.98-37.12L2790.98-7.74L2790.98-7.74Q2790.98-6.72 2791.71-5.98L2791.71-5.98L2791.71-5.98Q2792.45-5.25 2793.47-5.25L2793.47-5.25L2815.74-5.25L2815.74-5.25Q2816.77-5.25 2817.54-5.98L2817.54-5.98L2817.54-5.98Q2818.30-6.72 2818.30-7.74L2818.30-7.74ZM2837.89-37.12L2837.89-37.12L2858.75-37.12L2858.75-31.87L2837.89-31.87L2837.89-31.87Q2836.86-31.87 2836.13-31.14L2836.13-31.14L2836.13-31.14Q2835.39-30.40 2835.39-29.38L2835.39-29.38L2835.39 0L2830.14 0L2830.14-29.38L2830.14-29.38Q2830.14-32.58 2832.42-34.85L2832.42-34.85L2832.42-34.85Q2834.69-37.12 2837.89-37.12ZM2900.48-29.38L2900.48-29.38L2900.48-28.86L2895.17-28.86L2895.17-29.38L2895.17-29.38Q2895.17-30.40 2894.43-31.14L2894.43-31.14L2894.43-31.14Q2893.70-31.87 2892.67-31.87L2892.67-31.87L2870.40-31.87L2870.40-31.87Q2869.38-31.87 2868.64-31.14L2868.64-31.14L2868.64-31.14Q2867.90-30.40 2867.90-29.38L2867.90-29.38L2867.90-23.68L2867.90-23.68Q2867.90-22.66 2868.64-21.92L2868.64-21.92L2868.64-21.92Q2869.38-21.18 2870.40-21.18L2870.40-21.18L2892.67-21.18L2892.67-21.18Q2895.94-21.18 2898.21-18.91L2898.21-18.91L2898.21-18.91Q2900.48-16.64 2900.48-13.44L2900.48-13.44L2900.48-7.74L2900.48-7.74Q2900.48-4.54 2898.21-2.27L2898.21-2.27L2898.21-2.27Q2895.94 0 2892.67 0L2892.67 0L2870.40 0L2870.40 0Q2867.20 0 2864.93-2.27L2864.93-2.27L2864.93-2.27Q2862.66-4.54 2862.66-7.74L2862.66-7.74L2862.66-8.26L2867.90-8.26L2867.90-7.74L2867.90-7.74Q2867.90-6.72 2868.64-5.98L2868.64-5.98L2868.64-5.98Q2869.38-5.25 2870.40-5.25L2870.40-5.25L2892.67-5.25L2892.67-5.25Q2893.70-5.25 2894.43-5.98L2894.43-5.98L2894.43-5.98Q2895.17-6.72 2895.17-7.74L2895.17-7.74L2895.17-13.44L2895.17-13.44Q2895.17-14.46 2894.43-15.20L2894.43-15.20L2894.43-15.20Q2893.70-15.94 2892.67-15.94L2892.67-15.94L2870.40-15.94L2870.40-15.94Q2867.20-15.94 2864.93-18.21L2864.93-18.21L2864.93-18.21Q2862.66-20.48 2862.66-23.68L2862.66-23.68L2862.66-29.38L2862.66-29.38Q2862.66-32.58 2864.93-34.85L2864.93-34.85L2864.93-34.85Q2867.20-37.12 2870.40-37.12L2870.40-37.12L2892.67-37.12L2892.67-37.12Q2895.94-37.12 2898.21-34.85L2898.21-34.85L2898.21-34.85Q2900.48-32.58 2900.48-29.38Z" fill="#357f1e"></path></g></g><style>text {
  font-size: 64px;
  font-family: Arial Black;
  dominant-baseline: central;
  text-anchor: middle;
}</style></svg>