<svg width="3814.7px" height="129.2px" xmlns="http://www.w3.org/2000/svg" viewBox="-1657.35 10.400000000000006 3814.7 129.2" style="background: rgba(0, 0, 0, 0);" preserveAspectRatio="xMidYMid"><defs><filter id="editing-extrusion" x="-100%" y="-100%" width="300%" height="300%"><feFlood result="color1" flood-color="#000000"></feFlood><feConvolveMatrix order="2,2" divisor="1" kernelMatrix="1 0 0 1" in="SourceAlpha" result="extrude"></feConvolveMatrix><feComposite in="color1" in2="extrude" result="comp-extrude" operator="in"></feComposite><feOffset dx="1" dy="1" in="comp-extrude" result="offset-extrude"></feOffset><feMerge><feMergeNode in="offset-extrude"></feMergeNode><feMergeNode in="SourceGraphic"></feMergeNode></feMerge></filter></defs><g filter="url(#editing-extrusion)"><g transform="translate(-1145.454755783081, 107.00000381469727)"><path d="M3.58 0L3.58-46.02L41.98-46.02L41.98-46.02Q45.18-46.02 47.42-43.78L47.42-43.78L47.42-43.78Q49.66-41.54 49.66-38.34L49.66-38.34L49.66-24.83L49.66-24.83Q49.66-21.63 47.42-19.39L47.42-19.39L47.42-19.39Q45.18-17.15 41.98-17.15L41.98-17.15L11.26-17.15L11.26-17.15Q10.69-17.15 8.77-17.41L8.77-17.41L8.77 0L3.58 0ZM44.48-24.83L44.48-24.83L44.48-38.34L44.48-38.34Q44.48-39.36 43.74-40.10L43.74-40.10L43.74-40.10Q43.01-40.83 41.98-40.83L41.98-40.83L11.26-40.83L11.26-40.83Q10.24-40.83 9.50-40.10L9.50-40.10L9.50-40.10Q8.77-39.36 8.77-38.34L8.77-38.34L8.77-24.83L8.77-24.83Q8.77-23.81 9.50-23.10L9.50-23.10L9.50-23.10Q10.24-22.40 11.26-22.40L11.26-22.40L41.98-22.40L41.98-22.40Q43.01-22.40 43.74-23.10L43.74-23.10L43.74-23.10Q44.48-23.81 44.48-24.83ZM53.95-7.74L53.95-49.28L59.20-49.28L59.20-7.74L59.20-7.74Q59.20-6.72 59.94-5.98L59.94-5.98L59.94-5.98Q60.67-5.25 61.70-5.25L61.70-5.25L67.97-5.25L67.97 0L61.70 0L61.70 0Q58.50 0 56.22-2.27L56.22-2.27L56.22-2.27Q53.95-4.54 53.95-7.74L53.95-7.74ZM72.64-37.12L102.66-37.12L102.66-37.12Q105.92-37.12 108.19-34.85L108.19-34.85L108.19-34.85Q110.46-32.58 110.46-29.38L110.46-29.38L110.46 0L80.38 0L80.38 0Q77.18 0 74.91-2.27L74.91-2.27L74.91-2.27Q72.64-4.54 72.64-7.74L72.64-7.74L72.64-21.18L105.15-21.18L105.15-29.38L105.15-29.38Q105.15-30.40 104.42-31.14L104.42-31.14L104.42-31.14Q103.68-31.87 102.66-31.87L102.66-31.87L72.64-31.87L72.64-37.12ZM80.38-5.25L105.15-5.25L105.15-15.94L77.89-15.94L77.89-7.74L77.89-7.74Q77.89-6.72 78.62-5.98L78.62-5.98L78.62-5.98Q79.36-5.25 80.38-5.25L80.38-5.25ZM138.43-37.12L138.43-31.87L122.37-31.87L122.37-7.74L122.37-7.74Q122.37-6.72 123.10-5.98L123.10-5.98L123.10-5.98Q123.84-5.25 124.86-5.25L124.86-5.25L138.43-5.25L138.43 0L124.86 0L124.86 0Q121.60 0 119.36-2.27L119.36-2.27L119.36-2.27Q117.12-4.54 117.12-7.74L117.12-7.74L117.12-49.28L122.37-49.28L122.37-37.12L138.43-37.12ZM150.98-37.12L173.25-37.12L173.25-37.12Q176.51-37.12 178.78-34.85L178.78-34.85L178.78-34.85Q181.06-32.58 181.06-29.38L181.06-29.38L181.06-15.94L148.48-15.94L148.48-7.74L148.48-7.74Q148.48-6.72 149.22-5.98L149.22-5.98L149.22-5.98Q149.95-5.25 150.98-5.25L150.98-5.25L181.06-5.25L181.06 0L150.98 0L150.98 0Q147.78 0 145.50-2.27L145.50-2.27L145.50-2.27Q143.23-4.54 143.23-7.74L143.23-7.74L143.23-29.38L143.23-29.38Q143.23-32.58 145.50-34.85L145.50-34.85L145.50-34.85Q147.78-37.12 150.98-37.12L150.98-37.12ZM148.48-29.38L148.48-21.18L175.74-21.18L175.74-29.38L175.74-29.38Q175.74-30.40 175.01-31.14L175.01-31.14L175.01-31.14Q174.27-31.87 173.25-31.87L173.25-31.87L150.98-31.87L150.98-31.87Q149.95-31.87 149.22-31.14L149.22-31.14L149.22-31.14Q148.48-30.40 148.48-29.38L148.48-29.38ZM208.96-44.03L195.39-44.03L195.39-44.03Q194.37-44.03 193.63-43.30L193.63-43.30L193.63-43.30Q192.90-42.56 192.90-41.54L192.90-41.54L192.90-37.12L208.96-37.12L208.96-31.87L192.90-31.87L192.90 0L187.65 0L187.65-41.54L187.65-41.54Q187.65-44.80 189.89-47.04L189.89-47.04L189.89-47.04Q192.13-49.28 195.39-49.28L195.39-49.28L208.96-49.28L208.96-44.03ZM221.31-37.12L221.31-37.12L243.58-37.12L243.58-37.12Q246.85-37.12 249.12-34.85L249.12-34.85L249.12-34.85Q251.39-32.58 251.39-29.38L251.39-29.38L251.39-7.74L251.39-7.74Q251.39-4.54 249.12-2.27L249.12-2.27L249.12-2.27Q246.85 0 243.58 0L243.58 0L221.31 0L221.31 0Q218.11 0 215.84-2.27L215.84-2.27L215.84-2.27Q213.57-4.54 213.57-7.74L213.57-7.74L213.57-29.38L213.57-29.38Q213.57-32.58 215.84-34.85L215.84-34.85L215.84-34.85Q218.11-37.12 221.31-37.12ZM243.58-31.87L243.58-31.87L221.31-31.87L221.31-31.87Q220.29-31.87 219.55-31.14L219.55-31.14L219.55-31.14Q218.82-30.40 218.82-29.38L218.82-29.38L218.82-7.74L218.82-7.74Q218.82-6.72 219.55-5.98L219.55-5.98L219.55-5.98Q220.29-5.25 221.31-5.25L221.31-5.25L243.58-5.25L243.58-5.25Q244.61-5.25 245.34-5.98L245.34-5.98L245.34-5.98Q246.08-6.72 246.08-7.74L246.08-7.74L246.08-29.38L246.08-29.38Q246.08-30.40 245.34-31.14L245.34-31.14L245.34-31.14Q244.61-31.87 243.58-31.87ZM265.02-37.12L265.02-37.12L285.89-37.12L285.89-31.87L265.02-31.87L265.02-31.87Q264.00-31.87 263.26-31.14L263.26-31.14L263.26-31.14Q262.53-30.40 262.53-29.38L262.53-29.38L262.53 0L257.28 0L257.28-29.38L257.28-29.38Q257.28-32.58 259.55-34.85L259.55-34.85L259.55-34.85Q261.82-37.12 265.02-37.12ZM290.18-37.12L339.20-37.12L339.20-37.12Q342.46-37.12 344.70-34.85L344.70-34.85L344.70-34.85Q346.94-32.58 346.94-29.38L346.94-29.38L346.94 0L341.76 0L341.76-29.38L341.76-29.38Q341.76-30.40 340.99-31.14L340.99-31.14L340.99-31.14Q340.22-31.87 339.20-31.87L339.20-31.87L323.78-31.87L323.78-31.87Q322.75-31.87 322.02-31.14L322.02-31.14L322.02-31.14Q321.28-30.40 321.28-29.38L321.28-29.38L321.28 0L315.97 0L315.97-29.38L315.97-29.38Q315.97-30.40 315.23-31.14L315.23-31.14L315.23-31.14Q314.50-31.87 313.47-31.87L313.47-31.87L297.98-31.87L297.98-31.87Q296.96-31.87 296.22-31.14L296.22-31.14L296.22-31.14Q295.49-30.40 295.49-29.38L295.49-29.38L295.49 0L290.18 0L290.18-37.12ZM360.32-37.12L382.59-37.12L382.59-37.12Q385.86-37.12 388.13-34.85L388.13-34.85L388.13-34.85Q390.40-32.58 390.40-29.38L390.40-29.38L390.40-15.94L357.82-15.94L357.82-7.74L357.82-7.74Q357.82-6.72 358.56-5.98L358.56-5.98L358.56-5.98Q359.30-5.25 360.32-5.25L360.32-5.25L390.40-5.25L390.40 0L360.32 0L360.32 0Q357.12 0 354.85-2.27L354.85-2.27L354.85-2.27Q352.58-4.54 352.58-7.74L352.58-7.74L352.58-29.38L352.58-29.38Q352.58-32.58 354.85-34.85L354.85-34.85L354.85-34.85Q357.12-37.12 360.32-37.12L360.32-37.12ZM357.82-29.38L357.82-21.18L385.09-21.18L385.09-29.38L385.09-29.38Q385.09-30.40 384.35-31.14L384.35-31.14L384.35-31.14Q383.62-31.87 382.59-31.87L382.59-31.87L360.32-31.87L360.32-31.87Q359.30-31.87 358.56-31.14L358.56-31.14L358.56-31.14Q357.82-30.40 357.82-29.38L357.82-29.38ZM435.71-44.03L422.14-44.03L422.14-44.03Q421.12-44.03 420.38-43.30L420.38-43.30L420.38-43.30Q419.65-42.56 419.65-41.54L419.65-41.54L419.65-37.12L435.71-37.12L435.71-31.87L419.65-31.87L419.65 0L414.40 0L414.40-41.54L414.40-41.54Q414.40-44.80 416.64-47.04L416.64-47.04L416.64-47.04Q418.88-49.28 422.14-49.28L422.14-49.28L435.71-49.28L435.71-44.03ZM445.63 0L440.38 0L440.38-37.12L445.63-37.12L445.63 0ZM440.38-44.03L440.38-49.28L445.63-49.28L445.63-44.03L440.38-44.03ZM460.42-5.25L460.42-5.25L490.50-5.25L490.50 0L460.42 0L460.42 0Q457.22 0 454.94-2.27L454.94-2.27L454.94-2.27Q452.67-4.54 452.67-7.74L452.67-7.74L452.67-29.38L452.67-29.38Q452.67-32.58 454.94-34.85L454.94-34.85L454.94-34.85Q457.22-37.12 460.42-37.12L460.42-37.12L490.37-37.12L490.37-31.87L460.42-31.87L460.42-31.87Q459.39-31.87 458.66-31.14L458.66-31.14L458.66-31.14Q457.92-30.40 457.92-29.38L457.92-29.38L457.92-7.74L457.92-7.74Q457.92-6.72 458.66-5.98L458.66-5.98L458.66-5.98Q459.39-5.25 460.42-5.25ZM516.99-37.12L516.99-31.87L500.93-31.87L500.93-7.74L500.93-7.74Q500.93-6.72 501.66-5.98L501.66-5.98L501.66-5.98Q502.40-5.25 503.42-5.25L503.42-5.25L516.99-5.25L516.99 0L503.42 0L503.42 0Q500.16 0 497.92-2.27L497.92-2.27L497.92-2.27Q495.68-4.54 495.68-7.74L495.68-7.74L495.68-49.28L500.93-49.28L500.93-37.12L516.99-37.12ZM527.42 0L522.18 0L522.18-37.12L527.42-37.12L527.42 0ZM522.18-44.03L522.18-49.28L527.42-49.28L527.42-44.03L522.18-44.03ZM556.74-5.12L574.14-37.12L580.29-37.12L559.74 0L553.66 0L533.18-37.12L539.33-37.12L556.74-5.12ZM591.49-37.12L613.76-37.12L613.76-37.12Q617.02-37.12 619.30-34.85L619.30-34.85L619.30-34.85Q621.57-32.58 621.57-29.38L621.57-29.38L621.57-15.94L588.99-15.94L588.99-7.74L588.99-7.74Q588.99-6.72 589.73-5.98L589.73-5.98L589.73-5.98Q590.46-5.25 591.49-5.25L591.49-5.25L621.57-5.25L621.57 0L591.49 0L591.49 0Q588.29 0 586.02-2.27L586.02-2.27L586.02-2.27Q583.74-4.54 583.74-7.74L583.74-7.74L583.74-29.38L583.74-29.38Q583.74-32.58 586.02-34.85L586.02-34.85L586.02-34.85Q588.29-37.12 591.49-37.12L591.49-37.12ZM588.99-29.38L588.99-21.18L616.26-21.18L616.26-29.38L616.26-29.38Q616.26-30.40 615.52-31.14L615.52-31.14L615.52-31.14Q614.78-31.87 613.76-31.87L613.76-31.87L591.49-31.87L591.49-31.87Q590.46-31.87 589.73-31.14L589.73-31.14L589.73-31.14Q588.99-30.40 588.99-29.38L588.99-29.38ZM676.22-37.12L676.22-49.28L681.47-49.28L681.47 0L651.46 0L651.46 0Q648.19 0 645.92-2.27L645.92-2.27L645.92-2.27Q643.65-4.54 643.65-7.74L643.65-7.74L643.65-29.38L643.65-29.38Q643.65-32.58 645.92-34.85L645.92-34.85L645.92-34.85Q648.19-37.12 651.46-37.12L651.46-37.12L676.22-37.12ZM651.46-5.25L651.46-5.25L673.73-5.25L673.73-5.25Q674.75-5.25 675.49-5.98L675.49-5.98L675.49-5.98Q676.22-6.72 676.22-7.74L676.22-7.74L676.22-29.38L676.22-29.38Q676.22-30.40 675.49-31.14L675.49-31.14L675.49-31.14Q674.75-31.87 673.73-31.87L673.73-31.87L651.46-31.87L651.46-31.87Q650.43-31.87 649.70-31.14L649.70-31.14L649.70-31.14Q648.96-30.40 648.96-29.38L648.96-29.38L648.96-7.74L648.96-7.74Q648.96-6.72 649.70-5.98L649.70-5.98L649.70-5.98Q650.43-5.25 651.46-5.25ZM694.59-37.12L716.86-37.12L716.86-37.12Q720.13-37.12 722.40-34.85L722.40-34.85L722.40-34.85Q724.67-32.58 724.67-29.38L724.67-29.38L724.67-15.94L692.10-15.94L692.10-7.74L692.10-7.74Q692.10-6.72 692.83-5.98L692.83-5.98L692.83-5.98Q693.57-5.25 694.59-5.25L694.59-5.25L724.67-5.25L724.67 0L694.59 0L694.59 0Q691.39 0 689.12-2.27L689.12-2.27L689.12-2.27Q686.85-4.54 686.85-7.74L686.85-7.74L686.85-29.38L686.85-29.38Q686.85-32.58 689.12-34.85L689.12-34.85L689.12-34.85Q691.39-37.12 694.59-37.12L694.59-37.12ZM692.10-29.38L692.10-21.18L719.36-21.18L719.36-29.38L719.36-29.38Q719.36-30.40 718.62-31.14L718.62-31.14L718.62-31.14Q717.89-31.87 716.86-31.87L716.86-31.87L694.59-31.87L694.59-31.87Q693.57-31.87 692.83-31.14L692.83-31.14L692.83-31.14Q692.10-30.40 692.10-29.38L692.10-29.38ZM748.74-37.12L797.76-37.12L797.76-37.12Q801.02-37.12 803.26-34.85L803.26-34.85L803.26-34.85Q805.50-32.58 805.50-29.38L805.50-29.38L805.50 0L800.32 0L800.32-29.38L800.32-29.38Q800.32-30.40 799.55-31.14L799.55-31.14L799.55-31.14Q798.78-31.87 797.76-31.87L797.76-31.87L782.34-31.87L782.34-31.87Q781.31-31.87 780.58-31.14L780.58-31.14L780.58-31.14Q779.84-30.40 779.84-29.38L779.84-29.38L779.84 0L774.53 0L774.53-29.38L774.53-29.38Q774.53-30.40 773.79-31.14L773.79-31.14L773.79-31.14Q773.06-31.87 772.03-31.87L772.03-31.87L756.54-31.87L756.54-31.87Q755.52-31.87 754.78-31.14L754.78-31.14L754.78-31.14Q754.05-30.40 754.05-29.38L754.05-29.38L754.05 0L748.74 0L748.74-37.12ZM816.45 0L811.20 0L811.20-37.12L816.45-37.12L816.45 0ZM811.20-44.03L811.20-49.28L816.45-49.28L816.45-44.03L811.20-44.03ZM862.08-29.38L862.08-29.38L862.08-28.86L856.77-28.86L856.77-29.38L856.77-29.38Q856.77-30.40 856.03-31.14L856.03-31.14L856.03-31.14Q855.30-31.87 854.27-31.87L854.27-31.87L832.00-31.87L832.00-31.87Q830.98-31.87 830.24-31.14L830.24-31.14L830.24-31.14Q829.50-30.40 829.50-29.38L829.50-29.38L829.50-23.68L829.50-23.68Q829.50-22.66 830.24-21.92L830.24-21.92L830.24-21.92Q830.98-21.18 832.00-21.18L832.00-21.18L854.27-21.18L854.27-21.18Q857.54-21.18 859.81-18.91L859.81-18.91L859.81-18.91Q862.08-16.64 862.08-13.44L862.08-13.44L862.08-7.74L862.08-7.74Q862.08-4.54 859.81-2.27L859.81-2.27L859.81-2.27Q857.54 0 854.27 0L854.27 0L832.00 0L832.00 0Q828.80 0 826.53-2.27L826.53-2.27L826.53-2.27Q824.26-4.54 824.26-7.74L824.26-7.74L824.26-8.26L829.50-8.26L829.50-7.74L829.50-7.74Q829.50-6.72 830.24-5.98L830.24-5.98L830.24-5.98Q830.98-5.25 832.00-5.25L832.00-5.25L854.27-5.25L854.27-5.25Q855.30-5.25 856.03-5.98L856.03-5.98L856.03-5.98Q856.77-6.72 856.77-7.74L856.77-7.74L856.77-13.44L856.77-13.44Q856.77-14.46 856.03-15.20L856.03-15.20L856.03-15.20Q855.30-15.94 854.27-15.94L854.27-15.94L832.00-15.94L832.00-15.94Q828.80-15.94 826.53-18.21L826.53-18.21L826.53-18.21Q824.26-20.48 824.26-23.68L824.26-23.68L824.26-29.38L824.26-29.38Q824.26-32.58 826.53-34.85L826.53-34.85L826.53-34.85Q828.80-37.12 832.00-37.12L832.00-37.12L854.27-37.12L854.27-37.12Q857.54-37.12 859.81-34.85L859.81-34.85L859.81-34.85Q862.08-32.58 862.08-29.38ZM875.14-37.12L897.41-37.12L897.41-37.12Q900.67-37.12 902.94-34.85L902.94-34.85L902.94-34.85Q905.22-32.58 905.22-29.38L905.22-29.38L905.22-15.94L872.64-15.94L872.64-7.74L872.64-7.74Q872.64-6.72 873.38-5.98L873.38-5.98L873.38-5.98Q874.11-5.25 875.14-5.25L875.14-5.25L905.22-5.25L905.22 0L875.14 0L875.14 0Q871.94 0 869.66-2.27L869.66-2.27L869.66-2.27Q867.39-4.54 867.39-7.74L867.39-7.74L867.39-29.38L867.39-29.38Q867.39-32.58 869.66-34.85L869.66-34.85L869.66-34.85Q871.94-37.12 875.14-37.12L875.14-37.12ZM872.64-29.38L872.64-21.18L899.90-21.18L899.90-29.38L899.90-29.38Q899.90-30.40 899.17-31.14L899.17-31.14L899.17-31.14Q898.43-31.87 897.41-31.87L897.41-31.87L875.14-31.87L875.14-31.87Q874.11-31.87 873.38-31.14L873.38-31.14L873.38-31.14Q872.64-30.40 872.64-29.38L872.64-29.38ZM936.83-37.12L959.10-37.12L959.10-37.12Q962.37-37.12 964.64-34.85L964.64-34.85L964.64-34.85Q966.91-32.58 966.91-29.38L966.91-29.38L966.91-15.94L934.34-15.94L934.34-7.74L934.34-7.74Q934.34-6.72 935.07-5.98L935.07-5.98L935.07-5.98Q935.81-5.25 936.83-5.25L936.83-5.25L966.91-5.25L966.91 0L936.83 0L936.83 0Q933.63 0 931.36-2.27L931.36-2.27L931.36-2.27Q929.09-4.54 929.09-7.74L929.09-7.74L929.09-29.38L929.09-29.38Q929.09-32.58 931.36-34.85L931.36-34.85L931.36-34.85Q933.63-37.12 936.83-37.12L936.83-37.12ZM934.34-29.38L934.34-21.18L961.60-21.18L961.60-29.38L961.60-29.38Q961.60-30.40 960.86-31.14L960.86-31.14L960.86-31.14Q960.13-31.87 959.10-31.87L959.10-31.87L936.83-31.87L936.83-31.87Q935.81-31.87 935.07-31.14L935.07-31.14L935.07-31.14Q934.34-30.40 934.34-29.38L934.34-29.38ZM973.57-37.12L1003.65-37.12L1003.65-37.12Q1006.85-37.12 1009.12-34.85L1009.12-34.85L1009.12-34.85Q1011.39-32.58 1011.39-29.38L1011.39-29.38L1011.39 0L1006.14 0L1006.14-29.38L1006.14-29.38Q1006.14-30.40 1005.41-31.14L1005.41-31.14L1005.41-31.14Q1004.67-31.87 1003.65-31.87L1003.65-31.87L981.38-31.87L981.38-31.87Q980.35-31.87 979.58-31.14L979.58-31.14L979.58-31.14Q978.82-30.40 978.82-29.38L978.82-29.38L978.82 0L973.57 0L973.57-37.12ZM1043.14-37.12L1043.14-37.12L1064-37.12L1064-31.87L1043.14-31.87L1043.14-31.87Q1042.11-31.87 1041.38-31.14L1041.38-31.14L1041.38-31.14Q1040.64-30.40 1040.64-29.38L1040.64-29.38L1040.64 0L1035.39 0L1035.39-29.38L1035.39-29.38Q1035.39-32.58 1037.66-34.85L1037.66-34.85L1037.66-34.85Q1039.94-37.12 1043.14-37.12ZM1075.84-37.12L1098.11-37.12L1098.11-37.12Q1101.38-37.12 1103.65-34.85L1103.65-34.85L1103.65-34.85Q1105.92-32.58 1105.92-29.38L1105.92-29.38L1105.92-15.94L1073.34-15.94L1073.34-7.74L1073.34-7.74Q1073.34-6.72 1074.08-5.98L1074.08-5.98L1074.08-5.98Q1074.82-5.25 1075.84-5.25L1075.84-5.25L1105.92-5.25L1105.92 0L1075.84 0L1075.84 0Q1072.64 0 1070.37-2.27L1070.37-2.27L1070.37-2.27Q1068.10-4.54 1068.10-7.74L1068.10-7.74L1068.10-29.38L1068.10-29.38Q1068.10-32.58 1070.37-34.85L1070.37-34.85L1070.37-34.85Q1072.64-37.12 1075.84-37.12L1075.84-37.12ZM1073.34-29.38L1073.34-21.18L1100.61-21.18L1100.61-29.38L1100.61-29.38Q1100.61-30.40 1099.87-31.14L1099.87-31.14L1099.87-31.14Q1099.14-31.87 1098.11-31.87L1098.11-31.87L1075.84-31.87L1075.84-31.87Q1074.82-31.87 1074.08-31.14L1074.08-31.14L1074.08-31.14Q1073.34-30.40 1073.34-29.38L1073.34-29.38ZM1111.17-7.74L1111.17-49.28L1116.42-49.28L1116.42-7.74L1116.42-7.74Q1116.42-6.72 1117.15-5.98L1117.15-5.98L1117.15-5.98Q1117.89-5.25 1118.91-5.25L1118.91-5.25L1125.18-5.25L1125.18 0L1118.91 0L1118.91 0Q1115.71 0 1113.44-2.27L1113.44-2.27L1113.44-2.27Q1111.17-4.54 1111.17-7.74L1111.17-7.74ZM1129.86-37.12L1159.87-37.12L1159.87-37.12Q1163.14-37.12 1165.41-34.85L1165.41-34.85L1165.41-34.85Q1167.68-32.58 1167.68-29.38L1167.68-29.38L1167.68 0L1137.60 0L1137.60 0Q1134.40 0 1132.13-2.27L1132.13-2.27L1132.13-2.27Q1129.86-4.54 1129.86-7.74L1129.86-7.74L1129.86-21.18L1162.37-21.18L1162.37-29.38L1162.37-29.38Q1162.37-30.40 1161.63-31.14L1161.63-31.14L1161.63-31.14Q1160.90-31.87 1159.87-31.87L1159.87-31.87L1129.86-31.87L1129.86-37.12ZM1137.60-5.25L1162.37-5.25L1162.37-15.94L1135.10-15.94L1135.10-7.74L1135.10-7.74Q1135.10-6.72 1135.84-5.98L1135.84-5.98L1135.84-5.98Q1136.58-5.25 1137.60-5.25L1137.60-5.25ZM1195.65-37.12L1195.65-31.87L1179.58-31.87L1179.58-7.74L1179.58-7.74Q1179.58-6.72 1180.32-5.98L1180.32-5.98L1180.32-5.98Q1181.06-5.25 1182.08-5.25L1182.08-5.25L1195.65-5.25L1195.65 0L1182.08 0L1182.08 0Q1178.82 0 1176.58-2.27L1176.58-2.27L1176.58-2.27Q1174.34-4.54 1174.34-7.74L1174.34-7.74L1174.34-49.28L1179.58-49.28L1179.58-37.12L1195.65-37.12ZM1206.08 0L1200.83 0L1200.83-37.12L1206.08-37.12L1206.08 0ZM1200.83-44.03L1200.83-49.28L1206.08-49.28L1206.08-44.03L1200.83-44.03ZM1221.82-37.12L1221.82-37.12L1244.10-37.12L1244.10-37.12Q1247.36-37.12 1249.63-34.85L1249.63-34.85L1249.63-34.85Q1251.90-32.58 1251.90-29.38L1251.90-29.38L1251.90-7.74L1251.90-7.74Q1251.90-4.54 1249.63-2.27L1249.63-2.27L1249.63-2.27Q1247.36 0 1244.10 0L1244.10 0L1221.82 0L1221.82 0Q1218.62 0 1216.35-2.27L1216.35-2.27L1216.35-2.27Q1214.08-4.54 1214.08-7.74L1214.08-7.74L1214.08-29.38L1214.08-29.38Q1214.08-32.58 1216.35-34.85L1216.35-34.85L1216.35-34.85Q1218.62-37.12 1221.82-37.12ZM1244.10-31.87L1244.10-31.87L1221.82-31.87L1221.82-31.87Q1220.80-31.87 1220.06-31.14L1220.06-31.14L1220.06-31.14Q1219.33-30.40 1219.33-29.38L1219.33-29.38L1219.33-7.74L1219.33-7.74Q1219.33-6.72 1220.06-5.98L1220.06-5.98L1220.06-5.98Q1220.80-5.25 1221.82-5.25L1221.82-5.25L1244.10-5.25L1244.10-5.25Q1245.12-5.25 1245.86-5.98L1245.86-5.98L1245.86-5.98Q1246.59-6.72 1246.59-7.74L1246.59-7.74L1246.59-29.38L1246.59-29.38Q1246.59-30.40 1245.86-31.14L1245.86-31.14L1245.86-31.14Q1245.12-31.87 1244.10-31.87ZM1257.60-37.12L1287.68-37.12L1287.68-37.12Q1290.88-37.12 1293.15-34.85L1293.15-34.85L1293.15-34.85Q1295.42-32.58 1295.42-29.38L1295.42-29.38L1295.42 0L1290.18 0L1290.18-29.38L1290.18-29.38Q1290.18-30.40 1289.44-31.14L1289.44-31.14L1289.44-31.14Q1288.70-31.87 1287.68-31.87L1287.68-31.87L1265.41-31.87L1265.41-31.87Q1264.38-31.87 1263.62-31.14L1263.62-31.14L1263.62-31.14Q1262.85-30.40 1262.85-29.38L1262.85-29.38L1262.85 0L1257.60 0L1257.60-37.12ZM1350.14-37.12L1350.14-49.28L1355.39-49.28L1355.39 0L1325.38 0L1325.38 0Q1322.11 0 1319.84-2.27L1319.84-2.27L1319.84-2.27Q1317.57-4.54 1317.57-7.74L1317.57-7.74L1317.57-29.38L1317.57-29.38Q1317.57-32.58 1319.84-34.85L1319.84-34.85L1319.84-34.85Q1322.11-37.12 1325.38-37.12L1325.38-37.12L1350.14-37.12ZM1325.38-5.25L1325.38-5.25L1347.65-5.25L1347.65-5.25Q1348.67-5.25 1349.41-5.98L1349.41-5.98L1349.41-5.98Q1350.14-6.72 1350.14-7.74L1350.14-7.74L1350.14-29.38L1350.14-29.38Q1350.14-30.40 1349.41-31.14L1349.41-31.14L1349.41-31.14Q1348.67-31.87 1347.65-31.87L1347.65-31.87L1325.38-31.87L1325.38-31.87Q1324.35-31.87 1323.62-31.14L1323.62-31.14L1323.62-31.14Q1322.88-30.40 1322.88-29.38L1322.88-29.38L1322.88-7.74L1322.88-7.74Q1322.88-6.72 1323.62-5.98L1323.62-5.98L1323.62-5.98Q1324.35-5.25 1325.38-5.25ZM1368.51-37.12L1390.78-37.12L1390.78-37.12Q1394.05-37.12 1396.32-34.85L1396.32-34.85L1396.32-34.85Q1398.59-32.58 1398.59-29.38L1398.59-29.38L1398.59-15.94L1366.02-15.94L1366.02-7.74L1366.02-7.74Q1366.02-6.72 1366.75-5.98L1366.75-5.98L1366.75-5.98Q1367.49-5.25 1368.51-5.25L1368.51-5.25L1398.59-5.25L1398.59 0L1368.51 0L1368.51 0Q1365.31 0 1363.04-2.27L1363.04-2.27L1363.04-2.27Q1360.77-4.54 1360.77-7.74L1360.77-7.74L1360.77-29.38L1360.77-29.38Q1360.77-32.58 1363.04-34.85L1363.04-34.85L1363.04-34.85Q1365.31-37.12 1368.51-37.12L1368.51-37.12ZM1366.02-29.38L1366.02-21.18L1393.28-21.18L1393.28-29.38L1393.28-29.38Q1393.28-30.40 1392.54-31.14L1392.54-31.14L1392.54-31.14Q1391.81-31.87 1390.78-31.87L1390.78-31.87L1368.51-31.87L1368.51-31.87Q1367.49-31.87 1366.75-31.14L1366.75-31.14L1366.75-31.14Q1366.02-30.40 1366.02-29.38L1366.02-29.38ZM1422.66-37.12L1452.74-37.12L1452.74-37.12Q1455.94-37.12 1458.21-34.85L1458.21-34.85L1458.21-34.85Q1460.48-32.58 1460.48-29.38L1460.48-29.38L1460.48-7.74L1460.48-7.74Q1460.48-4.54 1458.21-2.27L1458.21-2.27L1458.21-2.27Q1455.94 0 1452.74 0L1452.74 0L1427.90 0L1427.90 14.72L1422.66 14.72L1422.66-37.12ZM1455.23-7.74L1455.23-7.74L1455.23-29.38L1455.23-29.38Q1455.23-30.40 1454.50-31.14L1454.50-31.14L1454.50-31.14Q1453.76-31.87 1452.74-31.87L1452.74-31.87L1430.46-31.87L1430.46-31.87Q1429.44-31.87 1428.67-31.14L1428.67-31.14L1428.67-31.14Q1427.90-30.40 1427.90-29.38L1427.90-29.38L1427.90-7.74L1427.90-7.74Q1427.90-6.72 1428.67-5.98L1428.67-5.98L1428.67-5.98Q1429.44-5.25 1430.46-5.25L1430.46-5.25L1452.74-5.25L1452.74-5.25Q1453.76-5.25 1454.50-5.98L1454.50-5.98L1454.50-5.98Q1455.23-6.72 1455.23-7.74ZM1472.77-37.12L1472.77-37.12L1493.63-37.12L1493.63-31.87L1472.77-31.87L1472.77-31.87Q1471.74-31.87 1471.01-31.14L1471.01-31.14L1471.01-31.14Q1470.27-30.40 1470.27-29.38L1470.27-29.38L1470.27 0L1465.02 0L1465.02-29.38L1465.02-29.38Q1465.02-32.58 1467.30-34.85L1467.30-34.85L1467.30-34.85Q1469.57-37.12 1472.77-37.12ZM1505.15-37.12L1505.15-37.12L1527.42-37.12L1527.42-37.12Q1530.69-37.12 1532.96-34.85L1532.96-34.85L1532.96-34.85Q1535.23-32.58 1535.23-29.38L1535.23-29.38L1535.23-7.74L1535.23-7.74Q1535.23-4.54 1532.96-2.27L1532.96-2.27L1532.96-2.27Q1530.69 0 1527.42 0L1527.42 0L1505.15 0L1505.15 0Q1501.95 0 1499.68-2.27L1499.68-2.27L1499.68-2.27Q1497.41-4.54 1497.41-7.74L1497.41-7.74L1497.41-29.38L1497.41-29.38Q1497.41-32.58 1499.68-34.85L1499.68-34.85L1499.68-34.85Q1501.95-37.12 1505.15-37.12ZM1527.42-31.87L1527.42-31.87L1505.15-31.87L1505.15-31.87Q1504.13-31.87 1503.39-31.14L1503.39-31.14L1503.39-31.14Q1502.66-30.40 1502.66-29.38L1502.66-29.38L1502.66-7.74L1502.66-7.74Q1502.66-6.72 1503.39-5.98L1503.39-5.98L1503.39-5.98Q1504.13-5.25 1505.15-5.25L1505.15-5.25L1527.42-5.25L1527.42-5.25Q1528.45-5.25 1529.18-5.98L1529.18-5.98L1529.18-5.98Q1529.92-6.72 1529.92-7.74L1529.92-7.74L1529.92-29.38L1529.92-29.38Q1529.92-30.40 1529.18-31.14L1529.18-31.14L1529.18-31.14Q1528.45-31.87 1527.42-31.87ZM1572.48-37.12L1572.48-49.28L1577.73-49.28L1577.73 0L1547.71 0L1547.71 0Q1544.45 0 1542.18-2.27L1542.18-2.27L1542.18-2.27Q1539.90-4.54 1539.90-7.74L1539.90-7.74L1539.90-29.38L1539.90-29.38Q1539.90-32.58 1542.18-34.85L1542.18-34.85L1542.18-34.85Q1544.45-37.12 1547.71-37.12L1547.71-37.12L1572.48-37.12ZM1547.71-5.25L1547.71-5.25L1569.98-5.25L1569.98-5.25Q1571.01-5.25 1571.74-5.98L1571.74-5.98L1571.74-5.98Q1572.48-6.72 1572.48-7.74L1572.48-7.74L1572.48-29.38L1572.48-29.38Q1572.48-30.40 1571.74-31.14L1571.74-31.14L1571.74-31.14Q1571.01-31.87 1569.98-31.87L1569.98-31.87L1547.71-31.87L1547.71-31.87Q1546.69-31.87 1545.95-31.14L1545.95-31.14L1545.95-31.14Q1545.22-30.40 1545.22-29.38L1545.22-29.38L1545.22-7.74L1545.22-7.74Q1545.22-6.72 1545.95-5.98L1545.95-5.98L1545.95-5.98Q1546.69-5.25 1547.71-5.25ZM1615.62-7.74L1615.62-37.12L1620.86-37.12L1620.86-7.74L1620.86-7.74Q1620.86-4.54 1618.59-2.27L1618.59-2.27L1618.59-2.27Q1616.32 0 1613.06 0L1613.06 0L1590.78 0L1590.78 0Q1587.58 0 1585.31-2.27L1585.31-2.27L1585.31-2.27Q1583.04-4.54 1583.04-7.74L1583.04-7.74L1583.04-37.12L1588.29-37.12L1588.29-7.74L1588.29-7.74Q1588.29-6.72 1589.02-5.98L1589.02-5.98L1589.02-5.98Q1589.76-5.25 1590.78-5.25L1590.78-5.25L1613.06-5.25L1613.06-5.25Q1614.08-5.25 1614.85-5.98L1614.85-5.98L1614.85-5.98Q1615.62-6.72 1615.62-7.74L1615.62-7.74ZM1633.86-5.25L1633.86-5.25L1663.94-5.25L1663.94 0L1633.86 0L1633.86 0Q1630.66 0 1628.38-2.27L1628.38-2.27L1628.38-2.27Q1626.11-4.54 1626.11-7.74L1626.11-7.74L1626.11-29.38L1626.11-29.38Q1626.11-32.58 1628.38-34.85L1628.38-34.85L1628.38-34.85Q1630.66-37.12 1633.86-37.12L1633.86-37.12L1663.81-37.12L1663.81-31.87L1633.86-31.87L1633.86-31.87Q1632.83-31.87 1632.10-31.14L1632.10-31.14L1632.10-31.14Q1631.36-30.40 1631.36-29.38L1631.36-29.38L1631.36-7.74L1631.36-7.74Q1631.36-6.72 1632.10-5.98L1632.10-5.98L1632.10-5.98Q1632.83-5.25 1633.86-5.25ZM1690.43-37.12L1690.43-31.87L1674.37-31.87L1674.37-7.74L1674.37-7.74Q1674.37-6.72 1675.10-5.98L1675.10-5.98L1675.10-5.98Q1675.84-5.25 1676.86-5.25L1676.86-5.25L1690.43-5.25L1690.43 0L1676.86 0L1676.86 0Q1673.60 0 1671.36-2.27L1671.36-2.27L1671.36-2.27Q1669.12-4.54 1669.12-7.74L1669.12-7.74L1669.12-49.28L1674.37-49.28L1674.37-37.12L1690.43-37.12ZM1702.98-37.12L1725.25-37.12L1725.25-37.12Q1728.51-37.12 1730.78-34.85L1730.78-34.85L1730.78-34.85Q1733.06-32.58 1733.06-29.38L1733.06-29.38L1733.06-15.94L1700.48-15.94L1700.48-7.74L1700.48-7.74Q1700.48-6.72 1701.22-5.98L1701.22-5.98L1701.22-5.98Q1701.95-5.25 1702.98-5.25L1702.98-5.25L1733.06-5.25L1733.06 0L1702.98 0L1702.98 0Q1699.78 0 1697.50-2.27L1697.50-2.27L1697.50-2.27Q1695.23-4.54 1695.23-7.74L1695.23-7.74L1695.23-29.38L1695.23-29.38Q1695.23-32.58 1697.50-34.85L1697.50-34.85L1697.50-34.85Q1699.78-37.12 1702.98-37.12L1702.98-37.12ZM1700.48-29.38L1700.48-21.18L1727.74-21.18L1727.74-29.38L1727.74-29.38Q1727.74-30.40 1727.01-31.14L1727.01-31.14L1727.01-31.14Q1726.27-31.87 1725.25-31.87L1725.25-31.87L1702.98-31.87L1702.98-31.87Q1701.95-31.87 1701.22-31.14L1701.22-31.14L1701.22-31.14Q1700.48-30.40 1700.48-29.38L1700.48-29.38ZM1772.22-7.74L1772.22-37.12L1777.47-37.12L1777.47-7.74L1777.47-7.74Q1777.47-4.54 1775.20-2.27L1775.20-2.27L1775.20-2.27Q1772.93 0 1769.66 0L1769.66 0L1747.39 0L1747.39 0Q1744.19 0 1741.92-2.27L1741.92-2.27L1741.92-2.27Q1739.65-4.54 1739.65-7.74L1739.65-7.74L1739.65-37.12L1744.90-37.12L1744.90-7.74L1744.90-7.74Q1744.90-6.72 1745.63-5.98L1745.63-5.98L1745.63-5.98Q1746.37-5.25 1747.39-5.25L1747.39-5.25L1769.66-5.25L1769.66-5.25Q1770.69-5.25 1771.46-5.98L1771.46-5.98L1771.46-5.98Q1772.22-6.72 1772.22-7.74L1772.22-7.74ZM1791.81-37.12L1791.81-37.12L1812.67-37.12L1812.67-31.87L1791.81-31.87L1791.81-31.87Q1790.78-31.87 1790.05-31.14L1790.05-31.14L1790.05-31.14Q1789.31-30.40 1789.31-29.38L1789.31-29.38L1789.31 0L1784.06 0L1784.06-29.38L1784.06-29.38Q1784.06-32.58 1786.34-34.85L1786.34-34.85L1786.34-34.85Q1788.61-37.12 1791.81-37.12ZM1854.40-29.38L1854.40-29.38L1854.40-28.86L1849.09-28.86L1849.09-29.38L1849.09-29.38Q1849.09-30.40 1848.35-31.14L1848.35-31.14L1848.35-31.14Q1847.62-31.87 1846.59-31.87L1846.59-31.87L1824.32-31.87L1824.32-31.87Q1823.30-31.87 1822.56-31.14L1822.56-31.14L1822.56-31.14Q1821.82-30.40 1821.82-29.38L1821.82-29.38L1821.82-23.68L1821.82-23.68Q1821.82-22.66 1822.56-21.92L1822.56-21.92L1822.56-21.92Q1823.30-21.18 1824.32-21.18L1824.32-21.18L1846.59-21.18L1846.59-21.18Q1849.86-21.18 1852.13-18.91L1852.13-18.91L1852.13-18.91Q1854.40-16.64 1854.40-13.44L1854.40-13.44L1854.40-7.74L1854.40-7.74Q1854.40-4.54 1852.13-2.27L1852.13-2.27L1852.13-2.27Q1849.86 0 1846.59 0L1846.59 0L1824.32 0L1824.32 0Q1821.12 0 1818.85-2.27L1818.85-2.27L1818.85-2.27Q1816.58-4.54 1816.58-7.74L1816.58-7.74L1816.58-8.26L1821.82-8.26L1821.82-7.74L1821.82-7.74Q1821.82-6.72 1822.56-5.98L1822.56-5.98L1822.56-5.98Q1823.30-5.25 1824.32-5.25L1824.32-5.25L1846.59-5.25L1846.59-5.25Q1847.62-5.25 1848.35-5.98L1848.35-5.98L1848.35-5.98Q1849.09-6.72 1849.09-7.74L1849.09-7.74L1849.09-13.44L1849.09-13.44Q1849.09-14.46 1848.35-15.20L1848.35-15.20L1848.35-15.20Q1847.62-15.94 1846.59-15.94L1846.59-15.94L1824.32-15.94L1824.32-15.94Q1821.12-15.94 1818.85-18.21L1818.85-18.21L1818.85-18.21Q1816.58-20.48 1816.58-23.68L1816.58-23.68L1816.58-29.38L1816.58-29.38Q1816.58-32.58 1818.85-34.85L1818.85-34.85L1818.85-34.85Q1821.12-37.12 1824.32-37.12L1824.32-37.12L1846.59-37.12L1846.59-37.12Q1849.86-37.12 1852.13-34.85L1852.13-34.85L1852.13-34.85Q1854.40-32.58 1854.40-29.38ZM1878.14-7.74L1878.14-49.28L1883.39-49.28L1883.39-7.74L1883.39-7.74Q1883.39-6.72 1884.13-5.98L1884.13-5.98L1884.13-5.98Q1884.86-5.25 1885.89-5.25L1885.89-5.25L1892.16-5.25L1892.16 0L1885.89 0L1885.89 0Q1882.69 0 1880.42-2.27L1880.42-2.27L1880.42-2.27Q1878.14-4.54 1878.14-7.74L1878.14-7.74ZM1904.51-37.12L1904.51-37.12L1926.78-37.12L1926.78-37.12Q1930.05-37.12 1932.32-34.85L1932.32-34.85L1932.32-34.85Q1934.59-32.58 1934.59-29.38L1934.59-29.38L1934.59-7.74L1934.59-7.74Q1934.59-4.54 1932.32-2.27L1932.32-2.27L1932.32-2.27Q1930.05 0 1926.78 0L1926.78 0L1904.51 0L1904.51 0Q1901.31 0 1899.04-2.27L1899.04-2.27L1899.04-2.27Q1896.77-4.54 1896.77-7.74L1896.77-7.74L1896.77-29.38L1896.77-29.38Q1896.77-32.58 1899.04-34.85L1899.04-34.85L1899.04-34.85Q1901.31-37.12 1904.51-37.12ZM1926.78-31.87L1926.78-31.87L1904.51-31.87L1904.51-31.87Q1903.49-31.87 1902.75-31.14L1902.75-31.14L1902.75-31.14Q1902.02-30.40 1902.02-29.38L1902.02-29.38L1902.02-7.74L1902.02-7.74Q1902.02-6.72 1902.75-5.98L1902.75-5.98L1902.75-5.98Q1903.49-5.25 1904.51-5.25L1904.51-5.25L1926.78-5.25L1926.78-5.25Q1927.81-5.25 1928.54-5.98L1928.54-5.98L1928.54-5.98Q1929.28-6.72 1929.28-7.74L1929.28-7.74L1929.28-29.38L1929.28-29.38Q1929.28-30.40 1928.54-31.14L1928.54-31.14L1928.54-31.14Q1927.81-31.87 1926.78-31.87ZM1948.80-5.25L1948.80-5.25L1978.88-5.25L1978.88 0L1948.80 0L1948.80 0Q1945.60 0 1943.33-2.27L1943.33-2.27L1943.33-2.27Q1941.06-4.54 1941.06-7.74L1941.06-7.74L1941.06-29.38L1941.06-29.38Q1941.06-32.58 1943.33-34.85L1943.33-34.85L1943.33-34.85Q1945.60-37.12 1948.80-37.12L1948.80-37.12L1978.75-37.12L1978.75-31.87L1948.80-31.87L1948.80-31.87Q1947.78-31.87 1947.04-31.14L1947.04-31.14L1947.04-31.14Q1946.30-30.40 1946.30-29.38L1946.30-29.38L1946.30-7.74L1946.30-7.74Q1946.30-6.72 1947.04-5.98L1947.04-5.98L1947.04-5.98Q1947.78-5.25 1948.80-5.25ZM1985.60-37.12L2015.62-37.12L2015.62-37.12Q2018.88-37.12 2021.15-34.85L2021.15-34.85L2021.15-34.85Q2023.42-32.58 2023.42-29.38L2023.42-29.38L2023.42 0L1993.34 0L1993.34 0Q1990.14 0 1987.87-2.27L1987.87-2.27L1987.87-2.27Q1985.60-4.54 1985.60-7.74L1985.60-7.74L1985.60-21.18L2018.11-21.18L2018.11-29.38L2018.11-29.38Q2018.11-30.40 2017.38-31.14L2017.38-31.14L2017.38-31.14Q2016.64-31.87 2015.62-31.87L2015.62-31.87L1985.60-31.87L1985.60-37.12ZM1993.34-5.25L2018.11-5.25L2018.11-15.94L1990.85-15.94L1990.85-7.74L1990.85-7.74Q1990.85-6.72 1991.58-5.98L1991.58-5.98L1991.58-5.98Q1992.32-5.25 1993.34-5.25L1993.34-5.25ZM2062.66-7.74L2062.66-37.12L2067.90-37.12L2067.90-7.74L2067.90-7.74Q2067.90-4.54 2065.63-2.27L2065.63-2.27L2065.63-2.27Q2063.36 0 2060.10 0L2060.10 0L2037.82 0L2037.82 0Q2034.62 0 2032.35-2.27L2032.35-2.27L2032.35-2.27Q2030.08-4.54 2030.08-7.74L2030.08-7.74L2030.08-37.12L2035.33-37.12L2035.33-7.74L2035.33-7.74Q2035.33-6.72 2036.06-5.98L2036.06-5.98L2036.06-5.98Q2036.80-5.25 2037.82-5.25L2037.82-5.25L2060.10-5.25L2060.10-5.25Q2061.12-5.25 2061.89-5.98L2061.89-5.98L2061.89-5.98Q2062.66-6.72 2062.66-7.74L2062.66-7.74ZM2092.10-23.04L2104.19-37.12L2111.04-37.12L2095.55-18.88L2111.10 0L2104.19 0L2092.10-14.85L2080.06 0L2073.15 0L2088.64-18.88L2073.15-37.12L2080.06-37.12L2092.10-23.04ZM2181.82-21.31L2181.82-10.69L2190.40-5.63L2190.40-1.02L2181.63-5.95L2181.63-5.95Q2180.54-3.26 2178.53-1.63L2178.53-1.63L2178.53-1.63Q2176.51 0 2174.08 0L2174.08 0L2143.04 0L2143.04 0Q2139.84 0 2137.57-2.27L2137.57-2.27L2137.57-2.27Q2135.30-4.54 2135.30-7.74L2135.30-7.74L2135.30-21.50L2135.30-21.50Q2135.30-22.91 2137.02-24.29L2137.02-24.29L2137.02-24.29Q2138.75-25.66 2141.63-25.66L2141.63-25.66L2141.63-25.66Q2137.98-28.42 2137.98-31.81L2137.98-31.81L2137.98-38.21L2137.98-38.21Q2137.98-41.47 2140.26-43.74L2140.26-43.74L2140.26-43.74Q2142.53-46.02 2145.73-46.02L2145.73-46.02L2172.03-46.02L2172.03-46.02Q2174.66-46.02 2176.86-44.06L2176.86-44.06L2176.86-44.06Q2179.07-42.11 2179.84-39.49L2179.84-39.49L2179.84-35.97L2174.53-35.97L2174.53-38.14L2174.53-38.14Q2174.53-39.17 2173.79-39.90L2173.79-39.90L2173.79-39.90Q2173.06-40.64 2172.03-40.64L2172.03-40.64L2145.73-40.64L2145.73-40.64Q2144.70-40.64 2143.97-39.90L2143.97-39.90L2143.97-39.90Q2143.23-39.17 2143.23-38.14L2143.23-38.14L2143.23-29.25L2176.58-12.42L2176.58-21.31L2181.82-21.31ZM2143.04-5.25L2143.04-5.25L2174.08-5.25L2174.08-5.25Q2174.78-5.25 2175.49-5.89L2175.49-5.89L2175.49-5.89Q2176.19-6.53 2176.64-7.55L2176.64-7.55L2144-24L2143.04-24L2143.04-24Q2142.02-24 2141.28-23.26L2141.28-23.26L2141.28-23.26Q2140.54-22.53 2140.54-21.50L2140.54-21.50L2140.54-7.74L2140.54-7.74Q2140.54-6.72 2141.28-5.98L2141.28-5.98L2141.28-5.98Q2142.02-5.25 2143.04-5.25ZM2220.35-5.25L2220.35-5.25L2250.43-5.25L2250.43 0L2220.35 0L2220.35 0Q2217.15 0 2214.88-2.27L2214.88-2.27L2214.88-2.27Q2212.61-4.54 2212.61-7.74L2212.61-7.74L2212.61-29.38L2212.61-29.38Q2212.61-32.58 2214.88-34.85L2214.88-34.85L2214.88-34.85Q2217.15-37.12 2220.35-37.12L2220.35-37.12L2250.30-37.12L2250.30-31.87L2220.35-31.87L2220.35-31.87Q2219.33-31.87 2218.59-31.14L2218.59-31.14L2218.59-31.14Q2217.86-30.40 2217.86-29.38L2217.86-29.38L2217.86-7.74L2217.86-7.74Q2217.86-6.72 2218.59-5.98L2218.59-5.98L2218.59-5.98Q2219.33-5.25 2220.35-5.25ZM2264.83-37.12L2264.83-37.12L2287.10-37.12L2287.10-37.12Q2290.37-37.12 2292.64-34.85L2292.64-34.85L2292.64-34.85Q2294.91-32.58 2294.91-29.38L2294.91-29.38L2294.91-7.74L2294.91-7.74Q2294.91-4.54 2292.64-2.27L2292.64-2.27L2292.64-2.27Q2290.37 0 2287.10 0L2287.10 0L2264.83 0L2264.83 0Q2261.63 0 2259.36-2.27L2259.36-2.27L2259.36-2.27Q2257.09-4.54 2257.09-7.74L2257.09-7.74L2257.09-29.38L2257.09-29.38Q2257.09-32.58 2259.36-34.85L2259.36-34.85L2259.36-34.85Q2261.63-37.12 2264.83-37.12ZM2287.10-31.87L2287.10-31.87L2264.83-31.87L2264.83-31.87Q2263.81-31.87 2263.07-31.14L2263.07-31.14L2263.07-31.14Q2262.34-30.40 2262.34-29.38L2262.34-29.38L2262.34-7.74L2262.34-7.74Q2262.34-6.72 2263.07-5.98L2263.07-5.98L2263.07-5.98Q2263.81-5.25 2264.83-5.25L2264.83-5.25L2287.10-5.25L2287.10-5.25Q2288.13-5.25 2288.86-5.98L2288.86-5.98L2288.86-5.98Q2289.60-6.72 2289.60-7.74L2289.60-7.74L2289.60-29.38L2289.60-29.38Q2289.60-30.40 2288.86-31.14L2288.86-31.14L2288.86-31.14Q2288.13-31.87 2287.10-31.87ZM2300.61-37.12L2330.69-37.12L2330.69-37.12Q2333.89-37.12 2336.16-34.85L2336.16-34.85L2336.16-34.85Q2338.43-32.58 2338.43-29.38L2338.43-29.38L2338.43 0L2333.18 0L2333.18-29.38L2333.18-29.38Q2333.18-30.40 2332.45-31.14L2332.45-31.14L2332.45-31.14Q2331.71-31.87 2330.69-31.87L2330.69-31.87L2308.42-31.87L2308.42-31.87Q2307.39-31.87 2306.62-31.14L2306.62-31.14L2306.62-31.14Q2305.86-30.40 2305.86-29.38L2305.86-29.38L2305.86 0L2300.61 0L2300.61-37.12ZM2382.59-29.38L2382.59-29.38L2382.59-28.86L2377.28-28.86L2377.28-29.38L2377.28-29.38Q2377.28-30.40 2376.54-31.14L2376.54-31.14L2376.54-31.14Q2375.81-31.87 2374.78-31.87L2374.78-31.87L2352.51-31.87L2352.51-31.87Q2351.49-31.87 2350.75-31.14L2350.75-31.14L2350.75-31.14Q2350.02-30.40 2350.02-29.38L2350.02-29.38L2350.02-23.68L2350.02-23.68Q2350.02-22.66 2350.75-21.92L2350.75-21.92L2350.75-21.92Q2351.49-21.18 2352.51-21.18L2352.51-21.18L2374.78-21.18L2374.78-21.18Q2378.05-21.18 2380.32-18.91L2380.32-18.91L2380.32-18.91Q2382.59-16.64 2382.59-13.44L2382.59-13.44L2382.59-7.74L2382.59-7.74Q2382.59-4.54 2380.32-2.27L2380.32-2.27L2380.32-2.27Q2378.05 0 2374.78 0L2374.78 0L2352.51 0L2352.51 0Q2349.31 0 2347.04-2.27L2347.04-2.27L2347.04-2.27Q2344.77-4.54 2344.77-7.74L2344.77-7.74L2344.77-8.26L2350.02-8.26L2350.02-7.74L2350.02-7.74Q2350.02-6.72 2350.75-5.98L2350.75-5.98L2350.75-5.98Q2351.49-5.25 2352.51-5.25L2352.51-5.25L2374.78-5.25L2374.78-5.25Q2375.81-5.25 2376.54-5.98L2376.54-5.98L2376.54-5.98Q2377.28-6.72 2377.28-7.74L2377.28-7.74L2377.28-13.44L2377.28-13.44Q2377.28-14.46 2376.54-15.20L2376.54-15.20L2376.54-15.20Q2375.81-15.94 2374.78-15.94L2374.78-15.94L2352.51-15.94L2352.51-15.94Q2349.31-15.94 2347.04-18.21L2347.04-18.21L2347.04-18.21Q2344.77-20.48 2344.77-23.68L2344.77-23.68L2344.77-29.38L2344.77-29.38Q2344.77-32.58 2347.04-34.85L2347.04-34.85L2347.04-34.85Q2349.31-37.12 2352.51-37.12L2352.51-37.12L2374.78-37.12L2374.78-37.12Q2378.05-37.12 2380.32-34.85L2380.32-34.85L2380.32-34.85Q2382.59-32.58 2382.59-29.38ZM2396.61-37.12L2396.61-37.12L2418.88-37.12L2418.88-37.12Q2422.14-37.12 2424.42-34.85L2424.42-34.85L2424.42-34.85Q2426.69-32.58 2426.69-29.38L2426.69-29.38L2426.69-7.74L2426.69-7.74Q2426.69-4.54 2424.42-2.27L2424.42-2.27L2424.42-2.27Q2422.14 0 2418.88 0L2418.88 0L2396.61 0L2396.61 0Q2393.41 0 2391.14-2.27L2391.14-2.27L2391.14-2.27Q2388.86-4.54 2388.86-7.74L2388.86-7.74L2388.86-29.38L2388.86-29.38Q2388.86-32.58 2391.14-34.85L2391.14-34.85L2391.14-34.85Q2393.41-37.12 2396.61-37.12ZM2418.88-31.87L2418.88-31.87L2396.61-31.87L2396.61-31.87Q2395.58-31.87 2394.85-31.14L2394.85-31.14L2394.85-31.14Q2394.11-30.40 2394.11-29.38L2394.11-29.38L2394.11-7.74L2394.11-7.74Q2394.11-6.72 2394.85-5.98L2394.85-5.98L2394.85-5.98Q2395.58-5.25 2396.61-5.25L2396.61-5.25L2418.88-5.25L2418.88-5.25Q2419.90-5.25 2420.64-5.98L2420.64-5.98L2420.64-5.98Q2421.38-6.72 2421.38-7.74L2421.38-7.74L2421.38-29.38L2421.38-29.38Q2421.38-30.40 2420.64-31.14L2420.64-31.14L2420.64-31.14Q2419.90-31.87 2418.88-31.87ZM2433.34-37.12L2482.37-37.12L2482.37-37.12Q2485.63-37.12 2487.87-34.85L2487.87-34.85L2487.87-34.85Q2490.11-32.58 2490.11-29.38L2490.11-29.38L2490.11 0L2484.93 0L2484.93-29.38L2484.93-29.38Q2484.93-30.40 2484.16-31.14L2484.16-31.14L2484.16-31.14Q2483.39-31.87 2482.37-31.87L2482.37-31.87L2466.94-31.87L2466.94-31.87Q2465.92-31.87 2465.18-31.14L2465.18-31.14L2465.18-31.14Q2464.45-30.40 2464.45-29.38L2464.45-29.38L2464.45 0L2459.14 0L2459.14-29.38L2459.14-29.38Q2459.14-30.40 2458.40-31.14L2458.40-31.14L2458.40-31.14Q2457.66-31.87 2456.64-31.87L2456.64-31.87L2441.15-31.87L2441.15-31.87Q2440.13-31.87 2439.39-31.14L2439.39-31.14L2439.39-31.14Q2438.66-30.40 2438.66-29.38L2438.66-29.38L2438.66 0L2433.34 0L2433.34-37.12ZM2495.10-37.12L2544.13-37.12L2544.13-37.12Q2547.39-37.12 2549.63-34.85L2549.63-34.85L2549.63-34.85Q2551.87-32.58 2551.87-29.38L2551.87-29.38L2551.87 0L2546.69 0L2546.69-29.38L2546.69-29.38Q2546.69-30.40 2545.92-31.14L2545.92-31.14L2545.92-31.14Q2545.15-31.87 2544.13-31.87L2544.13-31.87L2528.70-31.87L2528.70-31.87Q2527.68-31.87 2526.94-31.14L2526.94-31.14L2526.94-31.14Q2526.21-30.40 2526.21-29.38L2526.21-29.38L2526.21 0L2520.90 0L2520.90-29.38L2520.90-29.38Q2520.90-30.40 2520.16-31.14L2520.16-31.14L2520.16-31.14Q2519.42-31.87 2518.40-31.87L2518.40-31.87L2502.91-31.87L2502.91-31.87Q2501.89-31.87 2501.15-31.14L2501.15-31.14L2501.15-31.14Q2500.42-30.40 2500.42-29.38L2500.42-29.38L2500.42 0L2495.10 0L2495.10-37.12ZM2557.57-37.12L2587.58-37.12L2587.58-37.12Q2590.85-37.12 2593.12-34.85L2593.12-34.85L2593.12-34.85Q2595.39-32.58 2595.39-29.38L2595.39-29.38L2595.39 0L2565.31 0L2565.31 0Q2562.11 0 2559.84-2.27L2559.84-2.27L2559.84-2.27Q2557.57-4.54 2557.57-7.74L2557.57-7.74L2557.57-21.18L2590.08-21.18L2590.08-29.38L2590.08-29.38Q2590.08-30.40 2589.34-31.14L2589.34-31.14L2589.34-31.14Q2588.61-31.87 2587.58-31.87L2587.58-31.87L2557.57-31.87L2557.57-37.12ZM2565.31-5.25L2590.08-5.25L2590.08-15.94L2562.82-15.94L2562.82-7.74L2562.82-7.74Q2562.82-6.72 2563.55-5.98L2563.55-5.98L2563.55-5.98Q2564.29-5.25 2565.31-5.25L2565.31-5.25ZM2623.36-37.12L2623.36-31.87L2607.30-31.87L2607.30-7.74L2607.30-7.74Q2607.30-6.72 2608.03-5.98L2608.03-5.98L2608.03-5.98Q2608.77-5.25 2609.79-5.25L2609.79-5.25L2623.36-5.25L2623.36 0L2609.79 0L2609.79 0Q2606.53 0 2604.29-2.27L2604.29-2.27L2604.29-2.27Q2602.05-4.54 2602.05-7.74L2602.05-7.74L2602.05-49.28L2607.30-49.28L2607.30-37.12L2623.36-37.12ZM2635.90-37.12L2658.18-37.12L2658.18-37.12Q2661.44-37.12 2663.71-34.85L2663.71-34.85L2663.71-34.85Q2665.98-32.58 2665.98-29.38L2665.98-29.38L2665.98-15.94L2633.41-15.94L2633.41-7.74L2633.41-7.74Q2633.41-6.72 2634.14-5.98L2634.14-5.98L2634.14-5.98Q2634.88-5.25 2635.90-5.25L2635.90-5.25L2665.98-5.25L2665.98 0L2635.90 0L2635.90 0Q2632.70 0 2630.43-2.27L2630.43-2.27L2630.43-2.27Q2628.16-4.54 2628.16-7.74L2628.16-7.74L2628.16-29.38L2628.16-29.38Q2628.16-32.58 2630.43-34.85L2630.43-34.85L2630.43-34.85Q2632.70-37.12 2635.90-37.12L2635.90-37.12ZM2633.41-29.38L2633.41-21.18L2660.67-21.18L2660.67-29.38L2660.67-29.38Q2660.67-30.40 2659.94-31.14L2659.94-31.14L2659.94-31.14Q2659.20-31.87 2658.18-31.87L2658.18-31.87L2635.90-31.87L2635.90-31.87Q2634.88-31.87 2634.14-31.14L2634.14-31.14L2634.14-31.14Q2633.41-30.40 2633.41-29.38L2633.41-29.38ZM2705.15-7.74L2705.15-37.12L2710.40-37.12L2710.40-7.74L2710.40-7.74Q2710.40-4.54 2708.13-2.27L2708.13-2.27L2708.13-2.27Q2705.86 0 2702.59 0L2702.59 0L2680.32 0L2680.32 0Q2677.12 0 2674.85-2.27L2674.85-2.27L2674.85-2.27Q2672.58-4.54 2672.58-7.74L2672.58-7.74L2672.58-37.12L2677.82-37.12L2677.82-7.74L2677.82-7.74Q2677.82-6.72 2678.56-5.98L2678.56-5.98L2678.56-5.98Q2679.30-5.25 2680.32-5.25L2680.32-5.25L2702.59-5.25L2702.59-5.25Q2703.62-5.25 2704.38-5.98L2704.38-5.98L2704.38-5.98Q2705.15-6.72 2705.15-7.74L2705.15-7.74ZM2724.74-37.12L2724.74-37.12L2745.60-37.12L2745.60-31.87L2724.74-31.87L2724.74-31.87Q2723.71-31.87 2722.98-31.14L2722.98-31.14L2722.98-31.14Q2722.24-30.40 2722.24-29.38L2722.24-29.38L2722.24 0L2716.99 0L2716.99-29.38L2716.99-29.38Q2716.99-32.58 2719.26-34.85L2719.26-34.85L2719.26-34.85Q2721.54-37.12 2724.74-37.12ZM2787.33-29.38L2787.33-29.38L2787.33-28.86L2782.02-28.86L2782.02-29.38L2782.02-29.38Q2782.02-30.40 2781.28-31.14L2781.28-31.14L2781.28-31.14Q2780.54-31.87 2779.52-31.87L2779.52-31.87L2757.25-31.87L2757.25-31.87Q2756.22-31.87 2755.49-31.14L2755.49-31.14L2755.49-31.14Q2754.75-30.40 2754.75-29.38L2754.75-29.38L2754.75-23.68L2754.75-23.68Q2754.75-22.66 2755.49-21.92L2755.49-21.92L2755.49-21.92Q2756.22-21.18 2757.25-21.18L2757.25-21.18L2779.52-21.18L2779.52-21.18Q2782.78-21.18 2785.06-18.91L2785.06-18.91L2785.06-18.91Q2787.33-16.64 2787.33-13.44L2787.33-13.44L2787.33-7.74L2787.33-7.74Q2787.33-4.54 2785.06-2.27L2785.06-2.27L2785.06-2.27Q2782.78 0 2779.52 0L2779.52 0L2757.25 0L2757.25 0Q2754.05 0 2751.78-2.27L2751.78-2.27L2751.78-2.27Q2749.50-4.54 2749.50-7.74L2749.50-7.74L2749.50-8.26L2754.75-8.26L2754.75-7.74L2754.75-7.74Q2754.75-6.72 2755.49-5.98L2755.49-5.98L2755.49-5.98Q2756.22-5.25 2757.25-5.25L2757.25-5.25L2779.52-5.25L2779.52-5.25Q2780.54-5.25 2781.28-5.98L2781.28-5.98L2781.28-5.98Q2782.02-6.72 2782.02-7.74L2782.02-7.74L2782.02-13.44L2782.02-13.44Q2782.02-14.46 2781.28-15.20L2781.28-15.20L2781.28-15.20Q2780.54-15.94 2779.52-15.94L2779.52-15.94L2757.25-15.94L2757.25-15.94Q2754.05-15.94 2751.78-18.21L2751.78-18.21L2751.78-18.21Q2749.50-20.48 2749.50-23.68L2749.50-23.68L2749.50-29.38L2749.50-29.38Q2749.50-32.58 2751.78-34.85L2751.78-34.85L2751.78-34.85Q2754.05-37.12 2757.25-37.12L2757.25-37.12L2779.52-37.12L2779.52-37.12Q2782.78-37.12 2785.06-34.85L2785.06-34.85L2785.06-34.85Q2787.33-32.58 2787.33-29.38Z" fill="#357f1e"></path></g></g><style>text {
  font-size: 64px;
  font-family: Arial Black;
  dominant-baseline: central;
  text-anchor: middle;
}</style></svg>