<svg width="281.31874999999997px" height="60.8px" xmlns="http://www.w3.org/2000/svg" viewBox="109.34062500000002 44.6 281.31874999999997 60.8" style="background: rgba(0, 0, 0, 0);" preserveAspectRatio="xMidYMid"><defs><filter id="editing-extrusion" x="-100%" y="-100%" width="300%" height="300%"><feFlood result="color1" flood-color="#357f1e"></feFlood><feConvolveMatrix order="2,2" divisor="1" kernelMatrix="1 0 0 1" in="SourceAlpha" result="extrude"></feConvolveMatrix><feComposite in="color1" in2="extrude" result="comp-extrude" operator="in"></feComposite><feOffset dx="1" dy="1" in="comp-extrude" result="offset-extrude"></feOffset><feMerge><feMergeNode in="offset-extrude"></feMergeNode><feMergeNode in="SourceGraphic"></feMergeNode></feMerge></filter></defs><g filter="url(#editing-extrusion)"><g transform="translate(154.3350100517273, 83.64000034332275)"><path d="M0.48-15.34L0.48-17.28L17.76-17.28L17.76-15.34L10.10-15.34L10.10 0L8.16 0L8.16-15.34L0.48-15.34ZM19.61-17.28L35.38-17.28L35.38-15.34L21.55-15.34L21.55-9.62L32.66-9.62L32.66-7.66L21.55-7.66L21.55-1.94L35.38-1.94L35.38 0L19.61 0L19.61-17.28ZM55.20-14.38L55.20-14.38L55.20-9.31L55.20-9.31Q55.20-8.11 54.36-7.27L54.36-7.27L54.36-7.27Q53.52-6.43 52.32-6.43L52.32-6.43L49.68-6.43L55.10 0L52.54 0L47.14-6.43L40.80-6.43L40.80-6.43Q40.58-6.43 39.86-6.53L39.86-6.53L39.86 0L37.92 0L37.92-17.26L52.32-17.26L52.32-17.26Q53.52-17.26 54.36-16.42L54.36-16.42L54.36-16.42Q55.20-15.58 55.20-14.38ZM40.80-8.40L40.80-8.40L52.32-8.40L52.32-8.40Q52.70-8.40 52.97-8.66L52.97-8.66L52.97-8.66Q53.23-8.93 53.23-9.31L53.23-9.31L53.23-14.38L53.23-14.38Q53.23-14.76 52.97-15.04L52.97-15.04L52.97-15.04Q52.70-15.31 52.32-15.31L52.32-15.31L40.80-15.31L40.80-15.31Q40.42-15.31 40.14-15.04L40.14-15.04L40.14-15.04Q39.86-14.76 39.86-14.38L39.86-14.38L39.86-9.31L39.86-9.31Q39.86-8.93 40.14-8.66L40.14-8.66L40.14-8.66Q40.42-8.40 40.80-8.40ZM75-14.38L75-14.38L75-9.31L75-9.31Q75-8.11 74.16-7.27L74.16-7.27L74.16-7.27Q73.32-6.43 72.12-6.43L72.12-6.43L69.48-6.43L74.90 0L72.34 0L66.94-6.43L60.60-6.43L60.60-6.43Q60.38-6.43 59.66-6.53L59.66-6.53L59.66 0L57.72 0L57.72-17.26L72.12-17.26L72.12-17.26Q73.32-17.26 74.16-16.42L74.16-16.42L74.16-16.42Q75-15.58 75-14.38ZM60.60-8.40L60.60-8.40L72.12-8.40L72.12-8.40Q72.50-8.40 72.77-8.66L72.77-8.66L72.77-8.66Q73.03-8.93 73.03-9.31L73.03-9.31L73.03-14.38L73.03-14.38Q73.03-14.76 72.77-15.04L72.77-15.04L72.77-15.04Q72.50-15.31 72.12-15.31L72.12-15.31L60.60-15.31L60.60-15.31Q60.22-15.31 59.94-15.04L59.94-15.04L59.94-15.04Q59.66-14.76 59.66-14.38L59.66-14.38L59.66-9.31L59.66-9.31Q59.66-8.93 59.94-8.66L59.94-8.66L59.94-8.66Q60.22-8.40 60.60-8.40ZM80.38-17.28L80.38-17.28L91.90-17.28L91.90-17.28Q93.10-17.28 93.94-16.44L93.94-16.44L93.94-16.44Q94.78-15.60 94.78-14.40L94.78-14.40L94.78-2.88L94.78-2.88Q94.78-1.68 93.94-0.84L93.94-0.84L93.94-0.84Q93.10 0 91.90 0L91.90 0L80.38 0L80.38 0Q79.18 0 78.34-0.84L78.34-0.84L78.34-0.84Q77.50-1.68 77.50-2.88L77.50-2.88L77.50-14.40L77.50-14.40Q77.50-15.60 78.34-16.44L78.34-16.44L78.34-16.44Q79.18-17.28 80.38-17.28ZM80.38-1.94L80.38-1.94L91.90-1.94L91.90-1.94Q92.28-1.94 92.56-2.22L92.56-2.22L92.56-2.22Q92.83-2.50 92.83-2.88L92.83-2.88L92.83-14.40L92.83-14.40Q92.83-14.78 92.56-15.06L92.56-15.06L92.56-15.06Q92.28-15.34 91.90-15.34L91.90-15.34L80.38-15.34L80.38-15.34Q79.99-15.34 79.72-15.06L79.72-15.06L79.72-15.06Q79.44-14.78 79.44-14.40L79.44-14.40L79.44-2.88L79.44-2.88Q79.44-2.50 79.72-2.22L79.72-2.22L79.72-2.22Q79.99-1.94 80.38-1.94ZM96.55-15.34L96.55-17.28L113.83-17.28L113.83-15.34L106.18-15.34L106.18 0L104.23 0L104.23-15.34L96.55-15.34ZM115.68-17.28L131.45-17.28L131.45-15.34L117.62-15.34L117.62-9.62L128.74-9.62L128.74-7.66L117.62-7.66L117.62-1.94L131.45-1.94L131.45 0L115.68 0L115.68-17.28ZM151.27-14.38L151.27-14.38L151.27-9.31L151.27-9.31Q151.27-8.11 150.43-7.27L150.43-7.27L150.43-7.27Q149.59-6.43 148.39-6.43L148.39-6.43L145.75-6.43L151.18 0L148.61 0L143.21-6.43L136.87-6.43L136.87-6.43Q136.66-6.43 135.94-6.53L135.94-6.53L135.94 0L133.99 0L133.99-17.26L148.39-17.26L148.39-17.26Q149.59-17.26 150.43-16.42L150.43-16.42L150.43-16.42Q151.27-15.58 151.27-14.38ZM136.87-8.40L136.87-8.40L148.39-8.40L148.39-8.40Q148.78-8.40 149.04-8.66L149.04-8.66L149.04-8.66Q149.30-8.93 149.30-9.31L149.30-9.31L149.30-14.38L149.30-14.38Q149.30-14.76 149.04-15.04L149.04-15.04L149.04-15.04Q148.78-15.31 148.39-15.31L148.39-15.31L136.87-15.31L136.87-15.31Q136.49-15.31 136.21-15.04L136.21-15.04L136.21-15.04Q135.94-14.76 135.94-14.38L135.94-14.38L135.94-9.31L135.94-9.31Q135.94-8.93 136.21-8.66L136.21-8.66L136.21-8.66Q136.49-8.40 136.87-8.40ZM171.07-14.38L171.07-14.38L171.07-9.31L171.07-9.31Q171.07-8.11 170.23-7.27L170.23-7.27L170.23-7.27Q169.39-6.43 168.19-6.43L168.19-6.43L165.55-6.43L170.98 0L168.41 0L163.01-6.43L156.67-6.43L156.67-6.43Q156.46-6.43 155.74-6.53L155.74-6.53L155.74 0L153.79 0L153.79-17.26L168.19-17.26L168.19-17.26Q169.39-17.26 170.23-16.42L170.23-16.42L170.23-16.42Q171.07-15.58 171.07-14.38ZM156.67-8.40L156.67-8.40L168.19-8.40L168.19-8.40Q168.58-8.40 168.84-8.66L168.84-8.66L168.84-8.66Q169.10-8.93 169.10-9.31L169.10-9.31L169.10-14.38L169.10-14.38Q169.10-14.76 168.84-15.04L168.84-15.04L168.84-15.04Q168.58-15.31 168.19-15.31L168.19-15.31L156.67-15.31L156.67-15.31Q156.29-15.31 156.01-15.04L156.01-15.04L156.01-15.04Q155.74-14.76 155.74-14.38L155.74-14.38L155.74-9.31L155.74-9.31Q155.74-8.93 156.01-8.66L156.01-8.66L156.01-8.66Q156.29-8.40 156.67-8.40ZM176.45-17.28L176.45-17.28L187.97-17.28L187.97-17.28Q189.17-17.28 190.01-16.44L190.01-16.44L190.01-16.44Q190.85-15.60 190.85-14.40L190.85-14.40L190.85-2.88L190.85-2.88Q190.85-1.68 190.01-0.84L190.01-0.84L190.01-0.84Q189.17 0 187.97 0L187.97 0L176.45 0L176.45 0Q175.25 0 174.41-0.84L174.41-0.84L174.41-0.84Q173.57-1.68 173.57-2.88L173.57-2.88L173.57-14.40L173.57-14.40Q173.57-15.60 174.41-16.44L174.41-16.44L174.41-16.44Q175.25-17.28 176.45-17.28ZM176.45-1.94L176.45-1.94L187.97-1.94L187.97-1.94Q188.35-1.94 188.63-2.22L188.63-2.22L188.63-2.22Q188.90-2.50 188.90-2.88L188.90-2.88L188.90-14.40L188.90-14.40Q188.90-14.78 188.63-15.06L188.63-15.06L188.63-15.06Q188.35-15.34 187.97-15.34L187.97-15.34L176.45-15.34L176.45-15.34Q176.06-15.34 175.79-15.06L175.79-15.06L175.79-15.06Q175.51-14.78 175.51-14.40L175.51-14.40L175.51-2.88L175.51-2.88Q175.51-2.50 175.79-2.22L175.79-2.22L175.79-2.22Q176.06-1.94 176.45-1.94Z" fill="#357f1e"></path></g></g><style>text {
  font-size: 64px;
  font-family: Arial Black;
  dominant-baseline: central;
  text-anchor: middle;
}</style></svg>