<svg width="880.1374999999999px" height="155.6px" xmlns="http://www.w3.org/2000/svg" viewBox="-190.06874999999997 -2.799999999999997 880.1374999999999 155.6" style="background: rgba(0, 0, 0, 0);" preserveAspectRatio="xMidYMid"><defs><filter id="editing-extrusion" x="-100%" y="-100%" width="300%" height="300%"><feFlood result="color1" flood-color="#000000"></feFlood><feConvolveMatrix order="2,2" divisor="1" kernelMatrix="1 0 0 1" in="SourceAlpha" result="extrude"></feConvolveMatrix><feComposite in="color1" in2="extrude" result="comp-extrude" operator="in"></feComposite><feOffset dx="1" dy="1" in="comp-extrude" result="offset-extrude"></feOffset><feMerge><feMergeNode in="offset-extrude"></feMergeNode><feMergeNode in="SourceGraphic"></feMergeNode></feMerge></filter></defs><g filter="url(#editing-extrusion)"><g transform="translate(-64.8950252532959, 103.44000244140625)"><path d="M1.58-50.48L1.58-56.88L58.46-56.88L58.46-50.48L33.26-50.48L33.26 0L26.86 0L26.86-50.48L1.58-50.48ZM64.54-56.88L116.45-56.88L116.45-50.48L70.94-50.48L70.94-31.68L107.52-31.68L107.52-25.20L70.94-25.20L70.94-6.40L116.45-6.40L116.45 0L64.54 0L64.54-56.88ZM181.70-47.32L181.70-47.32L181.70-30.65L181.70-30.65Q181.70-26.70 178.94-23.94L178.94-23.94L178.94-23.94Q176.17-21.17 172.22-21.17L172.22-21.17L163.53-21.17L181.38 0L172.93 0L155.16-21.17L134.30-21.17L134.30-21.17Q133.59-21.17 131.22-21.49L131.22-21.49L131.22 0L124.82 0L124.82-56.80L172.22-56.80L172.22-56.80Q176.17-56.80 178.94-54.04L178.94-54.04L178.94-54.04Q181.70-51.27 181.70-47.32ZM134.30-27.65L134.30-27.65L172.22-27.65L172.22-27.65Q173.48-27.65 174.35-28.52L174.35-28.52L174.35-28.52Q175.22-29.39 175.22-30.65L175.22-30.65L175.22-47.32L175.22-47.32Q175.22-48.59 174.35-49.49L174.35-49.49L174.35-49.49Q173.48-50.40 172.22-50.40L172.22-50.40L134.30-50.40L134.30-50.40Q133.04-50.40 132.13-49.49L132.13-49.49L132.13-49.49Q131.22-48.59 131.22-47.32L131.22-47.32L131.22-30.65L131.22-30.65Q131.22-29.39 132.13-28.52L132.13-28.52L132.13-28.52Q133.04-27.65 134.30-27.65ZM246.87-47.32L246.87-47.32L246.87-30.65L246.87-30.65Q246.87-26.70 244.11-23.94L244.11-23.94L244.11-23.94Q241.34-21.17 237.39-21.17L237.39-21.17L228.70-21.17L246.56 0L238.11 0L220.33-21.17L199.47-21.17L199.47-21.17Q198.76-21.17 196.39-21.49L196.39-21.49L196.39 0L189.99 0L189.99-56.80L237.39-56.80L237.39-56.80Q241.34-56.80 244.11-54.04L244.11-54.04L244.11-54.04Q246.87-51.27 246.87-47.32ZM199.47-27.65L199.47-27.65L237.39-27.65L237.39-27.65Q238.66-27.65 239.53-28.52L239.53-28.52L239.53-28.52Q240.40-29.39 240.40-30.65L240.40-30.65L240.40-47.32L240.40-47.32Q240.40-48.59 239.53-49.49L239.53-49.49L239.53-49.49Q238.66-50.40 237.39-50.40L237.39-50.40L199.47-50.40L199.47-50.40Q198.21-50.40 197.30-49.49L197.30-49.49L197.30-49.49Q196.39-48.59 196.39-47.32L196.39-47.32L196.39-30.65L196.39-30.65Q196.39-29.39 197.30-28.52L197.30-28.52L197.30-28.52Q198.21-27.65 199.47-27.65ZM264.57-56.88L264.57-56.88L302.49-56.88L302.49-56.88Q306.44-56.88 309.21-54.12L309.21-54.12L309.21-54.12Q311.97-51.35 311.97-47.40L311.97-47.40L311.97-9.48L311.97-9.48Q311.97-5.53 309.21-2.77L309.21-2.77L309.21-2.77Q306.44 0 302.49 0L302.49 0L264.57 0L264.57 0Q260.62 0 257.86-2.77L257.86-2.77L257.86-2.77Q255.09-5.53 255.09-9.48L255.09-9.48L255.09-47.40L255.09-47.40Q255.09-51.35 257.86-54.12L257.86-54.12L257.86-54.12Q260.62-56.88 264.57-56.88ZM264.57-6.40L264.57-6.40L302.49-6.40L302.49-6.40Q303.75-6.40 304.66-7.31L304.66-7.31L304.66-7.31Q305.57-8.22 305.57-9.48L305.57-9.48L305.57-47.40L305.57-47.40Q305.57-48.66 304.66-49.57L304.66-49.57L304.66-49.57Q303.75-50.48 302.49-50.48L302.49-50.48L264.57-50.48L264.57-50.48Q263.31-50.48 262.40-49.57L262.40-49.57L262.40-49.57Q261.49-48.66 261.49-47.40L261.49-47.40L261.49-9.48L261.49-9.48Q261.49-8.22 262.40-7.31L262.40-7.31L262.40-7.31Q263.31-6.40 264.57-6.40ZM317.82-50.48L317.82-56.88L374.70-56.88L374.70-50.48L349.50-50.48L349.50 0L343.10 0L343.10-50.48L317.82-50.48ZM380.78-56.88L432.68-56.88L432.68-50.48L387.18-50.48L387.18-31.68L423.76-31.68L423.76-25.20L387.18-25.20L387.18-6.40L432.68-6.40L432.68 0L380.78 0L380.78-56.88ZM497.94-47.32L497.94-47.32L497.94-30.65L497.94-30.65Q497.94-26.70 495.17-23.94L495.17-23.94L495.17-23.94Q492.41-21.17 488.46-21.17L488.46-21.17L479.77-21.17L497.62 0L489.17 0L471.39-21.17L450.54-21.17L450.54-21.17Q449.83-21.17 447.46-21.49L447.46-21.49L447.46 0L441.06 0L441.06-56.80L488.46-56.80L488.46-56.80Q492.41-56.80 495.17-54.04L495.17-54.04L495.17-54.04Q497.94-51.27 497.94-47.32ZM450.54-27.65L450.54-27.65L488.46-27.65L488.46-27.65Q489.72-27.65 490.59-28.52L490.59-28.52L490.59-28.52Q491.46-29.39 491.46-30.65L491.46-30.65L491.46-47.32L491.46-47.32Q491.46-48.59 490.59-49.49L490.59-49.49L490.59-49.49Q489.72-50.40 488.46-50.40L488.46-50.40L450.54-50.40L450.54-50.40Q449.27-50.40 448.36-49.49L448.36-49.49L448.36-49.49Q447.46-48.59 447.46-47.32L447.46-47.32L447.46-30.65L447.46-30.65Q447.46-29.39 448.36-28.52L448.36-28.52L448.36-28.52Q449.27-27.65 450.54-27.65ZM563.11-47.32L563.11-47.32L563.11-30.65L563.11-30.65Q563.11-26.70 560.35-23.94L560.35-23.94L560.35-23.94Q557.58-21.17 553.63-21.17L553.63-21.17L544.94-21.17L562.80 0L554.34 0L536.57-21.17L515.71-21.17L515.71-21.17Q515.00-21.17 512.63-21.49L512.63-21.49L512.63 0L506.23 0L506.23-56.80L553.63-56.80L553.63-56.80Q557.58-56.80 560.35-54.04L560.35-54.04L560.35-54.04Q563.11-51.27 563.11-47.32ZM515.71-27.65L515.71-27.65L553.63-27.65L553.63-27.65Q554.90-27.65 555.76-28.52L555.76-28.52L555.76-28.52Q556.63-29.39 556.63-30.65L556.63-30.65L556.63-47.32L556.63-47.32Q556.63-48.59 555.76-49.49L555.76-49.49L555.76-49.49Q554.90-50.40 553.63-50.40L553.63-50.40L515.71-50.40L515.71-50.40Q514.45-50.40 513.54-49.49L513.54-49.49L513.54-49.49Q512.63-48.59 512.63-47.32L512.63-47.32L512.63-30.65L512.63-30.65Q512.63-29.39 513.54-28.52L513.54-28.52L513.54-28.52Q514.45-27.65 515.71-27.65ZM580.81-56.88L580.81-56.88L618.73-56.88L618.73-56.88Q622.68-56.88 625.44-54.12L625.44-54.12L625.44-54.12Q628.21-51.35 628.21-47.40L628.21-47.40L628.21-9.48L628.21-9.48Q628.21-5.53 625.44-2.77L625.44-2.77L625.44-2.77Q622.68 0 618.73 0L618.73 0L580.81 0L580.81 0Q576.86 0 574.09-2.77L574.09-2.77L574.09-2.77Q571.33-5.53 571.33-9.48L571.33-9.48L571.33-47.40L571.33-47.40Q571.33-51.35 574.09-54.12L574.09-54.12L574.09-54.12Q576.86-56.88 580.81-56.88ZM580.81-6.40L580.81-6.40L618.73-6.40L618.73-6.40Q619.99-6.40 620.90-7.31L620.90-7.31L620.90-7.31Q621.81-8.22 621.81-9.48L621.81-9.48L621.81-47.40L621.81-47.40Q621.81-48.66 620.90-49.57L620.90-49.57L620.90-49.57Q619.99-50.48 618.73-50.48L618.73-50.48L580.81-50.48L580.81-50.48Q579.54-50.48 578.64-49.57L578.64-49.57L578.64-49.57Q577.73-48.66 577.73-47.40L577.73-47.40L577.73-9.48L577.73-9.48Q577.73-8.22 578.64-7.31L578.64-7.31L578.64-7.31Q579.54-6.40 580.81-6.40Z" fill="#357f1e"></path></g></g><style>text {
  font-size: 64px;
  font-family: Arial Black;
  dominant-baseline: central;
  text-anchor: middle;
}</style></svg>