<svg width="195.125px" height="46.4px" xmlns="http://www.w3.org/2000/svg" viewBox="152.4375 51.8 195.125 46.4" style="background: none;" preserveAspectRatio="xMidYMid"><defs><filter id="editing-extrusion" x="-100%" y="-100%" width="300%" height="300%"><feFlood result="color1" flood-color="#000000"></feFlood><feConvolveMatrix order="1,1" divisor="1" kernelMatrix="1" in="SourceAlpha" result="extrude"></feConvolveMatrix><feComposite in="color1" in2="extrude" result="comp-extrude" operator="in"></feComposite><feOffset dx="0.5" dy="0.5" in="comp-extrude" result="offset-extrude"></feOffset><feMerge><feMergeNode in="offset-extrude"></feMergeNode><feMergeNode in="SourceGraphic"></feMergeNode></feMerge></filter></defs><g filter="url(#editing-extrusion)"><g transform="translate(185.54500603675842, 81.16000270843506)"><path d="M2.85-11.52L2.85-11.52L10.53-11.52L10.53-11.52Q11.33-11.52 11.89-10.96L11.89-10.96L11.89-10.96Q12.45-10.40 12.45-9.60L12.45-9.60L12.45 0L11.15 0L11.15-4.21L2.22-4.21L2.22 0L0.93 0L0.93-9.60L0.93-9.60Q0.93-10.40 1.49-10.96L1.49-10.96L1.49-10.96Q2.05-11.52 2.85-11.52ZM2.22-9.60L2.22-5.50L11.15-5.50L11.15-9.60L11.15-9.60Q11.15-9.86 10.97-10.04L10.97-10.04L10.97-10.04Q10.78-10.22 10.53-10.22L10.53-10.22L2.85-10.22L2.85-10.22Q2.59-10.22 2.41-10.04L2.41-10.04L2.41-10.04Q2.22-9.86 2.22-9.60L2.22-9.60ZM14.24-9.28L21.76-9.28L21.76-9.28Q22.56-9.28 23.13-8.71L23.13-8.71L23.13-8.71Q23.70-8.14 23.70-7.34L23.70-7.34L23.70 0L22.38 0L22.38-7.34L22.38-7.34Q22.38-7.60 22.20-7.78L22.20-7.78L22.20-7.78Q22.02-7.97 21.76-7.97L21.76-7.97L16.19-7.97L16.19-7.97Q15.94-7.97 15.74-7.78L15.74-7.78L15.74-7.78Q15.55-7.60 15.55-7.34L15.55-7.34L15.55 0L14.24 0L14.24-9.28ZM33.02-9.28L33.02-12.32L34.34-12.32L34.34 0L26.83 0L26.83 0Q26.02 0 25.45-0.57L25.45-0.57L25.45-0.57Q24.88-1.14 24.88-1.94L24.88-1.94L24.88-7.34L24.88-7.34Q24.88-8.14 25.45-8.71L25.45-8.71L25.45-8.71Q26.02-9.28 26.83-9.28L26.83-9.28L33.02-9.28ZM26.83-1.31L26.83-1.31L32.40-1.31L32.40-1.31Q32.66-1.31 32.84-1.50L32.84-1.50L32.84-1.50Q33.02-1.68 33.02-1.94L33.02-1.94L33.02-7.34L33.02-7.34Q33.02-7.60 32.84-7.78L32.84-7.78L32.84-7.78Q32.66-7.97 32.40-7.97L32.40-7.97L26.83-7.97L26.83-7.97Q26.58-7.97 26.39-7.78L26.39-7.78L26.39-7.78Q26.21-7.60 26.21-7.34L26.21-7.34L26.21-1.94L26.21-1.94Q26.21-1.68 26.39-1.50L26.39-1.50L26.39-1.50Q26.58-1.31 26.83-1.31ZM37.95-9.28L37.95-9.28L43.17-9.28L43.17-7.97L37.95-7.97L37.95-7.97Q37.70-7.97 37.51-7.78L37.51-7.78L37.51-7.78Q37.33-7.60 37.33-7.34L37.33-7.34L37.33 0L36.02 0L36.02-7.34L36.02-7.34Q36.02-8.14 36.58-8.71L36.58-8.71L36.58-8.71Q37.15-9.28 37.95-9.28ZM46.05-9.28L46.05-9.28L51.62-9.28L51.62-9.28Q52.43-9.28 53-8.71L53-8.71L53-8.71Q53.57-8.14 53.57-7.34L53.57-7.34L53.57-1.94L53.57-1.94Q53.57-1.14 53-0.57L53-0.57L53-0.57Q52.43 0 51.62 0L51.62 0L46.05 0L46.05 0Q45.25 0 44.68-0.57L44.68-0.57L44.68-0.57Q44.11-1.14 44.11-1.94L44.11-1.94L44.11-7.34L44.11-7.34Q44.11-8.14 44.68-8.71L44.68-8.71L44.68-8.71Q45.25-9.28 46.05-9.28ZM51.62-7.97L51.62-7.97L46.05-7.97L46.05-7.97Q45.79-7.97 45.61-7.78L45.61-7.78L45.61-7.78Q45.42-7.60 45.42-7.34L45.42-7.34L45.42-1.94L45.42-1.94Q45.42-1.68 45.61-1.50L45.61-1.50L45.61-1.50Q45.79-1.31 46.05-1.31L46.05-1.31L51.62-1.31L51.62-1.31Q51.87-1.31 52.06-1.50L52.06-1.50L52.06-1.50Q52.24-1.68 52.24-1.94L52.24-1.94L52.24-7.34L52.24-7.34Q52.24-7.60 52.06-7.78L52.06-7.78L52.06-7.78Q51.87-7.97 51.62-7.97ZM56.51 0L55.20 0L55.20-9.28L56.51-9.28L56.51 0ZM55.20-11.01L55.20-12.32L56.51-12.32L56.51-11.01L55.20-11.01ZM66.21-9.28L66.21-12.32L67.52-12.32L67.52 0L60.02 0L60.02 0Q59.20 0 58.63-0.57L58.63-0.57L58.63-0.57Q58.06-1.14 58.06-1.94L58.06-1.94L58.06-7.34L58.06-7.34Q58.06-8.14 58.63-8.71L58.63-8.71L58.63-8.71Q59.20-9.28 60.02-9.28L60.02-9.28L66.21-9.28ZM60.02-1.31L60.02-1.31L65.58-1.31L65.58-1.31Q65.84-1.31 66.02-1.50L66.02-1.50L66.02-1.50Q66.21-1.68 66.21-1.94L66.21-1.94L66.21-7.34L66.21-7.34Q66.21-7.60 66.02-7.78L66.02-7.78L66.02-7.78Q65.84-7.97 65.58-7.97L65.58-7.97L60.02-7.97L60.02-7.97Q59.76-7.97 59.58-7.78L59.58-7.78L59.58-7.78Q59.39-7.60 59.39-7.34L59.39-7.34L59.39-1.94L59.39-1.94Q59.39-1.68 59.58-1.50L59.58-1.50L59.58-1.50Q59.76-1.31 60.02-1.31ZM85.06-9.60L85.06-9.60L85.06-9.15L83.76-9.15L83.76-9.60L83.76-9.60Q83.76-9.86 83.58-10.04L83.58-10.04L83.58-10.04Q83.39-10.22 83.14-10.22L83.14-10.22L75.46-10.22L75.46-10.22Q75.20-10.22 75.02-10.04L75.02-10.04L75.02-10.04Q74.83-9.86 74.83-9.60L74.83-9.60L74.83-7.02L74.83-7.02Q74.83-6.77 75.02-6.59L75.02-6.59L75.02-6.59Q75.20-6.42 75.46-6.42L75.46-6.42L83.14-6.42L83.14-6.42Q83.94-6.42 84.50-5.86L84.50-5.86L84.50-5.86Q85.06-5.30 85.06-4.50L85.06-4.50L85.06-1.92L85.06-1.92Q85.06-1.12 84.50-0.56L84.50-0.56L84.50-0.56Q83.94 0 83.14 0L83.14 0L75.46 0L75.46 0Q74.66 0 74.10-0.56L74.10-0.56L74.10-0.56Q73.54-1.12 73.54-1.92L73.54-1.92L73.54-2.37L74.83-2.37L74.83-1.92L74.83-1.92Q74.83-1.66 75.02-1.48L75.02-1.48L75.02-1.48Q75.20-1.30 75.46-1.30L75.46-1.30L83.14-1.30L83.14-1.30Q83.39-1.30 83.58-1.48L83.58-1.48L83.58-1.48Q83.76-1.66 83.76-1.92L83.76-1.92L83.76-4.50L83.76-4.50Q83.76-4.75 83.58-4.93L83.58-4.93L83.58-4.93Q83.39-5.10 83.14-5.10L83.14-5.10L75.46-5.10L75.46-5.10Q74.66-5.10 74.10-5.66L74.10-5.66L74.10-5.66Q73.54-6.22 73.54-7.02L73.54-7.02L73.54-9.60L73.54-9.60Q73.54-10.40 74.10-10.96L74.10-10.96L74.10-10.96Q74.66-11.52 75.46-11.52L75.46-11.52L83.14-11.52L83.14-11.52Q83.94-11.52 84.50-10.96L84.50-10.96L84.50-10.96Q85.06-10.40 85.06-9.60ZM92.05-9.28L92.05-7.97L88.03-7.97L88.03-1.94L88.03-1.94Q88.03-1.68 88.22-1.50L88.22-1.50L88.22-1.50Q88.40-1.31 88.66-1.31L88.66-1.31L92.05-1.31L92.05 0L88.66 0L88.66 0Q87.84 0 87.28-0.57L87.28-0.57L87.28-0.57Q86.72-1.14 86.72-1.94L86.72-1.94L86.72-12.32L88.03-12.32L88.03-9.28L92.05-9.28ZM101.42-1.94L101.42-9.28L102.74-9.28L102.74-1.94L102.74-1.94Q102.74-1.14 102.17-0.57L102.17-0.57L102.17-0.57Q101.60 0 100.78 0L100.78 0L95.22 0L95.22 0Q94.42 0 93.85-0.57L93.85-0.57L93.85-0.57Q93.28-1.14 93.28-1.94L93.28-1.94L93.28-9.28L94.59-9.28L94.59-1.94L94.59-1.94Q94.59-1.68 94.78-1.50L94.78-1.50L94.78-1.50Q94.96-1.31 95.22-1.31L95.22-1.31L100.78-1.31L100.78-1.31Q101.04-1.31 101.23-1.50L101.23-1.50L101.23-1.50Q101.42-1.68 101.42-1.94L101.42-1.94ZM112.22-9.28L112.22-12.32L113.54-12.32L113.54 0L106.03 0L106.03 0Q105.22 0 104.65-0.57L104.65-0.57L104.65-0.57Q104.08-1.14 104.08-1.94L104.08-1.94L104.08-7.34L104.08-7.34Q104.08-8.14 104.65-8.71L104.65-8.71L104.65-8.71Q105.22-9.28 106.03-9.28L106.03-9.28L112.22-9.28ZM106.03-1.31L106.03-1.31L111.60-1.31L111.60-1.31Q111.86-1.31 112.04-1.50L112.04-1.50L112.04-1.50Q112.22-1.68 112.22-1.94L112.22-1.94L112.22-7.34L112.22-7.34Q112.22-7.60 112.04-7.78L112.04-7.78L112.04-7.78Q111.86-7.97 111.60-7.97L111.60-7.97L106.03-7.97L106.03-7.97Q105.78-7.97 105.59-7.78L105.59-7.78L105.59-7.78Q105.41-7.60 105.41-7.34L105.41-7.34L105.41-1.94L105.41-1.94Q105.41-1.68 105.59-1.50L105.59-1.50L105.59-1.50Q105.78-1.31 106.03-1.31ZM116.53 0L115.22 0L115.22-9.28L116.53-9.28L116.53 0ZM115.22-11.01L115.22-12.32L116.53-12.32L116.53-11.01L115.22-11.01ZM120.46-9.28L120.46-9.28L126.03-9.28L126.03-9.28Q126.85-9.28 127.42-8.71L127.42-8.71L127.42-8.71Q127.98-8.14 127.98-7.34L127.98-7.34L127.98-1.94L127.98-1.94Q127.98-1.14 127.42-0.57L127.42-0.57L127.42-0.57Q126.85 0 126.03 0L126.03 0L120.46 0L120.46 0Q119.66 0 119.10-0.57L119.10-0.57L119.10-0.57Q118.53-1.14 118.53-1.94L118.53-1.94L118.53-7.34L118.53-7.34Q118.53-8.14 119.10-8.71L119.10-8.71L119.10-8.71Q119.66-9.28 120.46-9.28ZM126.03-7.97L126.03-7.97L120.46-7.97L120.46-7.97Q120.21-7.97 120.02-7.78L120.02-7.78L120.02-7.78Q119.84-7.60 119.84-7.34L119.84-7.34L119.84-1.94L119.84-1.94Q119.84-1.68 120.02-1.50L120.02-1.50L120.02-1.50Q120.21-1.31 120.46-1.31L120.46-1.31L126.03-1.31L126.03-1.31Q126.29-1.31 126.47-1.50L126.47-1.50L126.47-1.50Q126.66-1.68 126.66-1.94L126.66-1.94L126.66-7.34L126.66-7.34Q126.66-7.60 126.47-7.78L126.47-7.78L126.47-7.78Q126.29-7.97 126.03-7.97Z" fill="#4286f5"></path></g></g><style>text {
  font-size: 64px;
  font-family: Arial Black;
  dominant-baseline: central;
  text-anchor: middle;
}</style></svg>