<svg width="163.2880126953125px" height="47.599999999999994px" xmlns="http://www.w3.org/2000/svg" viewBox="168.35599365234376 51.2 163.2880126953125 47.599999999999994" style="background: rgba(0, 0, 0, 0);" preserveAspectRatio="xMidYMid"><defs><filter id="editing-extrusion" x="-100%" y="-100%" width="300%" height="300%"><feFlood result="color1" flood-color="#000000"></feFlood><feConvolveMatrix order="2,2" divisor="1" kernelMatrix="1 0 0 1" in="SourceAlpha" result="extrude"></feConvolveMatrix><feComposite in="color1" in2="extrude" result="comp-extrude" operator="in"></feComposite><feOffset dx="1" dy="1" in="comp-extrude" result="offset-extrude"></feOffset><feMerge><feMergeNode in="offset-extrude"></feMergeNode><feMergeNode in="SourceGraphic"></feMergeNode></feMerge></filter></defs><g filter="url(#editing-extrusion)"><g transform="translate(197.5952535867691, 83.44118022918701)"><path d="M2.18-9.28L8.38-9.28L8.38-9.28Q9.18-9.28 9.75-8.71L9.75-8.71L9.75-8.71Q10.32-8.14 10.32-7.34L10.32-7.34L10.32-1.94L10.32-1.94Q10.32-1.14 9.75-0.57L9.75-0.57L9.75-0.57Q9.18 0 8.38 0L8.38 0L0.86 0L0.86-12.32L2.18-12.32L2.18-9.28ZM9.01-1.94L9.01-1.94L9.01-7.34L9.01-7.34Q9.01-7.60 8.82-7.78L8.82-7.78L8.82-7.78Q8.64-7.97 8.38-7.97L8.38-7.97L2.82-7.97L2.82-7.97Q2.56-7.97 2.37-7.78L2.37-7.78L2.37-7.78Q2.18-7.60 2.18-7.34L2.18-7.34L2.18-1.94L2.18-1.94Q2.18-1.68 2.37-1.50L2.37-1.50L2.37-1.50Q2.56-1.31 2.82-1.31L2.82-1.31L8.38-1.31L8.38-1.31Q8.64-1.31 8.82-1.50L8.82-1.50L8.82-1.50Q9.01-1.68 9.01-1.94ZM20.78-9.25L20.78 1.73L20.78 1.73Q20.78 2.54 20.22 3.11L20.22 3.11L20.22 3.11Q19.66 3.68 18.85 3.68L18.85 3.68L13.06 3.68L13.06 2.35L18.85 2.35L18.85 2.35Q19.10 2.35 19.29 2.17L19.29 2.17L19.29 2.17Q19.47 1.98 19.47 1.73L19.47 1.73L19.47 0L13.28 0L13.28 0Q12.48 0 11.91-0.57L11.91-0.57L11.91-0.57Q11.34-1.14 11.34-1.94L11.34-1.94L11.34-9.25L12.66-9.25L12.66-1.94L12.66-1.94Q12.66-1.68 12.84-1.50L12.84-1.50L12.84-1.50Q13.02-1.31 13.28-1.31L13.28-1.31L18.85-1.31L18.85-1.31Q19.10-1.31 19.29-1.50L19.29-1.50L19.29-1.50Q19.47-1.68 19.47-1.94L19.47-1.94L19.47-9.25L20.78-9.25ZM39.60-2.27L42.94-11.52L44.35-11.52L40.16 0L39.02 0L35.44-9.84L31.86 0L30.74 0L26.54-11.52L27.92-11.52L31.30-2.27L34.66-11.52L36.22-11.52L39.60-2.27ZM47.04-9.28L52.61-9.28L52.61-9.28Q53.42-9.28 53.99-8.71L53.99-8.71L53.99-8.71Q54.56-8.14 54.56-7.34L54.56-7.34L54.56-3.98L46.42-3.98L46.42-1.94L46.42-1.94Q46.42-1.68 46.60-1.50L46.60-1.50L46.60-1.50Q46.78-1.31 47.04-1.31L47.04-1.31L54.56-1.31L54.56 0L47.04 0L47.04 0Q46.24 0 45.67-0.57L45.67-0.57L45.67-0.57Q45.10-1.14 45.10-1.94L45.10-1.94L45.10-7.34L45.10-7.34Q45.10-8.14 45.67-8.71L45.67-8.71L45.67-8.71Q46.24-9.28 47.04-9.28L47.04-9.28ZM46.42-7.34L46.42-5.30L53.23-5.30L53.23-7.34L53.23-7.34Q53.23-7.60 53.05-7.78L53.05-7.78L53.05-7.78Q52.86-7.97 52.61-7.97L52.61-7.97L47.04-7.97L47.04-7.97Q46.78-7.97 46.60-7.78L46.60-7.78L46.60-7.78Q46.42-7.60 46.42-7.34L46.42-7.34ZM57.54-9.28L63.74-9.28L63.74-9.28Q64.54-9.28 65.11-8.71L65.11-8.71L65.11-8.71Q65.68-8.14 65.68-7.34L65.68-7.34L65.68-1.94L65.68-1.94Q65.68-1.14 65.11-0.57L65.11-0.57L65.11-0.57Q64.54 0 63.74 0L63.74 0L56.22 0L56.22-12.32L57.54-12.32L57.54-9.28ZM64.37-1.94L64.37-1.94L64.37-7.34L64.37-7.34Q64.37-7.60 64.18-7.78L64.18-7.78L64.18-7.78Q64-7.97 63.74-7.97L63.74-7.97L58.18-7.97L58.18-7.97Q57.92-7.97 57.73-7.78L57.73-7.78L57.73-7.78Q57.54-7.60 57.54-7.34L57.54-7.34L57.54-1.94L57.54-1.94Q57.54-1.68 57.73-1.50L57.73-1.50L57.73-1.50Q57.92-1.31 58.18-1.31L58.18-1.31L63.74-1.31L63.74-1.31Q64-1.31 64.18-1.50L64.18-1.50L64.18-1.50Q64.37-1.68 64.37-1.94ZM72.21-11.01L68.82-11.01L68.82-11.01Q68.56-11.01 68.38-10.82L68.38-10.82L68.38-10.82Q68.19-10.64 68.19-10.38L68.19-10.38L68.19-9.28L72.21-9.28L72.21-7.97L68.19-7.97L68.19 0L66.88 0L66.88-10.38L66.88-10.38Q66.88-11.20 67.44-11.76L67.44-11.76L67.44-11.76Q68-12.32 68.82-12.32L68.82-12.32L72.21-12.32L72.21-11.01ZM73.38-1.94L73.38-12.32L74.69-12.32L74.69-1.94L74.69-1.94Q74.69-1.68 74.87-1.50L74.87-1.50L74.87-1.50Q75.06-1.31 75.31-1.31L75.31-1.31L76.88-1.31L76.88 0L75.31 0L75.31 0Q74.51 0 73.94-0.57L73.94-0.57L73.94-0.57Q73.38-1.14 73.38-1.94L73.38-1.94ZM79.97-9.28L79.97-9.28L85.54-9.28L85.54-9.28Q86.35-9.28 86.92-8.71L86.92-8.71L86.92-8.71Q87.49-8.14 87.49-7.34L87.49-7.34L87.49-1.94L87.49-1.94Q87.49-1.14 86.92-0.57L86.92-0.57L86.92-0.57Q86.35 0 85.54 0L85.54 0L79.97 0L79.97 0Q79.17 0 78.60-0.57L78.60-0.57L78.60-0.57Q78.03-1.14 78.03-1.94L78.03-1.94L78.03-7.34L78.03-7.34Q78.03-8.14 78.60-8.71L78.60-8.71L78.60-8.71Q79.17-9.28 79.97-9.28ZM85.54-7.97L85.54-7.97L79.97-7.97L79.97-7.97Q79.71-7.97 79.53-7.78L79.53-7.78L79.53-7.78Q79.34-7.60 79.34-7.34L79.34-7.34L79.34-1.94L79.34-1.94Q79.34-1.68 79.53-1.50L79.53-1.50L79.53-1.50Q79.71-1.31 79.97-1.31L79.97-1.31L85.54-1.31L85.54-1.31Q85.79-1.31 85.98-1.50L85.98-1.50L85.98-1.50Q86.16-1.68 86.16-1.94L86.16-1.94L86.16-7.34L86.16-7.34Q86.16-7.60 85.98-7.78L85.98-7.78L85.98-7.78Q85.79-7.97 85.54-7.97ZM100.42-2.38L103.04-9.28L104.46-9.28L100.96 0L99.82 0L96.37-7.66L93.09 0L91.94 0L88.29-9.28L89.70-9.28L92.51-2.37L95.50-9.28L97.23-9.28L100.42-2.38Z" fill="#fefefe"></path></g></g><style>text {
  font-size: 64px;
  font-family: Arial Black;
  dominant-baseline: central;
  text-anchor: middle;
}</style></svg>