<svg width="166.6867431640625px" height="46.4px" xmlns="http://www.w3.org/2000/svg" viewBox="166.65662841796876 51.8 166.6867431640625 46.4" style="background: rgba(0, 0, 0, 0);" preserveAspectRatio="xMidYMid"><defs><filter id="editing-extrusion" x="-100%" y="-100%" width="300%" height="300%"><feFlood result="color1" flood-color="#fedb27"></feFlood><feConvolveMatrix order="2,2" divisor="1" kernelMatrix="1 0 0 1" in="SourceAlpha" result="extrude"></feConvolveMatrix><feComposite in="color1" in2="extrude" result="comp-extrude" operator="in"></feComposite><feOffset dx="1" dy="1" in="comp-extrude" result="offset-extrude"></feOffset><feMerge><feMergeNode in="offset-extrude"></feMergeNode><feMergeNode in="SourceGraphic"></feMergeNode></feMerge></filter></defs><g filter="url(#editing-extrusion)"><g transform="translate(196.04580456018448, 80.76000308990479)"><path d="M12.38-11.52L12.38-10.22L2.82-10.22L2.82-10.22Q2.56-10.22 2.38-10.04L2.38-10.04L2.38-10.04Q2.19-9.86 2.19-9.60L2.19-9.60L2.19-1.92L2.19-1.92Q2.19-1.66 2.38-1.48L2.38-1.48L2.38-1.48Q2.56-1.30 2.82-1.30L2.82-1.30L12.38-1.30L12.38 0L2.82 0L2.82 0Q2.02 0 1.46-0.56L1.46-0.56L1.46-0.56Q0.90-1.12 0.90-1.92L0.90-1.92L0.90-9.60L0.90-9.60Q0.90-10.40 1.46-10.96L1.46-10.96L1.46-10.96Q2.02-11.52 2.82-11.52L2.82-11.52L12.38-11.52ZM16-11.52L16-11.52L23.68-11.52L23.68-11.52Q24.48-11.52 25.04-10.96L25.04-10.96L25.04-10.96Q25.60-10.40 25.60-9.60L25.60-9.60L25.60 0L24.30 0L24.30-4.21L15.38-4.21L15.38 0L14.08 0L14.08-9.60L14.08-9.60Q14.08-10.40 14.64-10.96L14.64-10.96L14.64-10.96Q15.20-11.52 16-11.52ZM15.38-9.60L15.38-5.50L24.30-5.50L24.30-9.60L24.30-9.60Q24.30-9.86 24.12-10.04L24.12-10.04L24.12-10.04Q23.94-10.22 23.68-10.22L23.68-10.22L16-10.22L16-10.22Q15.74-10.22 15.56-10.04L15.56-10.04L15.56-10.04Q15.38-9.86 15.38-9.60L15.38-9.60ZM38.93-9.58L38.93-9.58L38.93-6.21L38.93-6.21Q38.93-5.41 38.37-4.85L38.37-4.85L38.37-4.85Q37.81-4.29 37.01-4.29L37.01-4.29L35.25-4.29L38.86 0L37.15 0L33.55-4.29L29.33-4.29L29.33-4.29Q29.18-4.29 28.70-4.35L28.70-4.35L28.70 0L27.41 0L27.41-11.50L37.01-11.50L37.01-11.50Q37.81-11.50 38.37-10.94L38.37-10.94L38.37-10.94Q38.93-10.38 38.93-9.58ZM29.33-5.60L29.33-5.60L37.01-5.60L37.01-5.60Q37.26-5.60 37.44-5.78L37.44-5.78L37.44-5.78Q37.62-5.95 37.62-6.21L37.62-6.21L37.62-9.58L37.62-9.58Q37.62-9.84 37.44-10.02L37.44-10.02L37.44-10.02Q37.26-10.21 37.01-10.21L37.01-10.21L29.33-10.21L29.33-10.21Q29.07-10.21 28.89-10.02L28.89-10.02L28.89-10.02Q28.70-9.84 28.70-9.58L28.70-9.58L28.70-6.21L28.70-6.21Q28.70-5.95 28.89-5.78L28.89-5.78L28.89-5.78Q29.07-5.60 29.33-5.60ZM42.58-11.52L42.58-11.52L50.26-11.52L50.26-11.52Q51.06-11.52 51.62-10.96L51.62-10.96L51.62-10.96Q52.18-10.40 52.18-9.60L52.18-9.60L52.18 0L50.88 0L50.88-4.21L41.95-4.21L41.95 0L40.66 0L40.66-9.60L40.66-9.60Q40.66-10.40 41.22-10.96L41.22-10.96L41.22-10.96Q41.78-11.52 42.58-11.52ZM41.95-9.60L41.95-5.50L50.88-5.50L50.88-9.60L50.88-9.60Q50.88-9.86 50.70-10.04L50.70-10.04L50.70-10.04Q50.51-10.22 50.26-10.22L50.26-10.22L42.58-10.22L42.58-10.22Q42.32-10.22 42.14-10.04L42.14-10.04L42.14-10.04Q41.95-9.86 41.95-9.60L41.95-9.60ZM55.78-11.52L60.56-5.82L65.34-11.52L67.12-11.52L67.12 0L65.82 0L65.82-10.05L60.56-3.79L55.30-10.05L55.30 0L54 0L54-11.52L55.78-11.52ZM79.71-6.30L79.71-6.30L79.78-6.03L79.78-6.03Q80.42-5.44 80.42-4.61L80.42-4.61L80.42-1.92L80.42-1.92Q80.42-1.12 79.86-0.56L79.86-0.56L79.86-0.56Q79.30 0 78.50 0L78.50 0L68.90 0L68.90-11.52L78-11.52L78-11.52Q78.80-11.52 79.36-10.96L79.36-10.96L79.36-10.96Q79.92-10.40 79.92-9.60L79.92-9.60L79.92-7.15L79.92-7.15Q79.92-6.72 79.71-6.30ZM78-10.22L78-10.22L70.82-10.22L70.82-10.22Q70.56-10.22 70.38-10.04L70.38-10.04L70.38-10.04Q70.19-9.86 70.19-9.60L70.19-9.60L70.19-7.15L70.19-7.15Q70.19-6.90 70.38-6.71L70.38-6.71L70.38-6.71Q70.56-6.53 70.82-6.53L70.82-6.53L78-6.53L78-6.53Q78.26-6.53 78.43-6.71L78.43-6.71L78.43-6.71Q78.61-6.90 78.61-7.15L78.61-7.15L78.61-9.60L78.61-9.60Q78.61-9.86 78.43-10.04L78.43-10.04L78.43-10.04Q78.26-10.22 78-10.22ZM79.12-1.92L79.12-1.92L79.12-4.61L79.12-4.61Q79.12-4.86 78.94-5.05L78.94-5.05L78.94-5.05Q78.75-5.23 78.50-5.23L78.50-5.23L70.82-5.23L70.82-5.23Q70.56-5.23 70.38-5.05L70.38-5.05L70.38-5.05Q70.19-4.86 70.19-4.61L70.19-4.61L70.19-1.92L70.19-1.92Q70.19-1.66 70.38-1.48L70.38-1.48L70.38-1.48Q70.56-1.30 70.82-1.30L70.82-1.30L78.50-1.30L78.50-1.30Q78.75-1.30 78.94-1.48L78.94-1.48L78.94-1.48Q79.12-1.66 79.12-1.92ZM84.11-11.52L84.11-11.52L91.79-11.52L91.79-11.52Q92.59-11.52 93.15-10.96L93.15-10.96L93.15-10.96Q93.71-10.40 93.71-9.60L93.71-9.60L93.71 0L92.42 0L92.42-4.21L83.49-4.21L83.49 0L82.19 0L82.19-9.60L82.19-9.60Q82.19-10.40 82.75-10.96L82.75-10.96L82.75-10.96Q83.31-11.52 84.11-11.52ZM83.49-9.60L83.49-5.50L92.42-5.50L92.42-9.60L92.42-9.60Q92.42-9.86 92.23-10.04L92.23-10.04L92.23-10.04Q92.05-10.22 91.79-10.22L91.79-10.22L84.11-10.22L84.11-10.22Q83.86-10.22 83.67-10.04L83.67-10.04L83.67-10.04Q83.49-9.86 83.49-9.60L83.49-9.60ZM107.04-9.58L107.04-9.58L107.04-6.21L107.04-6.21Q107.04-5.41 106.48-4.85L106.48-4.85L106.48-4.85Q105.92-4.29 105.12-4.29L105.12-4.29L103.36-4.29L106.98 0L105.26 0L101.66-4.29L97.44-4.29L97.44-4.29Q97.30-4.29 96.82-4.35L96.82-4.35L96.82 0L95.52 0L95.52-11.50L105.12-11.50L105.12-11.50Q105.92-11.50 106.48-10.94L106.48-10.94L106.48-10.94Q107.04-10.38 107.04-9.58ZM97.44-5.60L97.44-5.60L105.12-5.60L105.12-5.60Q105.38-5.60 105.55-5.78L105.55-5.78L105.55-5.78Q105.73-5.95 105.73-6.21L105.73-6.21L105.73-9.58L105.73-9.58Q105.73-9.84 105.55-10.02L105.55-10.02L105.55-10.02Q105.38-10.21 105.12-10.21L105.12-10.21L97.44-10.21L97.44-10.21Q97.18-10.21 97-10.02L97-10.02L97-10.02Q96.82-9.84 96.82-9.58L96.82-9.58L96.82-6.21L96.82-6.21Q96.82-5.95 97-5.78L97-5.78L97-5.78Q97.18-5.60 97.44-5.60Z" fill="#e3097e"></path></g></g><style>text {
  font-size: 64px;
  font-family: Arial Black;
  dominant-baseline: central;
  text-anchor: middle;
}</style></svg>