<svg width="90.41533203125px" height="46.4px" xmlns="http://www.w3.org/2000/svg" viewBox="204.792333984375 51.8 90.41533203125 46.4" style="background: rgba(0, 0, 0, 0);" preserveAspectRatio="xMidYMid"><defs><filter id="editing-extrusion" x="-100%" y="-100%" width="300%" height="300%"><feFlood result="color1" flood-color="#444444"></feFlood><feConvolveMatrix order="1,1" divisor="1" kernelMatrix="1" in="SourceAlpha" result="extrude"></feConvolveMatrix><feComposite in="color1" in2="extrude" result="comp-extrude" operator="in"></feComposite><feOffset dx="0.5" dy="0.5" in="comp-extrude" result="offset-extrude"></feOffset><feMerge><feMergeNode in="offset-extrude"></feMergeNode><feMergeNode in="SourceGraphic"></feMergeNode></feMerge></filter></defs><g filter="url(#editing-extrusion)"><g transform="translate(223.91902208328247, 80.60000276565552)"><path d="M1.44-1.60L1.44-9.60L1.44-9.60Q1.44-9.93 1.56-10.22L1.56-10.22L1.56-10.22Q1.69-10.52 1.91-10.73L1.91-10.73L1.91-10.73Q2.13-10.95 2.42-11.07L2.42-11.07L2.42-11.07Q2.71-11.20 3.04-11.20L3.04-11.20L9.12-11.20L9.12-11.20Q9.45-11.20 9.74-11.07L9.74-11.07L9.74-11.07Q10.03-10.95 10.25-10.73L10.25-10.73L10.25-10.73Q10.47-10.52 10.59-10.22L10.59-10.22L10.59-10.22Q10.72-9.93 10.72-9.60L10.72-9.60L10.72-8.16L9.12-8.16L9.12-9.60L3.04-9.60L3.04-1.60L9.12-1.60L9.12-3.04L10.72-3.04L10.72-1.60L10.72-1.60Q10.72-1.27 10.59-0.98L10.59-0.98L10.59-0.98Q10.47-0.69 10.25-0.47L10.25-0.47L10.25-0.47Q10.03-0.25 9.74-0.13L9.74-0.13L9.74-0.13Q9.45 0 9.12 0L9.12 0L3.04 0L3.04 0Q2.71 0 2.42-0.13L2.42-0.13L2.42-0.13Q2.13-0.25 1.91-0.47L1.91-0.47L1.91-0.47Q1.69-0.69 1.56-0.98L1.56-0.98L1.56-0.98Q1.44-1.27 1.44-1.60L1.44-1.60ZM20.32-4.80L14.88-4.80L14.88-4.80Q14.55-4.80 14.26-4.93L14.26-4.93L14.26-4.93Q13.97-5.05 13.75-5.27L13.75-5.27L13.75-5.27Q13.53-5.48 13.41-5.78L13.41-5.78L13.41-5.78Q13.28-6.07 13.28-6.40L13.28-6.40L13.28-9.60L13.28-9.60Q13.28-9.93 13.41-10.22L13.41-10.22L13.41-10.22Q13.53-10.52 13.75-10.73L13.75-10.73L13.75-10.73Q13.97-10.95 14.26-11.07L14.26-11.07L14.26-11.07Q14.55-11.20 14.88-11.20L14.88-11.20L20.32-11.20L20.32-11.20Q20.65-11.20 20.94-11.07L20.94-11.07L20.94-11.07Q21.23-10.95 21.45-10.73L21.45-10.73L21.45-10.73Q21.67-10.52 21.80-10.22L21.80-10.22L21.80-10.22Q21.92-9.93 21.92-9.60L21.92-9.60L21.92-8.16L20.32-8.16L20.32-9.60L14.88-9.60L14.88-6.40L20.32-6.40L20.32-6.40Q20.65-6.40 20.94-6.27L20.94-6.27L20.94-6.27Q21.23-6.15 21.45-5.93L21.45-5.93L21.45-5.93Q21.67-5.71 21.80-5.42L21.80-5.42L21.80-5.42Q21.92-5.13 21.92-4.80L21.92-4.80L21.92-1.60L21.92-1.60Q21.92-1.27 21.80-0.98L21.80-0.98L21.80-0.98Q21.67-0.69 21.45-0.47L21.45-0.47L21.45-0.47Q21.23-0.25 20.94-0.13L20.94-0.13L20.94-0.13Q20.65 0 20.32 0L20.32 0L14.73 0L14.73 0Q14.40 0 14.11-0.13L14.11-0.13L14.11-0.13Q13.81-0.25 13.59-0.47L13.59-0.47L13.59-0.47Q13.38-0.69 13.25-0.98L13.25-0.98L13.25-0.98Q13.13-1.27 13.13-1.60L13.13-1.60L13.13-3.04L14.73-3.04L14.73-1.60L20.32-1.60L20.32-4.80ZM31.84-4.80L26.41-4.80L26.41-4.80Q26.08-4.80 25.79-4.93L25.79-4.93L25.79-4.93Q25.49-5.05 25.27-5.27L25.27-5.27L25.27-5.27Q25.05-5.48 24.93-5.78L24.93-5.78L24.93-5.78Q24.80-6.07 24.80-6.40L24.80-6.40L24.80-9.60L24.80-9.60Q24.80-9.93 24.93-10.22L24.93-10.22L24.93-10.22Q25.05-10.52 25.27-10.73L25.27-10.73L25.27-10.73Q25.49-10.95 25.79-11.07L25.79-11.07L25.79-11.07Q26.08-11.20 26.41-11.20L26.41-11.20L31.84-11.20L31.84-11.20Q32.17-11.20 32.46-11.07L32.46-11.07L32.46-11.07Q32.76-10.95 32.98-10.73L32.98-10.73L32.98-10.73Q33.20-10.52 33.32-10.22L33.32-10.22L33.32-10.22Q33.45-9.93 33.45-9.60L33.45-9.60L33.45-8.16L31.84-8.16L31.84-9.60L26.41-9.60L26.41-6.40L31.84-6.40L31.84-6.40Q32.17-6.40 32.46-6.27L32.46-6.27L32.46-6.27Q32.76-6.15 32.98-5.93L32.98-5.93L32.98-5.93Q33.20-5.71 33.32-5.42L33.32-5.42L33.32-5.42Q33.45-5.13 33.45-4.80L33.45-4.80L33.45-1.60L33.45-1.60Q33.45-1.27 33.32-0.98L33.32-0.98L33.32-0.98Q33.20-0.69 32.98-0.47L32.98-0.47L32.98-0.47Q32.76-0.25 32.46-0.13L32.46-0.13L32.46-0.13Q32.17 0 31.84 0L31.84 0L26.25 0L26.25 0Q25.92 0 25.63-0.13L25.63-0.13L25.63-0.13Q25.34-0.25 25.12-0.47L25.12-0.47L25.12-0.47Q24.90-0.69 24.77-0.98L24.77-0.98L24.77-0.98Q24.65-1.27 24.65-1.60L24.65-1.60L24.65-3.04L26.25-3.04L26.25-1.60L31.84-1.60L31.84-4.80ZM36.17-3.74L36.17-5.28L39.91-5.28L39.91-3.74L36.17-3.74ZM41.99-2.72L41.99-3.39L43.56-3.39L43.56-2.80L43.56-2.80Q43.56-2.16 43.84-1.87L43.84-1.87L43.84-1.87Q44.13-1.57 44.77-1.57L44.77-1.57L47.99-1.57L47.99-1.57Q48.63-1.57 48.91-1.87L48.91-1.87L48.91-1.87Q49.20-2.16 49.20-2.80L49.20-2.80L49.20-3.66L49.20-3.66Q49.20-4.30 48.91-4.59L48.91-4.59L48.91-4.59Q48.63-4.88 47.99-4.88L47.99-4.88L44.68-4.88L44.68-6.45L47.95-6.45L47.95-6.45Q48.53-6.47 48.79-6.76L48.79-6.76L48.79-6.76Q49.04-7.05 49.04-7.66L49.04-7.66L49.04-8.40L49.04-8.40Q49.04-9.04 48.75-9.34L48.75-9.34L48.75-9.34Q48.47-9.63 47.84-9.63L47.84-9.63L44.92-9.63L44.92-9.63Q44.29-9.63 44.01-9.34L44.01-9.34L44.01-9.34Q43.73-9.04 43.73-8.40L43.73-8.40L43.73-7.80L42.16-7.80L42.16-8.48L42.16-8.48Q42.16-11.20 44.88-11.20L44.88-11.20L47.88-11.20L47.88-11.20Q49.27-11.20 49.93-10.53L49.93-10.53L49.93-10.53Q50.60-9.86 50.60-8.48L50.60-8.48L50.60-8.27L50.60-8.27Q50.60-7.33 50.27-6.71L50.27-6.71L50.27-6.71Q49.94-6.10 49.30-5.80L49.30-5.80L49.30-5.80Q50.02-5.59 50.39-4.96L50.39-4.96L50.39-4.96Q50.77-4.33 50.77-3.28L50.77-3.28L50.77-2.72L50.77-2.72Q50.77 0 48.05 0L48.05 0L44.72 0L44.72 0Q41.99 0 41.99-2.72L41.99-2.72Z" fill="#0074bf"></path></g></g><style>text {
  font-size: 64px;
  font-family: Arial Black;
  dominant-baseline: central;
  text-anchor: middle;
}</style></svg>