<svg width="122.225px" height="47.599999999999994px" xmlns="http://www.w3.org/2000/svg" viewBox="188.8875 51.2 122.225 47.599999999999994" style="background: rgba(0, 0, 0, 0);" preserveAspectRatio="xMidYMid"><defs><filter id="editing-extrusion" x="-100%" y="-100%" width="300%" height="300%"><feFlood result="color1" flood-color="#000000"></feFlood><feConvolveMatrix order="1,1" divisor="1" kernelMatrix="1" in="SourceAlpha" result="extrude"></feConvolveMatrix><feComposite in="color1" in2="extrude" result="comp-extrude" operator="in"></feComposite><feOffset dx="0.5" dy="0.5" in="comp-extrude" result="offset-extrude"></feOffset><feMerge><feMergeNode in="offset-extrude"></feMergeNode><feMergeNode in="SourceGraphic"></feMergeNode></feMerge></filter></defs><g filter="url(#editing-extrusion)"><g transform="translate(212.32502007484436, 83.04118013381958)"><path d="M0.93-11.52L11.44-11.52L11.44-10.22L2.22-10.22L2.22-6.42L9.63-6.42L9.63-5.10L2.22-5.10L2.22-1.30L11.44-1.30L11.44 0L0.93 0L0.93-11.52ZM17.73-5.76L20.75-9.28L22.46-9.28L18.59-4.72L22.48 0L20.75 0L17.73-3.71L14.72 0L12.99 0L16.86-4.72L12.99-9.28L14.72-9.28L17.73-5.76ZM24.19-9.28L31.71-9.28L31.71-9.28Q32.51-9.28 33.08-8.71L33.08-8.71L33.08-8.71Q33.65-8.14 33.65-7.34L33.65-7.34L33.65-1.94L33.65-1.94Q33.65-1.14 33.08-0.57L33.08-0.57L33.08-0.57Q32.51 0 31.71 0L31.71 0L25.50 0L25.50 3.68L24.19 3.68L24.19-9.28ZM32.34-1.94L32.34-1.94L32.34-7.34L32.34-7.34Q32.34-7.60 32.15-7.78L32.15-7.78L32.15-7.78Q31.97-7.97 31.71-7.97L31.71-7.97L26.14-7.97L26.14-7.97Q25.89-7.97 25.70-7.78L25.70-7.78L25.70-7.78Q25.50-7.60 25.50-7.34L25.50-7.34L25.50-1.94L25.50-1.94Q25.50-1.68 25.70-1.50L25.70-1.50L25.70-1.50Q25.89-1.31 26.14-1.31L26.14-1.31L31.71-1.31L31.71-1.31Q31.97-1.31 32.15-1.50L32.15-1.50L32.15-1.50Q32.34-1.68 32.34-1.94ZM36.72-9.28L36.72-9.28L41.94-9.28L41.94-7.97L36.72-7.97L36.72-7.97Q36.46-7.97 36.28-7.78L36.28-7.78L36.28-7.78Q36.10-7.60 36.10-7.34L36.10-7.34L36.10 0L34.78 0L34.78-7.34L34.78-7.34Q34.78-8.14 35.35-8.71L35.35-8.71L35.35-8.71Q35.92-9.28 36.72-9.28ZM44.90-9.28L50.46-9.28L50.46-9.28Q51.28-9.28 51.85-8.71L51.85-8.71L51.85-8.71Q52.42-8.14 52.42-7.34L52.42-7.34L52.42-3.98L44.27-3.98L44.27-1.94L44.27-1.94Q44.27-1.68 44.46-1.50L44.46-1.50L44.46-1.50Q44.64-1.31 44.90-1.31L44.90-1.31L52.42-1.31L52.42 0L44.90 0L44.90 0Q44.10 0 43.53-0.57L43.53-0.57L43.53-0.57Q42.96-1.14 42.96-1.94L42.96-1.94L42.96-7.34L42.96-7.34Q42.96-8.14 43.53-8.71L43.53-8.71L43.53-8.71Q44.10-9.28 44.90-9.28L44.90-9.28ZM44.27-7.34L44.27-5.30L51.09-5.30L51.09-7.34L51.09-7.34Q51.09-7.60 50.90-7.78L50.90-7.78L50.90-7.78Q50.72-7.97 50.46-7.97L50.46-7.97L44.90-7.97L44.90-7.97Q44.64-7.97 44.46-7.78L44.46-7.78L44.46-7.78Q44.27-7.60 44.27-7.34L44.27-7.34ZM63.44-7.34L63.44-7.34L63.44-7.22L62.11-7.22L62.11-7.34L62.11-7.34Q62.11-7.60 61.93-7.78L61.93-7.78L61.93-7.78Q61.74-7.97 61.49-7.97L61.49-7.97L55.92-7.97L55.92-7.97Q55.66-7.97 55.48-7.78L55.48-7.78L55.48-7.78Q55.30-7.60 55.30-7.34L55.30-7.34L55.30-5.92L55.30-5.92Q55.30-5.66 55.48-5.48L55.48-5.48L55.48-5.48Q55.66-5.30 55.92-5.30L55.92-5.30L61.49-5.30L61.49-5.30Q62.30-5.30 62.87-4.73L62.87-4.73L62.87-4.73Q63.44-4.16 63.44-3.36L63.44-3.36L63.44-1.94L63.44-1.94Q63.44-1.14 62.87-0.57L62.87-0.57L62.87-0.57Q62.30 0 61.49 0L61.49 0L55.92 0L55.92 0Q55.12 0 54.55-0.57L54.55-0.57L54.55-0.57Q53.98-1.14 53.98-1.94L53.98-1.94L53.98-2.06L55.30-2.06L55.30-1.94L55.30-1.94Q55.30-1.68 55.48-1.50L55.48-1.50L55.48-1.50Q55.66-1.31 55.92-1.31L55.92-1.31L61.49-1.31L61.49-1.31Q61.74-1.31 61.93-1.50L61.93-1.50L61.93-1.50Q62.11-1.68 62.11-1.94L62.11-1.94L62.11-3.36L62.11-3.36Q62.11-3.62 61.93-3.80L61.93-3.80L61.93-3.80Q61.74-3.98 61.49-3.98L61.49-3.98L55.92-3.98L55.92-3.98Q55.12-3.98 54.55-4.55L54.55-4.55L54.55-4.55Q53.98-5.12 53.98-5.92L53.98-5.92L53.98-7.34L53.98-7.34Q53.98-8.14 54.55-8.71L54.55-8.71L54.55-8.71Q55.12-9.28 55.92-9.28L55.92-9.28L61.49-9.28L61.49-9.28Q62.30-9.28 62.87-8.71L62.87-8.71L62.87-8.71Q63.44-8.14 63.44-7.34ZM74.42-7.34L74.42-7.34L74.42-7.22L73.09-7.22L73.09-7.34L73.09-7.34Q73.09-7.60 72.90-7.78L72.90-7.78L72.90-7.78Q72.72-7.97 72.46-7.97L72.46-7.97L66.90-7.97L66.90-7.97Q66.64-7.97 66.46-7.78L66.46-7.78L66.46-7.78Q66.27-7.60 66.27-7.34L66.27-7.34L66.27-5.92L66.27-5.92Q66.27-5.66 66.46-5.48L66.46-5.48L66.46-5.48Q66.64-5.30 66.90-5.30L66.90-5.30L72.46-5.30L72.46-5.30Q73.28-5.30 73.85-4.73L73.85-4.73L73.85-4.73Q74.42-4.16 74.42-3.36L74.42-3.36L74.42-1.94L74.42-1.94Q74.42-1.14 73.85-0.57L73.85-0.57L73.85-0.57Q73.28 0 72.46 0L72.46 0L66.90 0L66.90 0Q66.10 0 65.53-0.57L65.53-0.57L65.53-0.57Q64.96-1.14 64.96-1.94L64.96-1.94L64.96-2.06L66.27-2.06L66.27-1.94L66.27-1.94Q66.27-1.68 66.46-1.50L66.46-1.50L66.46-1.50Q66.64-1.31 66.90-1.31L66.90-1.31L72.46-1.31L72.46-1.31Q72.72-1.31 72.90-1.50L72.90-1.50L72.90-1.50Q73.09-1.68 73.09-1.94L73.09-1.94L73.09-3.36L73.09-3.36Q73.09-3.62 72.90-3.80L72.90-3.80L72.90-3.80Q72.72-3.98 72.46-3.98L72.46-3.98L66.90-3.98L66.90-3.98Q66.10-3.98 65.53-4.55L65.53-4.55L65.53-4.55Q64.96-5.12 64.96-5.92L64.96-5.92L64.96-7.34L64.96-7.34Q64.96-8.14 65.53-8.71L65.53-8.71L65.53-8.71Q66.10-9.28 66.90-9.28L66.90-9.28L72.46-9.28L72.46-9.28Q73.28-9.28 73.85-8.71L73.85-8.71L73.85-8.71Q74.42-8.14 74.42-7.34Z" fill="#000000"></path></g></g><style>text {
  font-size: 64px;
  font-family: Arial Black;
  dominant-baseline: central;
  text-anchor: middle;
}</style></svg>