<svg width="91.49374999999999px" height="47.599999999999994px" xmlns="http://www.w3.org/2000/svg" viewBox="204.253125 51.2 91.49374999999999 47.599999999999994" style="background: none;" preserveAspectRatio="xMidYMid"><defs><filter id="editing-extrusion" x="-100%" y="-100%" width="300%" height="300%"><feFlood result="color1" flood-color="#000000"></feFlood><feConvolveMatrix order="1,1" divisor="1" kernelMatrix="1" in="SourceAlpha" result="extrude"></feConvolveMatrix><feComposite in="color1" in2="extrude" result="comp-extrude" operator="in"></feComposite><feOffset dx="0.5" dy="0.5" in="comp-extrude" result="offset-extrude"></feOffset><feMerge><feMergeNode in="offset-extrude"></feMergeNode><feMergeNode in="SourceGraphic"></feMergeNode></feMerge></filter></defs><g filter="url(#editing-extrusion)"><g transform="translate(223.65501427650452, 83.43117952346802)"><path d="M0.93 0L0.93-11.52L11.44-11.52L11.44-10.22L2.22-10.22L2.22-6.42L9.63-6.42L9.63-5.10L2.22-5.10L2.22 0L0.93 0ZM13.71 0L12.40 0L12.40-9.28L13.71-9.28L13.71 0ZM12.40-11.01L12.40-12.32L13.71-12.32L13.71-11.01L12.40-11.01ZM24.99-7.34L24.99 1.71L24.99 1.71Q24.99 2.53 24.43 3.10L24.43 3.10L24.43 3.10Q23.87 3.66 23.06 3.66L23.06 3.66L17.26 3.66L17.26 2.34L23.06 2.34L23.06 2.34Q23.31 2.34 23.50 2.15L23.50 2.15L23.50 2.15Q23.68 1.97 23.68 1.71L23.68 1.71L23.68 0L17.49 0L17.49 0Q16.69 0 16.12-0.57L16.12-0.57L16.12-0.57Q15.55-1.14 15.55-1.94L15.55-1.94L15.55-7.34L15.55-7.34Q15.55-8.14 16.12-8.71L16.12-8.71L16.12-8.71Q16.69-9.28 17.49-9.28L17.49-9.28L23.06-9.28L23.06-9.28Q23.87-9.28 24.43-8.71L24.43-8.71L24.43-8.71Q24.99-8.14 24.99-7.34L24.99-7.34ZM17.49-1.31L17.49-1.31L23.06-1.31L23.06-1.31Q23.31-1.31 23.50-1.50L23.50-1.50L23.50-1.50Q23.68-1.68 23.68-1.94L23.68-1.94L23.68-7.34L23.68-7.34Q23.68-7.60 23.50-7.78L23.50-7.78L23.50-7.78Q23.31-7.97 23.06-7.97L23.06-7.97L17.49-7.97L17.49-7.97Q17.23-7.97 17.05-7.78L17.05-7.78L17.05-7.78Q16.86-7.60 16.86-7.34L16.86-7.34L16.86-1.94L16.86-1.94Q16.86-1.68 17.05-1.50L17.05-1.50L17.05-1.50Q17.23-1.31 17.49-1.31ZM26.69-9.28L38.94-9.28L38.94-9.28Q39.76-9.28 40.32-8.71L40.32-8.71L40.32-8.71Q40.88-8.14 40.88-7.34L40.88-7.34L40.88 0L39.58 0L39.58-7.34L39.58-7.34Q39.58-7.60 39.39-7.78L39.39-7.78L39.39-7.78Q39.20-7.97 38.94-7.97L38.94-7.97L35.09-7.97L35.09-7.97Q34.83-7.97 34.65-7.78L34.65-7.78L34.65-7.78Q34.46-7.60 34.46-7.34L34.46-7.34L34.46 0L33.14 0L33.14-7.34L33.14-7.34Q33.14-7.60 32.95-7.78L32.95-7.78L32.95-7.78Q32.77-7.97 32.51-7.97L32.51-7.97L28.64-7.97L28.64-7.97Q28.38-7.97 28.20-7.78L28.20-7.78L28.20-7.78Q28.02-7.60 28.02-7.34L28.02-7.34L28.02 0L26.69 0L26.69-9.28ZM42.30-9.28L49.81-9.28L49.81-9.28Q50.62-9.28 51.19-8.71L51.19-8.71L51.19-8.71Q51.76-8.14 51.76-7.34L51.76-7.34L51.76 0L44.24 0L44.24 0Q43.44 0 42.87-0.57L42.87-0.57L42.87-0.57Q42.30-1.14 42.30-1.94L42.30-1.94L42.30-5.30L50.43-5.30L50.43-7.34L50.43-7.34Q50.43-7.60 50.25-7.78L50.25-7.78L50.25-7.78Q50.06-7.97 49.81-7.97L49.81-7.97L42.30-7.97L42.30-9.28ZM44.24-1.31L50.43-1.31L50.43-3.98L43.62-3.98L43.62-1.94L43.62-1.94Q43.62-1.68 43.80-1.50L43.80-1.50L43.80-1.50Q43.98-1.31 44.24-1.31L44.24-1.31Z" fill="#fe7160"></path></g></g><style>text {
  font-size: 64px;
  font-family: Arial Black;
  dominant-baseline: central;
  text-anchor: middle;
}</style></svg>