<svg width="70.439404296875px" height="50px" xmlns="http://www.w3.org/2000/svg" viewBox="214.7802978515625 50 70.439404296875 50" style="background: rgba(0, 0, 0, 0);" preserveAspectRatio="xMidYMid"><defs><filter id="editing-extrusion" x="-100%" y="-100%" width="300%" height="300%"><feFlood result="color1" flood-color="#a057ff"></feFlood><feConvolveMatrix order="1,1" divisor="1" kernelMatrix="1" in="SourceAlpha" result="extrude"></feConvolveMatrix><feComposite in="color1" in2="extrude" result="comp-extrude" operator="in"></feComposite><feOffset dx="0.5" dy="0.5" in="comp-extrude" result="offset-extrude"></feOffset><feMerge><feMergeNode in="offset-extrude"></feMergeNode><feMergeNode in="SourceGraphic"></feMergeNode></feMerge></filter></defs><g filter="url(#editing-extrusion)"><g transform="translate(231.6478089094162, 82.24000120162964)"><path d="M1.12 0L1.12-10.98L7.46-10.98L7.46-9.70L2.53-9.70L2.53-6.14L6.88-6.14L6.88-4.86L2.53-4.86L2.53 0L1.12 0ZM8.82-10L8.82-11.57L10.13-11.57L10.13-10L8.82-10ZM8.82 0L8.82-8.42L10.13-8.42L10.13 0L8.82 0ZM13.22 2.91L13.22 2.91Q12.22 2.91 11.68 2.34L11.68 2.34L11.68 2.34Q11.14 1.78 11.14 0.91L11.14 0.91L11.14 0.91Q11.14 0.29 11.43-0.20L11.43-0.20L11.43-0.20Q11.73-0.69 12.22-0.88L12.22-0.88L12.22-0.88Q11.90-1.09 11.72-1.42L11.72-1.42L11.72-1.42Q11.54-1.76 11.54-2.14L11.54-2.14L11.54-2.14Q11.54-2.64 11.86-3.02L11.86-3.02L11.86-3.02Q12.18-3.41 12.72-3.60L12.72-3.60L12.72-3.60Q11.74-4.40 11.74-5.78L11.74-5.78L11.74-5.78Q11.74-7.10 12.48-7.86L12.48-7.86L12.48-7.86Q13.22-8.61 14.50-8.61L14.50-8.61L14.50-8.61Q15.15-8.61 15.71-8.30L15.71-8.30L15.71-8.30Q16.22-8.58 16.46-8.94L16.46-8.94L16.46-8.94Q16.69-9.31 16.75-9.78L16.75-9.78L17.90-9.78L17.90-9.78Q17.90-9.01 17.53-8.46L17.53-8.46L17.53-8.46Q17.15-7.92 16.50-7.76L16.50-7.76L16.50-7.76Q17.25-6.98 17.25-5.78L17.25-5.78L17.25-5.78Q17.25-4.48 16.52-3.72L16.52-3.72L16.52-3.72Q15.79-2.96 14.56-2.94L14.56-2.94L13.68-2.94L13.68-2.94Q13.36-2.94 13.14-2.73L13.14-2.73L13.14-2.73Q12.91-2.51 12.91-2.19L12.91-2.19L12.91-2.19Q12.91-1.89 13.14-1.66L13.14-1.66L13.14-1.66Q13.36-1.44 13.68-1.44L13.68-1.44L16.08-1.44L16.08-1.44Q16.98-1.44 17.52-0.87L17.52-0.87L17.52-0.87Q18.06-0.30 18.06 0.53L18.06 0.53L18.06 0.53Q18.06 1.57 17.42 2.24L17.42 2.24L17.42 2.24Q16.77 2.91 15.60 2.91L15.60 2.91L13.22 2.91ZM14.48-4.03L14.48-4.03Q15.17-4.03 15.54-4.50L15.54-4.50L15.54-4.50Q15.92-4.96 15.92-5.78L15.92-5.78L15.92-5.78Q15.92-6.62 15.54-7.07L15.54-7.07L15.54-7.07Q15.17-7.52 14.48-7.52L14.48-7.52L14.48-7.52Q13.79-7.52 13.42-7.06L13.42-7.06L13.42-7.06Q13.06-6.59 13.06-5.78L13.06-5.78L13.06-5.78Q13.06-4.93 13.42-4.48L13.42-4.48L13.42-4.48Q13.79-4.03 14.48-4.03L14.48-4.03ZM13.42 1.78L15.74 1.78L15.74 1.78Q16.16 1.78 16.45 1.49L16.45 1.49L16.45 1.49Q16.74 1.20 16.74 0.78L16.74 0.78L16.74 0.78Q16.74 0.35 16.48 0.08L16.48 0.08L16.48 0.08Q16.22-0.19 15.74-0.19L15.74-0.19L13.42-0.19L13.42-0.19Q12.94-0.19 12.70 0.08L12.70 0.08L12.70 0.08Q12.45 0.35 12.45 0.78L12.45 0.78L12.45 0.78Q12.45 1.22 12.70 1.50L12.70 1.50L12.70 1.50Q12.96 1.78 13.42 1.78L13.42 1.78ZM19.18 0L19.18-8.42L20.18-8.42L20.35-7.44L20.45-7.44L20.45-7.44Q21.07-8.61 22.37-8.61L22.37-8.61L22.37-8.61Q23.73-8.61 24.16-7.39L24.16-7.39L24.16-7.39Q24.48-7.98 25.03-8.30L25.03-8.30L25.03-8.30Q25.58-8.61 26.21-8.61L26.21-8.61L26.21-8.61Q28.19-8.61 28.19-6.06L28.19-6.06L28.19 0L26.88 0L26.88-5.97L26.88-5.97Q26.88-6.78 26.59-7.11L26.59-7.11L26.59-7.11Q26.30-7.44 25.79-7.44L25.79-7.44L25.79-7.44Q25.18-7.44 24.77-6.82L24.77-6.82L24.77-6.82Q24.35-6.19 24.35-5.14L24.35-5.14L24.35 0L23.04 0L23.04-5.97L23.04-5.97Q23.04-6.78 22.75-7.11L22.75-7.11L22.75-7.11Q22.46-7.44 21.95-7.44L21.95-7.44L21.95-7.44Q21.34-7.44 20.92-6.82L20.92-6.82L20.92-6.82Q20.50-6.19 20.50-5.14L20.50-5.14L20.50 0L19.18 0ZM31.90 0.19L31.90 0.19Q31.04 0.19 30.37-0.32L30.37-0.32L30.37-0.32Q29.70-0.83 29.70-2.18L29.70-2.18L29.70-2.18Q29.70-3.79 30.79-4.39L30.79-4.39L30.79-4.39Q31.89-4.99 33.95-4.99L33.95-4.99L33.95-6.08L33.95-6.08Q33.95-6.74 33.66-7.09L33.66-7.09L33.66-7.09Q33.38-7.44 32.62-7.44L32.62-7.44L32.62-7.44Q31.94-7.44 31.63-7.06L31.63-7.06L31.63-7.06Q31.33-6.67 31.33-6.11L31.33-6.11L31.33-5.92L30.03-5.92L30.03-5.92Q30.02-6.02 30.02-6.27L30.02-6.27L30.02-6.27Q30.02-7.39 30.75-8L30.75-8L30.75-8Q31.49-8.61 32.72-8.61L32.72-8.61L32.72-8.61Q33.98-8.61 34.62-8L34.62-8L34.62-8Q35.26-7.39 35.26-6.26L35.26-6.26L35.26-1.54L35.26-1.54Q35.26-1.26 35.39-1.12L35.39-1.12L35.39-1.12Q35.52-0.98 35.71-0.98L35.71-0.98L36.22-0.98L36.22-0.06L36.22-0.06Q35.87 0.13 35.36 0.13L35.36 0.13L35.36 0.13Q34.85 0.13 34.50-0.15L34.50-0.15L34.50-0.15Q34.16-0.43 34.03-0.91L34.03-0.91L33.95-0.91L33.95-0.91Q33.63-0.38 33.10-0.10L33.10-0.10L33.10-0.10Q32.56 0.19 31.90 0.19L31.90 0.19ZM32.21-0.98L32.21-0.98Q32.64-0.98 33.04-1.22L33.04-1.22L33.04-1.22Q33.44-1.46 33.70-1.93L33.70-1.93L33.70-1.93Q33.95-2.40 33.95-3.06L33.95-3.06L33.95-3.82L33.95-3.82Q32.51-3.82 31.79-3.50L31.79-3.50L31.79-3.50Q31.07-3.17 31.07-2.26L31.07-2.26L31.07-2.26Q31.07-1.57 31.35-1.27L31.35-1.27L31.35-1.27Q31.63-0.98 32.21-0.98L32.21-0.98Z" fill="#ff7060"></path></g></g><style>text {
  font-size: 64px;
  font-family: Arial Black;
  dominant-baseline: central;
  text-anchor: middle;
}</style></svg>