<svg width="95.45px" height="46.4px" xmlns="http://www.w3.org/2000/svg" viewBox="202.275 51.8 95.45 46.4" style="background: none;" preserveAspectRatio="xMidYMid"><defs><filter id="editing-extrusion" x="-100%" y="-100%" width="300%" height="300%"><feFlood result="color1" flood-color="#000000"></feFlood><feConvolveMatrix order="1,1" divisor="1" kernelMatrix="1" in="SourceAlpha" result="extrude"></feConvolveMatrix><feComposite in="color1" in2="extrude" result="comp-extrude" operator="in"></feComposite><feOffset dx="0.5" dy="0.5" in="comp-extrude" result="offset-extrude"></feOffset><feMerge><feMergeNode in="offset-extrude"></feMergeNode><feMergeNode in="SourceGraphic"></feMergeNode></feMerge></filter></defs><g filter="url(#editing-extrusion)"><g transform="translate(221.98002010583878, 81.16000270843506)"><path d="M12.42-9.60L12.42-9.60L12.42-9.14L11.12-9.14L11.12-9.60L11.12-9.60Q11.12-9.86 10.94-10.04L10.94-10.04L10.94-10.04Q10.75-10.22 10.50-10.22L10.50-10.22L2.82-10.22L2.82-10.22Q2.56-10.22 2.38-10.04L2.38-10.04L2.38-10.04Q2.19-9.86 2.19-9.60L2.19-9.60L2.19-1.92L2.19-1.92Q2.19-1.66 2.38-1.48L2.38-1.48L2.38-1.48Q2.56-1.30 2.82-1.30L2.82-1.30L10.50-1.30L10.50-1.30Q10.75-1.30 10.94-1.48L10.94-1.48L10.94-1.48Q11.12-1.66 11.12-1.92L11.12-1.92L11.12-4.77L8.27-4.77L8.27-6.08L12.42-6.08L12.42-1.92L12.42-1.92Q12.42-1.12 11.86-0.56L11.86-0.56L11.86-0.56Q11.30 0 10.50 0L10.50 0L2.82 0L2.82 0Q2.02 0 1.46-0.56L1.46-0.56L1.46-0.56Q0.90-1.12 0.90-1.92L0.90-1.92L0.90-9.60L0.90-9.60Q0.90-10.40 1.46-10.96L1.46-10.96L1.46-10.96Q2.02-11.52 2.82-11.52L2.82-11.52L10.50-11.52L10.50-11.52Q11.30-11.52 11.86-10.96L11.86-10.96L11.86-10.96Q12.42-10.40 12.42-9.60ZM15.42 0L14.11 0L14.11-9.28L15.42-9.28L15.42 0ZM14.11-11.01L14.11-12.32L15.42-12.32L15.42-11.01L14.11-11.01ZM22.78-9.28L22.78-7.97L18.77-7.97L18.77-1.94L18.77-1.94Q18.77-1.68 18.95-1.50L18.95-1.50L18.95-1.50Q19.14-1.31 19.39-1.31L19.39-1.31L22.78-1.31L22.78 0L19.39 0L19.39 0Q18.58 0 18.02-0.57L18.02-0.57L18.02-0.57Q17.46-1.14 17.46-1.94L17.46-1.94L17.46-12.32L18.77-12.32L18.77-9.28L22.78-9.28ZM25.42-9.28L31.63-9.28L31.63-9.28Q32.43-9.28 33-8.71L33-8.71L33-8.71Q33.57-8.14 33.57-7.34L33.57-7.34L33.57 0L32.26 0L32.26-7.34L32.26-7.34Q32.26-7.60 32.07-7.78L32.07-7.78L32.07-7.78Q31.89-7.97 31.63-7.97L31.63-7.97L26.06-7.97L26.06-7.97Q25.81-7.97 25.62-7.78L25.62-7.78L25.62-7.78Q25.42-7.60 25.42-7.34L25.42-7.34L25.42 0L24.11 0L24.11-12.32L25.42-12.32L25.42-9.28ZM42.93-1.94L42.93-9.28L44.24-9.28L44.24-1.94L44.24-1.94Q44.24-1.14 43.67-0.57L43.67-0.57L43.67-0.57Q43.10 0 42.29 0L42.29 0L36.72 0L36.72 0Q35.92 0 35.35-0.57L35.35-0.57L35.35-0.57Q34.78-1.14 34.78-1.94L34.78-1.94L34.78-9.28L36.10-9.28L36.10-1.94L36.10-1.94Q36.10-1.68 36.28-1.50L36.28-1.50L36.28-1.50Q36.46-1.31 36.72-1.31L36.72-1.31L42.29-1.31L42.29-1.31Q42.54-1.31 42.74-1.50L42.74-1.50L42.74-1.50Q42.93-1.68 42.93-1.94L42.93-1.94ZM46.99-9.28L53.20-9.28L53.20-9.28Q54-9.28 54.57-8.71L54.57-8.71L54.57-8.71Q55.14-8.14 55.14-7.34L55.14-7.34L55.14-1.94L55.14-1.94Q55.14-1.14 54.57-0.57L54.57-0.57L54.57-0.57Q54 0 53.20 0L53.20 0L45.68 0L45.68-12.32L46.99-12.32L46.99-9.28ZM53.82-1.94L53.82-1.94L53.82-7.34L53.82-7.34Q53.82-7.60 53.64-7.78L53.64-7.78L53.64-7.78Q53.46-7.97 53.20-7.97L53.20-7.97L47.63-7.97L47.63-7.97Q47.38-7.97 47.18-7.78L47.18-7.78L47.18-7.78Q46.99-7.60 46.99-7.34L46.99-7.34L46.99-1.94L46.99-1.94Q46.99-1.68 47.18-1.50L47.18-1.50L47.18-1.50Q47.38-1.31 47.63-1.31L47.63-1.31L53.20-1.31L53.20-1.31Q53.46-1.31 53.64-1.50L53.64-1.50L53.64-1.50Q53.82-1.68 53.82-1.94Z" fill="#444444"></path></g></g><style>text {
  font-size: 64px;
  font-family: Arial Black;
  dominant-baseline: central;
  text-anchor: middle;
}</style></svg>