<svg width="105.83749999999999px" height="46.4px" xmlns="http://www.w3.org/2000/svg" viewBox="197.08125 51.8 105.83749999999999 46.4" style="background: rgba(0, 0, 0, 0);" preserveAspectRatio="xMidYMid"><defs><filter id="editing-extrusion" x="-100%" y="-100%" width="300%" height="300%"><feFlood result="color1" flood-color="#444444"></feFlood><feConvolveMatrix order="1,1" divisor="1" kernelMatrix="1" in="SourceAlpha" result="extrude"></feConvolveMatrix><feComposite in="color1" in2="extrude" result="comp-extrude" operator="in"></feComposite><feOffset dx="0.5" dy="0.5" in="comp-extrude" result="offset-extrude"></feOffset><feMerge><feMergeNode in="offset-extrude"></feMergeNode><feMergeNode in="SourceGraphic"></feMergeNode></feMerge></filter></defs><g filter="url(#editing-extrusion)"><g transform="translate(218.2000126838684, 80.60000276565552)"><path d="M9.45-11.20L11.05-11.20L11.05 0L9.45 0L9.45-4.80L3.04-4.80L3.04 0L1.44 0L1.44-11.20L3.04-11.20L3.04-6.40L9.45-6.40L9.45-11.20ZM12.97-9.60L12.97-11.20L21.93-11.20L21.93-9.60L18.25-9.60L18.25 0L16.65 0L16.65-9.60L12.97-9.60ZM30.11 0L29.63 0L25.45-8.21L25.45 0L23.85 0L23.85-11.20L25.60-11.20L29.87-2.77L34.14-11.20L35.88-11.20L35.88 0L34.29 0L34.29-8.21L30.11 0ZM38.77-11.20L40.37-11.20L40.37-1.60L46.13-1.60L46.13 0L38.77 0L38.77-11.20ZM47.89-3.74L47.89-5.28L51.63-5.28L51.63-3.74L47.89-3.74ZM62.16-4.37L62.16-2.72L62.16-2.72Q62.14-1.35 61.48-0.68L61.48-0.68L61.48-0.68Q60.81 0 59.45 0L59.45 0L56.44 0L56.44 0Q53.71 0 53.71-2.72L53.71-2.72L53.71-3.39L55.28-3.39L55.28-2.80L55.28-2.80Q55.28-2.16 55.56-1.87L55.56-1.87L55.56-1.87Q55.84-1.57 56.48-1.57L56.48-1.57L59.39-1.57L59.39-1.57Q60.03-1.57 60.31-1.87L60.31-1.87L60.31-1.87Q60.59-2.16 60.59-2.80L60.59-2.80L60.59-4.30L60.59-4.30Q60.59-4.94 60.31-5.23L60.31-5.23L60.31-5.23Q60.03-5.52 59.39-5.52L59.39-5.52L54.03-5.52L54.03-11.20L61.88-11.20L61.88-9.60L55.63-9.60L55.63-7.09L59.45-7.09L59.45-7.09Q60.82-7.09 61.49-6.42L61.49-6.42L61.49-6.42Q62.16-5.75 62.16-4.37L62.16-4.37Z" fill="#fe4e1d"></path></g></g><style>text {
  font-size: 64px;
  font-family: Arial Black;
  dominant-baseline: central;
  text-anchor: middle;
}</style></svg>