<svg width="116.69375px" height="46.4px" xmlns="http://www.w3.org/2000/svg" viewBox="191.653125 51.8 116.69375 46.4" style="background: rgba(0, 0, 0, 0);" preserveAspectRatio="xMidYMid"><defs><filter id="editing-extrusion" x="-100%" y="-100%" width="300%" height="300%"><feFlood result="color1" flood-color="#444444"></feFlood><feConvolveMatrix order="1,1" divisor="1" kernelMatrix="1" in="SourceAlpha" result="extrude"></feConvolveMatrix><feComposite in="color1" in2="extrude" result="comp-extrude" operator="in"></feComposite><feOffset dx="0.5" dy="0.5" in="comp-extrude" result="offset-extrude"></feOffset><feMerge><feMergeNode in="offset-extrude"></feMergeNode><feMergeNode in="SourceGraphic"></feMergeNode></feMerge></filter></defs><g filter="url(#editing-extrusion)"><g transform="translate(214.36500787734985, 80.76000308990479)"><path d="M1.44-11.20L3.04-11.20L3.04 0L1.44 0L1.44-11.20ZM13.12-6.78L13.12 0L11.58 0L11.58-6.78L7.29-6.78L7.29 0L5.76 0L5.76-8.32L7.29-8.32L7.29-6.85L7.29-6.85Q7.30-7.16 7.43-7.43L7.43-7.43L7.43-7.43Q7.55-7.70 7.76-7.89L7.76-7.89L7.76-7.89Q7.97-8.09 8.24-8.21L8.24-8.21L8.24-8.21Q8.52-8.32 8.83-8.32L8.83-8.32L11.58-8.32L11.58-8.32Q11.90-8.32 12.18-8.20L12.18-8.20L12.18-8.20Q12.46-8.08 12.67-7.87L12.67-7.87L12.67-7.87Q12.88-7.66 13.00-7.38L13.00-7.38L13.00-7.38Q13.12-7.10 13.12-6.78L13.12-6.78ZM15.52-1.54L20.70-1.54L20.70-3.47L17.05-3.47L17.05-3.47Q16.73-3.47 16.45-3.59L16.45-3.59L16.45-3.59Q16.17-3.71 15.96-3.92L15.96-3.92L15.96-3.92Q15.76-4.13 15.64-4.41L15.64-4.41L15.64-4.41Q15.52-4.69 15.52-5.01L15.52-5.01L15.52-6.78L15.52-6.78Q15.52-7.10 15.64-7.38L15.64-7.38L15.64-7.38Q15.76-7.66 15.96-7.87L15.96-7.87L15.96-7.87Q16.17-8.08 16.45-8.20L16.45-8.20L16.45-8.20Q16.73-8.32 17.05-8.32L17.05-8.32L21.92-8.32L21.92-6.78L17.05-6.78L17.05-5.01L20.70-5.01L20.70-5.01Q21.02-5.01 21.30-4.89L21.30-4.89L21.30-4.89Q21.58-4.77 21.79-4.56L21.79-4.56L21.79-4.56Q22-4.35 22.12-4.07L22.12-4.07L22.12-4.07Q22.24-3.79 22.24-3.47L22.24-3.47L22.24-1.54L22.24-1.54Q22.24-1.22 22.12-0.94L22.12-0.94L22.12-0.94Q22-0.66 21.79-0.45L21.79-0.45L21.79-0.45Q21.58-0.24 21.30-0.12L21.30-0.12L21.30-0.12Q21.02 0 20.70 0L20.70 0L15.52 0L15.52-1.54ZM31.84-6.78L31.84-1.54L31.84-1.54Q31.84-1.22 31.71-0.94L31.71-0.94L31.71-0.94Q31.59-0.66 31.39-0.45L31.39-0.45L31.39-0.45Q31.18-0.24 30.90-0.12L30.90-0.12L30.90-0.12Q30.63 0 30.30 0L30.30 0L26.17 0L26.17 0Q25.86 0 25.58-0.12L25.58-0.12L25.58-0.12Q25.30-0.24 25.09-0.45L25.09-0.45L25.09-0.45Q24.88-0.66 24.76-0.94L24.76-0.94L24.76-0.94Q24.64-1.22 24.64-1.54L24.64-1.54L24.64-6.78L24.64-6.78Q24.64-7.10 24.76-7.38L24.76-7.38L24.76-7.38Q24.88-7.66 25.09-7.87L25.09-7.87L25.09-7.87Q25.30-8.08 25.58-8.20L25.58-8.20L25.58-8.20Q25.86-8.32 26.17-8.32L26.17-8.32L30.30-8.32L30.30-8.32Q30.63-8.32 30.90-8.20L30.90-8.20L30.90-8.20Q31.18-8.08 31.39-7.87L31.39-7.87L31.39-7.87Q31.59-7.66 31.71-7.38L31.71-7.38L31.71-7.38Q31.84-7.10 31.84-6.78L31.84-6.78ZM30.30-6.78L26.17-6.78L26.17-1.54L30.30-1.54L30.30-6.78ZM44.51-6.78L40.99-6.78L40.99 0L39.45 0L39.45-6.78L35.93-6.78L35.93 0L34.40 0L34.40-8.32L35.93-8.32L35.93-6.85L35.93-6.85Q35.95-7.16 36.07-7.43L36.07-7.43L36.07-7.43Q36.20-7.70 36.40-7.89L36.40-7.89L36.40-7.89Q36.61-8.09 36.88-8.21L36.88-8.21L36.88-8.21Q37.16-8.32 37.47-8.32L37.47-8.32L39.45-8.32L39.45-8.32Q39.76-8.32 40.03-8.21L40.03-8.21L40.03-8.21Q40.30-8.09 40.52-7.89L40.52-7.89L40.52-7.89Q40.73-7.70 40.86-7.43L40.86-7.43L40.86-7.43Q40.98-7.16 40.99-6.85L40.99-6.85L40.99-6.85Q41.01-7.16 41.13-7.43L41.13-7.43L41.13-7.43Q41.25-7.70 41.46-7.89L41.46-7.89L41.46-7.89Q41.66-8.09 41.94-8.21L41.94-8.21L41.94-8.21Q42.21-8.32 42.52-8.32L42.52-8.32L44.51-8.32L44.51-8.32Q44.83-8.32 45.11-8.20L45.11-8.20L45.11-8.20Q45.39-8.08 45.60-7.87L45.60-7.87L45.60-7.87Q45.80-7.66 45.93-7.38L45.93-7.38L45.93-7.38Q46.05-7.10 46.05-6.78L46.05-6.78L46.05 0L44.51 0L44.51-6.78ZM55.97-6.78L55.97 0L54.43 0L54.43-6.78L50.14-6.78L50.14 0L48.61 0L48.61-8.32L50.14-8.32L50.14-6.85L50.14-6.85Q50.16-7.16 50.28-7.43L50.28-7.43L50.28-7.43Q50.41-7.70 50.61-7.89L50.61-7.89L50.61-7.89Q50.82-8.09 51.09-8.21L51.09-8.21L51.09-8.21Q51.37-8.32 51.68-8.32L51.68-8.32L54.43-8.32L54.43-8.32Q54.75-8.32 55.03-8.20L55.03-8.20L55.03-8.20Q55.31-8.08 55.52-7.87L55.52-7.87L55.52-7.87Q55.73-7.66 55.85-7.38L55.85-7.38L55.85-7.38Q55.97-7.10 55.97-6.78L55.97-6.78ZM58.61-8.32L60.15-8.32L60.15 0L58.61 0L58.61-8.32ZM58.53-9.92L58.53-11.52L60.23-11.52L60.23-9.92L58.53-9.92ZM62.79-1.54L62.79-3.63L62.79-3.63Q62.79-3.95 62.91-4.23L62.91-4.23L62.91-4.23Q63.03-4.51 63.24-4.72L63.24-4.72L63.24-4.72Q63.45-4.93 63.73-5.05L63.73-5.05L63.73-5.05Q64.01-5.17 64.32-5.17L64.32-5.17L68.29-5.17L68.29-6.78L63.27-6.78L63.27-8.32L68.29-8.32L68.29-8.32Q68.61-8.32 68.89-8.20L68.89-8.20L68.89-8.20Q69.17-8.08 69.38-7.87L69.38-7.87L69.38-7.87Q69.59-7.66 69.71-7.38L69.71-7.38L69.71-7.38Q69.83-7.10 69.83-6.78L69.83-6.78L69.83 0L68.29 0L68.29-1.41L68.29-1.41Q68.27-1.12 68.13-0.86L68.13-0.86L68.13-0.86Q68-0.60 67.79-0.41L67.79-0.41L67.79-0.41Q67.59-0.22 67.32-0.11L67.32-0.11L67.32-0.11Q67.05 0 66.76 0L66.76 0L64.32 0L64.32 0Q64.01 0 63.73-0.12L63.73-0.12L63.73-0.12Q63.45-0.24 63.24-0.45L63.24-0.45L63.24-0.45Q63.03-0.66 62.91-0.94L62.91-0.94L62.91-0.94Q62.79-1.22 62.79-1.54L62.79-1.54ZM64.32-3.63L64.32-1.54L68.29-1.54L68.29-3.63L64.32-3.63Z" fill="#5849be"></path></g></g><style>text {
  font-size: 64px;
  font-family: Arial Black;
  dominant-baseline: central;
  text-anchor: middle;
}</style></svg>