<svg width="125.20625px" height="46.4px" xmlns="http://www.w3.org/2000/svg" viewBox="187.396875 51.8 125.20625 46.4" style="background: none;" preserveAspectRatio="xMidYMid"><defs><filter id="editing-extrusion" x="-100%" y="-100%" width="300%" height="300%"><feFlood result="color1" flood-color="#000000"></feFlood><feConvolveMatrix order="1,1" divisor="1" kernelMatrix="1" in="SourceAlpha" result="extrude"></feConvolveMatrix><feComposite in="color1" in2="extrude" result="comp-extrude" operator="in"></feComposite><feOffset dx="0.5" dy="0.5" in="comp-extrude" result="offset-extrude"></feOffset><feMerge><feMergeNode in="offset-extrude"></feMergeNode><feMergeNode in="SourceGraphic"></feMergeNode></feMerge></filter></defs><g filter="url(#editing-extrusion)"><g transform="translate(211.27501279115677, 81.16000270843506)"><path d="M2.21 0L0.91 0L0.91-11.52L2.21-11.52L2.21 0ZM4.38-9.28L11.90-9.28L11.90-9.28Q12.70-9.28 13.27-8.71L13.27-8.71L13.27-8.71Q13.84-8.14 13.84-7.34L13.84-7.34L13.84 0L12.53 0L12.53-7.34L12.53-7.34Q12.53-7.60 12.34-7.78L12.34-7.78L12.34-7.78Q12.16-7.97 11.90-7.97L11.90-7.97L6.34-7.97L6.34-7.97Q6.08-7.97 5.89-7.78L5.89-7.78L5.89-7.78Q5.70-7.60 5.70-7.34L5.70-7.34L5.70 0L4.38 0L4.38-9.28ZM24.88-7.34L24.88-7.34L24.88-7.22L23.55-7.22L23.55-7.34L23.55-7.34Q23.55-7.60 23.37-7.78L23.37-7.78L23.37-7.78Q23.18-7.97 22.93-7.97L22.93-7.97L17.36-7.97L17.36-7.97Q17.10-7.97 16.92-7.78L16.92-7.78L16.92-7.78Q16.74-7.60 16.74-7.34L16.74-7.34L16.74-5.92L16.74-5.92Q16.74-5.66 16.92-5.48L16.92-5.48L16.92-5.48Q17.10-5.30 17.36-5.30L17.36-5.30L22.93-5.30L22.93-5.30Q23.74-5.30 24.31-4.73L24.31-4.73L24.31-4.73Q24.88-4.16 24.88-3.36L24.88-3.36L24.88-1.94L24.88-1.94Q24.88-1.14 24.31-0.57L24.31-0.57L24.31-0.57Q23.74 0 22.93 0L22.93 0L17.36 0L17.36 0Q16.56 0 15.99-0.57L15.99-0.57L15.99-0.57Q15.42-1.14 15.42-1.94L15.42-1.94L15.42-2.06L16.74-2.06L16.74-1.94L16.74-1.94Q16.74-1.68 16.92-1.50L16.92-1.50L16.92-1.50Q17.10-1.31 17.36-1.31L17.36-1.31L22.93-1.31L22.93-1.31Q23.18-1.31 23.37-1.50L23.37-1.50L23.37-1.50Q23.55-1.68 23.55-1.94L23.55-1.94L23.55-3.36L23.55-3.36Q23.55-3.62 23.37-3.80L23.37-3.80L23.37-3.80Q23.18-3.98 22.93-3.98L22.93-3.98L17.36-3.98L17.36-3.98Q16.56-3.98 15.99-4.55L15.99-4.55L15.99-4.55Q15.42-5.12 15.42-5.92L15.42-5.92L15.42-7.34L15.42-7.34Q15.42-8.14 15.99-8.71L15.99-8.71L15.99-8.71Q16.56-9.28 17.36-9.28L17.36-9.28L22.93-9.28L22.93-9.28Q23.74-9.28 24.31-8.71L24.31-8.71L24.31-8.71Q24.88-8.14 24.88-7.34ZM28.38-9.28L28.38-9.28L33.95-9.28L33.95-9.28Q34.77-9.28 35.34-8.71L35.34-8.71L35.34-8.71Q35.90-8.14 35.90-7.34L35.90-7.34L35.90-1.94L35.90-1.94Q35.90-1.14 35.34-0.57L35.34-0.57L35.34-0.57Q34.77 0 33.95 0L33.95 0L28.38 0L28.38 0Q27.58 0 27.02-0.57L27.02-0.57L27.02-0.57Q26.45-1.14 26.45-1.94L26.45-1.94L26.45-7.34L26.45-7.34Q26.45-8.14 27.02-8.71L27.02-8.71L27.02-8.71Q27.58-9.28 28.38-9.28ZM33.95-7.97L33.95-7.97L28.38-7.97L28.38-7.97Q28.13-7.97 27.94-7.78L27.94-7.78L27.94-7.78Q27.76-7.60 27.76-7.34L27.76-7.34L27.76-1.94L27.76-1.94Q27.76-1.68 27.94-1.50L27.94-1.50L27.94-1.50Q28.13-1.31 28.38-1.31L28.38-1.31L33.95-1.31L33.95-1.31Q34.21-1.31 34.39-1.50L34.39-1.50L34.39-1.50Q34.58-1.68 34.58-1.94L34.58-1.94L34.58-7.34L34.58-7.34Q34.58-7.60 34.39-7.78L34.39-7.78L34.39-7.78Q34.21-7.97 33.95-7.97ZM37.57-9.28L49.82-9.28L49.82-9.28Q50.64-9.28 51.20-8.71L51.20-8.71L51.20-8.71Q51.76-8.14 51.76-7.34L51.76-7.34L51.76 0L50.46 0L50.46-7.34L50.46-7.34Q50.46-7.60 50.27-7.78L50.27-7.78L50.27-7.78Q50.08-7.97 49.82-7.97L49.82-7.97L45.97-7.97L45.97-7.97Q45.71-7.97 45.53-7.78L45.53-7.78L45.53-7.78Q45.34-7.60 45.34-7.34L45.34-7.34L45.34 0L44.02 0L44.02-7.34L44.02-7.34Q44.02-7.60 43.83-7.78L43.83-7.78L43.83-7.78Q43.65-7.97 43.39-7.97L43.39-7.97L39.52-7.97L39.52-7.97Q39.26-7.97 39.08-7.78L39.08-7.78L39.08-7.78Q38.90-7.60 38.90-7.34L38.90-7.34L38.90 0L37.57 0L37.57-9.28ZM53.22-9.28L60.74-9.28L60.74-9.28Q61.54-9.28 62.10-8.71L62.10-8.71L62.10-8.71Q62.67-8.14 62.67-7.34L62.67-7.34L62.67 0L61.36 0L61.36-7.34L61.36-7.34Q61.36-7.60 61.18-7.78L61.18-7.78L61.18-7.78Q60.99-7.97 60.74-7.97L60.74-7.97L55.17-7.97L55.17-7.97Q54.91-7.97 54.72-7.78L54.72-7.78L54.72-7.78Q54.53-7.60 54.53-7.34L54.53-7.34L54.53 0L53.22 0L53.22-9.28ZM65.63 0L64.32 0L64.32-9.28L65.63-9.28L65.63 0ZM64.32-11.01L64.32-12.32L65.63-12.32L65.63-11.01L64.32-11.01ZM67.09-9.28L74.59-9.28L74.59-9.28Q75.41-9.28 75.98-8.71L75.98-8.71L75.98-8.71Q76.54-8.14 76.54-7.34L76.54-7.34L76.54 0L69.02 0L69.02 0Q68.22 0 67.66-0.57L67.66-0.57L67.66-0.57Q67.09-1.14 67.09-1.94L67.09-1.94L67.09-5.30L75.22-5.30L75.22-7.34L75.22-7.34Q75.22-7.60 75.03-7.78L75.03-7.78L75.03-7.78Q74.85-7.97 74.59-7.97L74.59-7.97L67.09-7.97L67.09-9.28ZM69.02-1.31L75.22-1.31L75.22-3.98L68.40-3.98L68.40-1.94L68.40-1.94Q68.40-1.68 68.58-1.50L68.58-1.50L68.58-1.50Q68.77-1.31 69.02-1.31L69.02-1.31Z" fill="#5849be"></path></g></g><style>text {
  font-size: 64px;
  font-family: Arial Black;
  dominant-baseline: central;
  text-anchor: middle;
}</style></svg>