<svg width="142.7px" height="46.4px" xmlns="http://www.w3.org/2000/svg" viewBox="178.65 51.8 142.7 46.4" style="background: rgba(0, 0, 0, 0);" preserveAspectRatio="xMidYMid"><defs><filter id="editing-extrusion" x="-100%" y="-100%" width="300%" height="300%"><feFlood result="color1" flood-color="#444444"></feFlood><feConvolveMatrix order="1,1" divisor="1" kernelMatrix="1" in="SourceAlpha" result="extrude"></feConvolveMatrix><feComposite in="color1" in2="extrude" result="comp-extrude" operator="in"></feComposite><feOffset dx="0.5" dy="0.5" in="comp-extrude" result="offset-extrude"></feOffset><feMerge><feMergeNode in="offset-extrude"></feMergeNode><feMergeNode in="SourceGraphic"></feMergeNode></feMerge></filter></defs><g filter="url(#editing-extrusion)"><g transform="translate(204.96500670909882, 82.44000387191772)"><path d="M1.12-1.60L1.12-3.52L2.72-3.52L2.72-1.60L7.25-1.60L7.25-11.20L8.85-11.20L8.85-1.60L8.85-1.60Q8.85-1.27 8.72-0.98L8.72-0.98L8.72-0.98Q8.59-0.69 8.38-0.47L8.38-0.47L8.38-0.47Q8.16-0.25 7.87-0.13L7.87-0.13L7.87-0.13Q7.58 0 7.25 0L7.25 0L2.72 0L2.72 0Q2.39 0 2.10-0.13L2.10-0.13L2.10-0.13Q1.80-0.25 1.59-0.47L1.59-0.47L1.59-0.47Q1.38-0.69 1.25-0.98L1.25-0.98L1.25-0.98Q1.12-1.27 1.12-1.60L1.12-1.60ZM11.57-1.54L11.57-3.63L11.57-3.63Q11.57-3.95 11.69-4.23L11.69-4.23L11.69-4.23Q11.81-4.51 12.02-4.72L12.02-4.72L12.02-4.72Q12.23-4.93 12.51-5.05L12.51-5.05L12.51-5.05Q12.79-5.17 13.10-5.17L13.10-5.17L17.07-5.17L17.07-6.78L12.05-6.78L12.05-8.32L17.07-8.32L17.07-8.32Q17.39-8.32 17.67-8.20L17.67-8.20L17.67-8.20Q17.95-8.08 18.16-7.87L18.16-7.87L18.16-7.87Q18.37-7.66 18.49-7.38L18.49-7.38L18.49-7.38Q18.61-7.10 18.61-6.78L18.61-6.78L18.61 0L17.07 0L17.07-1.41L17.07-1.41Q17.05-1.12 16.91-0.86L16.91-0.86L16.91-0.86Q16.78-0.60 16.57-0.41L16.57-0.41L16.57-0.41Q16.37-0.22 16.10-0.11L16.10-0.11L16.10-0.11Q15.84 0 15.54 0L15.54 0L13.10 0L13.10 0Q12.79 0 12.51-0.12L12.51-0.12L12.51-0.12Q12.23-0.24 12.02-0.45L12.02-0.45L12.02-0.45Q11.81-0.66 11.69-0.94L11.69-0.94L11.69-0.94Q11.57-1.22 11.57-1.54L11.57-1.54ZM13.10-3.63L13.10-1.54L17.07-1.54L17.07-3.63L13.10-3.63ZM25.14 0L23.54 0L20.21-8.32L21.81-8.32L24.34-1.84L26.87-8.32L28.47-8.32L25.14 0ZM30.07-1.54L30.07-3.63L30.07-3.63Q30.07-3.95 30.19-4.23L30.19-4.23L30.19-4.23Q30.31-4.51 30.52-4.72L30.52-4.72L30.52-4.72Q30.73-4.93 31.01-5.05L31.01-5.05L31.01-5.05Q31.29-5.17 31.60-5.17L31.60-5.17L35.57-5.17L35.57-6.78L30.55-6.78L30.55-8.32L35.57-8.32L35.57-8.32Q35.89-8.32 36.17-8.20L36.17-8.20L36.17-8.20Q36.45-8.08 36.66-7.87L36.66-7.87L36.66-7.87Q36.87-7.66 36.99-7.38L36.99-7.38L36.99-7.38Q37.11-7.10 37.11-6.78L37.11-6.78L37.11 0L35.57 0L35.57-1.41L35.57-1.41Q35.55-1.12 35.41-0.86L35.41-0.86L35.41-0.86Q35.28-0.60 35.07-0.41L35.07-0.41L35.07-0.41Q34.87-0.22 34.60-0.11L34.60-0.11L34.60-0.11Q34.34 0 34.04 0L34.04 0L31.60 0L31.60 0Q31.29 0 31.01-0.12L31.01-0.12L31.01-0.12Q30.73-0.24 30.52-0.45L30.52-0.45L30.52-0.45Q30.31-0.66 30.19-0.94L30.19-0.94L30.19-0.94Q30.07-1.22 30.07-1.54L30.07-1.54ZM31.60-3.63L31.60-1.54L35.57-1.54L35.57-3.63L31.60-3.63ZM46.87-4.80L41.43-4.80L41.43-4.80Q41.10-4.80 40.81-4.93L40.81-4.93L40.81-4.93Q40.52-5.05 40.30-5.27L40.30-5.27L40.30-5.27Q40.08-5.48 39.95-5.78L39.95-5.78L39.95-5.78Q39.83-6.07 39.83-6.40L39.83-6.40L39.83-9.60L39.83-9.60Q39.83-9.93 39.95-10.22L39.95-10.22L39.95-10.22Q40.08-10.52 40.30-10.73L40.30-10.73L40.30-10.73Q40.52-10.95 40.81-11.07L40.81-11.07L40.81-11.07Q41.10-11.20 41.43-11.20L41.43-11.20L46.87-11.20L46.87-11.20Q47.20-11.20 47.49-11.07L47.49-11.07L47.49-11.07Q47.78-10.95 48-10.73L48-10.73L48-10.73Q48.22-10.52 48.34-10.22L48.34-10.22L48.34-10.22Q48.47-9.93 48.47-9.60L48.47-9.60L48.47-8.16L46.87-8.16L46.87-9.60L41.43-9.60L41.43-6.40L46.87-6.40L46.87-6.40Q47.20-6.40 47.49-6.27L47.49-6.27L47.49-6.27Q47.78-6.15 48-5.93L48-5.93L48-5.93Q48.22-5.71 48.34-5.42L48.34-5.42L48.34-5.42Q48.47-5.13 48.47-4.80L48.47-4.80L48.47-1.60L48.47-1.60Q48.47-1.27 48.34-0.98L48.34-0.98L48.34-0.98Q48.22-0.69 48-0.47L48-0.47L48-0.47Q47.78-0.25 47.49-0.13L47.49-0.13L47.49-0.13Q47.20 0 46.87 0L46.87 0L41.27 0L41.27 0Q40.95 0 40.65-0.13L40.65-0.13L40.65-0.13Q40.36-0.25 40.14-0.47L40.14-0.47L40.14-0.47Q39.92-0.69 39.80-0.98L39.80-0.98L39.80-0.98Q39.67-1.27 39.67-1.60L39.67-1.60L39.67-3.04L41.27-3.04L41.27-1.60L46.87-1.60L46.87-4.80ZM56.70-6.78L52.73-6.78L52.73-1.54L56.70-1.54L56.70-2.95L58.23-2.95L58.23-1.54L58.23-1.54Q58.23-1.22 58.11-0.94L58.11-0.94L58.11-0.94Q57.99-0.66 57.79-0.45L57.79-0.45L57.79-0.45Q57.58-0.24 57.30-0.12L57.30-0.12L57.30-0.12Q57.02 0 56.70 0L56.70 0L52.73 0L52.73 0Q52.41 0 52.13-0.12L52.13-0.12L52.13-0.12Q51.85-0.24 51.64-0.45L51.64-0.45L51.64-0.45Q51.44-0.66 51.32-0.94L51.32-0.94L51.32-0.94Q51.20-1.22 51.20-1.54L51.20-1.54L51.20-6.78L51.20-6.78Q51.20-7.10 51.32-7.38L51.32-7.38L51.32-7.38Q51.44-7.66 51.64-7.87L51.64-7.87L51.64-7.87Q51.85-8.08 52.13-8.20L52.13-8.20L52.13-8.20Q52.41-8.32 52.73-8.32L52.73-8.32L56.70-8.32L56.70-8.32Q57.02-8.32 57.30-8.20L57.30-8.20L57.30-8.20Q57.58-8.08 57.79-7.87L57.79-7.87L57.79-7.87Q57.99-7.66 58.11-7.38L58.11-7.38L58.11-7.38Q58.23-7.10 58.23-6.78L58.23-6.78L58.23-5.38L56.70-5.38L56.70-6.78ZM65.50-6.78L62.33-6.78L62.33 0L60.80 0L60.80-8.32L62.33-8.32L62.33-6.85L62.33-6.85Q62.34-7.16 62.47-7.43L62.47-7.43L62.47-7.43Q62.59-7.70 62.80-7.89L62.80-7.89L62.80-7.89Q63.01-8.09 63.28-8.21L63.28-8.21L63.28-8.21Q63.55-8.32 63.87-8.32L63.87-8.32L65.50-8.32L65.50-8.32Q65.82-8.32 66.10-8.20L66.10-8.20L66.10-8.20Q66.38-8.08 66.59-7.87L66.59-7.87L66.59-7.87Q66.80-7.66 66.92-7.38L66.92-7.38L66.92-7.38Q67.04-7.10 67.04-6.78L67.04-6.78L67.04-5.38L65.50-5.38L65.50-6.78ZM69.03-8.32L70.57-8.32L70.57 0L69.03 0L69.03-8.32ZM68.95-9.92L68.95-11.52L70.65-11.52L70.65-9.92L68.95-9.92ZM80.57-6.78L80.57-1.54L80.57-1.54Q80.57-1.22 80.45-0.94L80.45-0.94L80.45-0.94Q80.33-0.66 80.12-0.45L80.12-0.45L80.12-0.45Q79.91-0.24 79.63-0.12L79.63-0.12L79.63-0.12Q79.35 0 79.03 0L79.03 0L74.74 0L74.74 3.36L73.21 3.36L73.21-8.32L74.74-8.32L74.74-6.91L74.74-6.91Q74.77-7.21 74.90-7.46L74.90-7.46L74.90-7.46Q75.03-7.72 75.23-7.91L75.23-7.91L75.23-7.91Q75.44-8.10 75.71-8.21L75.71-8.21L75.71-8.21Q75.98-8.32 76.28-8.32L76.28-8.32L79.03-8.32L79.03-8.32Q79.35-8.32 79.63-8.20L79.63-8.20L79.63-8.20Q79.91-8.08 80.12-7.87L80.12-7.87L80.12-7.87Q80.33-7.66 80.45-7.38L80.45-7.38L80.45-7.38Q80.57-7.10 80.57-6.78L80.57-6.78ZM74.74-1.54L79.03-1.54L79.03-6.78L74.74-6.78L74.74-1.54ZM82.65-6.78L82.65-8.32L84.68-8.32L84.68-10.88L86.22-10.88L86.22-8.32L88.95-8.32L88.95-6.78L86.22-6.78L86.22-1.54L88.95-1.54L88.95 0L86.22 0L86.22 0Q85.91 0 85.63-0.12L85.63-0.12L85.63-0.12Q85.34-0.24 85.13-0.45L85.13-0.45L85.13-0.45Q84.92-0.66 84.80-0.94L84.80-0.94L84.80-0.94Q84.68-1.22 84.68-1.54L84.68-1.54L84.68-6.78L82.65-6.78Z" fill="#d5b931"></path></g></g><style>text {
  font-size: 64px;
  font-family: Arial Black;
  dominant-baseline: central;
  text-anchor: middle;
}</style></svg>