<svg width="206.43125px" height="46.4px" xmlns="http://www.w3.org/2000/svg" viewBox="146.784375 51.8 206.43125 46.4" style="background: none;" preserveAspectRatio="xMidYMid"><defs><filter id="editing-extrusion" x="-100%" y="-100%" width="300%" height="300%"><feFlood result="color1" flood-color="#000000"></feFlood><feConvolveMatrix order="1,1" divisor="1" kernelMatrix="1" in="SourceAlpha" result="extrude"></feConvolveMatrix><feComposite in="color1" in2="extrude" result="comp-extrude" operator="in"></feComposite><feOffset dx="0.5" dy="0.5" in="comp-extrude" result="offset-extrude"></feOffset><feMerge><feMergeNode in="offset-extrude"></feMergeNode><feMergeNode in="SourceGraphic"></feMergeNode></feMerge></filter></defs><g filter="url(#editing-extrusion)"><g transform="translate(181.37500149011612, 81.16000270843506)"><path d="M2.67-11.52L7.46-5.82L12.24-11.52L14.02-11.52L14.02 0L12.72 0L12.72-10.05L7.46-3.79L2.19-10.05L2.19 0L0.90 0L0.90-11.52L2.67-11.52ZM16.99 0L15.68 0L15.68-9.28L16.99-9.28L16.99 0ZM15.68-11.01L15.68-12.32L16.99-12.32L16.99-11.01L15.68-11.01ZM20.69-1.31L20.69-1.31L28.21-1.31L28.21 0L20.69 0L20.69 0Q19.89 0 19.32-0.57L19.32-0.57L19.32-0.57Q18.75-1.14 18.75-1.94L18.75-1.94L18.75-7.34L18.75-7.34Q18.75-8.14 19.32-8.71L19.32-8.71L19.32-8.71Q19.89-9.28 20.69-9.28L20.69-9.28L28.18-9.28L28.18-7.97L20.69-7.97L20.69-7.97Q20.43-7.97 20.25-7.78L20.25-7.78L20.25-7.78Q20.06-7.60 20.06-7.34L20.06-7.34L20.06-1.94L20.06-1.94Q20.06-1.68 20.25-1.50L20.25-1.50L20.25-1.50Q20.43-1.31 20.69-1.31ZM31.82-9.28L31.82-9.28L37.04-9.28L37.04-7.97L31.82-7.97L31.82-7.97Q31.57-7.97 31.38-7.78L31.38-7.78L31.38-7.78Q31.20-7.60 31.20-7.34L31.20-7.34L31.20 0L29.89 0L29.89-7.34L29.89-7.34Q29.89-8.14 30.46-8.71L30.46-8.71L30.46-8.71Q31.02-9.28 31.82-9.28ZM39.92-9.28L39.92-9.28L45.49-9.28L45.49-9.28Q46.30-9.28 46.87-8.71L46.87-8.71L46.87-8.71Q47.44-8.14 47.44-7.34L47.44-7.34L47.44-1.94L47.44-1.94Q47.44-1.14 46.87-0.57L46.87-0.57L46.87-0.57Q46.30 0 45.49 0L45.49 0L39.92 0L39.92 0Q39.12 0 38.55-0.57L38.55-0.57L38.55-0.57Q37.98-1.14 37.98-1.94L37.98-1.94L37.98-7.34L37.98-7.34Q37.98-8.14 38.55-8.71L38.55-8.71L38.55-8.71Q39.12-9.28 39.92-9.28ZM45.49-7.97L45.49-7.97L39.92-7.97L39.92-7.97Q39.66-7.97 39.48-7.78L39.48-7.78L39.48-7.78Q39.30-7.60 39.30-7.34L39.30-7.34L39.30-1.94L39.30-1.94Q39.30-1.68 39.48-1.50L39.48-1.50L39.48-1.50Q39.66-1.31 39.92-1.31L39.92-1.31L45.49-1.31L45.49-1.31Q45.74-1.31 45.93-1.50L45.93-1.50L45.93-1.50Q46.11-1.68 46.11-1.94L46.11-1.94L46.11-7.34L46.11-7.34Q46.11-7.60 45.93-7.78L45.93-7.78L45.93-7.78Q45.74-7.97 45.49-7.97ZM58.14-7.34L58.14-7.34L58.14-7.22L56.82-7.22L56.82-7.34L56.82-7.34Q56.82-7.60 56.63-7.78L56.63-7.78L56.63-7.78Q56.45-7.97 56.19-7.97L56.19-7.97L50.62-7.97L50.62-7.97Q50.37-7.97 50.18-7.78L50.18-7.78L50.18-7.78Q50.00-7.60 50.00-7.34L50.00-7.34L50.00-5.92L50.00-5.92Q50.00-5.66 50.18-5.48L50.18-5.48L50.18-5.48Q50.37-5.30 50.62-5.30L50.62-5.30L56.19-5.30L56.19-5.30Q57.01-5.30 57.58-4.73L57.58-4.73L57.58-4.73Q58.14-4.16 58.14-3.36L58.14-3.36L58.14-1.94L58.14-1.94Q58.14-1.14 57.58-0.57L57.58-0.57L57.58-0.57Q57.01 0 56.19 0L56.19 0L50.62 0L50.62 0Q49.82 0 49.26-0.57L49.26-0.57L49.26-0.57Q48.69-1.14 48.69-1.94L48.69-1.94L48.69-2.06L50.00-2.06L50.00-1.94L50.00-1.94Q50.00-1.68 50.18-1.50L50.18-1.50L50.18-1.50Q50.37-1.31 50.62-1.31L50.62-1.31L56.19-1.31L56.19-1.31Q56.45-1.31 56.63-1.50L56.63-1.50L56.63-1.50Q56.82-1.68 56.82-1.94L56.82-1.94L56.82-3.36L56.82-3.36Q56.82-3.62 56.63-3.80L56.63-3.80L56.63-3.80Q56.45-3.98 56.19-3.98L56.19-3.98L50.62-3.98L50.62-3.98Q49.82-3.98 49.26-4.55L49.26-4.55L49.26-4.55Q48.69-5.12 48.69-5.92L48.69-5.92L48.69-7.34L48.69-7.34Q48.69-8.14 49.26-8.71L49.26-8.71L49.26-8.71Q49.82-9.28 50.62-9.28L50.62-9.28L56.19-9.28L56.19-9.28Q57.01-9.28 57.58-8.71L57.58-8.71L57.58-8.71Q58.14-8.14 58.14-7.34ZM61.65-9.28L61.65-9.28L67.22-9.28L67.22-9.28Q68.03-9.28 68.60-8.71L68.60-8.71L68.60-8.71Q69.17-8.14 69.17-7.34L69.17-7.34L69.17-1.94L69.17-1.94Q69.17-1.14 68.60-0.57L68.60-0.57L68.60-0.57Q68.03 0 67.22 0L67.22 0L61.65 0L61.65 0Q60.85 0 60.28-0.57L60.28-0.57L60.28-0.57Q59.71-1.14 59.71-1.94L59.71-1.94L59.71-7.34L59.71-7.34Q59.71-8.14 60.28-8.71L60.28-8.71L60.28-8.71Q60.85-9.28 61.65-9.28ZM67.22-7.97L67.22-7.97L61.65-7.97L61.65-7.97Q61.39-7.97 61.21-7.78L61.21-7.78L61.21-7.78Q61.02-7.60 61.02-7.34L61.02-7.34L61.02-1.94L61.02-1.94Q61.02-1.68 61.21-1.50L61.21-1.50L61.21-1.50Q61.39-1.31 61.65-1.31L61.65-1.31L67.22-1.31L67.22-1.31Q67.47-1.31 67.66-1.50L67.66-1.50L67.66-1.50Q67.84-1.68 67.84-1.94L67.84-1.94L67.84-7.34L67.84-7.34Q67.84-7.60 67.66-7.78L67.66-7.78L67.66-7.78Q67.47-7.97 67.22-7.97ZM76.14-11.01L72.75-11.01L72.75-11.01Q72.50-11.01 72.31-10.82L72.31-10.82L72.31-10.82Q72.13-10.64 72.13-10.38L72.13-10.38L72.13-9.28L76.14-9.28L76.14-7.97L72.13-7.97L72.13 0L70.82 0L70.82-10.38L70.82-10.38Q70.82-11.20 71.38-11.76L71.38-11.76L71.38-11.76Q71.94-12.32 72.75-12.32L72.75-12.32L76.14-12.32L76.14-11.01ZM76.80-10.22L76.80-11.52L88.32-11.52L88.32-10.22L83.22-10.22L83.22 0L81.92 0L81.92-10.22L76.80-10.22ZM91.38-9.28L96.94-9.28L96.94-9.28Q97.76-9.28 98.33-8.71L98.33-8.71L98.33-8.71Q98.90-8.14 98.90-7.34L98.90-7.34L98.90-3.98L90.75-3.98L90.75-1.94L90.75-1.94Q90.75-1.68 90.94-1.50L90.94-1.50L90.94-1.50Q91.12-1.31 91.38-1.31L91.38-1.31L98.90-1.31L98.90 0L91.38 0L91.38 0Q90.58 0 90.01-0.57L90.01-0.57L90.01-0.57Q89.44-1.14 89.44-1.94L89.44-1.94L89.44-7.34L89.44-7.34Q89.44-8.14 90.01-8.71L90.01-8.71L90.01-8.71Q90.58-9.28 91.38-9.28L91.38-9.28ZM90.75-7.34L90.75-5.30L97.57-5.30L97.57-7.34L97.57-7.34Q97.57-7.60 97.38-7.78L97.38-7.78L97.38-7.78Q97.20-7.97 96.94-7.97L96.94-7.97L91.38-7.97L91.38-7.97Q91.12-7.97 90.94-7.78L90.94-7.78L90.94-7.78Q90.75-7.60 90.75-7.34L90.75-7.34ZM100.53-9.28L108.03-9.28L108.03-9.28Q108.85-9.28 109.42-8.71L109.42-8.71L109.42-8.71Q109.98-8.14 109.98-7.34L109.98-7.34L109.98 0L102.46 0L102.46 0Q101.66 0 101.10-0.57L101.10-0.57L101.10-0.57Q100.53-1.14 100.53-1.94L100.53-1.94L100.53-5.30L108.66-5.30L108.66-7.34L108.66-7.34Q108.66-7.60 108.47-7.78L108.47-7.78L108.47-7.78Q108.29-7.97 108.03-7.97L108.03-7.97L100.53-7.97L100.53-9.28ZM102.46-1.31L108.66-1.31L108.66-3.98L101.84-3.98L101.84-1.94L101.84-1.94Q101.84-1.68 102.02-1.50L102.02-1.50L102.02-1.50Q102.21-1.31 102.46-1.31L102.46-1.31ZM111.34-9.28L123.60-9.28L123.60-9.28Q124.42-9.28 124.98-8.71L124.98-8.71L124.98-8.71Q125.54-8.14 125.54-7.34L125.54-7.34L125.54 0L124.24 0L124.24-7.34L124.24-7.34Q124.24-7.60 124.05-7.78L124.05-7.78L124.05-7.78Q123.86-7.97 123.60-7.97L123.60-7.97L119.74-7.97L119.74-7.97Q119.49-7.97 119.30-7.78L119.30-7.78L119.30-7.78Q119.12-7.60 119.12-7.34L119.12-7.34L119.12 0L117.79 0L117.79-7.34L117.79-7.34Q117.79-7.60 117.61-7.78L117.61-7.78L117.61-7.78Q117.42-7.97 117.17-7.97L117.17-7.97L113.30-7.97L113.30-7.97Q113.04-7.97 112.86-7.78L112.86-7.78L112.86-7.78Q112.67-7.60 112.67-7.34L112.67-7.34L112.67 0L111.34 0L111.34-9.28ZM136.35-7.34L136.35-7.34L136.35-7.22L135.02-7.22L135.02-7.34L135.02-7.34Q135.02-7.60 134.84-7.78L134.84-7.78L134.84-7.78Q134.66-7.97 134.40-7.97L134.40-7.97L128.83-7.97L128.83-7.97Q128.58-7.97 128.39-7.78L128.39-7.78L128.39-7.78Q128.21-7.60 128.21-7.34L128.21-7.34L128.21-5.92L128.21-5.92Q128.21-5.66 128.39-5.48L128.39-5.48L128.39-5.48Q128.58-5.30 128.83-5.30L128.83-5.30L134.40-5.30L134.40-5.30Q135.22-5.30 135.78-4.73L135.78-4.73L135.78-4.73Q136.35-4.16 136.35-3.36L136.35-3.36L136.35-1.94L136.35-1.94Q136.35-1.14 135.78-0.57L135.78-0.57L135.78-0.57Q135.22 0 134.40 0L134.40 0L128.83 0L128.83 0Q128.03 0 127.46-0.57L127.46-0.57L127.46-0.57Q126.90-1.14 126.90-1.94L126.90-1.94L126.90-2.06L128.21-2.06L128.21-1.94L128.21-1.94Q128.21-1.68 128.39-1.50L128.39-1.50L128.39-1.50Q128.58-1.31 128.83-1.31L128.83-1.31L134.40-1.31L134.40-1.31Q134.66-1.31 134.84-1.50L134.84-1.50L134.84-1.50Q135.02-1.68 135.02-1.94L135.02-1.94L135.02-3.36L135.02-3.36Q135.02-3.62 134.84-3.80L134.84-3.80L134.84-3.80Q134.66-3.98 134.40-3.98L134.40-3.98L128.83-3.98L128.83-3.98Q128.03-3.98 127.46-4.55L127.46-4.55L127.46-4.55Q126.90-5.12 126.90-5.92L126.90-5.92L126.90-7.34L126.90-7.34Q126.90-8.14 127.46-8.71L127.46-8.71L127.46-8.71Q128.03-9.28 128.83-9.28L128.83-9.28L134.40-9.28L134.40-9.28Q135.22-9.28 135.78-8.71L135.78-8.71L135.78-8.71Q136.35-8.14 136.35-7.34Z" fill="#6c80fd"></path></g></g><style>text {
  font-size: 64px;
  font-family: Arial Black;
  dominant-baseline: central;
  text-anchor: middle;
}</style></svg>