<svg width="255.52094726562498px" height="47.599999999999994px" xmlns="http://www.w3.org/2000/svg" viewBox="122.23952636718751 51.2 255.52094726562498 47.599999999999994" style="background: rgba(0, 0, 0, 0);" preserveAspectRatio="xMidYMid"><defs><filter id="editing-extrusion" x="-100%" y="-100%" width="300%" height="300%"><feFlood result="color1" flood-color="#fedb27"></feFlood><feConvolveMatrix order="2,2" divisor="1" kernelMatrix="1 0 0 1" in="SourceAlpha" result="extrude"></feConvolveMatrix><feComposite in="color1" in2="extrude" result="comp-extrude" operator="in"></feComposite><feOffset dx="1" dy="1" in="comp-extrude" result="offset-extrude"></feOffset><feMerge><feMergeNode in="offset-extrude"></feMergeNode><feMergeNode in="SourceGraphic"></feMergeNode></feMerge></filter></defs><g filter="url(#editing-extrusion)"><g transform="translate(163.67601162195206, 83.44118022918701)"><path d="M2.67-11.52L7.46-5.82L12.24-11.52L14.02-11.52L14.02 0L12.72 0L12.72-10.05L7.46-3.79L2.19-10.05L2.19 0L0.90 0L0.90-11.52L2.67-11.52ZM16.99 0L15.68 0L15.68-9.28L16.99-9.28L16.99 0ZM15.68-11.01L15.68-12.32L16.99-12.32L16.99-11.01L15.68-11.01ZM18.80-9.28L26.32-9.28L26.32-9.28Q27.12-9.28 27.69-8.71L27.69-8.71L27.69-8.71Q28.26-8.14 28.26-7.34L28.26-7.34L28.26 0L26.94 0L26.94-7.34L26.94-7.34Q26.94-7.60 26.76-7.78L26.76-7.78L26.76-7.78Q26.58-7.97 26.32-7.97L26.32-7.97L20.75-7.97L20.75-7.97Q20.50-7.97 20.30-7.78L20.30-7.78L20.30-7.78Q20.11-7.60 20.11-7.34L20.11-7.34L20.11 0L18.80 0L18.80-9.28ZM31.22 0L29.90 0L29.90-9.28L31.22-9.28L31.22 0ZM29.90-11.01L29.90-12.32L31.22-12.32L31.22-11.01L29.90-11.01ZM39.60-11.52L39.60-11.52L47.28-11.52L47.28-11.52Q48.08-11.52 48.64-10.96L48.64-10.96L48.64-10.96Q49.20-10.40 49.20-9.60L49.20-9.60L49.20 0L47.90 0L47.90-4.21L38.98-4.21L38.98 0L37.68 0L37.68-9.60L37.68-9.60Q37.68-10.40 38.24-10.96L38.24-10.96L38.24-10.96Q38.80-11.52 39.60-11.52ZM38.98-9.60L38.98-5.50L47.90-5.50L47.90-9.60L47.90-9.60Q47.90-9.86 47.72-10.04L47.72-10.04L47.72-10.04Q47.54-10.22 47.28-10.22L47.28-10.22L39.60-10.22L39.60-10.22Q39.34-10.22 39.16-10.04L39.16-10.04L39.16-10.04Q38.98-9.86 38.98-9.60L38.98-9.60ZM50.99-9.28L58.51-9.28L58.51-9.28Q59.31-9.28 59.88-8.71L59.88-8.71L59.88-8.71Q60.45-8.14 60.45-7.34L60.45-7.34L60.45-1.94L60.45-1.94Q60.45-1.14 59.88-0.57L59.88-0.57L59.88-0.57Q59.31 0 58.51 0L58.51 0L52.30 0L52.30 3.68L50.99 3.68L50.99-9.28ZM59.14-1.94L59.14-1.94L59.14-7.34L59.14-7.34Q59.14-7.60 58.95-7.78L58.95-7.78L58.95-7.78Q58.77-7.97 58.51-7.97L58.51-7.97L52.94-7.97L52.94-7.97Q52.69-7.97 52.50-7.78L52.50-7.78L52.50-7.78Q52.30-7.60 52.30-7.34L52.30-7.34L52.30-1.94L52.30-1.94Q52.30-1.68 52.50-1.50L52.50-1.50L52.50-1.50Q52.69-1.31 52.94-1.31L52.94-1.31L58.51-1.31L58.51-1.31Q58.77-1.31 58.95-1.50L58.95-1.50L58.95-1.50Q59.14-1.68 59.14-1.94ZM61.62-9.28L69.14-9.28L69.14-9.28Q69.94-9.28 70.50-8.71L70.50-8.71L70.50-8.71Q71.07-8.14 71.07-7.34L71.07-7.34L71.07-1.94L71.07-1.94Q71.07-1.14 70.50-0.57L70.50-0.57L70.50-0.57Q69.94 0 69.14 0L69.14 0L62.93 0L62.93 3.68L61.62 3.68L61.62-9.28ZM69.76-1.94L69.76-1.94L69.76-7.34L69.76-7.34Q69.76-7.60 69.58-7.78L69.58-7.78L69.58-7.78Q69.39-7.97 69.14-7.97L69.14-7.97L63.57-7.97L63.57-7.97Q63.31-7.97 63.12-7.78L63.12-7.78L63.12-7.78Q62.93-7.60 62.93-7.34L62.93-7.34L62.93-1.94L62.93-1.94Q62.93-1.68 63.12-1.50L63.12-1.50L63.12-1.50Q63.31-1.31 63.57-1.31L63.57-1.31L69.14-1.31L69.14-1.31Q69.39-1.31 69.58-1.50L69.58-1.50L69.58-1.50Q69.76-1.68 69.76-1.94ZM72.21-1.94L72.21-12.32L73.52-12.32L73.52-1.94L73.52-1.94Q73.52-1.68 73.70-1.50L73.70-1.50L73.70-1.50Q73.89-1.31 74.14-1.31L74.14-1.31L75.71-1.31L75.71 0L74.14 0L74.14 0Q73.34 0 72.78-0.57L72.78-0.57L72.78-0.57Q72.21-1.14 72.21-1.94L72.21-1.94ZM78.35 0L77.04 0L77.04-9.28L78.35-9.28L78.35 0ZM77.04-11.01L77.04-12.32L78.35-12.32L78.35-11.01L77.04-11.01ZM96.27-11.52L96.27-10.22L86.70-10.22L86.70-10.22Q86.45-10.22 86.26-10.04L86.26-10.04L86.26-10.04Q86.08-9.86 86.08-9.60L86.08-9.60L86.08-1.92L86.08-1.92Q86.08-1.66 86.26-1.48L86.26-1.48L86.26-1.48Q86.45-1.30 86.70-1.30L86.70-1.30L96.27-1.30L96.27 0L86.70 0L86.70 0Q85.90 0 85.34-0.56L85.34-0.56L85.34-0.56Q84.78-1.12 84.78-1.92L84.78-1.92L84.78-9.60L84.78-9.60Q84.78-10.40 85.34-10.96L85.34-10.96L85.34-10.96Q85.90-11.52 86.70-11.52L86.70-11.52L96.27-11.52ZM97.87-9.28L105.38-9.28L105.38-9.28Q106.19-9.28 106.76-8.71L106.76-8.71L106.76-8.71Q107.33-8.14 107.33-7.34L107.33-7.34L107.33 0L99.81 0L99.81 0Q99.01 0 98.44-0.57L98.44-0.57L98.44-0.57Q97.87-1.14 97.87-1.94L97.87-1.94L97.87-5.30L106-5.30L106-7.34L106-7.34Q106-7.60 105.82-7.78L105.82-7.78L105.82-7.78Q105.63-7.97 105.38-7.97L105.38-7.97L97.87-7.97L97.87-9.28ZM99.81-1.31L106-1.31L106-3.98L99.18-3.98L99.18-1.94L99.18-1.94Q99.18-1.68 99.37-1.50L99.37-1.50L99.37-1.50Q99.55-1.31 99.81-1.31L99.81-1.31ZM110.83-9.28L110.83-9.28L116.05-9.28L116.05-7.97L110.83-7.97L110.83-7.97Q110.58-7.97 110.39-7.78L110.39-7.78L110.39-7.78Q110.21-7.60 110.21-7.34L110.21-7.34L110.21 0L108.90 0L108.90-7.34L108.90-7.34Q108.90-8.14 109.46-8.71L109.46-8.71L109.46-8.71Q110.03-9.28 110.83-9.28ZM117.09-9.28L124.59-9.28L124.59-9.28Q125.41-9.28 125.98-8.71L125.98-8.71L125.98-8.71Q126.54-8.14 126.54-7.34L126.54-7.34L126.54 0L119.02 0L119.02 0Q118.22 0 117.66-0.57L117.66-0.57L117.66-0.57Q117.09-1.14 117.09-1.94L117.09-1.94L117.09-5.30L125.22-5.30L125.22-7.34L125.22-7.34Q125.22-7.60 125.03-7.78L125.03-7.78L125.03-7.78Q124.85-7.97 124.59-7.97L124.59-7.97L117.09-7.97L117.09-9.28ZM119.02-1.31L125.22-1.31L125.22-3.98L118.40-3.98L118.40-1.94L118.40-1.94Q118.40-1.68 118.58-1.50L118.58-1.50L118.58-1.50Q118.77-1.31 119.02-1.31L119.02-1.31ZM127.90-9.28L140.16-9.28L140.16-9.28Q140.98-9.28 141.54-8.71L141.54-8.71L141.54-8.71Q142.10-8.14 142.10-7.34L142.10-7.34L142.10 0L140.80 0L140.80-7.34L140.80-7.34Q140.80-7.60 140.61-7.78L140.61-7.78L140.61-7.78Q140.42-7.97 140.16-7.97L140.16-7.97L136.30-7.97L136.30-7.97Q136.05-7.97 135.86-7.78L135.86-7.78L135.86-7.78Q135.68-7.60 135.68-7.34L135.68-7.34L135.68 0L134.35 0L134.35-7.34L134.35-7.34Q134.35-7.60 134.17-7.78L134.17-7.78L134.17-7.78Q133.98-7.97 133.73-7.97L133.73-7.97L129.86-7.97L129.86-7.97Q129.60-7.97 129.42-7.78L129.42-7.78L129.42-7.78Q129.23-7.60 129.23-7.34L129.23-7.34L129.23 0L127.90 0L127.90-9.28ZM144.86-9.28L151.07-9.28L151.07-9.28Q151.87-9.28 152.44-8.71L152.44-8.71L152.44-8.71Q153.01-8.14 153.01-7.34L153.01-7.34L153.01-1.94L153.01-1.94Q153.01-1.14 152.44-0.57L152.44-0.57L152.44-0.57Q151.87 0 151.07 0L151.07 0L143.55 0L143.55-12.32L144.86-12.32L144.86-9.28ZM151.70-1.94L151.70-1.94L151.70-7.34L151.70-7.34Q151.70-7.60 151.51-7.78L151.51-7.78L151.51-7.78Q151.33-7.97 151.07-7.97L151.07-7.97L145.50-7.97L145.50-7.97Q145.25-7.97 145.06-7.78L145.06-7.78L145.06-7.78Q144.86-7.60 144.86-7.34L144.86-7.34L144.86-1.94L144.86-1.94Q144.86-1.68 145.06-1.50L145.06-1.50L145.06-1.50Q145.25-1.31 145.50-1.31L145.50-1.31L151.07-1.31L151.07-1.31Q151.33-1.31 151.51-1.50L151.51-1.50L151.51-1.50Q151.70-1.68 151.70-1.94ZM154.19-9.28L161.70-9.28L161.70-9.28Q162.51-9.28 163.08-8.71L163.08-8.71L163.08-8.71Q163.65-8.14 163.65-7.34L163.65-7.34L163.65 0L156.13 0L156.13 0Q155.33 0 154.76-0.57L154.76-0.57L154.76-0.57Q154.19-1.14 154.19-1.94L154.19-1.94L154.19-5.30L162.32-5.30L162.32-7.34L162.32-7.34Q162.32-7.60 162.14-7.78L162.14-7.78L162.14-7.78Q161.95-7.97 161.70-7.97L161.70-7.97L154.19-7.97L154.19-9.28ZM156.13-1.31L162.32-1.31L162.32-3.98L155.50-3.98L155.50-1.94L155.50-1.94Q155.50-1.68 155.69-1.50L155.69-1.50L155.69-1.50Q155.87-1.31 156.13-1.31L156.13-1.31ZM167.15-9.28L167.15-9.28L172.37-9.28L172.37-7.97L167.15-7.97L167.15-7.97Q166.90-7.97 166.71-7.78L166.71-7.78L166.71-7.78Q166.53-7.60 166.53-7.34L166.53-7.34L166.53 0L165.22 0L165.22-7.34L165.22-7.34Q165.22-8.14 165.78-8.71L165.78-8.71L165.78-8.71Q166.35-9.28 167.15-9.28Z" fill="#e3097e"></path></g></g><style>text {
  font-size: 64px;
  font-family: Arial Black;
  dominant-baseline: central;
  text-anchor: middle;
}</style></svg>