<svg width="1052.8999999999999px" height="47.599999999999994px" xmlns="http://www.w3.org/2000/svg" viewBox="-276.44999999999993 51.2 1052.8999999999999 47.599999999999994" style="background: rgba(0, 0, 0, 0);" preserveAspectRatio="xMidYMid"><defs><filter id="editing-extrusion" x="-100%" y="-100%" width="300%" height="300%"><feFlood result="color1" flood-color="#444444"></feFlood><feConvolveMatrix order="2,2" divisor="1" kernelMatrix="1 0 0 1" in="SourceAlpha" result="extrude"></feConvolveMatrix><feComposite in="color1" in2="extrude" result="comp-extrude" operator="in"></feComposite><feOffset dx="1" dy="1" in="comp-extrude" result="offset-extrude"></feOffset><feMerge><feMergeNode in="offset-extrude"></feMergeNode><feMergeNode in="SourceGraphic"></feMergeNode></feMerge></filter></defs><g filter="url(#editing-extrusion)"><g transform="translate(-129.86000674962997, 84.50617980957031)"><path d="M2.67-11.52L7.46-5.82L12.24-11.52L14.02-11.52L14.02 0L12.72 0L12.72-10.05L7.46-3.79L2.19-10.05L2.19 0L0.90 0L0.90-11.52L2.67-11.52ZM17.60-9.28L17.60-9.28L23.17-9.28L23.17-9.28Q23.98-9.28 24.55-8.71L24.55-8.71L24.55-8.71Q25.12-8.14 25.12-7.34L25.12-7.34L25.12-1.94L25.12-1.94Q25.12-1.14 24.55-0.57L24.55-0.57L24.55-0.57Q23.98 0 23.17 0L23.17 0L17.60 0L17.60 0Q16.80 0 16.23-0.57L16.23-0.57L16.23-0.57Q15.66-1.14 15.66-1.94L15.66-1.94L15.66-7.34L15.66-7.34Q15.66-8.14 16.23-8.71L16.23-8.71L16.23-8.71Q16.80-9.28 17.60-9.28ZM23.17-7.97L23.17-7.97L17.60-7.97L17.60-7.97Q17.34-7.97 17.16-7.78L17.16-7.78L17.16-7.78Q16.98-7.60 16.98-7.34L16.98-7.34L16.98-1.94L16.98-1.94Q16.98-1.68 17.16-1.50L17.16-1.50L17.16-1.50Q17.34-1.31 17.60-1.31L17.60-1.31L23.17-1.31L23.17-1.31Q23.42-1.31 23.61-1.50L23.61-1.50L23.61-1.50Q23.79-1.68 23.79-1.94L23.79-1.94L23.79-7.34L23.79-7.34Q23.79-7.60 23.61-7.78L23.61-7.78L23.61-7.78Q23.42-7.97 23.17-7.97ZM26.54-9.28L34.06-9.28L34.06-9.28Q34.86-9.28 35.43-8.71L35.43-8.71L35.43-8.71Q36-8.14 36-7.34L36-7.34L36 0L34.69 0L34.69-7.34L34.69-7.34Q34.69-7.60 34.50-7.78L34.50-7.78L34.50-7.78Q34.32-7.97 34.06-7.97L34.06-7.97L28.50-7.97L28.50-7.97Q28.24-7.97 28.05-7.78L28.05-7.78L28.05-7.78Q27.86-7.60 27.86-7.34L27.86-7.34L27.86 0L26.54 0L26.54-9.28ZM42.03-9.28L49.55-9.28L49.55-9.28Q50.35-9.28 50.92-8.71L50.92-8.71L50.92-8.71Q51.49-8.14 51.49-7.34L51.49-7.34L51.49-1.94L51.49-1.94Q51.49-1.14 50.92-0.57L50.92-0.57L50.92-0.57Q50.35 0 49.55 0L49.55 0L43.34 0L43.34 3.68L42.03 3.68L42.03-9.28ZM50.18-1.94L50.18-1.94L50.18-7.34L50.18-7.34Q50.18-7.60 49.99-7.78L49.99-7.78L49.99-7.78Q49.81-7.97 49.55-7.97L49.55-7.97L43.98-7.97L43.98-7.97Q43.73-7.97 43.54-7.78L43.54-7.78L43.54-7.78Q43.34-7.60 43.34-7.34L43.34-7.34L43.34-1.94L43.34-1.94Q43.34-1.68 43.54-1.50L43.54-1.50L43.54-1.50Q43.73-1.31 43.98-1.31L43.98-1.31L49.55-1.31L49.55-1.31Q49.81-1.31 49.99-1.50L49.99-1.50L49.99-1.50Q50.18-1.68 50.18-1.94ZM52.62-9.28L60.13-9.28L60.13-9.28Q60.94-9.28 61.51-8.71L61.51-8.71L61.51-8.71Q62.08-8.14 62.08-7.34L62.08-7.34L62.08 0L54.56 0L54.56 0Q53.76 0 53.19-0.57L53.19-0.57L53.19-0.57Q52.62-1.14 52.62-1.94L52.62-1.94L52.62-5.30L60.75-5.30L60.75-7.34L60.75-7.34Q60.75-7.60 60.57-7.78L60.57-7.78L60.57-7.78Q60.38-7.97 60.13-7.97L60.13-7.97L52.62-7.97L52.62-9.28ZM54.56-1.31L60.75-1.31L60.75-3.98L53.94-3.98L53.94-1.94L53.94-1.94Q53.94-1.68 54.12-1.50L54.12-1.50L54.12-1.50Q54.30-1.31 54.56-1.31L54.56-1.31ZM65.58-9.28L65.58-9.28L70.80-9.28L70.80-7.97L65.58-7.97L65.58-7.97Q65.33-7.97 65.14-7.78L65.14-7.78L65.14-7.78Q64.96-7.60 64.96-7.34L64.96-7.34L64.96 0L63.65 0L63.65-7.34L63.65-7.34Q63.65-8.14 64.22-8.71L64.22-8.71L64.22-8.71Q64.78-9.28 65.58-9.28ZM73.76-1.31L73.76-1.31L81.28-1.31L81.28 0L73.76 0L73.76 0Q72.96 0 72.39-0.57L72.39-0.57L72.39-0.57Q71.82-1.14 71.82-1.94L71.82-1.94L71.82-7.34L71.82-7.34Q71.82-8.14 72.39-8.71L72.39-8.71L72.39-8.71Q72.96-9.28 73.76-9.28L73.76-9.28L81.25-9.28L81.25-7.97L73.76-7.97L73.76-7.97Q73.50-7.97 73.32-7.78L73.32-7.78L73.32-7.78Q73.14-7.60 73.14-7.34L73.14-7.34L73.14-1.94L73.14-1.94Q73.14-1.68 73.32-1.50L73.32-1.50L73.32-1.50Q73.50-1.31 73.76-1.31ZM84.88-9.28L84.88-9.28L90.45-9.28L90.45-9.28Q91.26-9.28 91.83-8.71L91.83-8.71L91.83-8.71Q92.40-8.14 92.40-7.34L92.40-7.34L92.40-1.94L92.40-1.94Q92.40-1.14 91.83-0.57L91.83-0.57L91.83-0.57Q91.26 0 90.45 0L90.45 0L84.88 0L84.88 0Q84.08 0 83.51-0.57L83.51-0.57L83.51-0.57Q82.94-1.14 82.94-1.94L82.94-1.94L82.94-7.34L82.94-7.34Q82.94-8.14 83.51-8.71L83.51-8.71L83.51-8.71Q84.08-9.28 84.88-9.28ZM90.45-7.97L90.45-7.97L84.88-7.97L84.88-7.97Q84.62-7.97 84.44-7.78L84.44-7.78L84.44-7.78Q84.26-7.60 84.26-7.34L84.26-7.34L84.26-1.94L84.26-1.94Q84.26-1.68 84.44-1.50L84.44-1.50L84.44-1.50Q84.62-1.31 84.88-1.31L84.88-1.31L90.45-1.31L90.45-1.31Q90.70-1.31 90.89-1.50L90.89-1.50L90.89-1.50Q91.07-1.68 91.07-1.94L91.07-1.94L91.07-7.34L91.07-7.34Q91.07-7.60 90.89-7.78L90.89-7.78L90.89-7.78Q90.70-7.97 90.45-7.97ZM101.82-1.94L101.82-9.28L103.14-9.28L103.14-1.94L103.14-1.94Q103.14-1.14 102.57-0.57L102.57-0.57L102.57-0.57Q102.00 0 101.18 0L101.18 0L95.62 0L95.62 0Q94.82 0 94.25-0.57L94.25-0.57L94.25-0.57Q93.68-1.14 93.68-1.94L93.68-1.94L93.68-9.28L94.99-9.28L94.99-1.94L94.99-1.94Q94.99-1.68 95.18-1.50L95.18-1.50L95.18-1.50Q95.36-1.31 95.62-1.31L95.62-1.31L101.18-1.31L101.18-1.31Q101.44-1.31 101.63-1.50L101.63-1.50L101.63-1.50Q101.82-1.68 101.82-1.94L101.82-1.94ZM106.72-9.28L106.72-9.28L111.94-9.28L111.94-7.97L106.72-7.97L106.72-7.97Q106.46-7.97 106.28-7.78L106.28-7.78L106.28-7.78Q106.10-7.60 106.10-7.34L106.10-7.34L106.10 0L104.78 0L104.78-7.34L104.78-7.34Q104.78-8.14 105.35-8.71L105.35-8.71L105.35-8.71Q105.92-9.28 106.72-9.28ZM122.37-7.34L122.37-7.34L122.37-7.22L121.04-7.22L121.04-7.34L121.04-7.34Q121.04-7.60 120.86-7.78L120.86-7.78L120.86-7.78Q120.67-7.97 120.42-7.97L120.42-7.97L114.85-7.97L114.85-7.97Q114.59-7.97 114.41-7.78L114.41-7.78L114.41-7.78Q114.22-7.60 114.22-7.34L114.22-7.34L114.22-5.92L114.22-5.92Q114.22-5.66 114.41-5.48L114.41-5.48L114.41-5.48Q114.59-5.30 114.85-5.30L114.85-5.30L120.42-5.30L120.42-5.30Q121.23-5.30 121.80-4.73L121.80-4.73L121.80-4.73Q122.37-4.16 122.37-3.36L122.37-3.36L122.37-1.94L122.37-1.94Q122.37-1.14 121.80-0.57L121.80-0.57L121.80-0.57Q121.23 0 120.42 0L120.42 0L114.85 0L114.85 0Q114.05 0 113.48-0.57L113.48-0.57L113.48-0.57Q112.91-1.14 112.91-1.94L112.91-1.94L112.91-2.06L114.22-2.06L114.22-1.94L114.22-1.94Q114.22-1.68 114.41-1.50L114.41-1.50L114.41-1.50Q114.59-1.31 114.85-1.31L114.85-1.31L120.42-1.31L120.42-1.31Q120.67-1.31 120.86-1.50L120.86-1.50L120.86-1.50Q121.04-1.68 121.04-1.94L121.04-1.94L121.04-3.36L121.04-3.36Q121.04-3.62 120.86-3.80L120.86-3.80L120.86-3.80Q120.67-3.98 120.42-3.98L120.42-3.98L114.85-3.98L114.85-3.98Q114.05-3.98 113.48-4.55L113.48-4.55L113.48-4.55Q112.91-5.12 112.91-5.92L112.91-5.92L112.91-7.34L112.91-7.34Q112.91-8.14 113.48-8.71L113.48-8.71L113.48-8.71Q114.05-9.28 114.85-9.28L114.85-9.28L120.42-9.28L120.42-9.28Q121.23-9.28 121.80-8.71L121.80-8.71L121.80-8.71Q122.37-8.14 122.37-7.34ZM128.34-9.28L135.86-9.28L135.86-9.28Q136.66-9.28 137.22-8.71L137.22-8.71L137.22-8.71Q137.79-8.14 137.79-7.34L137.79-7.34L137.79-1.94L137.79-1.94Q137.79-1.14 137.22-0.57L137.22-0.57L137.22-0.57Q136.66 0 135.86 0L135.86 0L129.65 0L129.65 3.68L128.34 3.68L128.34-9.28ZM136.48-1.94L136.48-1.94L136.48-7.34L136.48-7.34Q136.48-7.60 136.30-7.78L136.30-7.78L136.30-7.78Q136.11-7.97 135.86-7.97L135.86-7.97L130.29-7.97L130.29-7.97Q130.03-7.97 129.84-7.78L129.84-7.78L129.84-7.78Q129.65-7.60 129.65-7.34L129.65-7.34L129.65-1.94L129.65-1.94Q129.65-1.68 129.84-1.50L129.84-1.50L129.84-1.50Q130.03-1.31 130.29-1.31L130.29-1.31L135.86-1.31L135.86-1.31Q136.11-1.31 136.30-1.50L136.30-1.50L136.30-1.50Q136.48-1.68 136.48-1.94ZM140.86-9.28L140.86-9.28L146.08-9.28L146.08-7.97L140.86-7.97L140.86-7.97Q140.61-7.97 140.42-7.78L140.42-7.78L140.42-7.78Q140.24-7.60 140.24-7.34L140.24-7.34L140.24 0L138.93 0L138.93-7.34L138.93-7.34Q138.93-8.14 139.50-8.71L139.50-8.71L139.50-8.71Q140.06-9.28 140.86-9.28ZM148.96-9.28L148.96-9.28L154.53-9.28L154.53-9.28Q155.34-9.28 155.91-8.71L155.91-8.71L155.91-8.71Q156.48-8.14 156.48-7.34L156.48-7.34L156.48-1.94L156.48-1.94Q156.48-1.14 155.91-0.57L155.91-0.57L155.91-0.57Q155.34 0 154.53 0L154.53 0L148.96 0L148.96 0Q148.16 0 147.59-0.57L147.59-0.57L147.59-0.57Q147.02-1.14 147.02-1.94L147.02-1.94L147.02-7.34L147.02-7.34Q147.02-8.14 147.59-8.71L147.59-8.71L147.59-8.71Q148.16-9.28 148.96-9.28ZM154.53-7.97L154.53-7.97L148.96-7.97L148.96-7.97Q148.70-7.97 148.52-7.78L148.52-7.78L148.52-7.78Q148.34-7.60 148.34-7.34L148.34-7.34L148.34-1.94L148.34-1.94Q148.34-1.68 148.52-1.50L148.52-1.50L148.52-1.50Q148.70-1.31 148.96-1.31L148.96-1.31L154.53-1.31L154.53-1.31Q154.78-1.31 154.97-1.50L154.97-1.50L154.97-1.50Q155.15-1.68 155.15-1.94L155.15-1.94L155.15-7.34L155.15-7.34Q155.15-7.60 154.97-7.78L154.97-7.78L154.97-7.78Q154.78-7.97 154.53-7.97ZM163.46-11.01L160.06-11.01L160.06-11.01Q159.81-11.01 159.62-10.82L159.62-10.82L159.62-10.82Q159.44-10.64 159.44-10.38L159.44-10.38L159.44-9.28L163.46-9.28L163.46-7.97L159.44-7.97L159.44 0L158.13 0L158.13-10.38L158.13-10.38Q158.13-11.20 158.69-11.76L158.69-11.76L158.69-11.76Q159.25-12.32 160.06-12.32L160.06-12.32L163.46-12.32L163.46-11.01ZM166.54-9.28L172.11-9.28L172.11-9.28Q172.93-9.28 173.50-8.71L173.50-8.71L173.50-8.71Q174.06-8.14 174.06-7.34L174.06-7.34L174.06-3.98L165.92-3.98L165.92-1.94L165.92-1.94Q165.92-1.68 166.10-1.50L166.10-1.50L166.10-1.50Q166.29-1.31 166.54-1.31L166.54-1.31L174.06-1.31L174.06 0L166.54 0L166.54 0Q165.74 0 165.18-0.57L165.18-0.57L165.18-0.57Q164.61-1.14 164.61-1.94L164.61-1.94L164.61-7.34L164.61-7.34Q164.61-8.14 165.18-8.71L165.18-8.71L165.18-8.71Q165.74-9.28 166.54-9.28L166.54-9.28ZM165.92-7.34L165.92-5.30L172.74-5.30L172.74-7.34L172.74-7.34Q172.74-7.60 172.55-7.78L172.55-7.78L172.55-7.78Q172.37-7.97 172.11-7.97L172.11-7.97L166.54-7.97L166.54-7.97Q166.29-7.97 166.10-7.78L166.10-7.78L166.10-7.78Q165.92-7.60 165.92-7.34L165.92-7.34ZM185.09-7.34L185.09-7.34L185.09-7.22L183.76-7.22L183.76-7.34L183.76-7.34Q183.76-7.60 183.58-7.78L183.58-7.78L183.58-7.78Q183.39-7.97 183.14-7.97L183.14-7.97L177.57-7.97L177.57-7.97Q177.31-7.97 177.13-7.78L177.13-7.78L177.13-7.78Q176.94-7.60 176.94-7.34L176.94-7.34L176.94-5.92L176.94-5.92Q176.94-5.66 177.13-5.48L177.13-5.48L177.13-5.48Q177.31-5.30 177.57-5.30L177.57-5.30L183.14-5.30L183.14-5.30Q183.95-5.30 184.52-4.73L184.52-4.73L184.52-4.73Q185.09-4.16 185.09-3.36L185.09-3.36L185.09-1.94L185.09-1.94Q185.09-1.14 184.52-0.57L184.52-0.57L184.52-0.57Q183.95 0 183.14 0L183.14 0L177.57 0L177.57 0Q176.77 0 176.20-0.57L176.20-0.57L176.20-0.57Q175.63-1.14 175.63-1.94L175.63-1.94L175.63-2.06L176.94-2.06L176.94-1.94L176.94-1.94Q176.94-1.68 177.13-1.50L177.13-1.50L177.13-1.50Q177.31-1.31 177.57-1.31L177.57-1.31L183.14-1.31L183.14-1.31Q183.39-1.31 183.58-1.50L183.58-1.50L183.58-1.50Q183.76-1.68 183.76-1.94L183.76-1.94L183.76-3.36L183.76-3.36Q183.76-3.62 183.58-3.80L183.58-3.80L183.58-3.80Q183.39-3.98 183.14-3.98L183.14-3.98L177.57-3.98L177.57-3.98Q176.77-3.98 176.20-4.55L176.20-4.55L176.20-4.55Q175.63-5.12 175.63-5.92L175.63-5.92L175.63-7.34L175.63-7.34Q175.63-8.14 176.20-8.71L176.20-8.71L176.20-8.71Q176.77-9.28 177.57-9.28L177.57-9.28L183.14-9.28L183.14-9.28Q183.95-9.28 184.52-8.71L184.52-8.71L184.52-8.71Q185.09-8.14 185.09-7.34ZM196.06-7.34L196.06-7.34L196.06-7.22L194.74-7.22L194.74-7.34L194.74-7.34Q194.74-7.60 194.55-7.78L194.55-7.78L194.55-7.78Q194.37-7.97 194.11-7.97L194.11-7.97L188.54-7.97L188.54-7.97Q188.29-7.97 188.10-7.78L188.10-7.78L188.10-7.78Q187.92-7.60 187.92-7.34L187.92-7.34L187.92-5.92L187.92-5.92Q187.92-5.66 188.10-5.48L188.10-5.48L188.10-5.48Q188.29-5.30 188.54-5.30L188.54-5.30L194.11-5.30L194.11-5.30Q194.93-5.30 195.50-4.73L195.50-4.73L195.50-4.73Q196.06-4.16 196.06-3.36L196.06-3.36L196.06-1.94L196.06-1.94Q196.06-1.14 195.50-0.57L195.50-0.57L195.50-0.57Q194.93 0 194.11 0L194.11 0L188.54 0L188.54 0Q187.74 0 187.18-0.57L187.18-0.57L187.18-0.57Q186.61-1.14 186.61-1.94L186.61-1.94L186.61-2.06L187.92-2.06L187.92-1.94L187.92-1.94Q187.92-1.68 188.10-1.50L188.10-1.50L188.10-1.50Q188.29-1.31 188.54-1.31L188.54-1.31L194.11-1.31L194.11-1.31Q194.37-1.31 194.55-1.50L194.55-1.50L194.55-1.50Q194.74-1.68 194.74-1.94L194.74-1.94L194.74-3.36L194.74-3.36Q194.74-3.62 194.55-3.80L194.55-3.80L194.55-3.80Q194.37-3.98 194.11-3.98L194.11-3.98L188.54-3.98L188.54-3.98Q187.74-3.98 187.18-4.55L187.18-4.55L187.18-4.55Q186.61-5.12 186.61-5.92L186.61-5.92L186.61-7.34L186.61-7.34Q186.61-8.14 187.18-8.71L187.18-8.71L187.18-8.71Q187.74-9.28 188.54-9.28L188.54-9.28L194.11-9.28L194.11-9.28Q194.93-9.28 195.50-8.71L195.50-8.71L195.50-8.71Q196.06-8.14 196.06-7.34ZM198.96 0L197.65 0L197.65-9.28L198.96-9.28L198.96 0ZM197.65-11.01L197.65-12.32L198.96-12.32L198.96-11.01L197.65-11.01ZM202.90-9.28L202.90-9.28L208.46-9.28L208.46-9.28Q209.28-9.28 209.85-8.71L209.85-8.71L209.85-8.71Q210.42-8.14 210.42-7.34L210.42-7.34L210.42-1.94L210.42-1.94Q210.42-1.14 209.85-0.57L209.85-0.57L209.85-0.57Q209.28 0 208.46 0L208.46 0L202.90 0L202.90 0Q202.10 0 201.53-0.57L201.53-0.57L201.53-0.57Q200.96-1.14 200.96-1.94L200.96-1.94L200.96-7.34L200.96-7.34Q200.96-8.14 201.53-8.71L201.53-8.71L201.53-8.71Q202.10-9.28 202.90-9.28ZM208.46-7.97L208.46-7.97L202.90-7.97L202.90-7.97Q202.64-7.97 202.46-7.78L202.46-7.78L202.46-7.78Q202.27-7.60 202.27-7.34L202.27-7.34L202.27-1.94L202.27-1.94Q202.27-1.68 202.46-1.50L202.46-1.50L202.46-1.50Q202.64-1.31 202.90-1.31L202.90-1.31L208.46-1.31L208.46-1.31Q208.72-1.31 208.90-1.50L208.90-1.50L208.90-1.50Q209.09-1.68 209.09-1.94L209.09-1.94L209.09-7.34L209.09-7.34Q209.09-7.60 208.90-7.78L208.90-7.78L208.90-7.78Q208.72-7.97 208.46-7.97ZM211.84-9.28L219.36-9.28L219.36-9.28Q220.16-9.28 220.73-8.71L220.73-8.71L220.73-8.71Q221.30-8.14 221.30-7.34L221.30-7.34L221.30 0L219.98 0L219.98-7.34L219.98-7.34Q219.98-7.60 219.80-7.78L219.80-7.78L219.80-7.78Q219.62-7.97 219.36-7.97L219.36-7.97L213.79-7.97L213.79-7.97Q213.54-7.97 213.34-7.78L213.34-7.78L213.34-7.78Q213.15-7.60 213.15-7.34L213.15-7.34L213.15 0L211.84 0L211.84-9.28ZM222.98-9.28L230.50-9.28L230.50-9.28Q231.30-9.28 231.86-8.71L231.86-8.71L231.86-8.71Q232.43-8.14 232.43-7.34L232.43-7.34L232.43 0L231.12 0L231.12-7.34L231.12-7.34Q231.12-7.60 230.94-7.78L230.94-7.78L230.94-7.78Q230.75-7.97 230.50-7.97L230.50-7.97L224.93-7.97L224.93-7.97Q224.67-7.97 224.48-7.78L224.48-7.78L224.48-7.78Q224.29-7.60 224.29-7.34L224.29-7.34L224.29 0L222.98 0L222.98-9.28ZM236.00-9.28L241.57-9.28L241.57-9.28Q242.38-9.28 242.95-8.71L242.95-8.71L242.95-8.71Q243.52-8.14 243.52-7.34L243.52-7.34L243.52-3.98L235.38-3.98L235.38-1.94L235.38-1.94Q235.38-1.68 235.56-1.50L235.56-1.50L235.56-1.50Q235.74-1.31 236.00-1.31L236.00-1.31L243.52-1.31L243.52 0L236.00 0L236.00 0Q235.20 0 234.63-0.57L234.63-0.57L234.63-0.57Q234.06-1.14 234.06-1.94L234.06-1.94L234.06-7.34L234.06-7.34Q234.06-8.14 234.63-8.71L234.63-8.71L234.63-8.71Q235.20-9.28 236.00-9.28L236.00-9.28ZM235.38-7.34L235.38-5.30L242.19-5.30L242.19-7.34L242.19-7.34Q242.19-7.60 242.01-7.78L242.01-7.78L242.01-7.78Q241.82-7.97 241.57-7.97L241.57-7.97L236.00-7.97L236.00-7.97Q235.74-7.97 235.56-7.78L235.56-7.78L235.56-7.78Q235.38-7.60 235.38-7.34L235.38-7.34ZM244.83-1.94L244.83-12.32L246.14-12.32L246.14-1.94L246.14-1.94Q246.14-1.68 246.33-1.50L246.33-1.50L246.33-1.50Q246.51-1.31 246.77-1.31L246.77-1.31L248.34-1.31L248.34 0L246.77 0L246.77 0Q245.97 0 245.40-0.57L245.40-0.57L245.40-0.57Q244.83-1.14 244.83-1.94L244.83-1.94ZM261.70-9.28L261.70-12.32L263.01-12.32L263.01 0L255.50 0L255.50 0Q254.69 0 254.12-0.57L254.12-0.57L254.12-0.57Q253.55-1.14 253.55-1.94L253.55-1.94L253.55-7.34L253.55-7.34Q253.55-8.14 254.12-8.71L254.12-8.71L254.12-8.71Q254.69-9.28 255.50-9.28L255.50-9.28L261.70-9.28ZM255.50-1.31L255.50-1.31L261.07-1.31L261.07-1.31Q261.33-1.31 261.51-1.50L261.51-1.50L261.51-1.50Q261.70-1.68 261.70-1.94L261.70-1.94L261.70-7.34L261.70-7.34Q261.70-7.60 261.51-7.78L261.51-7.78L261.51-7.78Q261.33-7.97 261.07-7.97L261.07-7.97L255.50-7.97L255.50-7.97Q255.25-7.97 255.06-7.78L255.06-7.78L255.06-7.78Q254.88-7.60 254.88-7.34L254.88-7.34L254.88-1.94L254.88-1.94Q254.88-1.68 255.06-1.50L255.06-1.50L255.06-1.50Q255.25-1.31 255.50-1.31ZM266.29-9.28L271.86-9.28L271.86-9.28Q272.67-9.28 273.24-8.71L273.24-8.71L273.24-8.71Q273.81-8.14 273.81-7.34L273.81-7.34L273.81-3.98L265.66-3.98L265.66-1.94L265.66-1.94Q265.66-1.68 265.85-1.50L265.85-1.50L265.85-1.50Q266.03-1.31 266.29-1.31L266.29-1.31L273.81-1.31L273.81 0L266.29 0L266.29 0Q265.49 0 264.92-0.57L264.92-0.57L264.92-0.57Q264.35-1.14 264.35-1.94L264.35-1.94L264.35-7.34L264.35-7.34Q264.35-8.14 264.92-8.71L264.92-8.71L264.92-8.71Q265.49-9.28 266.29-9.28L266.29-9.28ZM265.66-7.34L265.66-5.30L272.48-5.30L272.48-7.34L272.48-7.34Q272.48-7.60 272.30-7.78L272.30-7.78L272.30-7.78Q272.11-7.97 271.86-7.97L271.86-7.97L266.29-7.97L266.29-7.97Q266.03-7.97 265.85-7.78L265.85-7.78L265.85-7.78Q265.66-7.60 265.66-7.34L265.66-7.34ZM287.47-9.28L287.47-12.32L288.78-12.32L288.78 0L281.28 0L281.28 0Q280.46 0 279.90-0.57L279.90-0.57L279.90-0.57Q279.33-1.14 279.33-1.94L279.33-1.94L279.33-7.34L279.33-7.34Q279.33-8.14 279.90-8.71L279.90-8.71L279.90-8.71Q280.46-9.28 281.28-9.28L281.28-9.28L287.47-9.28ZM281.28-1.31L281.28-1.31L286.85-1.31L286.85-1.31Q287.10-1.31 287.29-1.50L287.29-1.50L287.29-1.50Q287.47-1.68 287.47-1.94L287.47-1.94L287.47-7.34L287.47-7.34Q287.47-7.60 287.29-7.78L287.29-7.78L287.29-7.78Q287.10-7.97 286.85-7.97L286.85-7.97L281.28-7.97L281.28-7.97Q281.02-7.97 280.84-7.78L280.84-7.78L280.84-7.78Q280.66-7.60 280.66-7.34L280.66-7.34L280.66-1.94L280.66-1.94Q280.66-1.68 280.84-1.50L280.84-1.50L280.84-1.50Q281.02-1.31 281.28-1.31ZM292.38-9.28L297.95-9.28L297.95-9.28Q298.77-9.28 299.34-8.71L299.34-8.71L299.34-8.71Q299.90-8.14 299.90-7.34L299.90-7.34L299.90-3.98L291.76-3.98L291.76-1.94L291.76-1.94Q291.76-1.68 291.94-1.50L291.94-1.50L291.94-1.50Q292.13-1.31 292.38-1.31L292.38-1.31L299.90-1.31L299.90 0L292.38 0L292.38 0Q291.58 0 291.02-0.57L291.02-0.57L291.02-0.57Q290.45-1.14 290.45-1.94L290.45-1.94L290.45-7.34L290.45-7.34Q290.45-8.14 291.02-8.71L291.02-8.71L291.02-8.71Q291.58-9.28 292.38-9.28L292.38-9.28ZM291.76-7.34L291.76-5.30L298.58-5.30L298.58-7.34L298.58-7.34Q298.58-7.60 298.39-7.78L298.39-7.78L298.39-7.78Q298.21-7.97 297.95-7.97L297.95-7.97L292.38-7.97L292.38-7.97Q292.13-7.97 291.94-7.78L291.94-7.78L291.94-7.78Q291.76-7.60 291.76-7.34L291.76-7.34ZM294.83-12.22L293.55-12.22L294.11-14.45L295.38-14.45L294.83-12.22ZM306.06-1.28L310.42-9.28L311.95-9.28L306.82 0L305.30 0L300.18-9.28L301.71-9.28L306.06-1.28ZM314.75-9.28L320.32-9.28L320.32-9.28Q321.14-9.28 321.70-8.71L321.70-8.71L321.70-8.71Q322.27-8.14 322.27-7.34L322.27-7.34L322.27-3.98L314.13-3.98L314.13-1.94L314.13-1.94Q314.13-1.68 314.31-1.50L314.31-1.50L314.31-1.50Q314.50-1.31 314.75-1.31L314.75-1.31L322.27-1.31L322.27 0L314.75 0L314.75 0Q313.95 0 313.38-0.57L313.38-0.57L313.38-0.57Q312.82-1.14 312.82-1.94L312.82-1.94L312.82-7.34L312.82-7.34Q312.82-8.14 313.38-8.71L313.38-8.71L313.38-8.71Q313.95-9.28 314.75-9.28L314.75-9.28ZM314.13-7.34L314.13-5.30L320.94-5.30L320.94-7.34L320.94-7.34Q320.94-7.60 320.76-7.78L320.76-7.78L320.76-7.78Q320.58-7.97 320.32-7.97L320.32-7.97L314.75-7.97L314.75-7.97Q314.50-7.97 314.31-7.78L314.31-7.78L314.31-7.78Q314.13-7.60 314.13-7.34L314.13-7.34ZM323.58-1.94L323.58-12.32L324.90-12.32L324.90-1.94L324.90-1.94Q324.90-1.68 325.08-1.50L325.08-1.50L325.08-1.50Q325.26-1.31 325.52-1.31L325.52-1.31L327.09-1.31L327.09 0L325.52 0L325.52 0Q324.72 0 324.15-0.57L324.15-0.57L324.15-0.57Q323.58-1.14 323.58-1.94L323.58-1.94ZM330.18-9.28L330.18-9.28L335.74-9.28L335.74-9.28Q336.56-9.28 337.13-8.71L337.13-8.71L337.13-8.71Q337.70-8.14 337.70-7.34L337.70-7.34L337.70-1.94L337.70-1.94Q337.70-1.14 337.13-0.57L337.13-0.57L337.13-0.57Q336.56 0 335.74 0L335.74 0L330.18 0L330.18 0Q329.38 0 328.81-0.57L328.81-0.57L328.81-0.57Q328.24-1.14 328.24-1.94L328.24-1.94L328.24-7.34L328.24-7.34Q328.24-8.14 328.81-8.71L328.81-8.71L328.81-8.71Q329.38-9.28 330.18-9.28ZM335.74-7.97L335.74-7.97L330.18-7.97L330.18-7.97Q329.92-7.97 329.74-7.78L329.74-7.78L329.74-7.78Q329.55-7.60 329.55-7.34L329.55-7.34L329.55-1.94L329.55-1.94Q329.55-1.68 329.74-1.50L329.74-1.50L329.74-1.50Q329.92-1.31 330.18-1.31L330.18-1.31L335.74-1.31L335.74-1.31Q336.00-1.31 336.18-1.50L336.18-1.50L336.18-1.50Q336.37-1.68 336.37-1.94L336.37-1.94L336.37-7.34L336.37-7.34Q336.37-7.60 336.18-7.78L336.18-7.78L336.18-7.78Q336.00-7.97 335.74-7.97ZM339.36-9.28L346.88-9.28L346.88-9.28Q347.68-9.28 348.25-8.71L348.25-8.71L348.25-8.71Q348.82-8.14 348.82-7.34L348.82-7.34L348.82-1.94L348.82-1.94Q348.82-1.14 348.25-0.57L348.25-0.57L348.25-0.57Q347.68 0 346.88 0L346.88 0L340.67 0L340.67 3.68L339.36 3.68L339.36-9.28ZM347.50-1.94L347.50-1.94L347.50-7.34L347.50-7.34Q347.50-7.60 347.32-7.78L347.32-7.78L347.32-7.78Q347.14-7.97 346.88-7.97L346.88-7.97L341.31-7.97L341.31-7.97Q341.06-7.97 340.86-7.78L340.86-7.78L340.86-7.78Q340.67-7.60 340.67-7.34L340.67-7.34L340.67-1.94L340.67-1.94Q340.67-1.68 340.86-1.50L340.86-1.50L340.86-1.50Q341.06-1.31 341.31-1.31L341.31-1.31L346.88-1.31L346.88-1.31Q347.14-1.31 347.32-1.50L347.32-1.50L347.32-1.50Q347.50-1.68 347.50-1.94ZM349.98-9.28L357.50-9.28L357.50-9.28Q358.30-9.28 358.87-8.71L358.87-8.71L358.87-8.71Q359.44-8.14 359.44-7.34L359.44-7.34L359.44-1.94L359.44-1.94Q359.44-1.14 358.87-0.57L358.87-0.57L358.87-0.57Q358.30 0 357.50 0L357.50 0L351.30 0L351.30 3.68L349.98 3.68L349.98-9.28ZM358.13-1.94L358.13-1.94L358.13-7.34L358.13-7.34Q358.13-7.60 357.94-7.78L357.94-7.78L357.94-7.78Q357.76-7.97 357.50-7.97L357.50-7.97L351.94-7.97L351.94-7.97Q351.68-7.97 351.49-7.78L351.49-7.78L351.49-7.78Q351.30-7.60 351.30-7.34L351.30-7.34L351.30-1.94L351.30-1.94Q351.30-1.68 351.49-1.50L351.49-1.50L351.49-1.50Q351.68-1.31 351.94-1.31L351.94-1.31L357.50-1.31L357.50-1.31Q357.76-1.31 357.94-1.50L357.94-1.50L357.94-1.50Q358.13-1.68 358.13-1.94ZM362.50-9.28L368.06-9.28L368.06-9.28Q368.88-9.28 369.45-8.71L369.45-8.71L369.45-8.71Q370.02-8.14 370.02-7.34L370.02-7.34L370.02-3.98L361.87-3.98L361.87-1.94L361.87-1.94Q361.87-1.68 362.06-1.50L362.06-1.50L362.06-1.50Q362.24-1.31 362.50-1.31L362.50-1.31L370.02-1.31L370.02 0L362.50 0L362.50 0Q361.70 0 361.13-0.57L361.13-0.57L361.13-0.57Q360.56-1.14 360.56-1.94L360.56-1.94L360.56-7.34L360.56-7.34Q360.56-8.14 361.13-8.71L361.13-8.71L361.13-8.71Q361.70-9.28 362.50-9.28L362.50-9.28ZM361.87-7.34L361.87-5.30L368.69-5.30L368.69-7.34L368.69-7.34Q368.69-7.60 368.50-7.78L368.50-7.78L368.50-7.78Q368.32-7.97 368.06-7.97L368.06-7.97L362.50-7.97L362.50-7.97Q362.24-7.97 362.06-7.78L362.06-7.78L362.06-7.78Q361.87-7.60 361.87-7.34L361.87-7.34ZM379.81-1.94L379.81-9.28L381.12-9.28L381.12-1.94L381.12-1.94Q381.12-1.14 380.55-0.57L380.55-0.57L380.55-0.57Q379.98 0 379.17 0L379.17 0L373.60 0L373.60 0Q372.80 0 372.23-0.57L372.23-0.57L372.23-0.57Q371.66-1.14 371.66-1.94L371.66-1.94L371.66-9.28L372.98-9.28L372.98-1.94L372.98-1.94Q372.98-1.68 373.16-1.50L373.16-1.50L373.16-1.50Q373.34-1.31 373.60-1.31L373.60-1.31L379.17-1.31L379.17-1.31Q379.42-1.31 379.62-1.50L379.62-1.50L379.62-1.50Q379.81-1.68 379.81-1.94L379.81-1.94ZM384.70-9.28L384.70-9.28L389.92-9.28L389.92-7.97L384.70-7.97L384.70-7.97Q384.45-7.97 384.26-7.78L384.26-7.78L384.26-7.78Q384.08-7.60 384.08-7.34L384.08-7.34L384.08 0L382.77 0L382.77-7.34L382.77-7.34Q382.77-8.14 383.34-8.71L383.34-8.71L383.34-8.71Q383.90-9.28 384.70-9.28ZM400.66-11.01L397.26-11.01L397.26-11.01Q397.01-11.01 396.82-10.82L396.82-10.82L396.82-10.82Q396.64-10.64 396.64-10.38L396.64-10.38L396.64-9.28L400.66-9.28L400.66-7.97L396.64-7.97L396.64 0L395.33 0L395.33-10.38L395.33-10.38Q395.33-11.20 395.89-11.76L395.89-11.76L395.89-11.76Q396.45-12.32 397.26-12.32L397.26-12.32L400.66-12.32L400.66-11.01ZM410.14-1.94L410.14-9.28L411.46-9.28L411.46-1.94L411.46-1.94Q411.46-1.14 410.89-0.57L410.89-0.57L410.89-0.57Q410.32 0 409.50 0L409.50 0L403.94 0L403.94 0Q403.14 0 402.57-0.57L402.57-0.57L402.57-0.57Q402.00-1.14 402.00-1.94L402.00-1.94L402.00-9.28L403.31-9.28L403.31-1.94L403.31-1.94Q403.31-1.68 403.50-1.50L403.50-1.50L403.50-1.50Q403.68-1.31 403.94-1.31L403.94-1.31L409.50-1.31L409.50-1.31Q409.76-1.31 409.95-1.50L409.95-1.50L409.95-1.50Q410.14-1.68 410.14-1.94L410.14-1.94ZM413.10-1.94L413.10-12.32L414.42-12.32L414.42-1.94L414.42-1.94Q414.42-1.68 414.60-1.50L414.60-1.50L414.60-1.50Q414.78-1.31 415.04-1.31L415.04-1.31L416.61-1.31L416.61 0L415.04 0L415.04 0Q414.24 0 413.67-0.57L413.67-0.57L413.67-0.57Q413.10-1.14 413.10-1.94L413.10-1.94ZM417.94-1.94L417.94-12.32L419.25-12.32L419.25-1.94L419.25-1.94Q419.25-1.68 419.43-1.50L419.43-1.50L419.43-1.50Q419.62-1.31 419.87-1.31L419.87-1.31L421.44-1.31L421.44 0L419.87 0L419.87 0Q419.07 0 418.50-0.57L418.50-0.57L418.50-0.57Q417.94-1.14 417.94-1.94L417.94-1.94ZM432.16-7.34L432.16-7.34L432.16-7.22L430.83-7.22L430.83-7.34L430.83-7.34Q430.83-7.60 430.65-7.78L430.65-7.78L430.65-7.78Q430.46-7.97 430.21-7.97L430.21-7.97L424.64-7.97L424.64-7.97Q424.38-7.97 424.20-7.78L424.20-7.78L424.20-7.78Q424.02-7.60 424.02-7.34L424.02-7.34L424.02-5.92L424.02-5.92Q424.02-5.66 424.20-5.48L424.20-5.48L424.20-5.48Q424.38-5.30 424.64-5.30L424.64-5.30L430.21-5.30L430.21-5.30Q431.02-5.30 431.59-4.73L431.59-4.73L431.59-4.73Q432.16-4.16 432.16-3.36L432.16-3.36L432.16-1.94L432.16-1.94Q432.16-1.14 431.59-0.57L431.59-0.57L431.59-0.57Q431.02 0 430.21 0L430.21 0L424.64 0L424.64 0Q423.84 0 423.27-0.57L423.27-0.57L423.27-0.57Q422.70-1.14 422.70-1.94L422.70-1.94L422.70-2.06L424.02-2.06L424.02-1.94L424.02-1.94Q424.02-1.68 424.20-1.50L424.20-1.50L424.20-1.50Q424.38-1.31 424.64-1.31L424.64-1.31L430.21-1.31L430.21-1.31Q430.46-1.31 430.65-1.50L430.65-1.50L430.65-1.50Q430.83-1.68 430.83-1.94L430.83-1.94L430.83-3.36L430.83-3.36Q430.83-3.62 430.65-3.80L430.65-3.80L430.65-3.80Q430.46-3.98 430.21-3.98L430.21-3.98L424.64-3.98L424.64-3.98Q423.84-3.98 423.27-4.55L423.27-4.55L423.27-4.55Q422.70-5.12 422.70-5.92L422.70-5.92L422.70-7.34L422.70-7.34Q422.70-8.14 423.27-8.71L423.27-8.71L423.27-8.71Q423.84-9.28 424.64-9.28L424.64-9.28L430.21-9.28L430.21-9.28Q431.02-9.28 431.59-8.71L431.59-8.71L431.59-8.71Q432.16-8.14 432.16-7.34ZM439.09-9.28L439.09-7.97L435.07-7.97L435.07-1.94L435.07-1.94Q435.07-1.68 435.26-1.50L435.26-1.50L435.26-1.50Q435.44-1.31 435.70-1.31L435.70-1.31L439.09-1.31L439.09 0L435.70 0L435.70 0Q434.88 0 434.32-0.57L434.32-0.57L434.32-0.57Q433.76-1.14 433.76-1.94L433.76-1.94L433.76-12.32L435.07-12.32L435.07-9.28L439.09-9.28ZM440.30-9.28L447.81-9.28L447.81-9.28Q448.62-9.28 449.19-8.71L449.19-8.71L449.19-8.71Q449.76-8.14 449.76-7.34L449.76-7.34L449.76 0L442.24 0L442.24 0Q441.44 0 440.87-0.57L440.87-0.57L440.87-0.57Q440.30-1.14 440.30-1.94L440.30-1.94L440.30-5.30L448.43-5.30L448.43-7.34L448.43-7.34Q448.43-7.60 448.25-7.78L448.25-7.78L448.25-7.78Q448.06-7.97 447.81-7.97L447.81-7.97L440.30-7.97L440.30-9.28ZM442.24-1.31L448.43-1.31L448.43-3.98L441.62-3.98L441.62-1.94L441.62-1.94Q441.62-1.68 441.80-1.50L441.80-1.50L441.80-1.50Q441.98-1.31 442.24-1.31L442.24-1.31ZM453.17-1.31L453.17-1.31L460.69-1.31L460.69 0L453.17 0L453.17 0Q452.37 0 451.80-0.57L451.80-0.57L451.80-0.57Q451.23-1.14 451.23-1.94L451.23-1.94L451.23-7.34L451.23-7.34Q451.23-8.14 451.80-8.71L451.80-8.71L451.80-8.71Q452.37-9.28 453.17-9.28L453.17-9.28L460.66-9.28L460.66-7.97L453.17-7.97L453.17-7.97Q452.91-7.97 452.73-7.78L452.73-7.78L452.73-7.78Q452.54-7.60 452.54-7.34L452.54-7.34L452.54-1.94L452.54-1.94Q452.54-1.68 452.73-1.50L452.73-1.50L452.73-1.50Q452.91-1.31 453.17-1.31ZM465.95-5.30L469.60-9.28L471.33-9.28L467.12-4.64L471.31 0L469.60 0L465.95-3.98L463.39-3.98L463.39 0L462.08 0L462.08-12.32L463.39-12.32L463.39-5.30L465.95-5.30ZM484.42-9.28L484.42-12.32L485.73-12.32L485.73 0L478.22 0L478.22 0Q477.41 0 476.84-0.57L476.84-0.57L476.84-0.57Q476.27-1.14 476.27-1.94L476.27-1.94L476.27-7.34L476.27-7.34Q476.27-8.14 476.84-8.71L476.84-8.71L476.84-8.71Q477.41-9.28 478.22-9.28L478.22-9.28L484.42-9.28ZM478.22-1.31L478.22-1.31L483.79-1.31L483.79-1.31Q484.05-1.31 484.23-1.50L484.23-1.50L484.23-1.50Q484.42-1.68 484.42-1.94L484.42-1.94L484.42-7.34L484.42-7.34Q484.42-7.60 484.23-7.78L484.23-7.78L484.23-7.78Q484.05-7.97 483.79-7.97L483.79-7.97L478.22-7.97L478.22-7.97Q477.97-7.97 477.78-7.78L477.78-7.78L477.78-7.78Q477.60-7.60 477.60-7.34L477.60-7.34L477.60-1.94L477.60-1.94Q477.60-1.68 477.78-1.50L477.78-1.50L477.78-1.50Q477.97-1.31 478.22-1.31ZM489.01-9.28L494.58-9.28L494.58-9.28Q495.39-9.28 495.96-8.71L495.96-8.71L495.96-8.71Q496.53-8.14 496.53-7.34L496.53-7.34L496.53-3.98L488.38-3.98L488.38-1.94L488.38-1.94Q488.38-1.68 488.57-1.50L488.57-1.50L488.57-1.50Q488.75-1.31 489.01-1.31L489.01-1.31L496.53-1.31L496.53 0L489.01 0L489.01 0Q488.21 0 487.64-0.57L487.64-0.57L487.64-0.57Q487.07-1.14 487.07-1.94L487.07-1.94L487.07-7.34L487.07-7.34Q487.07-8.14 487.64-8.71L487.64-8.71L487.64-8.71Q488.21-9.28 489.01-9.28L489.01-9.28ZM488.38-7.34L488.38-5.30L495.20-5.30L495.20-7.34L495.20-7.34Q495.20-7.60 495.02-7.78L495.02-7.78L495.02-7.78Q494.83-7.97 494.58-7.97L494.58-7.97L489.01-7.97L489.01-7.97Q488.75-7.97 488.57-7.78L488.57-7.78L488.57-7.78Q488.38-7.60 488.38-7.34L488.38-7.34ZM502.54-9.28L514.80-9.28L514.80-9.28Q515.62-9.28 516.18-8.71L516.18-8.71L516.18-8.71Q516.74-8.14 516.74-7.34L516.74-7.34L516.74 0L515.44 0L515.44-7.34L515.44-7.34Q515.44-7.60 515.25-7.78L515.25-7.78L515.25-7.78Q515.06-7.97 514.80-7.97L514.80-7.97L510.94-7.97L510.94-7.97Q510.69-7.97 510.50-7.78L510.50-7.78L510.50-7.78Q510.32-7.60 510.32-7.34L510.32-7.34L510.32 0L508.99 0L508.99-7.34L508.99-7.34Q508.99-7.60 508.81-7.78L508.81-7.78L508.81-7.78Q508.62-7.97 508.37-7.97L508.37-7.97L504.50-7.97L504.50-7.97Q504.24-7.97 504.06-7.78L504.06-7.78L504.06-7.78Q503.87-7.60 503.87-7.34L503.87-7.34L503.87 0L502.54 0L502.54-9.28ZM518.16-9.28L525.66-9.28L525.66-9.28Q526.48-9.28 527.05-8.71L527.05-8.71L527.05-8.71Q527.62-8.14 527.62-7.34L527.62-7.34L527.62 0L520.10 0L520.10 0Q519.30 0 518.73-0.57L518.73-0.57L518.73-0.57Q518.16-1.14 518.16-1.94L518.16-1.94L518.16-5.30L526.29-5.30L526.29-7.34L526.29-7.34Q526.29-7.60 526.10-7.78L526.10-7.78L526.10-7.78Q525.92-7.97 525.66-7.97L525.66-7.97L518.16-7.97L518.16-9.28ZM520.10-1.31L526.29-1.31L526.29-3.98L519.47-3.98L519.47-1.94L519.47-1.94Q519.47-1.68 519.66-1.50L519.66-1.50L519.66-1.50Q519.84-1.31 520.10-1.31L520.10-1.31ZM529.06-9.28L536.58-9.28L536.58-9.28Q537.38-9.28 537.94-8.71L537.94-8.71L537.94-8.71Q538.51-8.14 538.51-7.34L538.51-7.34L538.51 0L537.20 0L537.20-7.34L537.20-7.34Q537.20-7.60 537.02-7.78L537.02-7.78L537.02-7.78Q536.83-7.97 536.58-7.97L536.58-7.97L531.01-7.97L531.01-7.97Q530.75-7.97 530.56-7.78L530.56-7.78L530.56-7.78Q530.37-7.60 530.37-7.34L530.37-7.34L530.37 0L529.06 0L529.06-9.28ZM541.47 0L540.16 0L540.16-9.28L541.47-9.28L541.47 0ZM540.16-11.01L540.16-12.32L541.47-12.32L541.47-11.01L540.16-11.01ZM545.41-9.28L550.98-9.28L550.98-9.28Q551.79-9.28 552.36-8.71L552.36-8.71L552.36-8.71Q552.93-8.14 552.93-7.34L552.93-7.34L552.93-3.98L544.78-3.98L544.78-1.94L544.78-1.94Q544.78-1.68 544.97-1.50L544.97-1.50L544.97-1.50Q545.15-1.31 545.41-1.31L545.41-1.31L552.93-1.31L552.93 0L545.41 0L545.41 0Q544.61 0 544.04-0.57L544.04-0.57L544.04-0.57Q543.47-1.14 543.47-1.94L543.47-1.94L543.47-7.34L543.47-7.34Q543.47-8.14 544.04-8.71L544.04-8.71L544.04-8.71Q544.61-9.28 545.41-9.28L545.41-9.28ZM544.78-7.34L544.78-5.30L551.60-5.30L551.60-7.34L551.60-7.34Q551.60-7.60 551.42-7.78L551.42-7.78L551.42-7.78Q551.23-7.97 550.98-7.97L550.98-7.97L545.41-7.97L545.41-7.97Q545.15-7.97 544.97-7.78L544.97-7.78L544.97-7.78Q544.78-7.60 544.78-7.34L544.78-7.34ZM546.58-14.43L547.87-14.43L548.42-12.21L547.14-12.21L546.58-14.43ZM555.63-9.28L555.63-9.28L560.85-9.28L560.85-7.97L555.63-7.97L555.63-7.97Q555.38-7.97 555.19-7.78L555.19-7.78L555.19-7.78Q555.01-7.60 555.01-7.34L555.01-7.34L555.01 0L553.70 0L553.70-7.34L553.70-7.34Q553.70-8.14 554.26-8.71L554.26-8.71L554.26-8.71Q554.83-9.28 555.63-9.28ZM563.81-9.28L569.38-9.28L569.38-9.28Q570.19-9.28 570.76-8.71L570.76-8.71L570.76-8.71Q571.33-8.14 571.33-7.34L571.33-7.34L571.33-3.98L563.18-3.98L563.18-1.94L563.18-1.94Q563.18-1.68 563.37-1.50L563.37-1.50L563.37-1.50Q563.55-1.31 563.81-1.31L563.81-1.31L571.33-1.31L571.33 0L563.81 0L563.81 0Q563.01 0 562.44-0.57L562.44-0.57L562.44-0.57Q561.87-1.14 561.87-1.94L561.87-1.94L561.87-7.34L561.87-7.34Q561.87-8.14 562.44-8.71L562.44-8.71L562.44-8.71Q563.01-9.28 563.81-9.28L563.81-9.28ZM563.18-7.34L563.18-5.30L570-5.30L570-7.34L570-7.34Q570-7.60 569.82-7.78L569.82-7.78L569.82-7.78Q569.63-7.97 569.38-7.97L569.38-7.97L563.81-7.97L563.81-7.97Q563.55-7.97 563.37-7.78L563.37-7.78L563.37-7.78Q563.18-7.60 563.18-7.34L563.18-7.34ZM578.62 0L577.31 0L577.31-9.28L578.62-9.28L578.62 0ZM577.31-11.01L577.31-12.32L578.62-12.32L578.62-11.01L577.31-11.01ZM580.43-9.28L587.95-9.28L587.95-9.28Q588.75-9.28 589.32-8.71L589.32-8.71L589.32-8.71Q589.89-8.14 589.89-7.34L589.89-7.34L589.89 0L588.58 0L588.58-7.34L588.58-7.34Q588.58-7.60 588.39-7.78L588.39-7.78L588.39-7.78Q588.21-7.97 587.95-7.97L587.95-7.97L582.38-7.97L582.38-7.97Q582.13-7.97 581.94-7.78L581.94-7.78L581.94-7.78Q581.74-7.60 581.74-7.34L581.74-7.34L581.74 0L580.43 0L580.43-9.28ZM596.88-9.28L596.88-7.97L592.86-7.97L592.86-1.94L592.86-1.94Q592.86-1.68 593.05-1.50L593.05-1.50L593.05-1.50Q593.23-1.31 593.49-1.31L593.49-1.31L596.88-1.31L596.88 0L593.49 0L593.49 0Q592.67 0 592.11-0.57L592.11-0.57L592.11-0.57Q591.55-1.14 591.55-1.94L591.55-1.94L591.55-12.32L592.86-12.32L592.86-9.28L596.88-9.28ZM600.02-9.28L605.58-9.28L605.58-9.28Q606.40-9.28 606.97-8.71L606.97-8.71L606.97-8.71Q607.54-8.14 607.54-7.34L607.54-7.34L607.54-3.98L599.39-3.98L599.39-1.94L599.39-1.94Q599.39-1.68 599.58-1.50L599.58-1.50L599.58-1.50Q599.76-1.31 600.02-1.31L600.02-1.31L607.54-1.31L607.54 0L600.02 0L600.02 0Q599.22 0 598.65-0.57L598.65-0.57L598.65-0.57Q598.08-1.14 598.08-1.94L598.08-1.94L598.08-7.34L598.08-7.34Q598.08-8.14 598.65-8.71L598.65-8.71L598.65-8.71Q599.22-9.28 600.02-9.28L600.02-9.28ZM599.39-7.34L599.39-5.30L606.21-5.30L606.21-7.34L606.21-7.34Q606.21-7.60 606.02-7.78L606.02-7.78L606.02-7.78Q605.84-7.97 605.58-7.97L605.58-7.97L600.02-7.97L600.02-7.97Q599.76-7.97 599.58-7.78L599.58-7.78L599.58-7.78Q599.39-7.60 599.39-7.34L599.39-7.34ZM611.02-9.28L611.02-9.28L616.24-9.28L616.24-7.97L611.02-7.97L611.02-7.97Q610.77-7.97 610.58-7.78L610.58-7.78L610.58-7.78Q610.40-7.60 610.40-7.34L610.40-7.34L610.40 0L609.09 0L609.09-7.34L609.09-7.34Q609.09-8.14 609.66-8.71L609.66-8.71L609.66-8.71Q610.22-9.28 611.02-9.28ZM617.28-9.28L624.78-9.28L624.78-9.28Q625.60-9.28 626.17-8.71L626.17-8.71L626.17-8.71Q626.74-8.14 626.74-7.34L626.74-7.34L626.74 0L619.22 0L619.22 0Q618.42 0 617.85-0.57L617.85-0.57L617.85-0.57Q617.28-1.14 617.28-1.94L617.28-1.94L617.28-5.30L625.41-5.30L625.41-7.34L625.41-7.34Q625.41-7.60 625.22-7.78L625.22-7.78L625.22-7.78Q625.04-7.97 624.78-7.97L624.78-7.97L617.28-7.97L617.28-9.28ZM619.22-1.31L625.41-1.31L625.41-3.98L618.59-3.98L618.59-1.94L618.59-1.94Q618.59-1.68 618.78-1.50L618.78-1.50L618.78-1.50Q618.96-1.31 619.22-1.31L619.22-1.31ZM630.14-1.31L630.14-1.31L637.66-1.31L637.66 0L630.14 0L630.14 0Q629.34 0 628.78-0.57L628.78-0.57L628.78-0.57Q628.21-1.14 628.21-1.94L628.21-1.94L628.21-7.34L628.21-7.34Q628.21-8.14 628.78-8.71L628.78-8.71L628.78-8.71Q629.34-9.28 630.14-9.28L630.14-9.28L637.63-9.28L637.63-7.97L630.14-7.97L630.14-7.97Q629.89-7.97 629.70-7.78L629.70-7.78L629.70-7.78Q629.52-7.60 629.52-7.34L629.52-7.34L629.52-1.94L629.52-1.94Q629.52-1.68 629.70-1.50L629.70-1.50L629.70-1.50Q629.89-1.31 630.14-1.31ZM644.29-9.28L644.29-7.97L640.27-7.97L640.27-1.94L640.27-1.94Q640.27-1.68 640.46-1.50L640.46-1.50L640.46-1.50Q640.64-1.31 640.90-1.31L640.90-1.31L644.29-1.31L644.29 0L640.90 0L640.90 0Q640.08 0 639.52-0.57L639.52-0.57L639.52-0.57Q638.96-1.14 638.96-1.94L638.96-1.94L638.96-12.32L640.27-12.32L640.27-9.28L644.29-9.28ZM646.90 0L645.58 0L645.58-9.28L646.90-9.28L646.90 0ZM645.58-11.01L645.58-12.32L646.90-12.32L646.90-11.01L645.58-11.01ZM654.22-1.28L658.58-9.28L660.11-9.28L654.98 0L653.46 0L648.34-9.28L649.87-9.28L654.22-1.28ZM662.91-9.28L668.48-9.28L668.48-9.28Q669.30-9.28 669.86-8.71L669.86-8.71L669.86-8.71Q670.43-8.14 670.43-7.34L670.43-7.34L670.43-3.98L662.29-3.98L662.29-1.94L662.29-1.94Q662.29-1.68 662.47-1.50L662.47-1.50L662.47-1.50Q662.66-1.31 662.91-1.31L662.91-1.31L670.43-1.31L670.43 0L662.91 0L662.91 0Q662.11 0 661.54-0.57L661.54-0.57L661.54-0.57Q660.98-1.14 660.98-1.94L660.98-1.94L660.98-7.34L660.98-7.34Q660.98-8.14 661.54-8.71L661.54-8.71L661.54-8.71Q662.11-9.28 662.91-9.28L662.91-9.28ZM662.29-7.34L662.29-5.30L669.10-5.30L669.10-7.34L669.10-7.34Q669.10-7.60 668.92-7.78L668.92-7.78L668.92-7.78Q668.74-7.97 668.48-7.97L668.48-7.97L662.91-7.97L662.91-7.97Q662.66-7.97 662.47-7.78L662.47-7.78L662.47-7.78Q662.29-7.60 662.29-7.34L662.29-7.34ZM678.34-9.28L683.90-9.28L683.90-9.28Q684.72-9.28 685.29-8.71L685.29-8.71L685.29-8.71Q685.86-8.14 685.86-7.34L685.86-7.34L685.86-3.98L677.71-3.98L677.71-1.94L677.71-1.94Q677.71-1.68 677.90-1.50L677.90-1.50L677.90-1.50Q678.08-1.31 678.34-1.31L678.34-1.31L685.86-1.31L685.86 0L678.34 0L678.34 0Q677.54 0 676.97-0.57L676.97-0.57L676.97-0.57Q676.40-1.14 676.40-1.94L676.40-1.94L676.40-7.34L676.40-7.34Q676.40-8.14 676.97-8.71L676.97-8.71L676.97-8.71Q677.54-9.28 678.34-9.28L678.34-9.28ZM677.71-7.34L677.71-5.30L684.53-5.30L684.53-7.34L684.53-7.34Q684.53-7.60 684.34-7.78L684.34-7.78L684.34-7.78Q684.16-7.97 683.90-7.97L683.90-7.97L678.34-7.97L678.34-7.97Q678.08-7.97 677.90-7.78L677.90-7.78L677.90-7.78Q677.71-7.60 677.71-7.34L677.71-7.34ZM692.83-9.28L692.83-7.97L688.82-7.97L688.82-1.94L688.82-1.94Q688.82-1.68 689.00-1.50L689.00-1.50L689.00-1.50Q689.18-1.31 689.44-1.31L689.44-1.31L692.83-1.31L692.83 0L689.44 0L689.44 0Q688.62 0 688.06-0.57L688.06-0.57L688.06-0.57Q687.50-1.14 687.50-1.94L687.50-1.94L687.50-12.32L688.82-12.32L688.82-9.28L692.83-9.28ZM698.40-1.94L698.40-12.32L699.71-12.32L699.71-1.94L699.71-1.94Q699.71-1.68 699.90-1.50L699.90-1.50L699.90-1.50Q700.08-1.31 700.34-1.31L700.34-1.31L701.90-1.31L701.90 0L700.34 0L700.34 0Q699.54 0 698.97-0.57L698.97-0.57L698.97-0.57Q698.40-1.14 698.40-1.94L698.40-1.94ZM711.39-1.94L711.39-9.28L712.70-9.28L712.70-1.94L712.70-1.94Q712.70-1.14 712.14-0.57L712.14-0.57L712.14-0.57Q711.57 0 710.75 0L710.75 0L705.18 0L705.18 0Q704.38 0 703.82-0.57L703.82-0.57L703.82-0.57Q703.25-1.14 703.25-1.94L703.25-1.94L703.25-9.28L704.56-9.28L704.56-1.94L704.56-1.94Q704.56-1.68 704.74-1.50L704.74-1.50L704.74-1.50Q704.93-1.31 705.18-1.31L705.18-1.31L710.75-1.31L710.75-1.31Q711.01-1.31 711.20-1.50L711.20-1.50L711.20-1.50Q711.39-1.68 711.39-1.94L711.39-1.94ZM722.19-9.28L722.19-12.32L723.50-12.32L723.50 0L716.00 0L716.00 0Q715.18 0 714.62-0.57L714.62-0.57L714.62-0.57Q714.05-1.14 714.05-1.94L714.05-1.94L714.05-7.34L714.05-7.34Q714.05-8.14 714.62-8.71L714.62-8.71L714.62-8.71Q715.18-9.28 716.00-9.28L716.00-9.28L722.19-9.28ZM716.00-1.31L716.00-1.31L721.57-1.31L721.57-1.31Q721.82-1.31 722.01-1.50L722.01-1.50L722.01-1.50Q722.19-1.68 722.19-1.94L722.19-1.94L722.19-7.34L722.19-7.34Q722.19-7.60 722.01-7.78L722.01-7.78L722.01-7.78Q721.82-7.97 721.57-7.97L721.57-7.97L716.00-7.97L716.00-7.97Q715.74-7.97 715.56-7.78L715.56-7.78L715.56-7.78Q715.38-7.60 715.38-7.34L715.38-7.34L715.38-1.94L715.38-1.94Q715.38-1.68 715.56-1.50L715.56-1.50L715.56-1.50Q715.74-1.31 716.00-1.31ZM726.50 0L725.18 0L725.18-9.28L726.50-9.28L726.50 0ZM725.18-11.01L725.18-12.32L726.50-12.32L726.50-11.01L725.18-11.01ZM727.76-1.94L727.76-7.34L727.76-7.34Q727.76-8.14 728.33-8.71L728.33-8.71L728.33-8.71Q728.90-9.28 729.71-9.28L729.71-9.28L737.22-9.28L737.22 3.68L735.90 3.68L735.90 0L729.71 0L729.71 0Q728.90 0 728.33-0.57L728.33-0.57L728.33-0.57Q727.76-1.14 727.76-1.94L727.76-1.94ZM729.09-7.34L729.09-7.34L729.09-1.94L729.09-1.94Q729.09-1.68 729.27-1.50L729.27-1.50L729.27-1.50Q729.46-1.31 729.71-1.31L729.71-1.31L735.28-1.31L735.28-1.31Q735.54-1.31 735.72-1.50L735.72-1.50L735.72-1.50Q735.90-1.68 735.90-1.94L735.90-1.94L735.90-7.34L735.90-7.34Q735.90-7.60 735.72-7.78L735.72-7.78L735.72-7.78Q735.54-7.97 735.28-7.97L735.28-7.97L729.71-7.97L729.71-7.97Q729.46-7.97 729.27-7.78L729.27-7.78L729.27-7.78Q729.09-7.60 729.09-7.34ZM746.66-1.94L746.66-9.28L747.97-9.28L747.97-1.94L747.97-1.94Q747.97-1.14 747.40-0.57L747.40-0.57L747.40-0.57Q746.83 0 746.02 0L746.02 0L740.45 0L740.45 0Q739.65 0 739.08-0.57L739.08-0.57L739.08-0.57Q738.51-1.14 738.51-1.94L738.51-1.94L738.51-9.28L739.82-9.28L739.82-1.94L739.82-1.94Q739.82-1.68 740.01-1.50L740.01-1.50L740.01-1.50Q740.19-1.31 740.45-1.31L740.45-1.31L746.02-1.31L746.02-1.31Q746.27-1.31 746.46-1.50L746.46-1.50L746.46-1.50Q746.66-1.68 746.66-1.94L746.66-1.94ZM751.30-9.28L756.86-9.28L756.86-9.28Q757.68-9.28 758.25-8.71L758.25-8.71L758.25-8.71Q758.82-8.14 758.82-7.34L758.82-7.34L758.82-3.98L750.67-3.98L750.67-1.94L750.67-1.94Q750.67-1.68 750.86-1.50L750.86-1.50L750.86-1.50Q751.04-1.31 751.30-1.31L751.30-1.31L758.82-1.31L758.82 0L751.30 0L751.30 0Q750.50 0 749.93-0.57L749.93-0.57L749.93-0.57Q749.36-1.14 749.36-1.94L749.36-1.94L749.36-7.34L749.36-7.34Q749.36-8.14 749.93-8.71L749.93-8.71L749.93-8.71Q750.50-9.28 751.30-9.28L751.30-9.28ZM750.67-7.34L750.67-5.30L757.49-5.30L757.49-7.34L757.49-7.34Q757.49-7.60 757.30-7.78L757.30-7.78L757.30-7.78Q757.12-7.97 756.86-7.97L756.86-7.97L751.30-7.97L751.30-7.97Q751.04-7.97 750.86-7.78L750.86-7.78L750.86-7.78Q750.67-7.60 750.67-7.34L750.67-7.34Z" fill="#5ace5a"></path></g></g><style>text {
  font-size: 64px;
  font-family: Arial Black;
  dominant-baseline: central;
  text-anchor: middle;
}</style></svg>