<svg width="110.208154296875px" height="47.599999999999994px" xmlns="http://www.w3.org/2000/svg" viewBox="194.8959228515625 51.2 110.208154296875 47.599999999999994" style="background: rgba(0, 0, 0, 0);" preserveAspectRatio="xMidYMid"><defs><filter id="editing-extrusion" x="-100%" y="-100%" width="300%" height="300%"><feFlood result="color1" flood-color="#e86400"></feFlood><feConvolveMatrix order="1,1" divisor="1" kernelMatrix="1" in="SourceAlpha" result="extrude"></feConvolveMatrix><feComposite in="color1" in2="extrude" result="comp-extrude" operator="in"></feComposite><feOffset dx="0.5" dy="0.5" in="comp-extrude" result="offset-extrude"></feOffset><feMerge><feMergeNode in="offset-extrude"></feMergeNode><feMergeNode in="SourceGraphic"></feMergeNode></feMerge></filter></defs><g filter="url(#editing-extrusion)"><g transform="translate(217.16673427820206, 83.05117988586426)"><path d="M2.67-11.52L7.46-5.82L12.24-11.52L14.02-11.52L14.02 0L12.72 0L12.72-10.05L7.46-3.79L2.19-10.05L2.19 0L0.90 0L0.90-11.52L2.67-11.52ZM24.96-9.25L24.96 1.73L24.96 1.73Q24.96 2.54 24.40 3.11L24.40 3.11L24.40 3.11Q23.84 3.68 23.02 3.68L23.02 3.68L17.23 3.68L17.23 2.35L23.02 2.35L23.02 2.35Q23.28 2.35 23.46 2.17L23.46 2.17L23.46 2.17Q23.65 1.98 23.65 1.73L23.65 1.73L23.65 0L17.46 0L17.46 0Q16.66 0 16.09-0.57L16.09-0.57L16.09-0.57Q15.52-1.14 15.52-1.94L15.52-1.94L15.52-9.25L16.83-9.25L16.83-1.94L16.83-1.94Q16.83-1.68 17.02-1.50L17.02-1.50L17.02-1.50Q17.20-1.31 17.46-1.31L17.46-1.31L23.02-1.31L23.02-1.31Q23.28-1.31 23.46-1.50L23.46-1.50L23.46-1.50Q23.65-1.68 23.65-1.94L23.65-1.94L23.65-9.25L24.96-9.25ZM38.14-9.60L38.14-9.60L38.14-9.15L36.85-9.15L36.85-9.60L36.85-9.60Q36.85-9.86 36.66-10.04L36.66-10.04L36.66-10.04Q36.48-10.22 36.22-10.22L36.22-10.22L28.54-10.22L28.54-10.22Q28.29-10.22 28.10-10.04L28.10-10.04L28.10-10.04Q27.92-9.86 27.92-9.60L27.92-9.60L27.92-7.02L27.92-7.02Q27.92-6.77 28.10-6.59L28.10-6.59L28.10-6.59Q28.29-6.42 28.54-6.42L28.54-6.42L36.22-6.42L36.22-6.42Q37.02-6.42 37.58-5.86L37.58-5.86L37.58-5.86Q38.14-5.30 38.14-4.50L38.14-4.50L38.14-1.92L38.14-1.92Q38.14-1.12 37.58-0.56L37.58-0.56L37.58-0.56Q37.02 0 36.22 0L36.22 0L28.54 0L28.54 0Q27.74 0 27.18-0.56L27.18-0.56L27.18-0.56Q26.62-1.12 26.62-1.92L26.62-1.92L26.62-2.37L27.92-2.37L27.92-1.92L27.92-1.92Q27.92-1.66 28.10-1.48L28.10-1.48L28.10-1.48Q28.29-1.30 28.54-1.30L28.54-1.30L36.22-1.30L36.22-1.30Q36.48-1.30 36.66-1.48L36.66-1.48L36.66-1.48Q36.85-1.66 36.85-1.92L36.85-1.92L36.85-4.50L36.85-4.50Q36.85-4.75 36.66-4.93L36.66-4.93L36.66-4.93Q36.48-5.10 36.22-5.10L36.22-5.10L28.54-5.10L28.54-5.10Q27.74-5.10 27.18-5.66L27.18-5.66L27.18-5.66Q26.62-6.22 26.62-7.02L26.62-7.02L26.62-9.60L26.62-9.60Q26.62-10.40 27.18-10.96L27.18-10.96L27.18-10.96Q27.74-11.52 28.54-11.52L28.54-11.52L36.22-11.52L36.22-11.52Q37.02-11.52 37.58-10.96L37.58-10.96L37.58-10.96Q38.14-10.40 38.14-9.60ZM51.28-1.30L51.28-1.30L52.85-1.30L52.85 0L41.74 0L41.74 0Q40.94 0 40.38-0.56L40.38-0.56L40.38-0.56Q39.82-1.12 39.82-1.92L39.82-1.92L39.82-9.60L39.82-9.60Q39.82-10.40 40.38-10.96L40.38-10.96L40.38-10.96Q40.94-11.52 41.74-11.52L41.74-11.52L49.42-11.52L49.42-11.52Q50.22-11.52 50.78-10.96L50.78-10.96L50.78-10.96Q51.34-10.40 51.34-9.60L51.34-9.60L51.34-1.92L51.34-1.92Q51.34-1.78 51.28-1.30ZM41.74-1.30L41.74-1.30L49.42-1.30L49.42-1.30Q49.68-1.30 49.86-1.48L49.86-1.48L49.86-1.48Q50.05-1.66 50.05-1.92L50.05-1.92L50.05-9.60L50.05-9.60Q50.05-9.86 49.86-10.04L49.86-10.04L49.86-10.04Q49.68-10.22 49.42-10.22L49.42-10.22L41.74-10.22L41.74-10.22Q41.49-10.22 41.30-10.04L41.30-10.04L41.30-10.04Q41.12-9.86 41.12-9.60L41.12-9.60L41.12-1.92L41.12-1.92Q41.12-1.66 41.30-1.48L41.30-1.48L41.30-1.48Q41.49-1.30 41.74-1.30ZM65.54 0L54.02 0L54.02-11.54L55.31-11.54L55.31-1.30L65.54-1.30L65.54 0Z" fill="#e86400"></path></g></g><style>text {
  font-size: 64px;
  font-family: Arial Black;
  dominant-baseline: central;
  text-anchor: middle;
}</style></svg>