<svg width="114.2000732421875px" height="46.4px" xmlns="http://www.w3.org/2000/svg" viewBox="192.89996337890625 51.8 114.2000732421875 46.4" style="background: none;" preserveAspectRatio="xMidYMid"><defs><filter id="editing-extrusion" x="-100%" y="-100%" width="300%" height="300%"><feFlood result="color1" flood-color="#000000"></feFlood><feConvolveMatrix order="1,1" divisor="1" kernelMatrix="1" in="SourceAlpha" result="extrude"></feConvolveMatrix><feComposite in="color1" in2="extrude" result="comp-extrude" operator="in"></feComposite><feOffset dx="0.5" dy="0.5" in="comp-extrude" result="offset-extrude"></feOffset><feMerge><feMergeNode in="offset-extrude"></feMergeNode><feMergeNode in="SourceGraphic"></feMergeNode></feMerge></filter></defs><g filter="url(#editing-extrusion)"><g transform="translate(215.2950149178505, 81.16000270843506)"><path d="M2.67-11.52L11.12-1.47L11.12-11.52L12.42-11.52L12.42 0L10.64 0L2.19-10.05L2.19 0L0.90 0L0.90-11.52L2.67-11.52ZM16.06-9.28L16.06-9.28L21.63-9.28L21.63-9.28Q22.45-9.28 23.02-8.71L23.02-8.71L23.02-8.71Q23.58-8.14 23.58-7.34L23.58-7.34L23.58-1.94L23.58-1.94Q23.58-1.14 23.02-0.57L23.02-0.57L23.02-0.57Q22.45 0 21.63 0L21.63 0L16.06 0L16.06 0Q15.26 0 14.70-0.57L14.70-0.57L14.70-0.57Q14.13-1.14 14.13-1.94L14.13-1.94L14.13-7.34L14.13-7.34Q14.13-8.14 14.70-8.71L14.70-8.71L14.70-8.71Q15.26-9.28 16.06-9.28ZM21.63-7.97L21.63-7.97L16.06-7.97L16.06-7.97Q15.81-7.97 15.62-7.78L15.62-7.78L15.62-7.78Q15.44-7.60 15.44-7.34L15.44-7.34L15.44-1.94L15.44-1.94Q15.44-1.68 15.62-1.50L15.62-1.50L15.62-1.50Q15.81-1.31 16.06-1.31L16.06-1.31L21.63-1.31L21.63-1.31Q21.89-1.31 22.07-1.50L22.07-1.50L22.07-1.50Q22.26-1.68 22.26-1.94L22.26-1.94L22.26-7.34L22.26-7.34Q22.26-7.60 22.07-7.78L22.07-7.78L22.07-7.78Q21.89-7.97 21.63-7.97ZM32.90-9.28L32.90-12.32L34.21-12.32L34.21 0L26.70 0L26.70 0Q25.89 0 25.32-0.57L25.32-0.57L25.32-0.57Q24.75-1.14 24.75-1.94L24.75-1.94L24.75-7.34L24.75-7.34Q24.75-8.14 25.32-8.71L25.32-8.71L25.32-8.71Q25.89-9.28 26.70-9.28L26.70-9.28L32.90-9.28ZM26.70-1.31L26.70-1.31L32.27-1.31L32.27-1.31Q32.53-1.31 32.71-1.50L32.71-1.50L32.71-1.50Q32.90-1.68 32.90-1.94L32.90-1.94L32.90-7.34L32.90-7.34Q32.90-7.60 32.71-7.78L32.71-7.78L32.71-7.78Q32.53-7.97 32.27-7.97L32.27-7.97L26.70-7.97L26.70-7.97Q26.45-7.97 26.26-7.78L26.26-7.78L26.26-7.78Q26.08-7.60 26.08-7.34L26.08-7.34L26.08-1.94L26.08-1.94Q26.08-1.68 26.26-1.50L26.26-1.50L26.26-1.50Q26.45-1.31 26.70-1.31ZM37.49-9.28L43.06-9.28L43.06-9.28Q43.87-9.28 44.44-8.71L44.44-8.71L44.44-8.71Q45.01-8.14 45.01-7.34L45.01-7.34L45.01-3.98L36.86-3.98L36.86-1.94L36.86-1.94Q36.86-1.68 37.05-1.50L37.05-1.50L37.05-1.50Q37.23-1.31 37.49-1.31L37.49-1.31L45.01-1.31L45.01 0L37.49 0L37.49 0Q36.69 0 36.12-0.57L36.12-0.57L36.12-0.57Q35.55-1.14 35.55-1.94L35.55-1.94L35.55-7.34L35.55-7.34Q35.55-8.14 36.12-8.71L36.12-8.71L36.12-8.71Q36.69-9.28 37.49-9.28L37.49-9.28ZM36.86-7.34L36.86-5.30L43.68-5.30L43.68-7.34L43.68-7.34Q43.68-7.60 43.50-7.78L43.50-7.78L43.50-7.78Q43.31-7.97 43.06-7.97L43.06-7.97L37.49-7.97L37.49-7.97Q37.23-7.97 37.05-7.78L37.05-7.78L37.05-7.78Q36.86-7.60 36.86-7.34L36.86-7.34ZM56.10-1.92L56.10-1.92L56.10-11.52L57.39-11.52L57.39-1.92L57.39-1.92Q57.39-1.12 56.83-0.56L56.83-0.56L56.83-0.56Q56.27 0 55.47 0L55.47 0L47.79 0L47.79 0Q46.99 0 46.43-0.56L46.43-0.56L46.43-0.56Q45.87-1.12 45.87-1.92L45.87-1.92L45.87-2.83L47.17-2.83L47.17-1.92L47.17-1.92Q47.17-1.66 47.35-1.48L47.35-1.48L47.35-1.48Q47.54-1.30 47.79-1.30L47.79-1.30L55.47-1.30L55.47-1.30Q55.73-1.30 55.91-1.48L55.91-1.48L55.91-1.48Q56.10-1.66 56.10-1.92ZM68.51-7.34L68.51-7.34L68.51-7.22L67.18-7.22L67.18-7.34L67.18-7.34Q67.18-7.60 67-7.78L67-7.78L67-7.78Q66.82-7.97 66.56-7.97L66.56-7.97L60.99-7.97L60.99-7.97Q60.74-7.97 60.55-7.78L60.55-7.78L60.55-7.78Q60.37-7.60 60.37-7.34L60.37-7.34L60.37-5.92L60.37-5.92Q60.37-5.66 60.55-5.48L60.55-5.48L60.55-5.48Q60.74-5.30 60.99-5.30L60.99-5.30L66.56-5.30L66.56-5.30Q67.38-5.30 67.94-4.73L67.94-4.73L67.94-4.73Q68.51-4.16 68.51-3.36L68.51-3.36L68.51-1.94L68.51-1.94Q68.51-1.14 67.94-0.57L67.94-0.57L67.94-0.57Q67.38 0 66.56 0L66.56 0L60.99 0L60.99 0Q60.19 0 59.62-0.57L59.62-0.57L59.62-0.57Q59.06-1.14 59.06-1.94L59.06-1.94L59.06-2.06L60.37-2.06L60.37-1.94L60.37-1.94Q60.37-1.68 60.55-1.50L60.55-1.50L60.55-1.50Q60.74-1.31 60.99-1.31L60.99-1.31L66.56-1.31L66.56-1.31Q66.82-1.31 67-1.50L67-1.50L67-1.50Q67.18-1.68 67.18-1.94L67.18-1.94L67.18-3.36L67.18-3.36Q67.18-3.62 67-3.80L67-3.80L67-3.80Q66.82-3.98 66.56-3.98L66.56-3.98L60.99-3.98L60.99-3.98Q60.19-3.98 59.62-4.55L59.62-4.55L59.62-4.55Q59.06-5.12 59.06-5.92L59.06-5.92L59.06-7.34L59.06-7.34Q59.06-8.14 59.62-8.71L59.62-8.71L59.62-8.71Q60.19-9.28 60.99-9.28L60.99-9.28L66.56-9.28L66.56-9.28Q67.38-9.28 67.94-8.71L67.94-8.71L67.94-8.71Q68.51-8.14 68.51-7.34Z" fill="#444444"></path></g></g><style>text {
  font-size: 64px;
  font-family: Arial Black;
  dominant-baseline: central;
  text-anchor: middle;
}</style></svg>