<svg width="103.41875px" height="46.4px" xmlns="http://www.w3.org/2000/svg" viewBox="198.290625 51.8 103.41875 46.4" style="background: rgba(0, 0, 0, 0);" preserveAspectRatio="xMidYMid"><defs><filter id="editing-extrusion" x="-100%" y="-100%" width="300%" height="300%"><feFlood result="color1" flood-color="#41a55f"></feFlood><feConvolveMatrix order="1,1" divisor="1" kernelMatrix="1" in="SourceAlpha" result="extrude"></feConvolveMatrix><feComposite in="color1" in2="extrude" result="comp-extrude" operator="in"></feComposite><feOffset dx="0.5" dy="0.5" in="comp-extrude" result="offset-extrude"></feOffset><feMerge><feMergeNode in="offset-extrude"></feMergeNode><feMergeNode in="SourceGraphic"></feMergeNode></feMerge></filter></defs><g filter="url(#editing-extrusion)"><g transform="translate(219.1650185585022, 80.76000308990479)"><path d="M3.04-8.69L3.04 0L1.44 0L1.44-11.20L3.04-11.20L9.77-2.52L9.77-11.20L11.38-11.20L11.38 0L9.77 0L3.04-8.69ZM21.29-6.78L21.29-1.54L21.29-1.54Q21.29-1.22 21.17-0.94L21.17-0.94L21.17-0.94Q21.05-0.66 20.84-0.45L20.84-0.45L20.84-0.45Q20.63-0.24 20.36-0.12L20.36-0.12L20.36-0.12Q20.08 0 19.76 0L19.76 0L15.63 0L15.63 0Q15.31 0 15.03-0.12L15.03-0.12L15.03-0.12Q14.75-0.24 14.54-0.45L14.54-0.45L14.54-0.45Q14.34-0.66 14.21-0.94L14.21-0.94L14.21-0.94Q14.09-1.22 14.09-1.54L14.09-1.54L14.09-6.78L14.09-6.78Q14.09-7.10 14.21-7.38L14.21-7.38L14.21-7.38Q14.34-7.66 14.54-7.87L14.54-7.87L14.54-7.87Q14.75-8.08 15.03-8.20L15.03-8.20L15.03-8.20Q15.31-8.32 15.63-8.32L15.63-8.32L19.76-8.32L19.76-8.32Q20.08-8.32 20.36-8.20L20.36-8.20L20.36-8.20Q20.63-8.08 20.84-7.87L20.84-7.87L20.84-7.87Q21.05-7.66 21.17-7.38L21.17-7.38L21.17-7.38Q21.29-7.10 21.29-6.78L21.29-6.78ZM19.76-6.78L15.63-6.78L15.63-1.54L19.76-1.54L19.76-6.78ZM23.85-1.54L23.85-6.78L23.85-6.78Q23.85-7.10 23.97-7.38L23.97-7.38L23.97-7.38Q24.09-7.66 24.30-7.87L24.30-7.87L24.30-7.87Q24.51-8.08 24.79-8.20L24.79-8.20L24.79-8.20Q25.07-8.32 25.38-8.32L25.38-8.32L29.67-8.32L29.67-11.52L31.21-11.52L31.21 0L29.67 0L29.67-1.41L29.67-1.41Q29.65-1.12 29.52-0.86L29.52-0.86L29.52-0.86Q29.38-0.60 29.18-0.41L29.18-0.41L29.18-0.41Q28.97-0.22 28.70-0.11L28.70-0.11L28.70-0.11Q28.44 0 28.14 0L28.14 0L25.38 0L25.38 0Q25.07 0 24.79-0.12L24.79-0.12L24.79-0.12Q24.51-0.24 24.30-0.45L24.30-0.45L24.30-0.45Q24.09-0.66 23.97-0.94L23.97-0.94L23.97-0.94Q23.85-1.22 23.85-1.54L23.85-1.54ZM25.38-6.78L25.38-1.54L29.67-1.54L29.67-6.78L25.38-6.78ZM40.81-6.78L40.81-3.38L35.30-3.38L35.30-1.54L40.81-1.54L40.81 0L35.30 0L35.30 0Q34.99 0 34.71-0.12L34.71-0.12L34.71-0.12Q34.43-0.24 34.22-0.45L34.22-0.45L34.22-0.45Q34.02-0.66 33.89-0.94L33.89-0.94L33.89-0.94Q33.77-1.22 33.77-1.54L33.77-1.54L33.77-6.78L33.77-6.78Q33.77-7.10 33.89-7.38L33.89-7.38L33.89-7.38Q34.02-7.66 34.22-7.87L34.22-7.87L34.22-7.87Q34.43-8.08 34.71-8.20L34.71-8.20L34.71-8.20Q34.99-8.32 35.30-8.32L35.30-8.32L39.27-8.32L39.27-8.32Q39.59-8.32 39.88-8.20L39.88-8.20L39.88-8.20Q40.16-8.08 40.36-7.87L40.36-7.87L40.36-7.87Q40.57-7.66 40.69-7.38L40.69-7.38L40.69-7.38Q40.81-7.10 40.81-6.78L40.81-6.78ZM39.27-6.78L35.30-6.78L35.30-4.91L39.27-4.91L39.27-6.78ZM43.21-1.60L43.21-3.52L44.81-3.52L44.81-1.60L49.34-1.60L49.34-11.20L50.95-11.20L50.95-1.60L50.95-1.60Q50.95-1.27 50.82-0.98L50.82-0.98L50.82-0.98Q50.69-0.69 50.47-0.47L50.47-0.47L50.47-0.47Q50.26-0.25 49.96-0.13L49.96-0.13L49.96-0.13Q49.67 0 49.34 0L49.34 0L44.81 0L44.81 0Q44.48 0 44.19-0.13L44.19-0.13L44.19-0.13Q43.90-0.25 43.68-0.47L43.68-0.47L43.68-0.47Q43.47-0.69 43.34-0.98L43.34-0.98L43.34-0.98Q43.21-1.27 43.21-1.60L43.21-1.60ZM53.50-1.54L58.69-1.54L58.69-3.47L55.04-3.47L55.04-3.47Q54.72-3.47 54.44-3.59L54.44-3.59L54.44-3.59Q54.16-3.71 53.95-3.92L53.95-3.92L53.95-3.92Q53.74-4.13 53.62-4.41L53.62-4.41L53.62-4.41Q53.50-4.69 53.50-5.01L53.50-5.01L53.50-6.78L53.50-6.78Q53.50-7.10 53.62-7.38L53.62-7.38L53.62-7.38Q53.74-7.66 53.95-7.87L53.95-7.87L53.95-7.87Q54.16-8.08 54.44-8.20L54.44-8.20L54.44-8.20Q54.72-8.32 55.04-8.32L55.04-8.32L59.91-8.32L59.91-6.78L55.04-6.78L55.04-5.01L58.69-5.01L58.69-5.01Q59.01-5.01 59.29-4.89L59.29-4.89L59.29-4.89Q59.56-4.77 59.77-4.56L59.77-4.56L59.77-4.56Q59.98-4.35 60.11-4.07L60.11-4.07L60.11-4.07Q60.23-3.79 60.23-3.47L60.23-3.47L60.23-1.54L60.23-1.54Q60.23-1.22 60.11-0.94L60.11-0.94L60.11-0.94Q59.98-0.66 59.77-0.45L59.77-0.45L59.77-0.45Q59.56-0.24 59.29-0.12L59.29-0.12L59.29-0.12Q59.01 0 58.69 0L58.69 0L53.50 0L53.50-1.54Z" fill="#303030"></path></g></g><style>text {
  font-size: 64px;
  font-family: Arial Black;
  dominant-baseline: central;
  text-anchor: middle;
}</style></svg>