<svg width="314.91875px" height="46.4px" xmlns="http://www.w3.org/2000/svg" viewBox="92.540625 51.8 314.91875 46.4" style="background: rgba(0, 0, 0, 0);" preserveAspectRatio="xMidYMid"><defs><filter id="editing-extrusion" x="-100%" y="-100%" width="300%" height="300%"><feFlood result="color1" flood-color="#444444"></feFlood><feConvolveMatrix order="2,2" divisor="1" kernelMatrix="1 0 0 1" in="SourceAlpha" result="extrude"></feConvolveMatrix><feComposite in="color1" in2="extrude" result="comp-extrude" operator="in"></feComposite><feOffset dx="1" dy="1" in="comp-extrude" result="offset-extrude"></feOffset><feMerge><feMergeNode in="offset-extrude"></feMergeNode><feMergeNode in="SourceGraphic"></feMergeNode></feMerge></filter></defs><g filter="url(#editing-extrusion)"><g transform="translate(141.509980738163, 82.04000282287598)"><path d="M0.90 0L0.90-11.50L10.50-11.50L10.50-11.50Q11.30-11.50 11.86-10.94L11.86-10.94L11.86-10.94Q12.42-10.38 12.42-9.58L12.42-9.58L12.42-6.21L12.42-6.21Q12.42-5.41 11.86-4.85L11.86-4.85L11.86-4.85Q11.30-4.29 10.50-4.29L10.50-4.29L2.82-4.29L2.82-4.29Q2.67-4.29 2.19-4.35L2.19-4.35L2.19 0L0.90 0ZM11.12-6.21L11.12-6.21L11.12-9.58L11.12-9.58Q11.12-9.84 10.94-10.02L10.94-10.02L10.94-10.02Q10.75-10.21 10.50-10.21L10.50-10.21L2.82-10.21L2.82-10.21Q2.56-10.21 2.38-10.02L2.38-10.02L2.38-10.02Q2.19-9.84 2.19-9.58L2.19-9.58L2.19-6.21L2.19-6.21Q2.19-5.95 2.38-5.78L2.38-5.78L2.38-5.78Q2.56-5.60 2.82-5.60L2.82-5.60L10.50-5.60L10.50-5.60Q10.75-5.60 10.94-5.78L10.94-5.78L10.94-5.78Q11.12-5.95 11.12-6.21ZM15.41-9.28L15.41-9.28L20.98-9.28L20.98-9.28Q21.79-9.28 22.36-8.71L22.36-8.71L22.36-8.71Q22.93-8.14 22.93-7.34L22.93-7.34L22.93-1.94L22.93-1.94Q22.93-1.14 22.36-0.57L22.36-0.57L22.36-0.57Q21.79 0 20.98 0L20.98 0L15.41 0L15.41 0Q14.61 0 14.04-0.57L14.04-0.57L14.04-0.57Q13.47-1.14 13.47-1.94L13.47-1.94L13.47-7.34L13.47-7.34Q13.47-8.14 14.04-8.71L14.04-8.71L14.04-8.71Q14.61-9.28 15.41-9.28ZM20.98-7.97L20.98-7.97L15.41-7.97L15.41-7.97Q15.15-7.97 14.97-7.78L14.97-7.78L14.97-7.78Q14.78-7.60 14.78-7.34L14.78-7.34L14.78-1.94L14.78-1.94Q14.78-1.68 14.97-1.50L14.97-1.50L14.97-1.50Q15.15-1.31 15.41-1.31L15.41-1.31L20.98-1.31L20.98-1.31Q21.23-1.31 21.42-1.50L21.42-1.50L21.42-1.50Q21.60-1.68 21.60-1.94L21.60-1.94L21.60-7.34L21.60-7.34Q21.60-7.60 21.42-7.78L21.42-7.78L21.42-7.78Q21.23-7.97 20.98-7.97ZM26.34-9.28L26.34-9.28L31.55-9.28L31.55-7.97L26.34-7.97L26.34-7.97Q26.08-7.97 25.90-7.78L25.90-7.78L25.90-7.78Q25.71-7.60 25.71-7.34L25.71-7.34L25.71 0L24.40 0L24.40-7.34L24.40-7.34Q24.40-8.14 24.97-8.71L24.97-8.71L24.97-8.71Q25.54-9.28 26.34-9.28ZM37.94-9.28L37.94-7.97L33.92-7.97L33.92-1.94L33.92-1.94Q33.92-1.68 34.10-1.50L34.10-1.50L34.10-1.50Q34.29-1.31 34.54-1.31L34.54-1.31L37.94-1.31L37.94 0L34.54 0L34.54 0Q33.73 0 33.17-0.57L33.17-0.57L33.17-0.57Q32.61-1.14 32.61-1.94L32.61-1.94L32.61-12.32L33.92-12.32L33.92-9.28L37.94-9.28ZM44.50-11.01L41.10-11.01L41.10-11.01Q40.85-11.01 40.66-10.82L40.66-10.82L40.66-10.82Q40.48-10.64 40.48-10.38L40.48-10.38L40.48-9.28L44.50-9.28L44.50-7.97L40.48-7.97L40.48 0L39.17 0L39.17-10.38L39.17-10.38Q39.17-11.20 39.73-11.76L39.73-11.76L39.73-11.76Q40.29-12.32 41.10-12.32L41.10-12.32L44.50-12.32L44.50-11.01ZM47.58-9.28L47.58-9.28L53.15-9.28L53.15-9.28Q53.97-9.28 54.54-8.71L54.54-8.71L54.54-8.71Q55.10-8.14 55.10-7.34L55.10-7.34L55.10-1.94L55.10-1.94Q55.10-1.14 54.54-0.57L54.54-0.57L54.54-0.57Q53.97 0 53.15 0L53.15 0L47.58 0L47.58 0Q46.78 0 46.22-0.57L46.22-0.57L46.22-0.57Q45.65-1.14 45.65-1.94L45.65-1.94L45.65-7.34L45.65-7.34Q45.65-8.14 46.22-8.71L46.22-8.71L46.22-8.71Q46.78-9.28 47.58-9.28ZM53.15-7.97L53.15-7.97L47.58-7.97L47.58-7.97Q47.33-7.97 47.14-7.78L47.14-7.78L47.14-7.78Q46.96-7.60 46.96-7.34L46.96-7.34L46.96-1.94L46.96-1.94Q46.96-1.68 47.14-1.50L47.14-1.50L47.14-1.50Q47.33-1.31 47.58-1.31L47.58-1.31L53.15-1.31L53.15-1.31Q53.41-1.31 53.59-1.50L53.59-1.50L53.59-1.50Q53.78-1.68 53.78-1.94L53.78-1.94L53.78-7.34L53.78-7.34Q53.78-7.60 53.59-7.78L53.59-7.78L53.59-7.78Q53.41-7.97 53.15-7.97ZM56.42-1.94L56.42-12.32L57.73-12.32L57.73-1.94L57.73-1.94Q57.73-1.68 57.91-1.50L57.91-1.50L57.91-1.50Q58.10-1.31 58.35-1.31L58.35-1.31L59.92-1.31L59.92 0L58.35 0L58.35 0Q57.55 0 56.98-0.57L56.98-0.57L56.98-0.57Q56.42-1.14 56.42-1.94L56.42-1.94ZM62.56 0L61.25 0L61.25-9.28L62.56-9.28L62.56 0ZM61.25-11.01L61.25-12.32L62.56-12.32L62.56-11.01L61.25-11.01ZM66.50-9.28L66.50-9.28L72.06-9.28L72.06-9.28Q72.88-9.28 73.45-8.71L73.45-8.71L73.45-8.71Q74.02-8.14 74.02-7.34L74.02-7.34L74.02-1.94L74.02-1.94Q74.02-1.14 73.45-0.57L73.45-0.57L73.45-0.57Q72.88 0 72.06 0L72.06 0L66.50 0L66.50 0Q65.70 0 65.13-0.57L65.13-0.57L65.13-0.57Q64.56-1.14 64.56-1.94L64.56-1.94L64.56-7.34L64.56-7.34Q64.56-8.14 65.13-8.71L65.13-8.71L65.13-8.71Q65.70-9.28 66.50-9.28ZM72.06-7.97L72.06-7.97L66.50-7.97L66.50-7.97Q66.24-7.97 66.06-7.78L66.06-7.78L66.06-7.78Q65.87-7.60 65.87-7.34L65.87-7.34L65.87-1.94L65.87-1.94Q65.87-1.68 66.06-1.50L66.06-1.50L66.06-1.50Q66.24-1.31 66.50-1.31L66.50-1.31L72.06-1.31L72.06-1.31Q72.32-1.31 72.50-1.50L72.50-1.50L72.50-1.50Q72.69-1.68 72.69-1.94L72.69-1.94L72.69-7.34L72.69-7.34Q72.69-7.60 72.50-7.78L72.50-7.78L72.50-7.78Q72.32-7.97 72.06-7.97ZM80.11-5.39L86.35-5.39L86.35-4.08L80.11-4.08L80.11-5.39ZM94.46-11.52L99.25-5.82L104.03-11.52L105.81-11.52L105.81 0L104.51 0L104.51-10.05L99.25-3.79L93.98-10.05L93.98 0L92.69 0L92.69-11.52L94.46-11.52ZM108.78 0L107.47 0L107.47-9.28L108.78-9.28L108.78 0ZM107.47-11.01L107.47-12.32L108.78-12.32L108.78-11.01L107.47-11.01ZM120.19-7.34L120.19-7.34L120.19-7.22L118.86-7.22L118.86-7.34L118.86-7.34Q118.86-7.60 118.68-7.78L118.68-7.78L118.68-7.78Q118.50-7.97 118.24-7.97L118.24-7.97L112.67-7.97L112.67-7.97Q112.42-7.97 112.23-7.78L112.23-7.78L112.23-7.78Q112.05-7.60 112.05-7.34L112.05-7.34L112.05-5.92L112.05-5.92Q112.05-5.66 112.23-5.48L112.23-5.48L112.23-5.48Q112.42-5.30 112.67-5.30L112.67-5.30L118.24-5.30L118.24-5.30Q119.06-5.30 119.62-4.73L119.62-4.73L119.62-4.73Q120.19-4.16 120.19-3.36L120.19-3.36L120.19-1.94L120.19-1.94Q120.19-1.14 119.62-0.57L119.62-0.57L119.62-0.57Q119.06 0 118.24 0L118.24 0L112.67 0L112.67 0Q111.87 0 111.30-0.57L111.30-0.57L111.30-0.57Q110.74-1.14 110.74-1.94L110.74-1.94L110.74-2.06L112.05-2.06L112.05-1.94L112.05-1.94Q112.05-1.68 112.23-1.50L112.23-1.50L112.23-1.50Q112.42-1.31 112.67-1.31L112.67-1.31L118.24-1.31L118.24-1.31Q118.50-1.31 118.68-1.50L118.68-1.50L118.68-1.50Q118.86-1.68 118.86-1.94L118.86-1.94L118.86-3.36L118.86-3.36Q118.86-3.62 118.68-3.80L118.68-3.80L118.68-3.80Q118.50-3.98 118.24-3.98L118.24-3.98L112.67-3.98L112.67-3.98Q111.87-3.98 111.30-4.55L111.30-4.55L111.30-4.55Q110.74-5.12 110.74-5.92L110.74-5.92L110.74-7.34L110.74-7.34Q110.74-8.14 111.30-8.71L111.30-8.71L111.30-8.71Q111.87-9.28 112.67-9.28L112.67-9.28L118.24-9.28L118.24-9.28Q119.06-9.28 119.62-8.71L119.62-8.71L119.62-8.71Q120.19-8.14 120.19-7.34ZM123.46-9.28L129.02-9.28L129.02-9.28Q129.84-9.28 130.41-8.71L130.41-8.71L130.41-8.71Q130.98-8.14 130.98-7.34L130.98-7.34L130.98-3.98L122.83-3.98L122.83-1.94L122.83-1.94Q122.83-1.68 123.02-1.50L123.02-1.50L123.02-1.50Q123.20-1.31 123.46-1.31L123.46-1.31L130.98-1.31L130.98 0L123.46 0L123.46 0Q122.66 0 122.09-0.57L122.09-0.57L122.09-0.57Q121.52-1.14 121.52-1.94L121.52-1.94L121.52-7.34L121.52-7.34Q121.52-8.14 122.09-8.71L122.09-8.71L122.09-8.71Q122.66-9.28 123.46-9.28L123.46-9.28ZM122.83-7.34L122.83-5.30L129.65-5.30L129.65-7.34L129.65-7.34Q129.65-7.60 129.46-7.78L129.46-7.78L129.46-7.78Q129.28-7.97 129.02-7.97L129.02-7.97L123.46-7.97L123.46-7.97Q123.20-7.97 123.02-7.78L123.02-7.78L123.02-7.78Q122.83-7.60 122.83-7.34L122.83-7.34ZM138.88-9.28L144.45-9.28L144.45-9.28Q145.26-9.28 145.83-8.71L145.83-8.71L145.83-8.71Q146.40-8.14 146.40-7.34L146.40-7.34L146.40-3.98L138.26-3.98L138.26-1.94L138.26-1.94Q138.26-1.68 138.44-1.50L138.44-1.50L138.44-1.50Q138.62-1.31 138.88-1.31L138.88-1.31L146.40-1.31L146.40 0L138.88 0L138.88 0Q138.08 0 137.51-0.57L137.51-0.57L137.51-0.57Q136.94-1.14 136.94-1.94L136.94-1.94L136.94-7.34L136.94-7.34Q136.94-8.14 137.51-8.71L137.51-8.71L137.51-8.71Q138.08-9.28 138.88-9.28L138.88-9.28ZM138.26-7.34L138.26-5.30L145.07-5.30L145.07-7.34L145.07-7.34Q145.07-7.60 144.89-7.78L144.89-7.78L144.89-7.78Q144.70-7.97 144.45-7.97L144.45-7.97L138.88-7.97L138.88-7.97Q138.62-7.97 138.44-7.78L138.44-7.78L138.44-7.78Q138.26-7.60 138.26-7.34L138.26-7.34ZM148.06-9.28L155.58-9.28L155.58-9.28Q156.38-9.28 156.95-8.71L156.95-8.71L156.95-8.71Q157.52-8.14 157.52-7.34L157.52-7.34L157.52 0L156.21 0L156.21-7.34L156.21-7.34Q156.21-7.60 156.02-7.78L156.02-7.78L156.02-7.78Q155.84-7.97 155.58-7.97L155.58-7.97L150.02-7.97L150.02-7.97Q149.76-7.97 149.57-7.78L149.57-7.78L149.57-7.78Q149.38-7.60 149.38-7.34L149.38-7.34L149.38 0L148.06 0L148.06-9.28ZM165.54-11.52L165.54-11.52L173.22-11.52L173.22-11.52Q174.02-11.52 174.58-10.96L174.58-10.96L174.58-10.96Q175.14-10.40 175.14-9.60L175.14-9.60L175.14 0L173.84 0L173.84-4.21L164.91-4.21L164.91 0L163.62 0L163.62-9.60L163.62-9.60Q163.62-10.40 164.18-10.96L164.18-10.96L164.18-10.96Q164.74-11.52 165.54-11.52ZM164.91-9.60L164.91-5.50L173.84-5.50L173.84-9.60L173.84-9.60Q173.84-9.86 173.66-10.04L173.66-10.04L173.66-10.04Q173.47-10.22 173.22-10.22L173.22-10.22L165.54-10.22L165.54-10.22Q165.28-10.22 165.10-10.04L165.10-10.04L165.10-10.04Q164.91-9.86 164.91-9.60L164.91-9.60ZM178.24-9.28L184.45-9.28L184.45-9.28Q185.25-9.28 185.82-8.71L185.82-8.71L185.82-8.71Q186.38-8.14 186.38-7.34L186.38-7.34L186.38-1.94L186.38-1.94Q186.38-1.14 185.82-0.57L185.82-0.57L185.82-0.57Q185.25 0 184.45 0L184.45 0L176.93 0L176.93-12.32L178.24-12.32L178.24-9.28ZM185.07-1.94L185.07-1.94L185.07-7.34L185.07-7.34Q185.07-7.60 184.89-7.78L184.89-7.78L184.89-7.78Q184.70-7.97 184.45-7.97L184.45-7.97L178.88-7.97L178.88-7.97Q178.62-7.97 178.43-7.78L178.43-7.78L178.43-7.78Q178.24-7.60 178.24-7.34L178.24-7.34L178.24-1.94L178.24-1.94Q178.24-1.68 178.43-1.50L178.43-1.50L178.43-1.50Q178.62-1.31 178.88-1.31L178.88-1.31L184.45-1.31L184.45-1.31Q184.70-1.31 184.89-1.50L184.89-1.50L184.89-1.50Q185.07-1.68 185.07-1.94ZM188.86 0L187.55 0L187.55-9.28L188.86-9.28L188.86 0ZM188.11-13.57L187.15-12.21L186.50-12.21L187.63-14.08L188.58-14.08L189.71-12.21L189.04-12.21L188.11-13.57ZM191.02-9.28L203.28-9.28L203.28-9.28Q204.10-9.28 204.66-8.71L204.66-8.71L204.66-8.71Q205.22-8.14 205.22-7.34L205.22-7.34L205.22 0L203.92 0L203.92-7.34L203.92-7.34Q203.92-7.60 203.73-7.78L203.73-7.78L203.73-7.78Q203.54-7.97 203.28-7.97L203.28-7.97L199.42-7.97L199.42-7.97Q199.17-7.97 198.98-7.78L198.98-7.78L198.98-7.78Q198.80-7.60 198.80-7.34L198.80-7.34L198.80 0L197.47 0L197.47-7.34L197.47-7.34Q197.47-7.60 197.29-7.78L197.29-7.78L197.29-7.78Q197.10-7.97 196.85-7.97L196.85-7.97L192.98-7.97L192.98-7.97Q192.72-7.97 192.54-7.78L192.54-7.78L192.54-7.78Q192.35-7.60 192.35-7.34L192.35-7.34L192.35 0L191.02 0L191.02-9.28ZM208.56-9.28L214.13-9.28L214.13-9.28Q214.94-9.28 215.51-8.71L215.51-8.71L215.51-8.71Q216.08-8.14 216.08-7.34L216.08-7.34L216.08-3.98L207.94-3.98L207.94-1.94L207.94-1.94Q207.94-1.68 208.12-1.50L208.12-1.50L208.12-1.50Q208.30-1.31 208.56-1.31L208.56-1.31L216.08-1.31L216.08 0L208.56 0L208.56 0Q207.76 0 207.19-0.57L207.19-0.57L207.19-0.57Q206.62-1.14 206.62-1.94L206.62-1.94L206.62-7.34L206.62-7.34Q206.62-8.14 207.19-8.71L207.19-8.71L207.19-8.71Q207.76-9.28 208.56-9.28L208.56-9.28ZM207.94-7.34L207.94-5.30L214.75-5.30L214.75-7.34L214.75-7.34Q214.75-7.60 214.57-7.78L214.57-7.78L214.57-7.78Q214.38-7.97 214.13-7.97L214.13-7.97L208.56-7.97L208.56-7.97Q208.30-7.97 208.12-7.78L208.12-7.78L208.12-7.78Q207.94-7.60 207.94-7.34L207.94-7.34Z" fill="#5ace5a"></path></g></g><style>text {
  font-size: 64px;
  font-family: Arial Black;
  dominant-baseline: central;
  text-anchor: middle;
}</style></svg>