<svg width="126.875px" height="46.4px" xmlns="http://www.w3.org/2000/svg" viewBox="186.5625 51.8 126.875 46.4" style="background: rgba(0, 0, 0, 0);" preserveAspectRatio="xMidYMid"><defs><filter id="editing-extrusion" x="-100%" y="-100%" width="300%" height="300%"><feFlood result="color1" flood-color="#000000"></feFlood><feConvolveMatrix order="1,1" divisor="1" kernelMatrix="1" in="SourceAlpha" result="extrude"></feConvolveMatrix><feComposite in="color1" in2="extrude" result="comp-extrude" operator="in"></feComposite><feOffset dx="0.5" dy="0.5" in="comp-extrude" result="offset-extrude"></feOffset><feMerge><feMergeNode in="offset-extrude"></feMergeNode><feMergeNode in="SourceGraphic"></feMergeNode></feMerge></filter></defs><g filter="url(#editing-extrusion)"><g transform="translate(210.66001278162003, 81.16000270843506)"><path d="M0.90 0L0.90-11.50L10.50-11.50L10.50-11.50Q11.30-11.50 11.86-10.94L11.86-10.94L11.86-10.94Q12.42-10.38 12.42-9.58L12.42-9.58L12.42-6.21L12.42-6.21Q12.42-5.41 11.86-4.85L11.86-4.85L11.86-4.85Q11.30-4.29 10.50-4.29L10.50-4.29L2.82-4.29L2.82-4.29Q2.67-4.29 2.19-4.35L2.19-4.35L2.19 0L0.90 0ZM11.12-6.21L11.12-6.21L11.12-9.58L11.12-9.58Q11.12-9.84 10.94-10.02L10.94-10.02L10.94-10.02Q10.75-10.21 10.50-10.21L10.50-10.21L2.82-10.21L2.82-10.21Q2.56-10.21 2.38-10.02L2.38-10.02L2.38-10.02Q2.19-9.84 2.19-9.58L2.19-9.58L2.19-6.21L2.19-6.21Q2.19-5.95 2.38-5.78L2.38-5.78L2.38-5.78Q2.56-5.60 2.82-5.60L2.82-5.60L10.50-5.60L10.50-5.60Q10.75-5.60 10.94-5.78L10.94-5.78L10.94-5.78Q11.12-5.95 11.12-6.21ZM15.41-9.28L15.41-9.28L20.98-9.28L20.98-9.28Q21.79-9.28 22.36-8.71L22.36-8.71L22.36-8.71Q22.93-8.14 22.93-7.34L22.93-7.34L22.93-1.94L22.93-1.94Q22.93-1.14 22.36-0.57L22.36-0.57L22.36-0.57Q21.79 0 20.98 0L20.98 0L15.41 0L15.41 0Q14.61 0 14.04-0.57L14.04-0.57L14.04-0.57Q13.47-1.14 13.47-1.94L13.47-1.94L13.47-7.34L13.47-7.34Q13.47-8.14 14.04-8.71L14.04-8.71L14.04-8.71Q14.61-9.28 15.41-9.28ZM20.98-7.97L20.98-7.97L15.41-7.97L15.41-7.97Q15.15-7.97 14.97-7.78L14.97-7.78L14.97-7.78Q14.78-7.60 14.78-7.34L14.78-7.34L14.78-1.94L14.78-1.94Q14.78-1.68 14.97-1.50L14.97-1.50L14.97-1.50Q15.15-1.31 15.41-1.31L15.41-1.31L20.98-1.31L20.98-1.31Q21.23-1.31 21.42-1.50L21.42-1.50L21.42-1.50Q21.60-1.68 21.60-1.94L21.60-1.94L21.60-7.34L21.60-7.34Q21.60-7.60 21.42-7.78L21.42-7.78L21.42-7.78Q21.23-7.97 20.98-7.97ZM33.63-7.34L33.63-7.34L33.63-7.22L32.30-7.22L32.30-7.34L32.30-7.34Q32.30-7.60 32.12-7.78L32.12-7.78L32.12-7.78Q31.94-7.97 31.68-7.97L31.68-7.97L26.11-7.97L26.11-7.97Q25.86-7.97 25.67-7.78L25.67-7.78L25.67-7.78Q25.49-7.60 25.49-7.34L25.49-7.34L25.49-5.92L25.49-5.92Q25.49-5.66 25.67-5.48L25.67-5.48L25.67-5.48Q25.86-5.30 26.11-5.30L26.11-5.30L31.68-5.30L31.68-5.30Q32.50-5.30 33.06-4.73L33.06-4.73L33.06-4.73Q33.63-4.16 33.63-3.36L33.63-3.36L33.63-1.94L33.63-1.94Q33.63-1.14 33.06-0.57L33.06-0.57L33.06-0.57Q32.50 0 31.68 0L31.68 0L26.11 0L26.11 0Q25.31 0 24.74-0.57L24.74-0.57L24.74-0.57Q24.18-1.14 24.18-1.94L24.18-1.94L24.18-2.06L25.49-2.06L25.49-1.94L25.49-1.94Q25.49-1.68 25.67-1.50L25.67-1.50L25.67-1.50Q25.86-1.31 26.11-1.31L26.11-1.31L31.68-1.31L31.68-1.31Q31.94-1.31 32.12-1.50L32.12-1.50L32.12-1.50Q32.30-1.68 32.30-1.94L32.30-1.94L32.30-3.36L32.30-3.36Q32.30-3.62 32.12-3.80L32.12-3.80L32.12-3.80Q31.94-3.98 31.68-3.98L31.68-3.98L26.11-3.98L26.11-3.98Q25.31-3.98 24.74-4.55L24.74-4.55L24.74-4.55Q24.18-5.12 24.18-5.92L24.18-5.92L24.18-7.34L24.18-7.34Q24.18-8.14 24.74-8.71L24.74-8.71L24.74-8.71Q25.31-9.28 26.11-9.28L26.11-9.28L31.68-9.28L31.68-9.28Q32.50-9.28 33.06-8.71L33.06-8.71L33.06-8.71Q33.63-8.14 33.63-7.34ZM40.56-9.28L40.56-7.97L36.54-7.97L36.54-1.94L36.54-1.94Q36.54-1.68 36.73-1.50L36.73-1.50L36.73-1.50Q36.91-1.31 37.17-1.31L37.17-1.31L40.56-1.31L40.56 0L37.17 0L37.17 0Q36.35 0 35.79-0.57L35.79-0.57L35.79-0.57Q35.23-1.14 35.23-1.94L35.23-1.94L35.23-12.32L36.54-12.32L36.54-9.28L40.56-9.28ZM41.81-9.28L54.06-9.28L54.06-9.28Q54.88-9.28 55.44-8.71L55.44-8.71L55.44-8.71Q56-8.14 56-7.34L56-7.34L56 0L54.70 0L54.70-7.34L54.70-7.34Q54.70-7.60 54.51-7.78L54.51-7.78L54.51-7.78Q54.32-7.97 54.06-7.97L54.06-7.97L50.21-7.97L50.21-7.97Q49.95-7.97 49.77-7.78L49.77-7.78L49.77-7.78Q49.58-7.60 49.58-7.34L49.58-7.34L49.58 0L48.26 0L48.26-7.34L48.26-7.34Q48.26-7.60 48.07-7.78L48.07-7.78L48.07-7.78Q47.89-7.97 47.63-7.97L47.63-7.97L43.76-7.97L43.76-7.97Q43.50-7.97 43.32-7.78L43.32-7.78L43.32-7.78Q43.14-7.60 43.14-7.34L43.14-7.34L43.14 0L41.81 0L41.81-9.28ZM57.42-9.28L64.93-9.28L64.93-9.28Q65.74-9.28 66.31-8.71L66.31-8.71L66.31-8.71Q66.88-8.14 66.88-7.34L66.88-7.34L66.88 0L59.36 0L59.36 0Q58.56 0 57.99-0.57L57.99-0.57L57.99-0.57Q57.42-1.14 57.42-1.94L57.42-1.94L57.42-5.30L65.55-5.30L65.55-7.34L65.55-7.34Q65.55-7.60 65.37-7.78L65.37-7.78L65.37-7.78Q65.18-7.97 64.93-7.97L64.93-7.97L57.42-7.97L57.42-9.28ZM59.36-1.31L65.55-1.31L65.55-3.98L58.74-3.98L58.74-1.94L58.74-1.94Q58.74-1.68 58.92-1.50L58.92-1.50L58.92-1.50Q59.10-1.31 59.36-1.31L59.36-1.31ZM68.32-9.28L75.84-9.28L75.84-9.28Q76.64-9.28 77.21-8.71L77.21-8.71L77.21-8.71Q77.78-8.14 77.78-7.34L77.78-7.34L77.78 0L76.46 0L76.46-7.34L76.46-7.34Q76.46-7.60 76.28-7.78L76.28-7.78L76.28-7.78Q76.10-7.97 75.84-7.97L75.84-7.97L70.27-7.97L70.27-7.97Q70.02-7.97 69.82-7.78L69.82-7.78L69.82-7.78Q69.63-7.60 69.63-7.34L69.63-7.34L69.63 0L68.32 0L68.32-9.28Z" fill="#ff6c37"></path></g></g><style>text {
  font-size: 64px;
  font-family: Arial Black;
  dominant-baseline: central;
  text-anchor: middle;
}</style></svg>