<svg width="167.6375px" height="46.4px" xmlns="http://www.w3.org/2000/svg" viewBox="166.18125 51.8 167.6375 46.4" style="background: rgba(0, 0, 0, 0);" preserveAspectRatio="xMidYMid"><defs><filter id="editing-extrusion" x="-100%" y="-100%" width="300%" height="300%"><feFlood result="color1" flood-color="#444444"></feFlood><feConvolveMatrix order="1,1" divisor="1" kernelMatrix="1" in="SourceAlpha" result="extrude"></feConvolveMatrix><feComposite in="color1" in2="extrude" result="comp-extrude" operator="in"></feComposite><feOffset dx="0.5" dy="0.5" in="comp-extrude" result="offset-extrude"></feOffset><feMerge><feMergeNode in="offset-extrude"></feMergeNode><feMergeNode in="SourceGraphic"></feMergeNode></feMerge></filter></defs><g filter="url(#editing-extrusion)"><g transform="translate(195.63500452041626, 80.76000308990479)"><path d="M10.29-8.48L10.29-7.20L10.29-7.20Q10.29-4.86 8.29-4.53L8.29-4.53L10.40 0L8.63 0L6.55-4.48L3.04-4.48L3.04 0L1.44 0L1.44-11.20L7.57-11.20L7.57-11.20Q10.29-11.20 10.29-8.48L10.29-8.48ZM3.04-9.60L3.04-6.08L7.48-6.08L7.48-6.08Q8.13-6.08 8.41-6.36L8.41-6.36L8.41-6.36Q8.69-6.64 8.69-7.28L8.69-7.28L8.69-8.40L8.69-8.40Q8.69-9.04 8.41-9.32L8.41-9.32L8.41-9.32Q8.13-9.60 7.48-9.60L7.48-9.60L3.04-9.60ZM19.84-6.78L19.84-3.38L14.34-3.38L14.34-1.54L19.84-1.54L19.84 0L14.34 0L14.34 0Q14.02 0 13.74-0.12L13.74-0.12L13.74-0.12Q13.46-0.24 13.25-0.45L13.25-0.45L13.25-0.45Q13.05-0.66 12.93-0.94L12.93-0.94L12.93-0.94Q12.80-1.22 12.80-1.54L12.80-1.54L12.80-6.78L12.80-6.78Q12.80-7.10 12.93-7.38L12.93-7.38L12.93-7.38Q13.05-7.66 13.25-7.87L13.25-7.87L13.25-7.87Q13.46-8.08 13.74-8.20L13.74-8.20L13.74-8.20Q14.02-8.32 14.34-8.32L14.34-8.32L18.30-8.32L18.30-8.32Q18.63-8.32 18.91-8.20L18.91-8.20L18.91-8.20Q19.19-8.08 19.39-7.87L19.39-7.87L19.39-7.87Q19.60-7.66 19.72-7.38L19.72-7.38L19.72-7.38Q19.84-7.10 19.84-6.78L19.84-6.78ZM18.30-6.78L14.34-6.78L14.34-4.91L18.30-4.91L18.30-6.78ZM22.41-1.54L22.41-3.63L22.41-3.63Q22.41-3.95 22.53-4.23L22.53-4.23L22.53-4.23Q22.65-4.51 22.86-4.72L22.86-4.72L22.86-4.72Q23.06-4.93 23.34-5.05L23.34-5.05L23.34-5.05Q23.63-5.17 23.94-5.17L23.94-5.17L27.91-5.17L27.91-6.78L22.88-6.78L22.88-8.32L27.91-8.32L27.91-8.32Q28.23-8.32 28.51-8.20L28.51-8.20L28.51-8.20Q28.79-8.08 29.00-7.87L29.00-7.87L29.00-7.87Q29.20-7.66 29.32-7.38L29.32-7.38L29.32-7.38Q29.45-7.10 29.45-6.78L29.45-6.78L29.45 0L27.91 0L27.91-1.41L27.91-1.41Q27.88-1.12 27.75-0.86L27.75-0.86L27.75-0.86Q27.62-0.60 27.41-0.41L27.41-0.41L27.41-0.41Q27.20-0.22 26.94-0.11L26.94-0.11L26.94-0.11Q26.67 0 26.38 0L26.38 0L23.94 0L23.94 0Q23.63 0 23.34-0.12L23.34-0.12L23.34-0.12Q23.06-0.24 22.86-0.45L22.86-0.45L22.86-0.45Q22.65-0.66 22.53-0.94L22.53-0.94L22.53-0.94Q22.41-1.22 22.41-1.54L22.41-1.54ZM23.94-3.63L23.94-1.54L27.91-1.54L27.91-3.63L23.94-3.63ZM37.51-6.78L33.54-6.78L33.54-1.54L37.51-1.54L37.51-2.95L39.05-2.95L39.05-1.54L39.05-1.54Q39.05-1.22 38.93-0.94L38.93-0.94L38.93-0.94Q38.80-0.66 38.60-0.45L38.60-0.45L38.60-0.45Q38.39-0.24 38.11-0.12L38.11-0.12L38.11-0.12Q37.83 0 37.51 0L37.51 0L33.54 0L33.54 0Q33.23 0 32.95-0.12L32.95-0.12L32.95-0.12Q32.66-0.24 32.46-0.45L32.46-0.45L32.46-0.45Q32.25-0.66 32.13-0.94L32.13-0.94L32.13-0.94Q32.01-1.22 32.01-1.54L32.01-1.54L32.01-6.78L32.01-6.78Q32.01-7.10 32.13-7.38L32.13-7.38L32.13-7.38Q32.25-7.66 32.46-7.87L32.46-7.87L32.46-7.87Q32.66-8.08 32.95-8.20L32.95-8.20L32.95-8.20Q33.23-8.32 33.54-8.32L33.54-8.32L37.51-8.32L37.51-8.32Q37.83-8.32 38.11-8.20L38.11-8.20L38.11-8.20Q38.39-8.08 38.60-7.87L38.60-7.87L38.60-7.87Q38.80-7.66 38.93-7.38L38.93-7.38L38.93-7.38Q39.05-7.10 39.05-6.78L39.05-6.78L39.05-5.38L37.51-5.38L37.51-6.78ZM41.13-6.78L41.13-8.32L43.16-8.32L43.16-10.88L44.70-10.88L44.70-8.32L47.43-8.32L47.43-6.78L44.70-6.78L44.70-1.54L47.43-1.54L47.43 0L44.70 0L44.70 0Q44.38 0 44.10-0.12L44.10-0.12L44.10-0.12Q43.82-0.24 43.61-0.45L43.61-0.45L43.61-0.45Q43.40-0.66 43.28-0.94L43.28-0.94L43.28-0.94Q43.16-1.22 43.16-1.54L43.16-1.54L43.16-6.78L41.13-6.78ZM49.99-3.74L49.99-5.28L53.73-5.28L53.73-3.74L49.99-3.74ZM58.05-8.69L58.05 0L56.45 0L56.45-11.20L58.05-11.20L64.79-2.52L64.79-11.20L66.39-11.20L66.39 0L64.79 0L58.05-8.69ZM69.11-1.54L69.11-3.63L69.11-3.63Q69.11-3.95 69.23-4.23L69.23-4.23L69.23-4.23Q69.35-4.51 69.56-4.72L69.56-4.72L69.56-4.72Q69.77-4.93 70.05-5.05L70.05-5.05L70.05-5.05Q70.33-5.17 70.64-5.17L70.64-5.17L74.61-5.17L74.61-6.78L69.59-6.78L69.59-8.32L74.61-8.32L74.61-8.32Q74.93-8.32 75.21-8.20L75.21-8.20L75.21-8.20Q75.49-8.08 75.70-7.87L75.70-7.87L75.70-7.87Q75.91-7.66 76.03-7.38L76.03-7.38L76.03-7.38Q76.15-7.10 76.15-6.78L76.15-6.78L76.15 0L74.61 0L74.61-1.41L74.61-1.41Q74.59-1.12 74.45-0.86L74.45-0.86L74.45-0.86Q74.32-0.60 74.11-0.41L74.11-0.41L74.11-0.41Q73.91-0.22 73.64-0.11L73.64-0.11L73.64-0.11Q73.38 0 73.08 0L73.08 0L70.64 0L70.64 0Q70.33 0 70.05-0.12L70.05-0.12L70.05-0.12Q69.77-0.24 69.56-0.45L69.56-0.45L69.56-0.45Q69.35-0.66 69.23-0.94L69.23-0.94L69.23-0.94Q69.11-1.22 69.11-1.54L69.11-1.54ZM70.64-3.63L70.64-1.54L74.61-1.54L74.61-3.63L70.64-3.63ZM78.23-6.78L78.23-8.32L80.26-8.32L80.26-10.88L81.80-10.88L81.80-8.32L84.53-8.32L84.53-6.78L81.80-6.78L81.80-1.54L84.53-1.54L84.53 0L81.80 0L81.80 0Q81.48 0 81.20-0.12L81.20-0.12L81.20-0.12Q80.92-0.24 80.71-0.45L80.71-0.45L80.71-0.45Q80.50-0.66 80.38-0.94L80.38-0.94L80.38-0.94Q80.26-1.22 80.26-1.54L80.26-1.54L80.26-6.78L78.23-6.78ZM87.17-8.32L88.71-8.32L88.71 0L87.17 0L87.17-8.32ZM87.09-9.92L87.09-11.52L88.79-11.52L88.79-9.92L87.09-9.92ZM95.32 0L93.72 0L90.39-8.32L91.99-8.32L94.52-1.84L97.05-8.32L98.65-8.32L95.32 0ZM107.29-6.78L107.29-3.38L101.78-3.38L101.78-1.54L107.29-1.54L107.29 0L101.78 0L101.78 0Q101.47 0 101.19-0.12L101.19-0.12L101.19-0.12Q100.91-0.24 100.70-0.45L100.70-0.45L100.70-0.45Q100.49-0.66 100.37-0.94L100.37-0.94L100.37-0.94Q100.25-1.22 100.25-1.54L100.25-1.54L100.25-6.78L100.25-6.78Q100.25-7.10 100.37-7.38L100.37-7.38L100.37-7.38Q100.49-7.66 100.70-7.87L100.70-7.87L100.70-7.87Q100.91-8.08 101.19-8.20L101.19-8.20L101.19-8.20Q101.47-8.32 101.78-8.32L101.78-8.32L105.75-8.32L105.75-8.32Q106.07-8.32 106.35-8.20L106.35-8.20L106.35-8.20Q106.63-8.08 106.84-7.87L106.84-7.87L106.84-7.87Q107.05-7.66 107.17-7.38L107.17-7.38L107.17-7.38Q107.29-7.10 107.29-6.78L107.29-6.78ZM105.75-6.78L101.78-6.78L101.78-4.91L105.75-4.91L105.75-6.78Z" fill="#80deea"></path></g></g><style>text {
  font-size: 64px;
  font-family: Arial Black;
  dominant-baseline: central;
  text-anchor: middle;
}</style></svg>