<svg width="112.41875px" height="46.4px" xmlns="http://www.w3.org/2000/svg" viewBox="193.790625 51.8 112.41875 46.4" style="background: rgba(0, 0, 0, 0);" preserveAspectRatio="xMidYMid"><defs><filter id="editing-extrusion" x="-100%" y="-100%" width="300%" height="300%"><feFlood result="color1" flood-color="#444444"></feFlood><feConvolveMatrix order="1,1" divisor="1" kernelMatrix="1" in="SourceAlpha" result="extrude"></feConvolveMatrix><feComposite in="color1" in2="extrude" result="comp-extrude" operator="in"></feComposite><feOffset dx="0.5" dy="0.5" in="comp-extrude" result="offset-extrude"></feOffset><feMerge><feMergeNode in="offset-extrude"></feMergeNode><feMergeNode in="SourceGraphic"></feMergeNode></feMerge></filter></defs><g filter="url(#editing-extrusion)"><g transform="translate(215.86000680923462, 80.60000276565552)"><path d="M10.29-8.48L10.29-7.20L10.29-7.20Q10.29-4.86 8.29-4.53L8.29-4.53L10.40 0L8.63 0L6.55-4.48L3.04-4.48L3.04 0L1.44 0L1.44-11.20L7.57-11.20L7.57-11.20Q10.29-11.20 10.29-8.48L10.29-8.48ZM3.04-9.60L3.04-6.08L7.48-6.08L7.48-6.08Q8.13-6.08 8.41-6.36L8.41-6.36L8.41-6.36Q8.69-6.64 8.69-7.28L8.69-7.28L8.69-8.40L8.69-8.40Q8.69-9.04 8.41-9.32L8.41-9.32L8.41-9.32Q8.13-9.60 7.48-9.60L7.48-9.60L3.04-9.60ZM19.84-6.78L19.84-3.38L14.34-3.38L14.34-1.54L19.84-1.54L19.84 0L14.34 0L14.34 0Q14.02 0 13.74-0.12L13.74-0.12L13.74-0.12Q13.46-0.24 13.25-0.45L13.25-0.45L13.25-0.45Q13.05-0.66 12.93-0.94L12.93-0.94L12.93-0.94Q12.80-1.22 12.80-1.54L12.80-1.54L12.80-6.78L12.80-6.78Q12.80-7.10 12.93-7.38L12.93-7.38L12.93-7.38Q13.05-7.66 13.25-7.87L13.25-7.87L13.25-7.87Q13.46-8.08 13.74-8.20L13.74-8.20L13.74-8.20Q14.02-8.32 14.34-8.32L14.34-8.32L18.30-8.32L18.30-8.32Q18.63-8.32 18.91-8.20L18.91-8.20L18.91-8.20Q19.19-8.08 19.39-7.87L19.39-7.87L19.39-7.87Q19.60-7.66 19.72-7.38L19.72-7.38L19.72-7.38Q19.84-7.10 19.84-6.78L19.84-6.78ZM18.30-6.78L14.34-6.78L14.34-4.91L18.30-4.91L18.30-6.78ZM22.41-1.54L22.41-3.63L22.41-3.63Q22.41-3.95 22.53-4.23L22.53-4.23L22.53-4.23Q22.65-4.51 22.86-4.72L22.86-4.72L22.86-4.72Q23.06-4.93 23.34-5.05L23.34-5.05L23.34-5.05Q23.63-5.17 23.94-5.17L23.94-5.17L27.91-5.17L27.91-6.78L22.88-6.78L22.88-8.32L27.91-8.32L27.91-8.32Q28.23-8.32 28.51-8.20L28.51-8.20L28.51-8.20Q28.79-8.08 29.00-7.87L29.00-7.87L29.00-7.87Q29.20-7.66 29.32-7.38L29.32-7.38L29.32-7.38Q29.45-7.10 29.45-6.78L29.45-6.78L29.45 0L27.91 0L27.91-1.41L27.91-1.41Q27.88-1.12 27.75-0.86L27.75-0.86L27.75-0.86Q27.62-0.60 27.41-0.41L27.41-0.41L27.41-0.41Q27.20-0.22 26.94-0.11L26.94-0.11L26.94-0.11Q26.67 0 26.38 0L26.38 0L23.94 0L23.94 0Q23.63 0 23.34-0.12L23.34-0.12L23.34-0.12Q23.06-0.24 22.86-0.45L22.86-0.45L22.86-0.45Q22.65-0.66 22.53-0.94L22.53-0.94L22.53-0.94Q22.41-1.22 22.41-1.54L22.41-1.54ZM23.94-3.63L23.94-1.54L27.91-1.54L27.91-3.63L23.94-3.63ZM37.51-6.78L33.54-6.78L33.54-1.54L37.51-1.54L37.51-2.95L39.05-2.95L39.05-1.54L39.05-1.54Q39.05-1.22 38.93-0.94L38.93-0.94L38.93-0.94Q38.80-0.66 38.60-0.45L38.60-0.45L38.60-0.45Q38.39-0.24 38.11-0.12L38.11-0.12L38.11-0.12Q37.83 0 37.51 0L37.51 0L33.54 0L33.54 0Q33.23 0 32.95-0.12L32.95-0.12L32.95-0.12Q32.66-0.24 32.46-0.45L32.46-0.45L32.46-0.45Q32.25-0.66 32.13-0.94L32.13-0.94L32.13-0.94Q32.01-1.22 32.01-1.54L32.01-1.54L32.01-6.78L32.01-6.78Q32.01-7.10 32.13-7.38L32.13-7.38L32.13-7.38Q32.25-7.66 32.46-7.87L32.46-7.87L32.46-7.87Q32.66-8.08 32.95-8.20L32.95-8.20L32.95-8.20Q33.23-8.32 33.54-8.32L33.54-8.32L37.51-8.32L37.51-8.32Q37.83-8.32 38.11-8.20L38.11-8.20L38.11-8.20Q38.39-8.08 38.60-7.87L38.60-7.87L38.60-7.87Q38.80-7.66 38.93-7.38L38.93-7.38L38.93-7.38Q39.05-7.10 39.05-6.78L39.05-6.78L39.05-5.38L37.51-5.38L37.51-6.78ZM41.13-6.78L41.13-8.32L43.16-8.32L43.16-10.88L44.70-10.88L44.70-8.32L47.43-8.32L47.43-6.78L44.70-6.78L44.70-1.54L47.43-1.54L47.43 0L44.70 0L44.70 0Q44.38 0 44.10-0.12L44.10-0.12L44.10-0.12Q43.82-0.24 43.61-0.45L43.61-0.45L43.61-0.45Q43.40-0.66 43.28-0.94L43.28-0.94L43.28-0.94Q43.16-1.22 43.16-1.54L43.16-1.54L43.16-6.78L41.13-6.78ZM49.83-1.60L49.83-3.52L51.43-3.52L51.43-1.60L55.96-1.60L55.96-11.20L57.56-11.20L57.56-1.60L57.56-1.60Q57.56-1.27 57.43-0.98L57.43-0.98L57.43-0.98Q57.30-0.69 57.09-0.47L57.09-0.47L57.09-0.47Q56.88-0.25 56.58-0.13L56.58-0.13L56.58-0.13Q56.29 0 55.96 0L55.96 0L51.43 0L51.43 0Q51.10 0 50.81-0.13L50.81-0.13L50.81-0.13Q50.52-0.25 50.30-0.47L50.30-0.47L50.30-0.47Q50.09-0.69 49.96-0.98L49.96-0.98L49.96-0.98Q49.83-1.27 49.83-1.60L49.83-1.60ZM60.12-1.54L65.30-1.54L65.30-3.47L61.66-3.47L61.66-3.47Q61.34-3.47 61.05-3.59L61.05-3.59L61.05-3.59Q60.77-3.71 60.57-3.92L60.57-3.92L60.57-3.92Q60.36-4.13 60.24-4.41L60.24-4.41L60.24-4.41Q60.12-4.69 60.12-5.01L60.12-5.01L60.12-6.78L60.12-6.78Q60.12-7.10 60.24-7.38L60.24-7.38L60.24-7.38Q60.36-7.66 60.57-7.87L60.57-7.87L60.57-7.87Q60.77-8.08 61.05-8.20L61.05-8.20L61.05-8.20Q61.34-8.32 61.66-8.32L61.66-8.32L66.52-8.32L66.52-6.78L61.66-6.78L61.66-5.01L65.30-5.01L65.30-5.01Q65.63-5.01 65.90-4.89L65.90-4.89L65.90-4.89Q66.18-4.77 66.39-4.56L66.39-4.56L66.39-4.56Q66.60-4.35 66.72-4.07L66.72-4.07L66.72-4.07Q66.84-3.79 66.84-3.47L66.84-3.47L66.84-1.54L66.84-1.54Q66.84-1.22 66.72-0.94L66.72-0.94L66.72-0.94Q66.60-0.66 66.39-0.45L66.39-0.45L66.39-0.45Q66.18-0.24 65.90-0.12L65.90-0.12L65.90-0.12Q65.63 0 65.30 0L65.30 0L60.12 0L60.12-1.54Z" fill="#00d8ff"></path></g></g><style>text {
  font-size: 64px;
  font-family: Arial Black;
  dominant-baseline: central;
  text-anchor: middle;
}</style></svg>