<svg width="109.1684814453125px" height="46.4px" xmlns="http://www.w3.org/2000/svg" viewBox="195.41575927734374 51.8 109.1684814453125 46.4" style="background: rgba(0, 0, 0, 0);" preserveAspectRatio="xMidYMid"><defs><filter id="editing-extrusion" x="-100%" y="-100%" width="300%" height="300%"><feFlood result="color1" flood-color="#000000"></feFlood><feConvolveMatrix order="1,1" divisor="1" kernelMatrix="1" in="SourceAlpha" result="extrude"></feConvolveMatrix><feComposite in="color1" in2="extrude" result="comp-extrude" operator="in"></feComposite><feOffset dx="0.5" dy="0.5" in="comp-extrude" result="offset-extrude"></feOffset><feMerge><feMergeNode in="offset-extrude"></feMergeNode><feMergeNode in="SourceGraphic"></feMergeNode></feMerge></filter></defs><g filter="url(#editing-extrusion)"><g transform="translate(217.50469887256622, 81.16000270843506)"><path d="M12.40-9.58L12.40-9.58L12.40-6.21L12.40-6.21Q12.40-5.41 11.84-4.85L11.84-4.85L11.84-4.85Q11.28-4.29 10.48-4.29L10.48-4.29L8.72-4.29L12.34 0L10.62 0L7.02-4.29L2.80-4.29L2.80-4.29Q2.66-4.29 2.18-4.35L2.18-4.35L2.18 0L0.88 0L0.88-11.50L10.48-11.50L10.48-11.50Q11.28-11.50 11.84-10.94L11.84-10.94L11.84-10.94Q12.40-10.38 12.40-9.58ZM2.80-5.60L2.80-5.60L10.48-5.60L10.48-5.60Q10.74-5.60 10.91-5.78L10.91-5.78L10.91-5.78Q11.09-5.95 11.09-6.21L11.09-6.21L11.09-9.58L11.09-9.58Q11.09-9.84 10.91-10.02L10.91-10.02L10.91-10.02Q10.74-10.21 10.48-10.21L10.48-10.21L2.80-10.21L2.80-10.21Q2.54-10.21 2.36-10.02L2.36-10.02L2.36-10.02Q2.18-9.84 2.18-9.58L2.18-9.58L2.18-6.21L2.18-6.21Q2.18-5.95 2.36-5.78L2.36-5.78L2.36-5.78Q2.54-5.60 2.80-5.60ZM15.95-9.28L21.52-9.28L21.52-9.28Q22.34-9.28 22.90-8.71L22.90-8.71L22.90-8.71Q23.47-8.14 23.47-7.34L23.47-7.34L23.47-3.98L15.33-3.98L15.33-1.94L15.33-1.94Q15.33-1.68 15.51-1.50L15.51-1.50L15.51-1.50Q15.70-1.31 15.95-1.31L15.95-1.31L23.47-1.31L23.47 0L15.95 0L15.95 0Q15.15 0 14.58-0.57L14.58-0.57L14.58-0.57Q14.02-1.14 14.02-1.94L14.02-1.94L14.02-7.34L14.02-7.34Q14.02-8.14 14.58-8.71L14.58-8.71L14.58-8.71Q15.15-9.28 15.95-9.28L15.95-9.28ZM15.33-7.34L15.33-5.30L22.14-5.30L22.14-7.34L22.14-7.34Q22.14-7.60 21.96-7.78L21.96-7.78L21.96-7.78Q21.78-7.97 21.52-7.97L21.52-7.97L15.95-7.97L15.95-7.97Q15.70-7.97 15.51-7.78L15.51-7.78L15.51-7.78Q15.33-7.60 15.33-7.34L15.33-7.34ZM25.14-9.28L32.66-9.28L32.66-9.28Q33.46-9.28 34.02-8.71L34.02-8.71L34.02-8.71Q34.59-8.14 34.59-7.34L34.59-7.34L34.59 0L33.28 0L33.28-7.34L33.28-7.34Q33.28-7.60 33.10-7.78L33.10-7.78L33.10-7.78Q32.91-7.97 32.66-7.97L32.66-7.97L27.09-7.97L27.09-7.97Q26.83-7.97 26.64-7.78L26.64-7.78L26.64-7.78Q26.45-7.60 26.45-7.34L26.45-7.34L26.45 0L25.14 0L25.14-9.28ZM43.92-9.28L43.92-12.32L45.23-12.32L45.23 0L37.73 0L37.73 0Q36.91 0 36.34-0.57L36.34-0.57L36.34-0.57Q35.78-1.14 35.78-1.94L35.78-1.94L35.78-7.34L35.78-7.34Q35.78-8.14 36.34-8.71L36.34-8.71L36.34-8.71Q36.91-9.28 37.73-9.28L37.73-9.28L43.92-9.28ZM37.73-1.31L37.73-1.31L43.30-1.31L43.30-1.31Q43.55-1.31 43.74-1.50L43.74-1.50L43.74-1.50Q43.92-1.68 43.92-1.94L43.92-1.94L43.92-7.34L43.92-7.34Q43.92-7.60 43.74-7.78L43.74-7.78L43.74-7.78Q43.55-7.97 43.30-7.97L43.30-7.97L37.73-7.97L37.73-7.97Q37.47-7.97 37.29-7.78L37.29-7.78L37.29-7.78Q37.10-7.60 37.10-7.34L37.10-7.34L37.10-1.94L37.10-1.94Q37.10-1.68 37.29-1.50L37.29-1.50L37.29-1.50Q37.47-1.31 37.73-1.31ZM48.51-9.28L54.08-9.28L54.08-9.28Q54.90-9.28 55.46-8.71L55.46-8.71L55.46-8.71Q56.03-8.14 56.03-7.34L56.03-7.34L56.03-3.98L47.89-3.98L47.89-1.94L47.89-1.94Q47.89-1.68 48.07-1.50L48.07-1.50L48.07-1.50Q48.26-1.31 48.51-1.31L48.51-1.31L56.03-1.31L56.03 0L48.51 0L48.51 0Q47.71 0 47.14-0.57L47.14-0.57L47.14-0.57Q46.58-1.14 46.58-1.94L46.58-1.94L46.58-7.34L46.58-7.34Q46.58-8.14 47.14-8.71L47.14-8.71L47.14-8.71Q47.71-9.28 48.51-9.28L48.51-9.28ZM47.89-7.34L47.89-5.30L54.70-5.30L54.70-7.34L54.70-7.34Q54.70-7.60 54.52-7.78L54.52-7.78L54.52-7.78Q54.34-7.97 54.08-7.97L54.08-7.97L48.51-7.97L48.51-7.97Q48.26-7.97 48.07-7.78L48.07-7.78L48.07-7.78Q47.89-7.60 47.89-7.34L47.89-7.34ZM59.52-9.28L59.52-9.28L64.74-9.28L64.74-7.97L59.52-7.97L59.52-7.97Q59.26-7.97 59.08-7.78L59.08-7.78L59.08-7.78Q58.90-7.60 58.90-7.34L58.90-7.34L58.90 0L57.58 0L57.58-7.34L57.58-7.34Q57.58-8.14 58.15-8.71L58.15-8.71L58.15-8.71Q58.72-9.28 59.52-9.28Z" fill="#000000"></path></g></g><style>text {
  font-size: 64px;
  font-family: Arial Black;
  dominant-baseline: central;
  text-anchor: middle;
}</style></svg>