<svg width="137.05624999999998px" height="47.599999999999994px" xmlns="http://www.w3.org/2000/svg" viewBox="181.471875 51.2 137.05624999999998 47.599999999999994" style="background: rgba(0, 0, 0, 0);" preserveAspectRatio="xMidYMid"><defs><filter id="editing-extrusion" x="-100%" y="-100%" width="300%" height="300%"><feFlood result="color1" flood-color="#52b0e7"></feFlood><feConvolveMatrix order="1,1" divisor="1" kernelMatrix="1" in="SourceAlpha" result="extrude"></feConvolveMatrix><feComposite in="color1" in2="extrude" result="comp-extrude" operator="in"></feComposite><feOffset dx="0.5" dy="0.5" in="comp-extrude" result="offset-extrude"></feOffset><feMerge><feMergeNode in="offset-extrude"></feMergeNode><feMergeNode in="SourceGraphic"></feMergeNode></feMerge></filter></defs><g filter="url(#editing-extrusion)"><g transform="translate(206.9500157237053, 83.44118022918701)"><path d="M12.34-9.60L12.34-9.60L12.34-9.15L11.04-9.15L11.04-9.60L11.04-9.60Q11.04-9.86 10.86-10.04L10.86-10.04L10.86-10.04Q10.67-10.22 10.42-10.22L10.42-10.22L2.74-10.22L2.74-10.22Q2.48-10.22 2.30-10.04L2.30-10.04L2.30-10.04Q2.11-9.86 2.11-9.60L2.11-9.60L2.11-7.02L2.11-7.02Q2.11-6.77 2.30-6.59L2.30-6.59L2.30-6.59Q2.48-6.42 2.74-6.42L2.74-6.42L10.42-6.42L10.42-6.42Q11.22-6.42 11.78-5.86L11.78-5.86L11.78-5.86Q12.34-5.30 12.34-4.50L12.34-4.50L12.34-1.92L12.34-1.92Q12.34-1.12 11.78-0.56L11.78-0.56L11.78-0.56Q11.22 0 10.42 0L10.42 0L2.74 0L2.74 0Q1.94 0 1.38-0.56L1.38-0.56L1.38-0.56Q0.82-1.12 0.82-1.92L0.82-1.92L0.82-2.37L2.11-2.37L2.11-1.92L2.11-1.92Q2.11-1.66 2.30-1.48L2.30-1.48L2.30-1.48Q2.48-1.30 2.74-1.30L2.74-1.30L10.42-1.30L10.42-1.30Q10.67-1.30 10.86-1.48L10.86-1.48L10.86-1.48Q11.04-1.66 11.04-1.92L11.04-1.92L11.04-4.50L11.04-4.50Q11.04-4.75 10.86-4.93L10.86-4.93L10.86-4.93Q10.67-5.10 10.42-5.10L10.42-5.10L2.74-5.10L2.74-5.10Q1.94-5.10 1.38-5.66L1.38-5.66L1.38-5.66Q0.82-6.22 0.82-7.02L0.82-7.02L0.82-9.60L0.82-9.60Q0.82-10.40 1.38-10.96L1.38-10.96L1.38-10.96Q1.94-11.52 2.74-11.52L2.74-11.52L10.42-11.52L10.42-11.52Q11.22-11.52 11.78-10.96L11.78-10.96L11.78-10.96Q12.34-10.40 12.34-9.60ZM15.90-9.28L21.47-9.28L21.47-9.28Q22.29-9.28 22.86-8.71L22.86-8.71L22.86-8.71Q23.42-8.14 23.42-7.34L23.42-7.34L23.42-3.98L15.28-3.98L15.28-1.94L15.28-1.94Q15.28-1.68 15.46-1.50L15.46-1.50L15.46-1.50Q15.65-1.31 15.90-1.31L15.90-1.31L23.42-1.31L23.42 0L15.90 0L15.90 0Q15.10 0 14.54-0.57L14.54-0.57L14.54-0.57Q13.97-1.14 13.97-1.94L13.97-1.94L13.97-7.34L13.97-7.34Q13.97-8.14 14.54-8.71L14.54-8.71L14.54-8.71Q15.10-9.28 15.90-9.28L15.90-9.28ZM15.28-7.34L15.28-5.30L22.10-5.30L22.10-7.34L22.10-7.34Q22.10-7.60 21.91-7.78L21.91-7.78L21.91-7.78Q21.73-7.97 21.47-7.97L21.47-7.97L15.90-7.97L15.90-7.97Q15.65-7.97 15.46-7.78L15.46-7.78L15.46-7.78Q15.28-7.60 15.28-7.34L15.28-7.34ZM24.54-1.94L24.54-7.34L24.54-7.34Q24.54-8.14 25.11-8.71L25.11-8.71L25.11-8.71Q25.68-9.28 26.50-9.28L26.50-9.28L34-9.28L34 3.68L32.69 3.68L32.69 0L26.50 0L26.50 0Q25.68 0 25.11-0.57L25.11-0.57L25.11-0.57Q24.54-1.14 24.54-1.94L24.54-1.94ZM25.87-7.34L25.87-7.34L25.87-1.94L25.87-1.94Q25.87-1.68 26.06-1.50L26.06-1.50L26.06-1.50Q26.24-1.31 26.50-1.31L26.50-1.31L32.06-1.31L32.06-1.31Q32.32-1.31 32.50-1.50L32.50-1.50L32.50-1.50Q32.69-1.68 32.69-1.94L32.69-1.94L32.69-7.34L32.69-7.34Q32.69-7.60 32.50-7.78L32.50-7.78L32.50-7.78Q32.32-7.97 32.06-7.97L32.06-7.97L26.50-7.97L26.50-7.97Q26.24-7.97 26.06-7.78L26.06-7.78L26.06-7.78Q25.87-7.60 25.87-7.34ZM43.44-1.94L43.44-9.28L44.75-9.28L44.75-1.94L44.75-1.94Q44.75-1.14 44.18-0.57L44.18-0.57L44.18-0.57Q43.62 0 42.80 0L42.80 0L37.23 0L37.23 0Q36.43 0 35.86-0.57L35.86-0.57L35.86-0.57Q35.30-1.14 35.30-1.94L35.30-1.94L35.30-9.28L36.61-9.28L36.61-1.94L36.61-1.94Q36.61-1.68 36.79-1.50L36.79-1.50L36.79-1.50Q36.98-1.31 37.23-1.31L37.23-1.31L42.80-1.31L42.80-1.31Q43.06-1.31 43.25-1.50L43.25-1.50L43.25-1.50Q43.44-1.68 43.44-1.94L43.44-1.94ZM48.08-9.28L53.65-9.28L53.65-9.28Q54.46-9.28 55.03-8.71L55.03-8.71L55.03-8.71Q55.60-8.14 55.60-7.34L55.60-7.34L55.60-3.98L47.46-3.98L47.46-1.94L47.46-1.94Q47.46-1.68 47.64-1.50L47.64-1.50L47.64-1.50Q47.82-1.31 48.08-1.31L48.08-1.31L55.60-1.31L55.60 0L48.08 0L48.08 0Q47.28 0 46.71-0.57L46.71-0.57L46.71-0.57Q46.14-1.14 46.14-1.94L46.14-1.94L46.14-7.34L46.14-7.34Q46.14-8.14 46.71-8.71L46.71-8.71L46.71-8.71Q47.28-9.28 48.08-9.28L48.08-9.28ZM47.46-7.34L47.46-5.30L54.27-5.30L54.27-7.34L54.27-7.34Q54.27-7.60 54.09-7.78L54.09-7.78L54.09-7.78Q53.90-7.97 53.65-7.97L53.65-7.97L48.08-7.97L48.08-7.97Q47.82-7.97 47.64-7.78L47.64-7.78L47.64-7.78Q47.46-7.60 47.46-7.34L47.46-7.34ZM56.91-1.94L56.91-12.32L58.22-12.32L58.22-1.94L58.22-1.94Q58.22-1.68 58.41-1.50L58.41-1.50L58.41-1.50Q58.59-1.31 58.85-1.31L58.85-1.31L60.42-1.31L60.42 0L58.85 0L58.85 0Q58.05 0 57.48-0.57L57.48-0.57L57.48-0.57Q56.91-1.14 56.91-1.94L56.91-1.94ZM63.06 0L61.74 0L61.74-9.28L63.06-9.28L63.06 0ZM61.74-11.01L61.74-12.32L63.06-12.32L63.06-11.01L61.74-11.01ZM73.12-7.97L65.10-7.97L65.10-9.28L74.56-9.28L74.56-7.49L66.54-1.31L74.56-1.31L74.56 0L65.10 0L65.10-1.79L73.12-7.97ZM77.76-9.28L83.33-9.28L83.33-9.28Q84.14-9.28 84.71-8.71L84.71-8.71L84.71-8.71Q85.28-8.14 85.28-7.34L85.28-7.34L85.28-3.98L77.14-3.98L77.14-1.94L77.14-1.94Q77.14-1.68 77.32-1.50L77.32-1.50L77.32-1.50Q77.50-1.31 77.76-1.31L77.76-1.31L85.28-1.31L85.28 0L77.76 0L77.76 0Q76.96 0 76.39-0.57L76.39-0.57L76.39-0.57Q75.82-1.14 75.82-1.94L75.82-1.94L75.82-7.34L75.82-7.34Q75.82-8.14 76.39-8.71L76.39-8.71L76.39-8.71Q76.96-9.28 77.76-9.28L77.76-9.28ZM77.14-7.34L77.14-5.30L83.95-5.30L83.95-7.34L83.95-7.34Q83.95-7.60 83.77-7.78L83.77-7.78L83.77-7.78Q83.58-7.97 83.33-7.97L83.33-7.97L77.76-7.97L77.76-7.97Q77.50-7.97 77.32-7.78L77.32-7.78L77.32-7.78Q77.14-7.60 77.14-7.34L77.14-7.34Z" fill="#2e3b69"></path></g></g><style>text {
  font-size: 64px;
  font-family: Arial Black;
  dominant-baseline: central;
  text-anchor: middle;
}</style></svg>