<svg width="65.8340087890625px" height="46.4px" xmlns="http://www.w3.org/2000/svg" viewBox="217.08299560546874 51.8 65.8340087890625 46.4" style="background: rgba(0, 0, 0, 0);" preserveAspectRatio="xMidYMid"><defs><filter id="editing-extrusion" x="-100%" y="-100%" width="300%" height="300%"><feFlood result="color1" flood-color="#444444"></feFlood><feConvolveMatrix order="1,1" divisor="1" kernelMatrix="1" in="SourceAlpha" result="extrude"></feConvolveMatrix><feComposite in="color1" in2="extrude" result="comp-extrude" operator="in"></feComposite><feOffset dx="0.5" dy="0.5" in="comp-extrude" result="offset-extrude"></feOffset><feMerge><feMergeNode in="offset-extrude"></feMergeNode><feMergeNode in="SourceGraphic"></feMergeNode></feMerge></filter></defs><g filter="url(#editing-extrusion)"><g transform="translate(233.17011618614197, 81.64000272750854)"><path d="M8.48-4.80L3.04-4.80L3.04-4.80Q2.71-4.80 2.42-4.93L2.42-4.93L2.42-4.93Q2.13-5.05 1.91-5.27L1.91-5.27L1.91-5.27Q1.69-5.48 1.56-5.78L1.56-5.78L1.56-5.78Q1.44-6.07 1.44-6.40L1.44-6.40L1.44-9.60L1.44-9.60Q1.44-9.93 1.56-10.22L1.56-10.22L1.56-10.22Q1.69-10.52 1.91-10.73L1.91-10.73L1.91-10.73Q2.13-10.95 2.42-11.07L2.42-11.07L2.42-11.07Q2.71-11.20 3.04-11.20L3.04-11.20L8.48-11.20L8.48-11.20Q8.80-11.20 9.10-11.07L9.10-11.07L9.10-11.07Q9.39-10.95 9.61-10.73L9.61-10.73L9.61-10.73Q9.83-10.52 9.95-10.22L9.95-10.22L9.95-10.22Q10.08-9.93 10.08-9.60L10.08-9.60L10.08-8.16L8.48-8.16L8.48-9.60L3.04-9.60L3.04-6.40L8.48-6.40L8.48-6.40Q8.80-6.40 9.10-6.27L9.10-6.27L9.10-6.27Q9.39-6.15 9.61-5.93L9.61-5.93L9.61-5.93Q9.83-5.71 9.95-5.42L9.95-5.42L9.95-5.42Q10.08-5.13 10.08-4.80L10.08-4.80L10.08-1.60L10.08-1.60Q10.08-1.27 9.95-0.98L9.95-0.98L9.95-0.98Q9.83-0.69 9.61-0.47L9.61-0.47L9.61-0.47Q9.39-0.25 9.10-0.13L9.10-0.13L9.10-0.13Q8.80 0 8.48 0L8.48 0L2.88 0L2.88 0Q2.55 0 2.26-0.13L2.26-0.13L2.26-0.13Q1.97-0.25 1.75-0.47L1.75-0.47L1.75-0.47Q1.53-0.69 1.41-0.98L1.41-0.98L1.41-0.98Q1.28-1.27 1.28-1.60L1.28-1.60L1.28-3.04L2.88-3.04L2.88-1.60L8.48-1.60L8.48-4.80ZM22.56-9.60L22.56-1.60L22.56-1.60Q22.56-1.27 22.44-0.98L22.44-0.98L22.44-0.98Q22.31-0.69 22.09-0.47L22.09-0.47L22.09-0.47Q21.88-0.25 21.58-0.13L21.58-0.13L21.58-0.13Q21.29 0 20.96 0L20.96 0L18.56 0L18.56 2.08L16.96 2.08L16.96 0L14.56 0L14.56 0Q14.23 0 13.94-0.13L13.94-0.13L13.94-0.13Q13.65-0.25 13.43-0.47L13.43-0.47L13.43-0.47Q13.21-0.69 13.09-0.98L13.09-0.98L13.09-0.98Q12.96-1.27 12.96-1.60L12.96-1.60L12.96-9.60L12.96-9.60Q12.96-9.93 13.09-10.22L13.09-10.22L13.09-10.22Q13.21-10.52 13.43-10.73L13.43-10.73L13.43-10.73Q13.65-10.95 13.94-11.07L13.94-11.07L13.94-11.07Q14.23-11.20 14.56-11.20L14.56-11.20L20.96-11.20L20.96-11.20Q21.29-11.20 21.58-11.07L21.58-11.07L21.58-11.07Q21.88-10.95 22.09-10.73L22.09-10.73L22.09-10.73Q22.31-10.52 22.44-10.22L22.44-10.22L22.44-10.22Q22.56-9.93 22.56-9.60L22.56-9.60ZM16.96-2.90L18.56-2.90L18.56-1.60L20.96-1.60L20.96-9.60L14.56-9.60L14.56-1.60L16.96-1.60L16.96-2.90ZM25.44-11.20L27.04-11.20L27.04-1.60L32.80-1.60L32.80 0L25.44 0L25.44-11.20Z" fill="#e86400"></path></g></g><style>text {
  font-size: 64px;
  font-family: Arial Black;
  dominant-baseline: central;
  text-anchor: middle;
}</style></svg>