<svg width="102.575px" height="46.4px" xmlns="http://www.w3.org/2000/svg" viewBox="198.7125 51.8 102.575 46.4" style="background: rgba(0, 0, 0, 0);" preserveAspectRatio="xMidYMid"><defs><filter id="editing-extrusion" x="-100%" y="-100%" width="300%" height="300%"><feFlood result="color1" flood-color="#003b57"></feFlood><feConvolveMatrix order="1,1" divisor="1" kernelMatrix="1" in="SourceAlpha" result="extrude"></feConvolveMatrix><feComposite in="color1" in2="extrude" result="comp-extrude" operator="in"></feComposite><feOffset dx="0.5" dy="0.5" in="comp-extrude" result="offset-extrude"></feOffset><feMerge><feMergeNode in="offset-extrude"></feMergeNode><feMergeNode in="SourceGraphic"></feMergeNode></feMerge></filter></defs><g filter="url(#editing-extrusion)"><g transform="translate(219.6300122141838, 81.16000270843506)"><path d="M12.34-9.60L12.34-9.60L12.34-9.15L11.04-9.15L11.04-9.60L11.04-9.60Q11.04-9.86 10.86-10.04L10.86-10.04L10.86-10.04Q10.67-10.22 10.42-10.22L10.42-10.22L2.74-10.22L2.74-10.22Q2.48-10.22 2.30-10.04L2.30-10.04L2.30-10.04Q2.11-9.86 2.11-9.60L2.11-9.60L2.11-7.02L2.11-7.02Q2.11-6.77 2.30-6.59L2.30-6.59L2.30-6.59Q2.48-6.42 2.74-6.42L2.74-6.42L10.42-6.42L10.42-6.42Q11.22-6.42 11.78-5.86L11.78-5.86L11.78-5.86Q12.34-5.30 12.34-4.50L12.34-4.50L12.34-1.92L12.34-1.92Q12.34-1.12 11.78-0.56L11.78-0.56L11.78-0.56Q11.22 0 10.42 0L10.42 0L2.74 0L2.74 0Q1.94 0 1.38-0.56L1.38-0.56L1.38-0.56Q0.82-1.12 0.82-1.92L0.82-1.92L0.82-2.37L2.11-2.37L2.11-1.92L2.11-1.92Q2.11-1.66 2.30-1.48L2.30-1.48L2.30-1.48Q2.48-1.30 2.74-1.30L2.74-1.30L10.42-1.30L10.42-1.30Q10.67-1.30 10.86-1.48L10.86-1.48L10.86-1.48Q11.04-1.66 11.04-1.92L11.04-1.92L11.04-4.50L11.04-4.50Q11.04-4.75 10.86-4.93L10.86-4.93L10.86-4.93Q10.67-5.10 10.42-5.10L10.42-5.10L2.74-5.10L2.74-5.10Q1.94-5.10 1.38-5.66L1.38-5.66L1.38-5.66Q0.82-6.22 0.82-7.02L0.82-7.02L0.82-9.60L0.82-9.60Q0.82-10.40 1.38-10.96L1.38-10.96L1.38-10.96Q1.94-11.52 2.74-11.52L2.74-11.52L10.42-11.52L10.42-11.52Q11.22-11.52 11.78-10.96L11.78-10.96L11.78-10.96Q12.34-10.40 12.34-9.60ZM25.47-1.30L25.47-1.30L27.04-1.30L27.04 0L15.94 0L15.94 0Q15.14 0 14.58-0.56L14.58-0.56L14.58-0.56Q14.02-1.12 14.02-1.92L14.02-1.92L14.02-9.60L14.02-9.60Q14.02-10.40 14.58-10.96L14.58-10.96L14.58-10.96Q15.14-11.52 15.94-11.52L15.94-11.52L23.62-11.52L23.62-11.52Q24.42-11.52 24.98-10.96L24.98-10.96L24.98-10.96Q25.54-10.40 25.54-9.60L25.54-9.60L25.54-1.92L25.54-1.92Q25.54-1.78 25.47-1.30ZM15.94-1.30L15.94-1.30L23.62-1.30L23.62-1.30Q23.87-1.30 24.06-1.48L24.06-1.48L24.06-1.48Q24.24-1.66 24.24-1.92L24.24-1.92L24.24-9.60L24.24-9.60Q24.24-9.86 24.06-10.04L24.06-10.04L24.06-10.04Q23.87-10.22 23.62-10.22L23.62-10.22L15.94-10.22L15.94-10.22Q15.68-10.22 15.50-10.04L15.50-10.04L15.50-10.04Q15.31-9.86 15.31-9.60L15.31-9.60L15.31-1.92L15.31-1.92Q15.31-1.66 15.50-1.48L15.50-1.48L15.50-1.48Q15.68-1.30 15.94-1.30ZM39.73 0L28.21 0L28.21-11.54L29.50-11.54L29.50-1.30L39.73-1.30L39.73 0ZM41.90 0L40.59 0L40.59-9.28L41.90-9.28L41.90 0ZM40.59-11.01L40.59-12.32L41.90-12.32L41.90-11.01L40.59-11.01ZM49.26-9.28L49.26-7.97L45.25-7.97L45.25-1.94L45.25-1.94Q45.25-1.68 45.43-1.50L45.43-1.50L45.43-1.50Q45.62-1.31 45.87-1.31L45.87-1.31L49.26-1.31L49.26 0L45.87 0L45.87 0Q45.06 0 44.50-0.57L44.50-0.57L44.50-0.57Q43.94-1.14 43.94-1.94L43.94-1.94L43.94-12.32L45.25-12.32L45.25-9.28L49.26-9.28ZM52.40-9.28L57.97-9.28L57.97-9.28Q58.78-9.28 59.35-8.71L59.35-8.71L59.35-8.71Q59.92-8.14 59.92-7.34L59.92-7.34L59.92-3.98L51.78-3.98L51.78-1.94L51.78-1.94Q51.78-1.68 51.96-1.50L51.96-1.50L51.96-1.50Q52.14-1.31 52.40-1.31L52.40-1.31L59.92-1.31L59.92 0L52.40 0L52.40 0Q51.60 0 51.03-0.57L51.03-0.57L51.03-0.57Q50.46-1.14 50.46-1.94L50.46-1.94L50.46-7.34L50.46-7.34Q50.46-8.14 51.03-8.71L51.03-8.71L51.03-8.71Q51.60-9.28 52.40-9.28L52.40-9.28ZM51.78-7.34L51.78-5.30L58.59-5.30L58.59-7.34L58.59-7.34Q58.59-7.60 58.41-7.78L58.41-7.78L58.41-7.78Q58.22-7.97 57.97-7.97L57.97-7.97L52.40-7.97L52.40-7.97Q52.14-7.97 51.96-7.78L51.96-7.78L51.96-7.78Q51.78-7.60 51.78-7.34L51.78-7.34Z" fill="#0f80cc"></path></g></g><style>text {
  font-size: 64px;
  font-family: Arial Black;
  dominant-baseline: central;
  text-anchor: middle;
}</style></svg>