<svg width="117.44375px" height="46.4px" xmlns="http://www.w3.org/2000/svg" viewBox="191.278125 51.8 117.44375 46.4" style="background: rgba(0, 0, 0, 0);" preserveAspectRatio="xMidYMid"><defs><filter id="editing-extrusion" x="-100%" y="-100%" width="300%" height="300%"><feFlood result="color1" flood-color="#444444"></feFlood><feConvolveMatrix order="1,1" divisor="1" kernelMatrix="1" in="SourceAlpha" result="extrude"></feConvolveMatrix><feComposite in="color1" in2="extrude" result="comp-extrude" operator="in"></feComposite><feOffset dx="0.5" dy="0.5" in="comp-extrude" result="offset-extrude"></feOffset><feMerge><feMergeNode in="offset-extrude"></feMergeNode><feMergeNode in="SourceGraphic"></feMergeNode></feMerge></filter></defs><g filter="url(#editing-extrusion)"><g transform="translate(213.8500201702118, 82.2800030708313)"><path d="M8.48-4.80L3.04-4.80L3.04-4.80Q2.71-4.80 2.42-4.93L2.42-4.93L2.42-4.93Q2.13-5.05 1.91-5.27L1.91-5.27L1.91-5.27Q1.69-5.48 1.56-5.78L1.56-5.78L1.56-5.78Q1.44-6.07 1.44-6.40L1.44-6.40L1.44-9.60L1.44-9.60Q1.44-9.93 1.56-10.22L1.56-10.22L1.56-10.22Q1.69-10.52 1.91-10.73L1.91-10.73L1.91-10.73Q2.13-10.95 2.42-11.07L2.42-11.07L2.42-11.07Q2.71-11.20 3.04-11.20L3.04-11.20L8.48-11.20L8.48-11.20Q8.80-11.20 9.10-11.07L9.10-11.07L9.10-11.07Q9.39-10.95 9.61-10.73L9.61-10.73L9.61-10.73Q9.83-10.52 9.95-10.22L9.95-10.22L9.95-10.22Q10.08-9.93 10.08-9.60L10.08-9.60L10.08-8.16L8.48-8.16L8.48-9.60L3.04-9.60L3.04-6.40L8.48-6.40L8.48-6.40Q8.80-6.40 9.10-6.27L9.10-6.27L9.10-6.27Q9.39-6.15 9.61-5.93L9.61-5.93L9.61-5.93Q9.83-5.71 9.95-5.42L9.95-5.42L9.95-5.42Q10.08-5.13 10.08-4.80L10.08-4.80L10.08-1.60L10.08-1.60Q10.08-1.27 9.95-0.98L9.95-0.98L9.95-0.98Q9.83-0.69 9.61-0.47L9.61-0.47L9.61-0.47Q9.39-0.25 9.10-0.13L9.10-0.13L9.10-0.13Q8.80 0 8.48 0L8.48 0L2.88 0L2.88 0Q2.55 0 2.26-0.13L2.26-0.13L2.26-0.13Q1.97-0.25 1.75-0.47L1.75-0.47L1.75-0.47Q1.53-0.69 1.41-0.98L1.41-0.98L1.41-0.98Q1.28-1.27 1.28-1.60L1.28-1.60L1.28-3.04L2.88-3.04L2.88-1.60L8.48-1.60L8.48-4.80ZM16.13 0L14.53 0L11.84-8.32L13.40-8.32L15.37-2.05L17.20-8.32L18.77-8.32L20.61-2.05L22.58-8.32L24.13-8.32L21.45 0L19.84 0L17.98-6.11L16.13 0ZM25.73-1.54L25.73-3.63L25.73-3.63Q25.73-3.95 25.86-4.23L25.86-4.23L25.86-4.23Q25.98-4.51 26.18-4.72L26.18-4.72L26.18-4.72Q26.39-4.93 26.67-5.05L26.67-5.05L26.67-5.05Q26.95-5.17 27.27-5.17L27.27-5.17L31.23-5.17L31.23-6.78L26.21-6.78L26.21-8.32L31.23-8.32L31.23-8.32Q31.55-8.32 31.84-8.20L31.84-8.20L31.84-8.20Q32.12-8.08 32.32-7.87L32.32-7.87L32.32-7.87Q32.53-7.66 32.65-7.38L32.65-7.38L32.65-7.38Q32.77-7.10 32.77-6.78L32.77-6.78L32.77 0L31.23 0L31.23-1.41L31.23-1.41Q31.21-1.12 31.08-0.86L31.08-0.86L31.08-0.86Q30.95-0.60 30.74-0.41L30.74-0.41L30.74-0.41Q30.53-0.22 30.27-0.11L30.27-0.11L30.27-0.11Q30 0 29.70 0L29.70 0L27.27 0L27.27 0Q26.95 0 26.67-0.12L26.67-0.12L26.67-0.12Q26.39-0.24 26.18-0.45L26.18-0.45L26.18-0.45Q25.98-0.66 25.86-0.94L25.86-0.94L25.86-0.94Q25.73-1.22 25.73-1.54L25.73-1.54ZM27.27-3.63L27.27-1.54L31.23-1.54L31.23-3.63L27.27-3.63ZM35.34-1.86L35.34-6.78L35.34-6.78Q35.34-7.10 35.46-7.38L35.46-7.38L35.46-7.38Q35.58-7.66 35.79-7.87L35.79-7.87L35.79-7.87Q35.99-8.08 36.27-8.20L36.27-8.20L36.27-8.20Q36.55-8.32 36.87-8.32L36.87-8.32L39.63-8.32L39.63-8.32Q39.93-8.32 40.20-8.21L40.20-8.21L40.20-8.21Q40.48-8.09 40.68-7.89L40.68-7.89L40.68-7.89Q40.89-7.70 41.02-7.43L41.02-7.43L41.02-7.43Q41.15-7.16 41.16-6.85L41.16-6.85L41.16-8.32L42.70-8.32L42.70 1.82L42.70 1.82Q42.70 2.14 42.57 2.42L42.57 2.42L42.57 2.42Q42.45 2.70 42.25 2.91L42.25 2.91L42.25 2.91Q42.04 3.12 41.76 3.24L41.76 3.24L41.76 3.24Q41.48 3.36 41.16 3.36L41.16 3.36L36.30 3.36L36.30 1.82L41.16 1.82L41.16-0.32L36.87-0.32L36.87-0.32Q36.55-0.32 36.27-0.44L36.27-0.44L36.27-0.44Q35.99-0.56 35.79-0.77L35.79-0.77L35.79-0.77Q35.58-0.98 35.46-1.26L35.46-1.26L35.46-1.26Q35.34-1.54 35.34-1.86L35.34-1.86ZM36.87-1.86L41.16-1.86L41.16-6.78L36.87-6.78L36.87-1.86ZM45.26-1.86L45.26-6.78L45.26-6.78Q45.26-7.10 45.38-7.38L45.38-7.38L45.38-7.38Q45.50-7.66 45.71-7.87L45.71-7.87L45.71-7.87Q45.91-8.08 46.20-8.20L46.20-8.20L46.20-8.20Q46.48-8.32 46.79-8.32L46.79-8.32L49.55-8.32L49.55-8.32Q49.85-8.32 50.13-8.21L50.13-8.21L50.13-8.21Q50.40-8.09 50.61-7.89L50.61-7.89L50.61-7.89Q50.81-7.70 50.94-7.43L50.94-7.43L50.94-7.43Q51.07-7.16 51.08-6.85L51.08-6.85L51.08-8.32L52.62-8.32L52.62 1.82L52.62 1.82Q52.62 2.14 52.50 2.42L52.50 2.42L52.50 2.42Q52.38 2.70 52.17 2.91L52.17 2.91L52.17 2.91Q51.96 3.12 51.68 3.24L51.68 3.24L51.68 3.24Q51.40 3.36 51.08 3.36L51.08 3.36L46.22 3.36L46.22 1.82L51.08 1.82L51.08-0.32L46.79-0.32L46.79-0.32Q46.48-0.32 46.20-0.44L46.20-0.44L46.20-0.44Q45.91-0.56 45.71-0.77L45.71-0.77L45.71-0.77Q45.50-0.98 45.38-1.26L45.38-1.26L45.38-1.26Q45.26-1.54 45.26-1.86L45.26-1.86ZM46.79-1.86L51.08-1.86L51.08-6.78L46.79-6.78L46.79-1.86ZM62.22-6.78L62.22-3.38L56.71-3.38L56.71-1.54L62.22-1.54L62.22 0L56.71 0L56.71 0Q56.40 0 56.12-0.12L56.12-0.12L56.12-0.12Q55.84-0.24 55.63-0.45L55.63-0.45L55.63-0.45Q55.42-0.66 55.30-0.94L55.30-0.94L55.30-0.94Q55.18-1.22 55.18-1.54L55.18-1.54L55.18-6.78L55.18-6.78Q55.18-7.10 55.30-7.38L55.30-7.38L55.30-7.38Q55.42-7.66 55.63-7.87L55.63-7.87L55.63-7.87Q55.84-8.08 56.12-8.20L56.12-8.20L56.12-8.20Q56.40-8.32 56.71-8.32L56.71-8.32L60.68-8.32L60.68-8.32Q61-8.32 61.28-8.20L61.28-8.20L61.28-8.20Q61.56-8.08 61.77-7.87L61.77-7.87L61.77-7.87Q61.98-7.66 62.10-7.38L62.10-7.38L62.10-7.38Q62.22-7.10 62.22-6.78L62.22-6.78ZM60.68-6.78L56.71-6.78L56.71-4.91L60.68-4.91L60.68-6.78ZM69.48-6.78L66.31-6.78L66.31 0L64.78 0L64.78-8.32L66.31-8.32L66.31-6.85L66.31-6.85Q66.33-7.16 66.45-7.43L66.45-7.43L66.45-7.43Q66.58-7.70 66.79-7.89L66.79-7.89L66.79-7.89Q66.99-8.09 67.27-8.21L67.27-8.21L67.27-8.21Q67.54-8.32 67.85-8.32L67.85-8.32L69.48-8.32L69.48-8.32Q69.80-8.32 70.08-8.20L70.08-8.20L70.08-8.20Q70.36-8.08 70.57-7.87L70.57-7.87L70.57-7.87Q70.78-7.66 70.90-7.38L70.90-7.38L70.90-7.38Q71.02-7.10 71.02-6.78L71.02-6.78L71.02-5.38L69.48-5.38L69.48-6.78Z" fill="#85e92e"></path></g></g><style>text {
  font-size: 64px;
  font-family: Arial Black;
  dominant-baseline: central;
  text-anchor: middle;
}</style></svg>