<svg width="102.44375px" height="46.4px" xmlns="http://www.w3.org/2000/svg" viewBox="198.778125 51.8 102.44375 46.4" style="background: none;" preserveAspectRatio="xMidYMid"><defs><filter id="editing-extrusion" x="-100%" y="-100%" width="300%" height="300%"><feFlood result="color1" flood-color="#000000"></feFlood><feConvolveMatrix order="1,1" divisor="1" kernelMatrix="1" in="SourceAlpha" result="extrude"></feConvolveMatrix><feComposite in="color1" in2="extrude" result="comp-extrude" operator="in"></feComposite><feOffset dx="0.5" dy="0.5" in="comp-extrude" result="offset-extrude"></feOffset><feMerge><feMergeNode in="offset-extrude"></feMergeNode><feMergeNode in="SourceGraphic"></feMergeNode></feMerge></filter></defs><g filter="url(#editing-extrusion)"><g transform="translate(219.90500608086586, 80.76000308990479)"><path d="M0.32-10.22L0.32-11.52L11.84-11.52L11.84-10.22L6.74-10.22L6.74 0L5.44 0L5.44-10.22L0.32-10.22ZM14.90-9.28L20.46-9.28L20.46-9.28Q21.28-9.28 21.85-8.71L21.85-8.71L21.85-8.71Q22.42-8.14 22.42-7.34L22.42-7.34L22.42-3.98L14.27-3.98L14.27-1.94L14.27-1.94Q14.27-1.68 14.46-1.50L14.46-1.50L14.46-1.50Q14.64-1.31 14.90-1.31L14.90-1.31L22.42-1.31L22.42 0L14.90 0L14.90 0Q14.10 0 13.53-0.57L13.53-0.57L13.53-0.57Q12.96-1.14 12.96-1.94L12.96-1.94L12.96-7.34L12.96-7.34Q12.96-8.14 13.53-8.71L13.53-8.71L13.53-8.71Q14.10-9.28 14.90-9.28L14.90-9.28ZM14.27-7.34L14.27-5.30L21.09-5.30L21.09-7.34L21.09-7.34Q21.09-7.60 20.90-7.78L20.90-7.78L20.90-7.78Q20.72-7.97 20.46-7.97L20.46-7.97L14.90-7.97L14.90-7.97Q14.64-7.97 14.46-7.78L14.46-7.78L14.46-7.78Q14.27-7.60 14.27-7.34L14.27-7.34ZM24.05-9.28L31.55-9.28L31.55-9.28Q32.37-9.28 32.94-8.71L32.94-8.71L32.94-8.71Q33.50-8.14 33.50-7.34L33.50-7.34L33.50 0L25.98 0L25.98 0Q25.18 0 24.62-0.57L24.62-0.57L24.62-0.57Q24.05-1.14 24.05-1.94L24.05-1.94L24.05-5.30L32.18-5.30L32.18-7.34L32.18-7.34Q32.18-7.60 31.99-7.78L31.99-7.78L31.99-7.78Q31.81-7.97 31.55-7.97L31.55-7.97L24.05-7.97L24.05-9.28ZM25.98-1.31L32.18-1.31L32.18-3.98L25.36-3.98L25.36-1.94L25.36-1.94Q25.36-1.68 25.54-1.50L25.54-1.50L25.54-1.50Q25.73-1.31 25.98-1.31L25.98-1.31ZM34.86-9.28L47.12-9.28L47.12-9.28Q47.94-9.28 48.50-8.71L48.50-8.71L48.50-8.71Q49.06-8.14 49.06-7.34L49.06-7.34L49.06 0L47.76 0L47.76-7.34L47.76-7.34Q47.76-7.60 47.57-7.78L47.57-7.78L47.57-7.78Q47.38-7.97 47.12-7.97L47.12-7.97L43.26-7.97L43.26-7.97Q43.01-7.97 42.82-7.78L42.82-7.78L42.82-7.78Q42.64-7.60 42.64-7.34L42.64-7.34L42.64 0L41.31 0L41.31-7.34L41.31-7.34Q41.31-7.60 41.13-7.78L41.13-7.78L41.13-7.78Q40.94-7.97 40.69-7.97L40.69-7.97L36.82-7.97L36.82-7.97Q36.56-7.97 36.38-7.78L36.38-7.78L36.38-7.78Q36.19-7.60 36.19-7.34L36.19-7.34L36.19 0L34.86 0L34.86-9.28ZM59.87-7.34L59.87-7.34L59.87-7.22L58.54-7.22L58.54-7.34L58.54-7.34Q58.54-7.60 58.36-7.78L58.36-7.78L58.36-7.78Q58.18-7.97 57.92-7.97L57.92-7.97L52.35-7.97L52.35-7.97Q52.10-7.97 51.91-7.78L51.91-7.78L51.91-7.78Q51.73-7.60 51.73-7.34L51.73-7.34L51.73-5.92L51.73-5.92Q51.73-5.66 51.91-5.48L51.91-5.48L51.91-5.48Q52.10-5.30 52.35-5.30L52.35-5.30L57.92-5.30L57.92-5.30Q58.74-5.30 59.30-4.73L59.30-4.73L59.30-4.73Q59.87-4.16 59.87-3.36L59.87-3.36L59.87-1.94L59.87-1.94Q59.87-1.14 59.30-0.57L59.30-0.57L59.30-0.57Q58.74 0 57.92 0L57.92 0L52.35 0L52.35 0Q51.55 0 50.98-0.57L50.98-0.57L50.98-0.57Q50.42-1.14 50.42-1.94L50.42-1.94L50.42-2.06L51.73-2.06L51.73-1.94L51.73-1.94Q51.73-1.68 51.91-1.50L51.91-1.50L51.91-1.50Q52.10-1.31 52.35-1.31L52.35-1.31L57.92-1.31L57.92-1.31Q58.18-1.31 58.36-1.50L58.36-1.50L58.36-1.50Q58.54-1.68 58.54-1.94L58.54-1.94L58.54-3.36L58.54-3.36Q58.54-3.62 58.36-3.80L58.36-3.80L58.36-3.80Q58.18-3.98 57.92-3.98L57.92-3.98L52.35-3.98L52.35-3.98Q51.55-3.98 50.98-4.55L50.98-4.55L50.98-4.55Q50.42-5.12 50.42-5.92L50.42-5.92L50.42-7.34L50.42-7.34Q50.42-8.14 50.98-8.71L50.98-8.71L50.98-8.71Q51.55-9.28 52.35-9.28L52.35-9.28L57.92-9.28L57.92-9.28Q58.74-9.28 59.30-8.71L59.30-8.71L59.30-8.71Q59.87-8.14 59.87-7.34Z" fill="#6c80fd"></path></g></g><style>text {
  font-size: 64px;
  font-family: Arial Black;
  dominant-baseline: central;
  text-anchor: middle;
}</style></svg>