<svg width="72.55625px" height="50px" xmlns="http://www.w3.org/2000/svg" viewBox="213.721875 50 72.55625 50" style="background: rgba(0, 0, 0, 0);" preserveAspectRatio="xMidYMid"><defs><filter id="editing-extrusion" x="-100%" y="-100%" width="300%" height="300%"><feFlood result="color1" flood-color="#000000"></feFlood><feConvolveMatrix order="1,1" divisor="1" kernelMatrix="1" in="SourceAlpha" result="extrude"></feConvolveMatrix><feComposite in="color1" in2="extrude" result="comp-extrude" operator="in"></feComposite><feOffset dx="0.5" dy="0.5" in="comp-extrude" result="offset-extrude"></feOffset><feMerge><feMergeNode in="offset-extrude"></feMergeNode><feMergeNode in="SourceGraphic"></feMergeNode></feMerge></filter></defs><g filter="url(#editing-extrusion)"><g transform="translate(230.12000769376755, 80.58500099182129)"><path d="M3.30 0L3.30-9.70L0.30-9.70L0.30-10.98L7.70-10.98L7.70-9.70L4.70-9.70L4.70 0L3.30 0ZM11.87 0.19L11.87 0.19Q10.27 0.19 9.48-0.86L9.48-0.86L9.48-0.86Q8.69-1.90 8.69-4.21L8.69-4.21L8.69-4.21Q8.69-6.46 9.47-7.54L9.47-7.54L9.47-7.54Q10.26-8.61 11.86-8.61L11.86-8.61L11.86-8.61Q13.26-8.61 13.94-7.67L13.94-7.67L13.94-7.67Q14.62-6.74 14.62-4.66L14.62-4.66L14.62-3.82L10.06-3.82L10.06-3.82Q10.08-2.35 10.52-1.66L10.52-1.66L10.52-1.66Q10.96-0.98 11.90-0.98L11.90-0.98L11.90-0.98Q12.54-0.98 12.94-1.49L12.94-1.49L12.94-1.49Q13.33-2 13.33-2.86L13.33-2.86L14.62-2.86L14.62-2.86Q14.62-1.46 13.86-0.63L13.86-0.63L13.86-0.63Q13.10 0.19 11.87 0.19L11.87 0.19ZM10.08-4.99L13.25-4.99L13.25-4.99Q13.25-6.19 12.90-6.82L12.90-6.82L12.90-6.82Q12.54-7.44 11.86-7.44L11.86-7.44L11.86-7.44Q11.01-7.44 10.58-6.84L10.58-6.84L10.58-6.84Q10.16-6.24 10.08-4.99L10.08-4.99ZM18.06 0.19L18.06 0.19Q17.20 0.19 16.53-0.32L16.53-0.32L16.53-0.32Q15.86-0.83 15.86-2.18L15.86-2.18L15.86-2.18Q15.86-3.79 16.95-4.39L16.95-4.39L16.95-4.39Q18.05-4.99 20.11-4.99L20.11-4.99L20.11-6.08L20.11-6.08Q20.11-6.74 19.82-7.09L19.82-7.09L19.82-7.09Q19.54-7.44 18.78-7.44L18.78-7.44L18.78-7.44Q18.10-7.44 17.79-7.06L17.79-7.06L17.79-7.06Q17.49-6.67 17.49-6.11L17.49-6.11L17.49-5.92L16.19-5.92L16.19-5.92Q16.18-6.02 16.18-6.27L16.18-6.27L16.18-6.27Q16.18-7.39 16.91-8L16.91-8L16.91-8Q17.65-8.61 18.88-8.61L18.88-8.61L18.88-8.61Q20.14-8.61 20.78-8L20.78-8L20.78-8Q21.42-7.39 21.42-6.26L21.42-6.26L21.42-1.54L21.42-1.54Q21.42-1.26 21.55-1.12L21.55-1.12L21.55-1.12Q21.68-0.98 21.87-0.98L21.87-0.98L22.38-0.98L22.38-0.06L22.38-0.06Q22.03 0.13 21.52 0.13L21.52 0.13L21.52 0.13Q21.01 0.13 20.66-0.15L20.66-0.15L20.66-0.15Q20.32-0.43 20.19-0.91L20.19-0.91L20.11-0.91L20.11-0.91Q19.79-0.38 19.26-0.10L19.26-0.10L19.26-0.10Q18.72 0.19 18.06 0.19L18.06 0.19ZM18.37-0.98L18.37-0.98Q18.80-0.98 19.20-1.22L19.20-1.22L19.20-1.22Q19.60-1.46 19.86-1.93L19.86-1.93L19.86-1.93Q20.11-2.40 20.11-3.06L20.11-3.06L20.11-3.82L20.11-3.82Q18.67-3.82 17.95-3.50L17.95-3.50L17.95-3.50Q17.23-3.17 17.23-2.26L17.23-2.26L17.23-2.26Q17.23-1.57 17.51-1.27L17.51-1.27L17.51-1.27Q17.79-0.98 18.37-0.98L18.37-0.98ZM23.57 0L23.57-8.42L24.56-8.42L24.74-7.44L24.83-7.44L24.83-7.44Q25.46-8.61 26.75-8.61L26.75-8.61L26.75-8.61Q28.11-8.61 28.54-7.39L28.54-7.39L28.54-7.39Q28.86-7.98 29.42-8.30L29.42-8.30L29.42-8.30Q29.97-8.61 30.59-8.61L30.59-8.61L30.59-8.61Q32.58-8.61 32.58-6.06L32.58-6.06L32.58 0L31.26 0L31.26-5.97L31.26-5.97Q31.26-6.78 30.98-7.11L30.98-7.11L30.98-7.11Q30.69-7.44 30.18-7.44L30.18-7.44L30.18-7.44Q29.57-7.44 29.15-6.82L29.15-6.82L29.15-6.82Q28.74-6.19 28.74-5.14L28.74-5.14L28.74 0L27.42 0L27.42-5.97L27.42-5.97Q27.42-6.78 27.14-7.11L27.14-7.11L27.14-7.11Q26.85-7.44 26.34-7.44L26.34-7.44L26.34-7.44Q25.73-7.44 25.30-6.82L25.30-6.82L25.30-6.82Q24.88-6.19 24.88-5.14L24.88-5.14L24.88 0L23.57 0ZM36.77 0.19L36.77 0.19Q35.41 0.19 34.74-0.52L34.74-0.52L34.74-0.52Q34.06-1.23 34.06-2.27L34.06-2.27L34.06-2.27Q34.06-2.46 34.07-2.54L34.07-2.54L34.07-2.54Q34.08-2.61 34.08-2.62L34.08-2.62L35.46-2.62L35.46-2.46L35.46-2.46Q35.46-1.71 35.84-1.34L35.84-1.34L35.84-1.34Q36.22-0.96 36.83-0.96L36.83-0.96L36.83-0.96Q37.38-0.96 37.74-1.29L37.74-1.29L37.74-1.29Q38.10-1.62 38.10-2.21L38.10-2.21L38.10-2.21Q38.10-2.66 37.87-2.94L37.87-2.94L37.87-2.94Q37.65-3.23 37.33-3.40L37.33-3.40L37.33-3.40Q37.01-3.57 36.43-3.78L36.43-3.78L36.43-3.78Q35.73-4.02 35.30-4.26L35.30-4.26L35.30-4.26Q34.86-4.50 34.56-4.97L34.56-4.97L34.56-4.97Q34.26-5.44 34.26-6.21L34.26-6.21L34.26-6.21Q34.26-7.31 34.97-7.96L34.97-7.96L34.97-7.96Q35.68-8.61 36.88-8.61L36.88-8.61L36.88-8.61Q38.02-8.61 38.66-7.94L38.66-7.94L38.66-7.94Q39.30-7.28 39.30-6.30L39.30-6.30L39.28-6L37.92-6L37.92-6.14L37.92-6.14Q37.92-6.70 37.65-7.08L37.65-7.08L37.65-7.08Q37.38-7.46 36.75-7.46L36.75-7.46L36.75-7.46Q36.13-7.46 35.87-7.10L35.87-7.10L35.87-7.10Q35.62-6.75 35.62-6.30L35.62-6.30L35.62-6.30Q35.62-5.76 35.99-5.50L35.99-5.50L35.99-5.50Q36.37-5.23 37.15-4.98L37.15-4.98L37.15-4.98Q37.87-4.72 38.34-4.47L38.34-4.47L38.34-4.47Q38.80-4.22 39.13-3.73L39.13-3.73L39.13-3.73Q39.46-3.23 39.46-2.40L39.46-2.40L39.46-2.40Q39.46-1.10 38.73-0.46L38.73-0.46L38.73-0.46Q38 0.19 36.77 0.19L36.77 0.19Z" fill="#6c80fd"></path></g></g><style>text {
  font-size: 64px;
  font-family: Arial Black;
  dominant-baseline: central;
  text-anchor: middle;
}</style></svg>