<svg width="80.75px" height="46.4px" xmlns="http://www.w3.org/2000/svg" viewBox="209.625 51.8 80.75 46.4" style="background: rgba(0, 0, 0, 0);" preserveAspectRatio="xMidYMid"><defs><filter id="editing-extrusion" x="-100%" y="-100%" width="300%" height="300%"><feFlood result="color1" flood-color="#444444"></feFlood><feConvolveMatrix order="1,1" divisor="1" kernelMatrix="1" in="SourceAlpha" result="extrude"></feConvolveMatrix><feComposite in="color1" in2="extrude" result="comp-extrude" operator="in"></feComposite><feOffset dx="0.5" dy="0.5" in="comp-extrude" result="offset-extrude"></feOffset><feMerge><feMergeNode in="offset-extrude"></feMergeNode><feMergeNode in="SourceGraphic"></feMergeNode></feMerge></filter></defs><g filter="url(#editing-extrusion)"><g transform="translate(228.07000875473022, 80.76000308990479)"><path d="M0.48-9.60L0.48-11.20L9.44-11.20L9.44-9.60L5.76-9.60L5.76 0L4.16 0L4.16-9.60L0.48-9.60ZM14.95-6.78L11.77-6.78L11.77 0L10.24 0L10.24-8.32L11.77-8.32L11.77-6.85L11.77-6.85Q11.79-7.16 11.91-7.43L11.91-7.43L11.91-7.43Q12.04-7.70 12.25-7.89L12.25-7.89L12.25-7.89Q12.45-8.09 12.73-8.21L12.73-8.21L12.73-8.21Q13-8.32 13.31-8.32L13.31-8.32L14.95-8.32L14.95-8.32Q15.27-8.32 15.54-8.20L15.54-8.20L15.54-8.20Q15.82-8.08 16.03-7.87L16.03-7.87L16.03-7.87Q16.24-7.66 16.36-7.38L16.36-7.38L16.36-7.38Q16.48-7.10 16.48-6.78L16.48-6.78L16.48-5.38L14.95-5.38L14.95-6.78ZM25.44-6.78L25.44-3.38L19.93-3.38L19.93-1.54L25.44-1.54L25.44 0L19.93 0L19.93 0Q19.62 0 19.34-0.12L19.34-0.12L19.34-0.12Q19.05-0.24 18.85-0.45L18.85-0.45L18.85-0.45Q18.64-0.66 18.52-0.94L18.52-0.94L18.52-0.94Q18.40-1.22 18.40-1.54L18.40-1.54L18.40-6.78L18.40-6.78Q18.40-7.10 18.52-7.38L18.52-7.38L18.52-7.38Q18.64-7.66 18.85-7.87L18.85-7.87L18.85-7.87Q19.05-8.08 19.34-8.20L19.34-8.20L19.34-8.20Q19.62-8.32 19.93-8.32L19.93-8.32L23.90-8.32L23.90-8.32Q24.22-8.32 24.50-8.20L24.50-8.20L24.50-8.20Q24.78-8.08 24.99-7.87L24.99-7.87L24.99-7.87Q25.20-7.66 25.32-7.38L25.32-7.38L25.32-7.38Q25.44-7.10 25.44-6.78L25.44-6.78ZM23.90-6.78L19.93-6.78L19.93-4.91L23.90-4.91L23.90-6.78ZM28-11.52L29.53-11.52L29.53 0L28 0L28-11.52ZM32.09-11.52L33.63-11.52L33.63 0L32.09 0L32.09-11.52ZM43.38-6.78L43.38-1.54L43.38-1.54Q43.38-1.22 43.26-0.94L43.26-0.94L43.26-0.94Q43.14-0.66 42.93-0.45L42.93-0.45L42.93-0.45Q42.73-0.24 42.45-0.12L42.45-0.12L42.45-0.12Q42.17 0 41.85 0L41.85 0L37.72 0L37.72 0Q37.41 0 37.13-0.12L37.13-0.12L37.13-0.12Q36.84-0.24 36.64-0.45L36.64-0.45L36.64-0.45Q36.43-0.66 36.31-0.94L36.31-0.94L36.31-0.94Q36.19-1.22 36.19-1.54L36.19-1.54L36.19-6.78L36.19-6.78Q36.19-7.10 36.31-7.38L36.31-7.38L36.31-7.38Q36.43-7.66 36.64-7.87L36.64-7.87L36.64-7.87Q36.84-8.08 37.13-8.20L37.13-8.20L37.13-8.20Q37.41-8.32 37.72-8.32L37.72-8.32L41.85-8.32L41.85-8.32Q42.17-8.32 42.45-8.20L42.45-8.20L42.45-8.20Q42.73-8.08 42.93-7.87L42.93-7.87L42.93-7.87Q43.14-7.66 43.26-7.38L43.26-7.38L43.26-7.38Q43.38-7.10 43.38-6.78L43.38-6.78ZM41.85-6.78L37.72-6.78L37.72-1.54L41.85-1.54L41.85-6.78Z" fill="#044dd7"></path></g></g><style>text {
  font-size: 64px;
  font-family: Arial Black;
  dominant-baseline: central;
  text-anchor: middle;
}</style></svg>