<svg width="227.61875px" height="46.4px" xmlns="http://www.w3.org/2000/svg" viewBox="136.190625 51.8 227.61875 46.4" style="background: rgba(0, 0, 0, 0);" preserveAspectRatio="xMidYMid"><defs><filter id="editing-extrusion" x="-100%" y="-100%" width="300%" height="300%"><feFlood result="color1" flood-color="#444444"></feFlood><feConvolveMatrix order="1,1" divisor="1" kernelMatrix="1" in="SourceAlpha" result="extrude"></feConvolveMatrix><feComposite in="color1" in2="extrude" result="comp-extrude" operator="in"></feComposite><feOffset dx="0.5" dy="0.5" in="comp-extrude" result="offset-extrude"></feOffset><feMerge><feMergeNode in="offset-extrude"></feMergeNode><feMergeNode in="SourceGraphic"></feMergeNode></feMerge></filter></defs><g filter="url(#editing-extrusion)"><g transform="translate(174.0600085258484, 80.76000308990479)"><path d="M6.56 0L4.80 0L0.48-11.20L2.20-11.20L5.68-1.98L9.17-11.20L10.88-11.20L6.56 0ZM12.72-8.32L14.26-8.32L14.26 0L12.72 0L12.72-8.32ZM12.64-9.92L12.64-11.52L14.34-11.52L14.34-9.92L12.64-9.92ZM16.73-1.54L21.92-1.54L21.92-3.47L18.27-3.47L18.27-3.47Q17.95-3.47 17.67-3.59L17.67-3.59L17.67-3.59Q17.39-3.71 17.18-3.92L17.18-3.92L17.18-3.92Q16.98-4.13 16.86-4.41L16.86-4.41L16.86-4.41Q16.73-4.69 16.73-5.01L16.73-5.01L16.73-6.78L16.73-6.78Q16.73-7.10 16.86-7.38L16.86-7.38L16.86-7.38Q16.98-7.66 17.18-7.87L17.18-7.87L17.18-7.87Q17.39-8.08 17.67-8.20L17.67-8.20L17.67-8.20Q17.95-8.32 18.27-8.32L18.27-8.32L23.14-8.32L23.14-6.78L18.27-6.78L18.27-5.01L21.92-5.01L21.92-5.01Q22.24-5.01 22.52-4.89L22.52-4.89L22.52-4.89Q22.80-4.77 23.01-4.56L23.01-4.56L23.01-4.56Q23.22-4.35 23.34-4.07L23.34-4.07L23.34-4.07Q23.46-3.79 23.46-3.47L23.46-3.47L23.46-1.54L23.46-1.54Q23.46-1.22 23.34-0.94L23.34-0.94L23.34-0.94Q23.22-0.66 23.01-0.45L23.01-0.45L23.01-0.45Q22.80-0.24 22.52-0.12L22.52-0.12L22.52-0.12Q22.24 0 21.92 0L21.92 0L16.73 0L16.73-1.54ZM25.86-1.54L25.86-8.32L27.39-8.32L27.39-1.54L31.68-1.54L31.68-8.32L33.22-8.32L33.22 0L31.68 0L31.68-1.41L31.68-1.41Q31.66-1.12 31.52-0.86L31.52-0.86L31.52-0.86Q31.39-0.60 31.18-0.41L31.18-0.41L31.18-0.41Q30.98-0.22 30.71-0.11L30.71-0.11L30.71-0.11Q30.45 0 30.15 0L30.15 0L27.39 0L27.39 0Q27.08 0 26.80-0.12L26.80-0.12L26.80-0.12Q26.52-0.24 26.31-0.45L26.31-0.45L26.31-0.45Q26.10-0.66 25.98-0.94L25.98-0.94L25.98-0.94Q25.86-1.22 25.86-1.54L25.86-1.54ZM35.78-1.54L35.78-3.63L35.78-3.63Q35.78-3.95 35.90-4.23L35.90-4.23L35.90-4.23Q36.02-4.51 36.23-4.72L36.23-4.72L36.23-4.72Q36.44-4.93 36.72-5.05L36.72-5.05L36.72-5.05Q37-5.17 37.31-5.17L37.31-5.17L41.28-5.17L41.28-6.78L36.26-6.78L36.26-8.32L41.28-8.32L41.28-8.32Q41.60-8.32 41.88-8.20L41.88-8.20L41.88-8.20Q42.16-8.08 42.37-7.87L42.37-7.87L42.37-7.87Q42.58-7.66 42.70-7.38L42.70-7.38L42.70-7.38Q42.82-7.10 42.82-6.78L42.82-6.78L42.82 0L41.28 0L41.28-1.41L41.28-1.41Q41.26-1.12 41.13-0.86L41.13-0.86L41.13-0.86Q40.99-0.60 40.79-0.41L40.79-0.41L40.79-0.41Q40.58-0.22 40.31-0.11L40.31-0.11L40.31-0.11Q40.05 0 39.75 0L39.75 0L37.31 0L37.31 0Q37 0 36.72-0.12L36.72-0.12L36.72-0.12Q36.44-0.24 36.23-0.45L36.23-0.45L36.23-0.45Q36.02-0.66 35.90-0.94L35.90-0.94L35.90-0.94Q35.78-1.22 35.78-1.54L35.78-1.54ZM37.31-3.63L37.31-1.54L41.28-1.54L41.28-3.63L37.31-3.63ZM45.38-11.52L46.91-11.52L46.91 0L45.38 0L45.38-11.52ZM61.47-4.80L56.03-4.80L56.03-4.80Q55.70-4.80 55.41-4.93L55.41-4.93L55.41-4.93Q55.12-5.05 54.90-5.27L54.90-5.27L54.90-5.27Q54.68-5.48 54.55-5.78L54.55-5.78L54.55-5.78Q54.43-6.07 54.43-6.40L54.43-6.40L54.43-9.60L54.43-9.60Q54.43-9.93 54.55-10.22L54.55-10.22L54.55-10.22Q54.68-10.52 54.90-10.73L54.90-10.73L54.90-10.73Q55.12-10.95 55.41-11.07L55.41-11.07L55.41-11.07Q55.70-11.20 56.03-11.20L56.03-11.20L61.47-11.20L61.47-11.20Q61.80-11.20 62.09-11.07L62.09-11.07L62.09-11.07Q62.38-10.95 62.60-10.73L62.60-10.73L62.60-10.73Q62.82-10.52 62.95-10.22L62.95-10.22L62.95-10.22Q63.07-9.93 63.07-9.60L63.07-9.60L63.07-8.16L61.47-8.16L61.47-9.60L56.03-9.60L56.03-6.40L61.47-6.40L61.47-6.40Q61.80-6.40 62.09-6.27L62.09-6.27L62.09-6.27Q62.38-6.15 62.60-5.93L62.60-5.93L62.60-5.93Q62.82-5.71 62.95-5.42L62.95-5.42L62.95-5.42Q63.07-5.13 63.07-4.80L63.07-4.80L63.07-1.60L63.07-1.60Q63.07-1.27 62.95-0.98L62.95-0.98L62.95-0.98Q62.82-0.69 62.60-0.47L62.60-0.47L62.60-0.47Q62.38-0.25 62.09-0.13L62.09-0.13L62.09-0.13Q61.80 0 61.47 0L61.47 0L55.88 0L55.88 0Q55.55 0 55.25-0.13L55.25-0.13L55.25-0.13Q54.96-0.25 54.74-0.47L54.74-0.47L54.74-0.47Q54.52-0.69 54.40-0.98L54.40-0.98L54.40-0.98Q54.27-1.27 54.27-1.60L54.27-1.60L54.27-3.04L55.88-3.04L55.88-1.60L61.47-1.60L61.47-4.80ZM65.31-6.78L65.31-8.32L67.34-8.32L67.34-10.88L68.88-10.88L68.88-8.32L71.62-8.32L71.62-6.78L68.88-6.78L68.88-1.54L71.62-1.54L71.62 0L68.88 0L68.88 0Q68.57 0 68.29-0.12L68.29-0.12L68.29-0.12Q68.01-0.24 67.80-0.45L67.80-0.45L67.80-0.45Q67.59-0.66 67.46-0.94L67.46-0.94L67.46-0.94Q67.34-1.22 67.34-1.54L67.34-1.54L67.34-6.78L65.31-6.78ZM74.18-1.54L74.18-8.32L75.71-8.32L75.71-1.54L80-1.54L80-8.32L81.54-8.32L81.54 0L80 0L80-1.41L80-1.41Q79.98-1.12 79.84-0.86L79.84-0.86L79.84-0.86Q79.71-0.60 79.50-0.41L79.50-0.41L79.50-0.41Q79.30-0.22 79.03-0.11L79.03-0.11L79.03-0.11Q78.77 0 78.47 0L78.47 0L75.71 0L75.71 0Q75.40 0 75.12-0.12L75.12-0.12L75.12-0.12Q74.84-0.24 74.63-0.45L74.63-0.45L74.63-0.45Q74.42-0.66 74.30-0.94L74.30-0.94L74.30-0.94Q74.18-1.22 74.18-1.54L74.18-1.54ZM84.10-1.54L84.10-6.78L84.10-6.78Q84.10-7.10 84.22-7.38L84.22-7.38L84.22-7.38Q84.34-7.66 84.55-7.87L84.55-7.87L84.55-7.87Q84.76-8.08 85.04-8.20L85.04-8.20L85.04-8.20Q85.32-8.32 85.63-8.32L85.63-8.32L89.92-8.32L89.92-11.52L91.46-11.52L91.46 0L89.92 0L89.92-1.41L89.92-1.41Q89.90-1.12 89.77-0.86L89.77-0.86L89.77-0.86Q89.63-0.60 89.43-0.41L89.43-0.41L89.43-0.41Q89.22-0.22 88.95-0.11L88.95-0.11L88.95-0.11Q88.69 0 88.39 0L88.39 0L85.63 0L85.63 0Q85.32 0 85.04-0.12L85.04-0.12L85.04-0.12Q84.76-0.24 84.55-0.45L84.55-0.45L84.55-0.45Q84.34-0.66 84.22-0.94L84.22-0.94L84.22-0.94Q84.10-1.22 84.10-1.54L84.10-1.54ZM85.63-6.78L85.63-1.54L89.92-1.54L89.92-6.78L85.63-6.78ZM94.10-8.32L95.64-8.32L95.64 0L94.10 0L94.10-8.32ZM94.02-9.92L94.02-11.52L95.72-11.52L95.72-9.92L94.02-9.92ZM105.48-6.78L105.48-1.54L105.48-1.54Q105.48-1.22 105.36-0.94L105.36-0.94L105.36-0.94Q105.23-0.66 105.03-0.45L105.03-0.45L105.03-0.45Q104.82-0.24 104.54-0.12L104.54-0.12L104.54-0.12Q104.27 0 103.95 0L103.95 0L99.81 0L99.81 0Q99.50 0 99.22-0.12L99.22-0.12L99.22-0.12Q98.94-0.24 98.73-0.45L98.73-0.45L98.73-0.45Q98.52-0.66 98.40-0.94L98.40-0.94L98.40-0.94Q98.28-1.22 98.28-1.54L98.28-1.54L98.28-6.78L98.28-6.78Q98.28-7.10 98.40-7.38L98.40-7.38L98.40-7.38Q98.52-7.66 98.73-7.87L98.73-7.87L98.73-7.87Q98.94-8.08 99.22-8.20L99.22-8.20L99.22-8.20Q99.50-8.32 99.81-8.32L99.81-8.32L103.95-8.32L103.95-8.32Q104.27-8.32 104.54-8.20L104.54-8.20L104.54-8.20Q104.82-8.08 105.03-7.87L105.03-7.87L105.03-7.87Q105.23-7.66 105.36-7.38L105.36-7.38L105.36-7.38Q105.48-7.10 105.48-6.78L105.48-6.78ZM103.95-6.78L99.81-6.78L99.81-1.54L103.95-1.54L103.95-6.78ZM112.99-1.60L112.99-9.60L112.99-9.60Q112.99-9.93 113.12-10.22L113.12-10.22L113.12-10.22Q113.24-10.52 113.46-10.73L113.46-10.73L113.46-10.73Q113.68-10.95 113.97-11.07L113.97-11.07L113.97-11.07Q114.27-11.20 114.59-11.20L114.59-11.20L120.67-11.20L120.67-11.20Q121-11.20 121.29-11.07L121.29-11.07L121.29-11.07Q121.59-10.95 121.80-10.73L121.80-10.73L121.80-10.73Q122.02-10.52 122.15-10.22L122.15-10.22L122.15-10.22Q122.27-9.93 122.27-9.60L122.27-9.60L122.27-8.16L120.67-8.16L120.67-9.60L114.59-9.60L114.59-1.60L120.67-1.60L120.67-3.04L122.27-3.04L122.27-1.60L122.27-1.60Q122.27-1.27 122.15-0.98L122.15-0.98L122.15-0.98Q122.02-0.69 121.80-0.47L121.80-0.47L121.80-0.47Q121.59-0.25 121.29-0.13L121.29-0.13L121.29-0.13Q121 0 120.67 0L120.67 0L114.59 0L114.59 0Q114.27 0 113.97-0.13L113.97-0.13L113.97-0.13Q113.68-0.25 113.46-0.47L113.46-0.47L113.46-0.47Q113.24-0.69 113.12-0.98L113.12-0.98L113.12-0.98Q112.99-1.27 112.99-1.60L112.99-1.60ZM131.88-6.78L131.88-1.54L131.88-1.54Q131.88-1.22 131.75-0.94L131.75-0.94L131.75-0.94Q131.63-0.66 131.43-0.45L131.43-0.45L131.43-0.45Q131.22-0.24 130.94-0.12L130.94-0.12L130.94-0.12Q130.66 0 130.34 0L130.34 0L126.21 0L126.21 0Q125.90 0 125.62-0.12L125.62-0.12L125.62-0.12Q125.34-0.24 125.13-0.45L125.13-0.45L125.13-0.45Q124.92-0.66 124.80-0.94L124.80-0.94L124.80-0.94Q124.68-1.22 124.68-1.54L124.68-1.54L124.68-6.78L124.68-6.78Q124.68-7.10 124.80-7.38L124.80-7.38L124.80-7.38Q124.92-7.66 125.13-7.87L125.13-7.87L125.13-7.87Q125.34-8.08 125.62-8.20L125.62-8.20L125.62-8.20Q125.90-8.32 126.21-8.32L126.21-8.32L130.34-8.32L130.34-8.32Q130.66-8.32 130.94-8.20L130.94-8.20L130.94-8.20Q131.22-8.08 131.43-7.87L131.43-7.87L131.43-7.87Q131.63-7.66 131.75-7.38L131.75-7.38L131.75-7.38Q131.88-7.10 131.88-6.78L131.88-6.78ZM130.34-6.78L126.21-6.78L126.21-1.54L130.34-1.54L130.34-6.78ZM134.44-1.54L134.44-6.78L134.44-6.78Q134.44-7.10 134.56-7.38L134.56-7.38L134.56-7.38Q134.68-7.66 134.89-7.87L134.89-7.87L134.89-7.87Q135.09-8.08 135.38-8.20L135.38-8.20L135.38-8.20Q135.66-8.32 135.97-8.32L135.97-8.32L140.26-8.32L140.26-11.52L141.80-11.52L141.80 0L140.26 0L140.26-1.41L140.26-1.41Q140.23-1.12 140.10-0.86L140.10-0.86L140.10-0.86Q139.97-0.60 139.76-0.41L139.76-0.41L139.76-0.41Q139.55-0.22 139.29-0.11L139.29-0.11L139.29-0.11Q139.02 0 138.73 0L138.73 0L135.97 0L135.97 0Q135.66 0 135.38-0.12L135.38-0.12L135.38-0.12Q135.09-0.24 134.89-0.45L134.89-0.45L134.89-0.45Q134.68-0.66 134.56-0.94L134.56-0.94L134.56-0.94Q134.44-1.22 134.44-1.54L134.44-1.54ZM135.97-6.78L135.97-1.54L140.26-1.54L140.26-6.78L135.97-6.78ZM151.40-6.78L151.40-3.38L145.89-3.38L145.89-1.54L151.40-1.54L151.40 0L145.89 0L145.89 0Q145.58 0 145.30-0.12L145.30-0.12L145.30-0.12Q145.02-0.24 144.81-0.45L144.81-0.45L144.81-0.45Q144.60-0.66 144.48-0.94L144.48-0.94L144.48-0.94Q144.36-1.22 144.36-1.54L144.36-1.54L144.36-6.78L144.36-6.78Q144.36-7.10 144.48-7.38L144.48-7.38L144.48-7.38Q144.60-7.66 144.81-7.87L144.81-7.87L144.81-7.87Q145.02-8.08 145.30-8.20L145.30-8.20L145.30-8.20Q145.58-8.32 145.89-8.32L145.89-8.32L149.86-8.32L149.86-8.32Q150.18-8.32 150.46-8.20L150.46-8.20L150.46-8.20Q150.74-8.08 150.95-7.87L150.95-7.87L150.95-7.87Q151.16-7.66 151.28-7.38L151.28-7.38L151.28-7.38Q151.40-7.10 151.40-6.78L151.40-6.78ZM149.86-6.78L145.89-6.78L145.89-4.91L149.86-4.91L149.86-6.78Z" fill="#22a6f1"></path></g></g><style>text {
  font-size: 64px;
  font-family: Arial Black;
  dominant-baseline: central;
  text-anchor: middle;
}</style></svg>