<svg width="87.3125px" height="46.4px" xmlns="http://www.w3.org/2000/svg" viewBox="206.34375 51.8 87.3125 46.4" style="background: rgba(0, 0, 0, 0);" preserveAspectRatio="xMidYMid"><defs><filter id="editing-extrusion" x="-100%" y="-100%" width="300%" height="300%"><feFlood result="color1" flood-color="#444444"></feFlood><feConvolveMatrix order="1,1" divisor="1" kernelMatrix="1" in="SourceAlpha" result="extrude"></feConvolveMatrix><feComposite in="color1" in2="extrude" result="comp-extrude" operator="in"></feComposite><feOffset dx="0.5" dy="0.5" in="comp-extrude" result="offset-extrude"></feOffset><feMerge><feMergeNode in="offset-extrude"></feMergeNode><feMergeNode in="SourceGraphic"></feMergeNode></feMerge></filter></defs><g filter="url(#editing-extrusion)"><g transform="translate(225.57000303268433, 80.60000276565552)"><path d="M6.56 0L4.80 0L0.48-11.20L2.20-11.20L5.68-1.98L9.17-11.20L10.88-11.20L6.56 0ZM12-1.54L12-8.32L13.53-8.32L13.53-1.54L17.82-1.54L17.82-8.32L19.36-8.32L19.36 0L17.82 0L17.82-1.41L17.82-1.41Q17.80-1.12 17.66-0.86L17.66-0.86L17.66-0.86Q17.53-0.60 17.32-0.41L17.32-0.41L17.32-0.41Q17.12-0.22 16.85-0.11L16.85-0.11L16.85-0.11Q16.59 0 16.29 0L16.29 0L13.53 0L13.53 0Q13.22 0 12.94-0.12L12.94-0.12L12.94-0.12Q12.66-0.24 12.45-0.45L12.45-0.45L12.45-0.45Q12.24-0.66 12.12-0.94L12.12-0.94L12.12-0.94Q12-1.22 12-1.54L12-1.54ZM28.96-6.78L28.96-3.38L23.45-3.38L23.45-1.54L28.96-1.54L28.96 0L23.45 0L23.45 0Q23.14 0 22.86-0.12L22.86-0.12L22.86-0.12Q22.58-0.24 22.37-0.45L22.37-0.45L22.37-0.45Q22.16-0.66 22.04-0.94L22.04-0.94L22.04-0.94Q21.92-1.22 21.92-1.54L21.92-1.54L21.92-6.78L21.92-6.78Q21.92-7.10 22.04-7.38L22.04-7.38L22.04-7.38Q22.16-7.66 22.37-7.87L22.37-7.87L22.37-7.87Q22.58-8.08 22.86-8.20L22.86-8.20L22.86-8.20Q23.14-8.32 23.45-8.32L23.45-8.32L27.42-8.32L27.42-8.32Q27.74-8.32 28.02-8.20L28.02-8.20L28.02-8.20Q28.30-8.08 28.51-7.87L28.51-7.87L28.51-7.87Q28.72-7.66 28.84-7.38L28.84-7.38L28.84-7.38Q28.96-7.10 28.96-6.78L28.96-6.78ZM27.42-6.78L23.45-6.78L23.45-4.91L27.42-4.91L27.42-6.78ZM31.36-1.60L31.36-3.52L32.96-3.52L32.96-1.60L37.49-1.60L37.49-11.20L39.09-11.20L39.09-1.60L39.09-1.60Q39.09-1.27 38.96-0.98L38.96-0.98L38.96-0.98Q38.84-0.69 38.62-0.47L38.62-0.47L38.62-0.47Q38.41-0.25 38.11-0.13L38.11-0.13L38.11-0.13Q37.82 0 37.49 0L37.49 0L32.96 0L32.96 0Q32.63 0 32.34-0.13L32.34-0.13L32.34-0.13Q32.05-0.25 31.83-0.47L31.83-0.47L31.83-0.47Q31.62-0.69 31.49-0.98L31.49-0.98L31.49-0.98Q31.36-1.27 31.36-1.60L31.36-1.60ZM41.65-1.54L46.84-1.54L46.84-3.47L43.19-3.47L43.19-3.47Q42.87-3.47 42.59-3.59L42.59-3.59L42.59-3.59Q42.30-3.71 42.10-3.92L42.10-3.92L42.10-3.92Q41.89-4.13 41.77-4.41L41.77-4.41L41.77-4.41Q41.65-4.69 41.65-5.01L41.65-5.01L41.65-6.78L41.65-6.78Q41.65-7.10 41.77-7.38L41.77-7.38L41.77-7.38Q41.89-7.66 42.10-7.87L42.10-7.87L42.10-7.87Q42.30-8.08 42.59-8.20L42.59-8.20L42.59-8.20Q42.87-8.32 43.19-8.32L43.19-8.32L48.05-8.32L48.05-6.78L43.19-6.78L43.19-5.01L46.84-5.01L46.84-5.01Q47.16-5.01 47.43-4.89L47.43-4.89L47.43-4.89Q47.71-4.77 47.92-4.56L47.92-4.56L47.92-4.56Q48.13-4.35 48.25-4.07L48.25-4.07L48.25-4.07Q48.38-3.79 48.38-3.47L48.38-3.47L48.38-1.54L48.38-1.54Q48.38-1.22 48.25-0.94L48.25-0.94L48.25-0.94Q48.13-0.66 47.92-0.45L47.92-0.45L47.92-0.45Q47.71-0.24 47.43-0.12L47.43-0.12L47.43-0.12Q47.16 0 46.84 0L46.84 0L41.65 0L41.65-1.54Z" fill="#2eba79"></path></g></g><style>text {
  font-size: 64px;
  font-family: Arial Black;
  dominant-baseline: central;
  text-anchor: middle;
}</style></svg>