<?xml version="1.0" encoding="utf-8"?>
<svg version="1.0" xmlns="http://www.w3.org/2000/svg" width="612.000000pt" height="612.000000pt" viewBox="0 0 612.000000 612.000000" preserveAspectRatio="xMidYMid meet">
  <g transform="translate(0.000000,612.000000) scale(0.100000,-0.100000)" fill="#000000" stroke="none">
    <path d="M1632 5097 c-27 -29 -28 -54 -2 -87 l19 -25 986 0 987 0 19 24 c25 31 24 63 -4 89 l-23 22 -980 0 -981 0 -21 -23z" style="fill: rgb(53, 127, 30);"/>
    <path d="M4229 4947 c-88 -74 -146 -139 -172 -195 -22 -46 -22 -57 -25 -504 l-3 -458 86 0 85 0 0 413 c0 264 4 426 11 451 11 42 72 113 138 161 60 44 60 56 4 125 -26 33 -50 60 -54 60 -3 0 -34 -24 -70 -53z"/>
    <path d="M 1696 4918 C 1692 4899 1648 4616 1518 3762 C 1507 3689 1500 3627 1502 3624 C 1505 3622 1545 3626 1591 3633 L 1675 3646 L 1691 3775 C 1700 3847 1715 3970 1724 4050 C 1806 4768 1807 4773 1835 4797 L 1861 4820 L 2611 4820 C 3416 4820 3403 4821 3430 4771 C 3435 4760 3444 4709 3450 4658 C 3455 4607 3466 4500 3475 4420 C 3483 4340 3499 4183 3511 4070 C 3522 3957 3536 3827 3542 3780 C 3548 3733 3554 3535 3557 3339 C 3561 3018 3560 2981 3545 2966 C 3527 2948 3528 2949 3323 2949 C 3244 2949 3180 2948 3180 2946 C 3180 2944 3200 2906 3225 2861 C 3305 2720 3371 2536 3405 2360 C 3436 2202 3435 1807 3404 1725 C 3399 1712 3432 1710 3652 1710 L 3906 1710 L 3922 1789 C 3974 2036 4140 2286 4339 2420 C 4743 2690 5267 2641 5608 2300 L 5680 2228 L 5680 2646 C 5680 2904 5676 3079 5670 3102 C 5657 3146 5619 3195 5581 3214 C 5554 3228 5529 3234 5045 3325 C 3946 3531 3725 3573 3722 3575 C 3720 3577 3663 4023 3626 4335 C 3592 4616 3560 4877 3555 4908 L 3549 4940 L 2625 4940 L 1700 4940 L 1696 4918 Z M 3958 3141 C 3959.005 3079.332 3959.225 3036.423 3957.453 3006.625 C 3953.938 2947.514 3942.589 2940 3914 2940 C 3865 2940 3860 2958 3860 3134 C 3860 3314 3863 3323 3920 3318 L 3955 3315 L 3958 3141 Z M 4118 3133 L 4120 2950 L 4096 2944 C 4082 2941 4062 2941 4051 2945 C 4031 2951 4030 2958 4030 3129 C 4030 3227 4033 3310 4037 3314 C 4041 3318 4060 3320 4080 3318 L 4115 3315 L 4118 3133 Z M 4288 3141 C 4290 3022 4287 2963 4279 2954 C 4265 2937 4218 2936 4202 2952 C 4189 2965 4184 3301 4197 3314 C 4201 3318 4222 3320 4245 3318 L 4285 3315 L 4288 3141 Z M 4448 3141 C 4451 2957 4447 2940 4404 2940 C 4354 2940 4350 2958 4352 3133 C 4354 3222 4359 3301 4363 3308 C 4369 3316 4386 3320 4408 3318 L 4445 3315 L 4448 3141 Z" style="fill: rgb(53, 127, 30);"/>
    <path d="M3182 3628 c-112 -112 -207 -212 -212 -223 -4 -11 -4 -28 2 -37 18 -36 51 -20 138 67 47 47 89 85 95 85 5 0 81 -73 167 -162 l157 -163 1 45 c0 44 -1 46 -142 187 l-143 143 98 98 c100 100 116 131 78 152 -11 5 -23 10 -27 10 -5 0 -100 -91 -212 -202z"/>
    <path d="M4010 3660 c0 -60 2 -110 4 -110 4 0 142 -27 184 -36 22 -4 22 -4 22 126 l0 130 -105 0 -105 0 0 -110z" style="fill: rgb(53, 127, 30);"/>
    <path d="M1623 3595 c-582 -89 -1060 -490 -1254 -1052 -30 -88 -31 -94 -15 -118 20 -30 56 -33 79 -7 10 10 17 22 17 26 0 3 15 46 34 94 141 360 423 658 786 831 215 102 439 148 675 138 205 -9 393 -62 585 -164 77 -41 197 -117 210 -133 3 -3 33 -30 68 -60 77 -66 185 -192 241 -281 91 -145 171 -351 208 -534 25 -128 25 -446 0 -564 -10 -47 -16 -94 -13 -107 7 -28 44 -38 73 -19 27 18 39 58 59 200 33 222 4 496 -77 741 -124 374 -395 686 -752 865 -123 62 -271 115 -377 134 -129 23 -424 29 -547 10z" style="fill: rgb(53, 127, 30);"/>
    <path d="M 1495 3380 C 1463 3368 1447 3343 1445 3303 C 1442 3267 1440 3265 1369 3234 C 1278 3195 1184 3141 1107 3083 C 1051 3041 1047 3040 1024 3054 C 945 3107 851 3011 905 2933 C 919 2913 917 2907 865 2838 C 810 2765 730 2622 706 2553 C 695 2520 689 2516 656 2514 C 606 2513 570 2478 570 2430 C 570 2395 583 2375 622 2347 C 638 2336 639 2326 628 2217 C 619 2127 619 2076 628 1993 L 640 1886 L 605 1857 C 538 1802 568 1715 659 1703 C 683 1700 700 1692 700 1684 C 700 1657 812 1451 865 1382 C 917 1313 919 1307 905 1287 C 850 1208 948 1110 1027 1165 C 1047 1179 1053 1177 1117 1129 C 1199 1068 1290 1016 1379 980 C 1434 957 1444 949 1442 932 C 1440 920 1446 897 1455 880 C 1485 821 1561 817 1603 872 L 1627 902 L 1741 891 C 1820 883 1886 883 1955 890 C 2086 903 2090 902 2090 886 C 2090 864 2139 830 2171 830 C 2186 830 2212 842 2229 856 C 2254 877 2260 889 2260 921 C 2260 943 2265 960 2271 960 C 2288 960 2449 1037 2505 1073 C 2532 1090 2579 1122 2608 1144 C 2647 1173 2664 1180 2669 1171 C 2674 1164 2695 1156 2716 1153 C 2789 1144 2836 1208 2805 1274 L 2789 1307 L 2862 1416 C 2903 1476 2953 1564 2974 1611 C 3012 1696 3014 1698 3053 1703 C 3108 1710 3135 1740 3135 1791 C 3135 1831 3120 1852 3073 1878 C 3062 1884 3062 1897 3071 1945 C 3082 2006 3078 2274 3065 2317 C 3059 2335 3063 2342 3082 2349 C 3131 2367 3151 2420 3126 2468 C 3110 2499 3060 2526 3035 2516 C 3023 2512 3009 2533 2975 2605 C 2929 2706 2854 2828 2812 2872 L 2787 2900 L 2805 2939 C 2820 2974 2821 2984 2810 3010 C 2787 3067 2729 3087 2682 3054 C 2670 3046 2655 3042 2648 3046 C 2642 3050 2603 3078 2561 3108 C 2483 3164 2363 3228 2298 3249 C 2264 3260 2260 3265 2260 3297 C 2260 3341 2215 3390 2173 3390 C 2141 3390 2108 3366 2091 3332 C 2084 3320 2075 3312 2071 3315 C 2048 3329 1841 3337 1740 3328 L 1630 3318 L 1596 3354 C 1562 3390 1536 3397 1495 3380 Z M 2079 2767 C 2418 2645 2612 2294 2530 1951 C 2474 1720 2297 1526 2074 1451 C 1713 1331 1319 1523 1194 1881 C 1061 2263 1280 2674 1674 2781 C 1782 2810 1977 2803 2079 2767 Z"/>
    <path d="M1781 2430 c-58 -12 -146 -66 -182 -112 -79 -98 -97 -231 -47 -339 103 -223 393 -263 551 -78 122 142 94 364 -59 472 -78 55 -173 75 -263 57z" style="fill: rgb(53, 127, 30);"/>
    <path d="M4778 2539 c-326 -48 -602 -258 -748 -570 -38 -82 -84 -261 -76 -295 8 -29 57 -57 64 -36 2 7 7 10 12 7 10 -6 26 35 40 100 14 65 62 182 105 259 81 145 220 277 370 351 120 59 187 75 331 82 139 6 224 -5 323 -44 281 -112 462 -342 551 -700 16 -64 67 -81 98 -33 23 37 -21 205 -90 345 -188 379 -581 593 -980 534z" style="fill: rgb(53, 127, 30);"/>
    <path d="M4682 2288 c-6 -6 -12 -27 -12 -45 0 -30 -5 -36 -45 -53 -25 -11 -72 -38 -105 -60 -57 -39 -62 -40 -82 -25 -29 19 -52 19 -72 -1 -20 -20 -20 -53 0 -75 14 -16 12 -21 -20 -67 -20 -27 -47 -74 -62 -106 -24 -52 -28 -56 -60 -56 -64 0 -82 -77 -23 -99 19 -6 21 -17 22 -134 2 -126 2 -128 -21 -134 -29 -7 -46 -47 -32 -73 12 -22 43 -34 69 -25 15 5 22 -1 30 -28 6 -18 34 -68 62 -110 46 -71 49 -78 34 -93 -21 -21 -16 -63 10 -80 17 -11 25 -11 52 3 32 15 33 14 95 -26 35 -23 82 -49 105 -59 40 -16 43 -20 43 -54 0 -28 5 -40 21 -48 31 -17 65 -4 78 28 12 28 13 29 64 20 29 -5 84 -6 122 -2 69 6 71 5 83 -20 26 -57 109 -35 99 28 -4 26 0 30 47 51 28 13 76 39 106 60 53 36 55 36 82 20 56 -33 104 13 73 71 -17 31 -17 32 19 81 20 28 47 75 62 107 22 49 28 55 49 50 62 -15 93 61 38 93 l-28 16 0 128 c0 110 2 129 15 129 24 0 40 21 40 50 0 35 -17 50 -57 50 -30 0 -35 5 -62 61 -17 33 -44 79 -61 103 -31 42 -31 43 -14 73 17 29 17 32 1 57 -20 30 -38 32 -77 9 -27 -16 -29 -15 -62 12 -18 15 -64 43 -103 62 -64 31 -70 35 -67 62 6 59 -65 85 -95 34 l-15 -28 -125 1 c-121 0 -125 1 -136 25 -14 27 -64 38 -85 17z m318 -394 c209 -62 307 -287 209 -484 -35 -69 -91 -122 -169 -158 -80 -38 -191 -37 -277 2 -73 33 -144 104 -175 174 -29 64 -35 176 -14 238 63 184 245 282 426 228z"/>
    <path d="M4833 1703 c-50 -28 -76 -69 -81 -127 -10 -136 144 -213 251 -125 64 53 73 147 20 210 -49 57 -129 75 -190 42z" style="fill: rgb(53, 127, 30);"/>
  </g>
</svg>