<?xml version="1.0" standalone="no"?>
<!DOCTYPE svg PUBLIC "-//W3C//DTD SVG 20010904//EN"
 "http://www.w3.org/TR/2001/REC-SVG-20010904/DTD/svg10.dtd">
<svg version="1.0" xmlns="http://www.w3.org/2000/svg"
 width="612.000000pt" height="612.000000pt" viewBox="0 0 612.000000 612.000000"
 preserveAspectRatio="xMidYMid meet">
<metadata>
Created by potrace 1.16, written by Peter Selinger 2001-2019
</metadata>
<g transform="translate(0.000000,612.000000) scale(0.100000,-0.100000)"
fill="#000000" stroke="none">
<path d="M1632 5097 c-27 -29 -28 -54 -2 -87 l19 -25 986 0 987 0 19 24 c25
31 24 63 -4 89 l-23 22 -980 0 -981 0 -21 -23z"/>
<path d="M4229 4947 c-88 -74 -146 -139 -172 -195 -22 -46 -22 -57 -25 -504
l-3 -458 86 0 85 0 0 413 c0 264 4 426 11 451 11 42 72 113 138 161 60 44 60
56 4 125 -26 33 -50 60 -54 60 -3 0 -34 -24 -70 -53z"/>
<path d="M1696 4918 c-4 -19 -48 -302 -178 -1156 -11 -73 -18 -135 -16 -138 3
-2 43 2 89 9 l84 13 16 129 c9 72 24 195 33 275 82 718 83 723 111 747 l26 23
750 0 c805 0 792 1 819 -49 5 -11 14 -62 20 -113 5 -51 16 -158 25 -238 8 -80
24 -237 36 -350 11 -113 25 -243 31 -290 6 -47 12 -245 15 -441 4 -321 3 -358
-12 -373 -18 -18 -17 -17 -222 -17 -79 0 -143 -1 -143 -3 0 -2 20 -40 45 -85
80 -141 146 -325 180 -501 31 -158 30 -553 -1 -635 -5 -13 28 -15 248 -15
l254 0 16 79 c52 247 218 497 417 631 404 270 928 221 1269 -120 l72 -72 0
418 c0 258 -4 433 -10 456 -13 44 -51 93 -89 112 -27 14 -52 20 -536 111
-1099 206 -1320 248 -1323 250 -2 2 -59 448 -96 760 -34 281 -66 542 -71 573
l-6 32 -924 0 -925 0 -4 -22z m2262 -1777 c3 -184 -1 -201 -44 -201 -49 0 -54
18 -54 194 0 180 3 189 60 184 l35 -3 3 -174z m160 -8 l2 -183 -24 -6 c-14 -3
-34 -3 -45 1 -20 6 -21 13 -21 184 0 98 3 181 7 185 4 4 23 6 43 4 l35 -3 3
-182z m170 8 c2 -119 -1 -178 -9 -187 -14 -17 -61 -18 -77 -2 -13 13 -18 349
-5 362 4 4 25 6 48 4 l40 -3 3 -174z m160 0 c3 -184 -1 -201 -44 -201 -50 0
-54 18 -52 193 2 89 7 168 11 175 6 8 23 12 45 10 l37 -3 3 -174z"/>
<path d="M3182 3628 c-112 -112 -207 -212 -212 -223 -4 -11 -4 -28 2 -37 18
-36 51 -20 138 67 47 47 89 85 95 85 5 0 81 -73 167 -162 l157 -163 1 45 c0
44 -1 46 -142 187 l-143 143 98 98 c100 100 116 131 78 152 -11 5 -23 10 -27
10 -5 0 -100 -91 -212 -202z"/>
<path d="M4010 3660 c0 -60 2 -110 4 -110 4 0 142 -27 184 -36 22 -4 22 -4 22
126 l0 130 -105 0 -105 0 0 -110z"/>
<path d="M1623 3595 c-582 -89 -1060 -490 -1254 -1052 -30 -88 -31 -94 -15
-118 20 -30 56 -33 79 -7 10 10 17 22 17 26 0 3 15 46 34 94 141 360 423 658
786 831 215 102 439 148 675 138 205 -9 393 -62 585 -164 77 -41 197 -117 210
-133 3 -3 33 -30 68 -60 77 -66 185 -192 241 -281 91 -145 171 -351 208 -534
25 -128 25 -446 0 -564 -10 -47 -16 -94 -13 -107 7 -28 44 -38 73 -19 27 18
39 58 59 200 33 222 4 496 -77 741 -124 374 -395 686 -752 865 -123 62 -271
115 -377 134 -129 23 -424 29 -547 10z"/>
<path d="M1495 3380 c-32 -12 -48 -37 -50 -77 -3 -36 -5 -38 -76 -69 -91 -39
-185 -93 -262 -151 -56 -42 -60 -43 -83 -29 -79 53 -173 -43 -119 -121 14 -20
12 -26 -40 -95 -55 -73 -135 -216 -159 -285 -11 -33 -17 -37 -50 -39 -50 -1
-86 -36 -86 -84 0 -35 13 -55 52 -83 16 -11 17 -21 6 -130 -9 -90 -9 -141 0
-224 l12 -107 -35 -29 c-67 -55 -37 -142 54 -154 24 -3 41 -11 41 -19 0 -27
112 -233 165 -302 52 -69 54 -75 40 -95 -55 -79 43 -177 122 -122 20 14 26 12
90 -36 82 -61 173 -113 262 -149 55 -23 65 -31 63 -48 -2 -12 4 -35 13 -52 30
-59 106 -63 148 -8 l24 30 114 -11 c79 -8 145 -8 214 -1 131 13 135 12 135 -4
0 -22 49 -56 81 -56 15 0 41 12 58 26 25 21 31 33 31 65 0 22 5 39 11 39 17 0
178 77 234 113 27 17 74 49 103 71 39 29 56 36 61 27 5 -7 26 -15 47 -18 73
-9 120 55 89 121 l-16 33 73 109 c41 60 91 148 112 195 38 85 40 87 79 92 55
7 82 37 82 88 0 40 -15 61 -62 87 -11 6 -11 19 -2 67 11 61 7 329 -6 372 -6
18 -2 25 17 32 49 18 69 71 44 119 -16 31 -66 58 -91 48 -12 -4 -26 17 -60 89
-46 101 -121 223 -163 267 l-25 28 18 39 c15 35 16 45 5 71 -23 57 -81 77
-128 44 -12 -8 -27 -12 -34 -8 -6 4 -45 32 -87 62 -78 56 -198 120 -263 141
-34 11 -38 16 -38 48 0 44 -45 93 -87 93 -32 0 -65 -24 -82 -58 -7 -12 -16
-20 -20 -17 -23 14 -230 22 -331 13 l-110 -10 -34 36 c-34 36 -60 43 -101 26z
m584 -613 c339 -122 533 -473 451 -816 -56 -231 -233 -425 -456 -500 -361
-120 -755 72 -880 430 -133 382 86 793 480 900 108 29 303 22 405 -14z"/>
<path d="M1781 2430 c-58 -12 -146 -66 -182 -112 -79 -98 -97 -231 -47 -339
103 -223 393 -263 551 -78 122 142 94 364 -59 472 -78 55 -173 75 -263 57z"/>
<path d="M4778 2539 c-326 -48 -602 -258 -748 -570 -38 -82 -84 -261 -76 -295
8 -29 57 -57 64 -36 2 7 7 10 12 7 10 -6 26 35 40 100 14 65 62 182 105 259
81 145 220 277 370 351 120 59 187 75 331 82 139 6 224 -5 323 -44 281 -112
462 -342 551 -700 16 -64 67 -81 98 -33 23 37 -21 205 -90 345 -188 379 -581
593 -980 534z"/>
<path d="M4682 2288 c-6 -6 -12 -27 -12 -45 0 -30 -5 -36 -45 -53 -25 -11 -72
-38 -105 -60 -57 -39 -62 -40 -82 -25 -29 19 -52 19 -72 -1 -20 -20 -20 -53 0
-75 14 -16 12 -21 -20 -67 -20 -27 -47 -74 -62 -106 -24 -52 -28 -56 -60 -56
-64 0 -82 -77 -23 -99 19 -6 21 -17 22 -134 2 -126 2 -128 -21 -134 -29 -7
-46 -47 -32 -73 12 -22 43 -34 69 -25 15 5 22 -1 30 -28 6 -18 34 -68 62 -110
46 -71 49 -78 34 -93 -21 -21 -16 -63 10 -80 17 -11 25 -11 52 3 32 15 33 14
95 -26 35 -23 82 -49 105 -59 40 -16 43 -20 43 -54 0 -28 5 -40 21 -48 31 -17
65 -4 78 28 12 28 13 29 64 20 29 -5 84 -6 122 -2 69 6 71 5 83 -20 26 -57
109 -35 99 28 -4 26 0 30 47 51 28 13 76 39 106 60 53 36 55 36 82 20 56 -33
104 13 73 71 -17 31 -17 32 19 81 20 28 47 75 62 107 22 49 28 55 49 50 62
-15 93 61 38 93 l-28 16 0 128 c0 110 2 129 15 129 24 0 40 21 40 50 0 35 -17
50 -57 50 -30 0 -35 5 -62 61 -17 33 -44 79 -61 103 -31 42 -31 43 -14 73 17
29 17 32 1 57 -20 30 -38 32 -77 9 -27 -16 -29 -15 -62 12 -18 15 -64 43 -103
62 -64 31 -70 35 -67 62 6 59 -65 85 -95 34 l-15 -28 -125 1 c-121 0 -125 1
-136 25 -14 27 -64 38 -85 17z m318 -394 c209 -62 307 -287 209 -484 -35 -69
-91 -122 -169 -158 -80 -38 -191 -37 -277 2 -73 33 -144 104 -175 174 -29 64
-35 176 -14 238 63 184 245 282 426 228z"/>
<path d="M4833 1703 c-50 -28 -76 -69 -81 -127 -10 -136 144 -213 251 -125 64
53 73 147 20 210 -49 57 -129 75 -190 42z"/>
</g>
</svg>
