<svg width="1175.6187499999999px" height="47.599999999999994px" xmlns="http://www.w3.org/2000/svg" viewBox="-337.80937499999993 51.2 1175.6187499999999 47.599999999999994" style="background: rgba(0, 0, 0, 0);" preserveAspectRatio="xMidYMid"><defs><filter id="editing-extrusion" x="-100%" y="-100%" width="300%" height="300%"><feFlood result="color1" flood-color="#e3097e"></feFlood><feConvolveMatrix order="2,2" divisor="1" kernelMatrix="1 0 0 1" in="SourceAlpha" result="extrude"></feConvolveMatrix><feComposite in="color1" in2="extrude" result="comp-extrude" operator="in"></feComposite><feOffset dx="1" dy="1" in="comp-extrude" result="offset-extrude"></feOffset><feMerge><feMergeNode in="offset-extrude"></feMergeNode><feMergeNode in="SourceGraphic"></feMergeNode></feMerge></filter></defs><g filter="url(#editing-extrusion)"><g transform="translate(-174.8099884390831, 84.61118030548096)"><path d="M2.67-11.52L7.46-5.82L12.24-11.52L14.02-11.52L14.02 0L12.72 0L12.72-10.05L7.46-3.79L2.19-10.05L2.19 0L0.90 0L0.90-11.52L2.67-11.52ZM16.99 0L15.68 0L15.68-9.28L16.99-9.28L16.99 0ZM15.68-11.01L15.68-12.32L16.99-12.32L16.99-11.01L15.68-11.01ZM18.80-9.28L26.32-9.28L26.32-9.28Q27.12-9.28 27.69-8.71L27.69-8.71L27.69-8.71Q28.26-8.14 28.26-7.34L28.26-7.34L28.26 0L26.94 0L26.94-7.34L26.94-7.34Q26.94-7.60 26.76-7.78L26.76-7.78L26.76-7.78Q26.58-7.97 26.32-7.97L26.32-7.97L20.75-7.97L20.75-7.97Q20.50-7.97 20.30-7.78L20.30-7.78L20.30-7.78Q20.11-7.60 20.11-7.34L20.11-7.34L20.11 0L18.80 0L18.80-9.28ZM31.22 0L29.90 0L29.90-9.28L31.22-9.28L31.22 0ZM29.90-11.01L29.90-12.32L31.22-12.32L31.22-11.01L29.90-11.01ZM39.60-11.52L39.60-11.52L47.28-11.52L47.28-11.52Q48.08-11.52 48.64-10.96L48.64-10.96L48.64-10.96Q49.20-10.40 49.20-9.60L49.20-9.60L49.20 0L47.90 0L47.90-4.21L38.98-4.21L38.98 0L37.68 0L37.68-9.60L37.68-9.60Q37.68-10.40 38.24-10.96L38.24-10.96L38.24-10.96Q38.80-11.52 39.60-11.52ZM38.98-9.60L38.98-5.50L47.90-5.50L47.90-9.60L47.90-9.60Q47.90-9.86 47.72-10.04L47.72-10.04L47.72-10.04Q47.54-10.22 47.28-10.22L47.28-10.22L39.60-10.22L39.60-10.22Q39.34-10.22 39.16-10.04L39.16-10.04L39.16-10.04Q38.98-9.86 38.98-9.60L38.98-9.60ZM50.99-9.28L58.51-9.28L58.51-9.28Q59.31-9.28 59.88-8.71L59.88-8.71L59.88-8.71Q60.45-8.14 60.45-7.34L60.45-7.34L60.45-1.94L60.45-1.94Q60.45-1.14 59.88-0.57L59.88-0.57L59.88-0.57Q59.31 0 58.51 0L58.51 0L52.30 0L52.30 3.68L50.99 3.68L50.99-9.28ZM59.14-1.94L59.14-1.94L59.14-7.34L59.14-7.34Q59.14-7.60 58.95-7.78L58.95-7.78L58.95-7.78Q58.77-7.97 58.51-7.97L58.51-7.97L52.94-7.97L52.94-7.97Q52.69-7.97 52.50-7.78L52.50-7.78L52.50-7.78Q52.30-7.60 52.30-7.34L52.30-7.34L52.30-1.94L52.30-1.94Q52.30-1.68 52.50-1.50L52.50-1.50L52.50-1.50Q52.69-1.31 52.94-1.31L52.94-1.31L58.51-1.31L58.51-1.31Q58.77-1.31 58.95-1.50L58.95-1.50L58.95-1.50Q59.14-1.68 59.14-1.94ZM61.62-9.28L69.14-9.28L69.14-9.28Q69.94-9.28 70.50-8.71L70.50-8.71L70.50-8.71Q71.07-8.14 71.07-7.34L71.07-7.34L71.07-1.94L71.07-1.94Q71.07-1.14 70.50-0.57L70.50-0.57L70.50-0.57Q69.94 0 69.14 0L69.14 0L62.93 0L62.93 3.68L61.62 3.68L61.62-9.28ZM69.76-1.94L69.76-1.94L69.76-7.34L69.76-7.34Q69.76-7.60 69.58-7.78L69.58-7.78L69.58-7.78Q69.39-7.97 69.14-7.97L69.14-7.97L63.57-7.97L63.57-7.97Q63.31-7.97 63.12-7.78L63.12-7.78L63.12-7.78Q62.93-7.60 62.93-7.34L62.93-7.34L62.93-1.94L62.93-1.94Q62.93-1.68 63.12-1.50L63.12-1.50L63.12-1.50Q63.31-1.31 63.57-1.31L63.57-1.31L69.14-1.31L69.14-1.31Q69.39-1.31 69.58-1.50L69.58-1.50L69.58-1.50Q69.76-1.68 69.76-1.94ZM72.21-1.94L72.21-12.32L73.52-12.32L73.52-1.94L73.52-1.94Q73.52-1.68 73.70-1.50L73.70-1.50L73.70-1.50Q73.89-1.31 74.14-1.31L74.14-1.31L75.71-1.31L75.71 0L74.14 0L74.14 0Q73.34 0 72.78-0.57L72.78-0.57L72.78-0.57Q72.21-1.14 72.21-1.94L72.21-1.94ZM78.35 0L77.04 0L77.04-9.28L78.35-9.28L78.35 0ZM77.04-11.01L77.04-12.32L78.35-12.32L78.35-11.01L77.04-11.01ZM82.05-1.31L82.05-1.31L89.57-1.31L89.57 0L82.05 0L82.05 0Q81.25 0 80.68-0.57L80.68-0.57L80.68-0.57Q80.11-1.14 80.11-1.94L80.11-1.94L80.11-7.34L80.11-7.34Q80.11-8.14 80.68-8.71L80.68-8.71L80.68-8.71Q81.25-9.28 82.05-9.28L82.05-9.28L89.54-9.28L89.54-7.97L82.05-7.97L82.05-7.97Q81.79-7.97 81.61-7.78L81.61-7.78L81.61-7.78Q81.42-7.60 81.42-7.34L81.42-7.34L81.42-1.94L81.42-1.94Q81.42-1.68 81.61-1.50L81.61-1.50L81.61-1.50Q81.79-1.31 82.05-1.31ZM91.25-9.28L98.75-9.28L98.75-9.28Q99.57-9.28 100.14-8.71L100.14-8.71L100.14-8.71Q100.70-8.14 100.70-7.34L100.70-7.34L100.70 0L93.18 0L93.18 0Q92.38 0 91.82-0.57L91.82-0.57L91.82-0.57Q91.25-1.14 91.25-1.94L91.25-1.94L91.25-5.30L99.38-5.30L99.38-7.34L99.38-7.34Q99.38-7.60 99.19-7.78L99.19-7.78L99.19-7.78Q99.01-7.97 98.75-7.97L98.75-7.97L91.25-7.97L91.25-9.28ZM93.18-1.31L99.38-1.31L99.38-3.98L92.56-3.98L92.56-1.94L92.56-1.94Q92.56-1.68 92.74-1.50L92.74-1.50L92.74-1.50Q92.93-1.31 93.18-1.31L93.18-1.31ZM107.70-9.28L107.70-7.97L103.68-7.97L103.68-1.94L103.68-1.94Q103.68-1.68 103.86-1.50L103.86-1.50L103.86-1.50Q104.05-1.31 104.30-1.31L104.30-1.31L107.70-1.31L107.70 0L104.30 0L104.30 0Q103.49 0 102.93-0.57L102.93-0.57L102.93-0.57Q102.37-1.14 102.37-1.94L102.37-1.94L102.37-12.32L103.68-12.32L103.68-9.28L107.70-9.28ZM110.30 0L108.99 0L108.99-9.28L110.30-9.28L110.30 0ZM108.99-11.01L108.99-12.32L110.30-12.32L110.30-11.01L108.99-11.01ZM114.24-9.28L114.24-9.28L119.81-9.28L119.81-9.28Q120.62-9.28 121.19-8.71L121.19-8.71L121.19-8.71Q121.76-8.14 121.76-7.34L121.76-7.34L121.76-1.94L121.76-1.94Q121.76-1.14 121.19-0.57L121.19-0.57L121.19-0.57Q120.62 0 119.81 0L119.81 0L114.24 0L114.24 0Q113.44 0 112.87-0.57L112.87-0.57L112.87-0.57Q112.30-1.14 112.30-1.94L112.30-1.94L112.30-7.34L112.30-7.34Q112.30-8.14 112.87-8.71L112.87-8.71L112.87-8.71Q113.44-9.28 114.24-9.28ZM119.81-7.97L119.81-7.97L114.24-7.97L114.24-7.97Q113.98-7.97 113.80-7.78L113.80-7.78L113.80-7.78Q113.62-7.60 113.62-7.34L113.62-7.34L113.62-1.94L113.62-1.94Q113.62-1.68 113.80-1.50L113.80-1.50L113.80-1.50Q113.98-1.31 114.24-1.31L114.24-1.31L119.81-1.31L119.81-1.31Q120.06-1.31 120.25-1.50L120.25-1.50L120.25-1.50Q120.43-1.68 120.43-1.94L120.43-1.94L120.43-7.34L120.43-7.34Q120.43-7.60 120.25-7.78L120.25-7.78L120.25-7.78Q120.06-7.97 119.81-7.97ZM123.18-9.28L130.70-9.28L130.70-9.28Q131.50-9.28 132.07-8.71L132.07-8.71L132.07-8.71Q132.64-8.14 132.64-7.34L132.64-7.34L132.64 0L131.33 0L131.33-7.34L131.33-7.34Q131.33-7.60 131.14-7.78L131.14-7.78L131.14-7.78Q130.96-7.97 130.70-7.97L130.70-7.97L125.14-7.97L125.14-7.97Q124.88-7.97 124.69-7.78L124.69-7.78L124.69-7.78Q124.50-7.60 124.50-7.34L124.50-7.34L124.50 0L123.18 0L123.18-9.28ZM150.19-11.52L150.19-10.22L140.62-10.22L140.62-10.22Q140.37-10.22 140.18-10.04L140.18-10.04L140.18-10.04Q140.00-9.86 140.00-9.60L140.00-9.60L140.00-1.92L140.00-1.92Q140.00-1.66 140.18-1.48L140.18-1.48L140.18-1.48Q140.37-1.30 140.62-1.30L140.62-1.30L150.19-1.30L150.19 0L140.62 0L140.62 0Q139.82 0 139.26-0.56L139.26-0.56L139.26-0.56Q138.70-1.12 138.70-1.92L138.70-1.92L138.70-9.60L138.70-9.60Q138.70-10.40 139.26-10.96L139.26-10.96L139.26-10.96Q139.82-11.52 140.62-11.52L140.62-11.52L150.19-11.52ZM151.79-9.28L159.30-9.28L159.30-9.28Q160.11-9.28 160.68-8.71L160.68-8.71L160.68-8.71Q161.25-8.14 161.25-7.34L161.25-7.34L161.25 0L153.73 0L153.73 0Q152.93 0 152.36-0.57L152.36-0.57L152.36-0.57Q151.79-1.14 151.79-1.94L151.79-1.94L151.79-5.30L159.92-5.30L159.92-7.34L159.92-7.34Q159.92-7.60 159.74-7.78L159.74-7.78L159.74-7.78Q159.55-7.97 159.30-7.97L159.30-7.97L151.79-7.97L151.79-9.28ZM153.73-1.31L159.92-1.31L159.92-3.98L153.10-3.98L153.10-1.94L153.10-1.94Q153.10-1.68 153.29-1.50L153.29-1.50L153.29-1.50Q153.47-1.31 153.73-1.31L153.73-1.31ZM164.75-9.28L164.75-9.28L169.97-9.28L169.97-7.97L164.75-7.97L164.75-7.97Q164.50-7.97 164.31-7.78L164.31-7.78L164.31-7.78Q164.13-7.60 164.13-7.34L164.13-7.34L164.13 0L162.82 0L162.82-7.34L162.82-7.34Q162.82-8.14 163.38-8.71L163.38-8.71L163.38-8.71Q163.95-9.28 164.75-9.28ZM171.01-9.28L178.51-9.28L178.51-9.28Q179.33-9.28 179.90-8.71L179.90-8.71L179.90-8.71Q180.46-8.14 180.46-7.34L180.46-7.34L180.46 0L172.94 0L172.94 0Q172.14 0 171.58-0.57L171.58-0.57L171.58-0.57Q171.01-1.14 171.01-1.94L171.01-1.94L171.01-5.30L179.14-5.30L179.14-7.34L179.14-7.34Q179.14-7.60 178.95-7.78L178.95-7.78L178.95-7.78Q178.77-7.97 178.51-7.97L178.51-7.97L171.01-7.97L171.01-9.28ZM172.94-1.31L179.14-1.31L179.14-3.98L172.32-3.98L172.32-1.94L172.32-1.94Q172.32-1.68 172.50-1.50L172.50-1.50L172.50-1.50Q172.69-1.31 172.94-1.31L172.94-1.31ZM181.82-9.28L194.08-9.28L194.08-9.28Q194.90-9.28 195.46-8.71L195.46-8.71L195.46-8.71Q196.02-8.14 196.02-7.34L196.02-7.34L196.02 0L194.72 0L194.72-7.34L194.72-7.34Q194.72-7.60 194.53-7.78L194.53-7.78L194.53-7.78Q194.34-7.97 194.08-7.97L194.08-7.97L190.22-7.97L190.22-7.97Q189.97-7.97 189.78-7.78L189.78-7.78L189.78-7.78Q189.60-7.60 189.60-7.34L189.60-7.34L189.60 0L188.27 0L188.27-7.34L188.27-7.34Q188.27-7.60 188.09-7.78L188.09-7.78L188.09-7.78Q187.90-7.97 187.65-7.97L187.65-7.97L183.78-7.97L183.78-7.97Q183.52-7.97 183.34-7.78L183.34-7.78L183.34-7.78Q183.15-7.60 183.15-7.34L183.15-7.34L183.15 0L181.82 0L181.82-9.28ZM198.78-9.28L204.99-9.28L204.99-9.28Q205.79-9.28 206.36-8.71L206.36-8.71L206.36-8.71Q206.93-8.14 206.93-7.34L206.93-7.34L206.93-1.94L206.93-1.94Q206.93-1.14 206.36-0.57L206.36-0.57L206.36-0.57Q205.79 0 204.99 0L204.99 0L197.47 0L197.47-12.32L198.78-12.32L198.78-9.28ZM205.62-1.94L205.62-1.94L205.62-7.34L205.62-7.34Q205.62-7.60 205.43-7.78L205.43-7.78L205.43-7.78Q205.25-7.97 204.99-7.97L204.99-7.97L199.42-7.97L199.42-7.97Q199.17-7.97 198.98-7.78L198.98-7.78L198.98-7.78Q198.78-7.60 198.78-7.34L198.78-7.34L198.78-1.94L198.78-1.94Q198.78-1.68 198.98-1.50L198.98-1.50L198.98-1.50Q199.17-1.31 199.42-1.31L199.42-1.31L204.99-1.31L204.99-1.31Q205.25-1.31 205.43-1.50L205.43-1.50L205.43-1.50Q205.62-1.68 205.62-1.94ZM208.11-9.28L215.62-9.28L215.62-9.28Q216.43-9.28 217.00-8.71L217.00-8.71L217.00-8.71Q217.57-8.14 217.57-7.34L217.57-7.34L217.57 0L210.05 0L210.05 0Q209.25 0 208.68-0.57L208.68-0.57L208.68-0.57Q208.11-1.14 208.11-1.94L208.11-1.94L208.11-5.30L216.24-5.30L216.24-7.34L216.24-7.34Q216.24-7.60 216.06-7.78L216.06-7.78L216.06-7.78Q215.87-7.97 215.62-7.97L215.62-7.97L208.11-7.97L208.11-9.28ZM210.05-1.31L216.24-1.31L216.24-3.98L209.42-3.98L209.42-1.94L209.42-1.94Q209.42-1.68 209.61-1.50L209.61-1.50L209.61-1.50Q209.79-1.31 210.05-1.31L210.05-1.31ZM221.07-9.28L221.07-9.28L226.29-9.28L226.29-7.97L221.07-7.97L221.07-7.97Q220.82-7.97 220.63-7.78L220.63-7.78L220.63-7.78Q220.45-7.60 220.45-7.34L220.45-7.34L220.45 0L219.14 0L219.14-7.34L219.14-7.34Q219.14-8.14 219.70-8.71L219.70-8.71L219.70-8.71Q220.27-9.28 221.07-9.28ZM232.93-11.52L238.83-1.26L244.72-11.52L246.24-11.52L239.58 0L238.08 0L231.41-11.52L232.93-11.52ZM249.65-9.28L255.22-9.28L255.22-9.28Q256.03-9.28 256.60-8.71L256.60-8.71L256.60-8.71Q257.17-8.14 257.17-7.34L257.17-7.34L257.17-3.98L249.02-3.98L249.02-1.94L249.02-1.94Q249.02-1.68 249.21-1.50L249.21-1.50L249.21-1.50Q249.39-1.31 249.65-1.31L249.65-1.31L257.17-1.31L257.17 0L249.65 0L249.65 0Q248.85 0 248.28-0.57L248.28-0.57L248.28-0.57Q247.71-1.14 247.71-1.94L247.71-1.94L247.71-7.34L247.71-7.34Q247.71-8.14 248.28-8.71L248.28-8.71L248.28-8.71Q248.85-9.28 249.65-9.28L249.65-9.28ZM249.02-7.34L249.02-5.30L255.84-5.30L255.84-7.34L255.84-7.34Q255.84-7.60 255.66-7.78L255.66-7.78L255.66-7.78Q255.47-7.97 255.22-7.97L255.22-7.97L249.65-7.97L249.65-7.97Q249.39-7.97 249.21-7.78L249.21-7.78L249.21-7.78Q249.02-7.60 249.02-7.34L249.02-7.34ZM260.66-9.28L260.66-9.28L265.87-9.28L265.87-7.97L260.66-7.97L260.66-7.97Q260.40-7.97 260.22-7.78L260.22-7.78L260.22-7.78Q260.03-7.60 260.03-7.34L260.03-7.34L260.03 0L258.72 0L258.72-7.34L258.72-7.34Q258.72-8.14 259.29-8.71L259.29-8.71L259.29-8.71Q259.86-9.28 260.66-9.28ZM276.30-7.34L276.30-7.34L276.30-7.22L274.98-7.22L274.98-7.34L274.98-7.34Q274.98-7.60 274.79-7.78L274.79-7.78L274.79-7.78Q274.61-7.97 274.35-7.97L274.35-7.97L268.78-7.97L268.78-7.97Q268.53-7.97 268.34-7.78L268.34-7.78L268.34-7.78Q268.16-7.60 268.16-7.34L268.16-7.34L268.16-5.92L268.16-5.92Q268.16-5.66 268.34-5.48L268.34-5.48L268.34-5.48Q268.53-5.30 268.78-5.30L268.78-5.30L274.35-5.30L274.35-5.30Q275.17-5.30 275.74-4.73L275.74-4.73L275.74-4.73Q276.30-4.16 276.30-3.36L276.30-3.36L276.30-1.94L276.30-1.94Q276.30-1.14 275.74-0.57L275.74-0.57L275.74-0.57Q275.17 0 274.35 0L274.35 0L268.78 0L268.78 0Q267.98 0 267.42-0.57L267.42-0.57L267.42-0.57Q266.85-1.14 266.85-1.94L266.85-1.94L266.85-2.06L268.16-2.06L268.16-1.94L268.16-1.94Q268.16-1.68 268.34-1.50L268.34-1.50L268.34-1.50Q268.53-1.31 268.78-1.31L268.78-1.31L274.35-1.31L274.35-1.31Q274.61-1.31 274.79-1.50L274.79-1.50L274.79-1.50Q274.98-1.68 274.98-1.94L274.98-1.94L274.98-3.36L274.98-3.36Q274.98-3.62 274.79-3.80L274.79-3.80L274.79-3.80Q274.61-3.98 274.35-3.98L274.35-3.98L268.78-3.98L268.78-3.98Q267.98-3.98 267.42-4.55L267.42-4.55L267.42-4.55Q266.85-5.12 266.85-5.92L266.85-5.92L266.85-7.34L266.85-7.34Q266.85-8.14 267.42-8.71L267.42-8.71L267.42-8.71Q267.98-9.28 268.78-9.28L268.78-9.28L274.35-9.28L274.35-9.28Q275.17-9.28 275.74-8.71L275.74-8.71L275.74-8.71Q276.30-8.14 276.30-7.34ZM279.20 0L277.89 0L277.89-9.28L279.20-9.28L279.20 0ZM277.89-11.01L277.89-12.32L279.20-12.32L279.20-11.01L277.89-11.01ZM283.14-9.28L283.14-9.28L288.70-9.28L288.70-9.28Q289.52-9.28 290.09-8.71L290.09-8.71L290.09-8.71Q290.66-8.14 290.66-7.34L290.66-7.34L290.66-1.94L290.66-1.94Q290.66-1.14 290.09-0.57L290.09-0.57L290.09-0.57Q289.52 0 288.70 0L288.70 0L283.14 0L283.14 0Q282.34 0 281.77-0.57L281.77-0.57L281.77-0.57Q281.20-1.14 281.20-1.94L281.20-1.94L281.20-7.34L281.20-7.34Q281.20-8.14 281.77-8.71L281.77-8.71L281.77-8.71Q282.34-9.28 283.14-9.28ZM288.70-7.97L288.70-7.97L283.14-7.97L283.14-7.97Q282.88-7.97 282.70-7.78L282.70-7.78L282.70-7.78Q282.51-7.60 282.51-7.34L282.51-7.34L282.51-1.94L282.51-1.94Q282.51-1.68 282.70-1.50L282.70-1.50L282.70-1.50Q282.88-1.31 283.14-1.31L283.14-1.31L288.70-1.31L288.70-1.31Q288.96-1.31 289.14-1.50L289.14-1.50L289.14-1.50Q289.33-1.68 289.33-1.94L289.33-1.94L289.33-7.34L289.33-7.34Q289.33-7.60 289.14-7.78L289.14-7.78L289.14-7.78Q288.96-7.97 288.70-7.97ZM292.08-9.28L299.60-9.28L299.60-9.28Q300.40-9.28 300.97-8.71L300.97-8.71L300.97-8.71Q301.54-8.14 301.54-7.34L301.54-7.34L301.54 0L300.22 0L300.22-7.34L300.22-7.34Q300.22-7.60 300.04-7.78L300.04-7.78L300.04-7.78Q299.86-7.97 299.60-7.97L299.60-7.97L294.03-7.97L294.03-7.97Q293.78-7.97 293.58-7.78L293.58-7.78L293.58-7.78Q293.39-7.60 293.39-7.34L293.39-7.34L293.39 0L292.08 0L292.08-9.28ZM303.22-9.28L310.74-9.28L310.74-9.28Q311.54-9.28 312.10-8.71L312.10-8.71L312.10-8.71Q312.67-8.14 312.67-7.34L312.67-7.34L312.67 0L311.36 0L311.36-7.34L311.36-7.34Q311.36-7.60 311.18-7.78L311.18-7.78L311.18-7.78Q310.99-7.97 310.74-7.97L310.74-7.97L305.17-7.97L305.17-7.97Q304.91-7.97 304.72-7.78L304.72-7.78L304.72-7.78Q304.53-7.60 304.53-7.34L304.53-7.34L304.53 0L303.22 0L303.22-9.28ZM316.24-9.28L321.81-9.28L321.81-9.28Q322.62-9.28 323.19-8.71L323.19-8.71L323.19-8.71Q323.76-8.14 323.76-7.34L323.76-7.34L323.76-3.98L315.62-3.98L315.62-1.94L315.62-1.94Q315.62-1.68 315.80-1.50L315.80-1.50L315.80-1.50Q315.98-1.31 316.24-1.31L316.24-1.31L323.76-1.31L323.76 0L316.24 0L316.24 0Q315.44 0 314.87-0.57L314.87-0.57L314.87-0.57Q314.30-1.14 314.30-1.94L314.30-1.94L314.30-7.34L314.30-7.34Q314.30-8.14 314.87-8.71L314.87-8.71L314.87-8.71Q315.44-9.28 316.24-9.28L316.24-9.28ZM315.62-7.34L315.62-5.30L322.43-5.30L322.43-7.34L322.43-7.34Q322.43-7.60 322.25-7.78L322.25-7.78L322.25-7.78Q322.06-7.97 321.81-7.97L321.81-7.97L316.24-7.97L316.24-7.97Q315.98-7.97 315.80-7.78L315.80-7.78L315.80-7.78Q315.62-7.60 315.62-7.34L315.62-7.34ZM318.69-12.22L317.41-12.22L317.97-14.45L319.23-14.45L318.69-12.22ZM326.45-9.28L332.02-9.28L332.02-9.28Q332.83-9.28 333.40-8.71L333.40-8.71L333.40-8.71Q333.97-8.14 333.97-7.34L333.97-7.34L333.97-3.98L325.82-3.98L325.82-1.94L325.82-1.94Q325.82-1.68 326.01-1.50L326.01-1.50L326.01-1.50Q326.19-1.31 326.45-1.31L326.45-1.31L333.97-1.31L333.97 0L326.45 0L326.45 0Q325.65 0 325.08-0.57L325.08-0.57L325.08-0.57Q324.51-1.14 324.51-1.94L324.51-1.94L324.51-7.34L324.51-7.34Q324.51-8.14 325.08-8.71L325.08-8.71L325.08-8.71Q325.65-9.28 326.45-9.28L326.45-9.28ZM325.82-7.34L325.82-5.30L332.64-5.30L332.64-7.34L332.64-7.34Q332.64-7.60 332.46-7.78L332.46-7.78L332.46-7.78Q332.27-7.97 332.02-7.97L332.02-7.97L326.45-7.97L326.45-7.97Q326.19-7.97 326.01-7.78L326.01-7.78L326.01-7.78Q325.82-7.60 325.82-7.34L325.82-7.34ZM334.86 0L334.86-1.70L342.96-11.52L342.96-9.86L334.86 0ZM344.03 0L344.03-11.52L353.63-11.52L353.63-11.52Q354.43-11.52 354.99-10.96L354.99-10.96L354.99-10.96Q355.55-10.40 355.55-9.60L355.55-9.60L355.55-1.92L355.55-1.92Q355.55-1.12 354.99-0.56L354.99-0.56L354.99-0.56Q354.43 0 353.63 0L353.63 0L344.03 0ZM354.26-1.92L354.26-1.92L354.26-9.60L354.26-9.60Q354.26-9.86 354.07-10.04L354.07-10.04L354.07-10.04Q353.89-10.22 353.63-10.22L353.63-10.22L345.95-10.22L345.95-10.22Q345.70-10.22 345.51-10.04L345.51-10.04L345.51-10.04Q345.33-9.86 345.33-9.60L345.33-9.60L345.33-1.92L345.33-1.92Q345.33-1.66 345.51-1.48L345.51-1.48L345.51-1.48Q345.70-1.30 345.95-1.30L345.95-1.30L353.63-1.30L353.63-1.30Q353.89-1.30 354.07-1.48L354.07-1.48L354.07-1.48Q354.26-1.66 354.26-1.92ZM359.20-9.28L359.20-9.28L364.77-9.28L364.77-9.28Q365.58-9.28 366.15-8.71L366.15-8.71L366.15-8.71Q366.72-8.14 366.72-7.34L366.72-7.34L366.72-1.94L366.72-1.94Q366.72-1.14 366.15-0.57L366.15-0.57L366.15-0.57Q365.58 0 364.77 0L364.77 0L359.20 0L359.20 0Q358.40 0 357.83-0.57L357.83-0.57L357.83-0.57Q357.26-1.14 357.26-1.94L357.26-1.94L357.26-7.34L357.26-7.34Q357.26-8.14 357.83-8.71L357.83-8.71L357.83-8.71Q358.40-9.28 359.20-9.28ZM364.77-7.97L364.77-7.97L359.20-7.97L359.20-7.97Q358.94-7.97 358.76-7.78L358.76-7.78L358.76-7.78Q358.58-7.60 358.58-7.34L358.58-7.34L358.58-1.94L358.58-1.94Q358.58-1.68 358.76-1.50L358.76-1.50L358.76-1.50Q358.94-1.31 359.20-1.31L359.20-1.31L364.77-1.31L364.77-1.31Q365.02-1.31 365.21-1.50L365.21-1.50L365.21-1.50Q365.39-1.68 365.39-1.94L365.39-1.94L365.39-7.34L365.39-7.34Q365.39-7.60 365.21-7.78L365.21-7.78L365.21-7.78Q365.02-7.97 364.77-7.97ZM370.27-1.31L370.27-1.31L377.79-1.31L377.79 0L370.27 0L370.27 0Q369.47 0 368.90-0.57L368.90-0.57L368.90-0.57Q368.34-1.14 368.34-1.94L368.34-1.94L368.34-7.34L368.34-7.34Q368.34-8.14 368.90-8.71L368.90-8.71L368.90-8.71Q369.47-9.28 370.27-9.28L370.27-9.28L377.76-9.28L377.76-7.97L370.27-7.97L370.27-7.97Q370.02-7.97 369.83-7.78L369.83-7.78L369.83-7.78Q369.65-7.60 369.65-7.34L369.65-7.34L369.65-1.94L369.65-1.94Q369.65-1.68 369.83-1.50L369.83-1.50L369.83-1.50Q370.02-1.31 370.27-1.31ZM387.31-1.94L387.31-9.28L388.62-9.28L388.62-1.94L388.62-1.94Q388.62-1.14 388.06-0.57L388.06-0.57L388.06-0.57Q387.49 0 386.67 0L386.67 0L381.10 0L381.10 0Q380.30 0 379.74-0.57L379.74-0.57L379.74-0.57Q379.17-1.14 379.17-1.94L379.17-1.94L379.17-9.28L380.48-9.28L380.48-1.94L380.48-1.94Q380.48-1.68 380.66-1.50L380.66-1.50L380.66-1.50Q380.85-1.31 381.10-1.31L381.10-1.31L386.67-1.31L386.67-1.31Q386.93-1.31 387.12-1.50L387.12-1.50L387.12-1.50Q387.31-1.68 387.31-1.94L387.31-1.94ZM389.98-9.28L402.24-9.28L402.24-9.28Q403.06-9.28 403.62-8.71L403.62-8.71L403.62-8.71Q404.18-8.14 404.18-7.34L404.18-7.34L404.18 0L402.88 0L402.88-7.34L402.88-7.34Q402.88-7.60 402.69-7.78L402.69-7.78L402.69-7.78Q402.50-7.97 402.24-7.97L402.24-7.97L398.38-7.97L398.38-7.97Q398.13-7.97 397.94-7.78L397.94-7.78L397.94-7.78Q397.76-7.60 397.76-7.34L397.76-7.34L397.76 0L396.43 0L396.43-7.34L396.43-7.34Q396.43-7.60 396.25-7.78L396.25-7.78L396.25-7.78Q396.06-7.97 395.81-7.97L395.81-7.97L391.94-7.97L391.94-7.97Q391.68-7.97 391.50-7.78L391.50-7.78L391.50-7.78Q391.31-7.60 391.31-7.34L391.31-7.34L391.31 0L389.98 0L389.98-9.28ZM407.52-9.28L413.09-9.28L413.09-9.28Q413.90-9.28 414.47-8.71L414.47-8.71L414.47-8.71Q415.04-8.14 415.04-7.34L415.04-7.34L415.04-3.98L406.90-3.98L406.90-1.94L406.90-1.94Q406.90-1.68 407.08-1.50L407.08-1.50L407.08-1.50Q407.26-1.31 407.52-1.31L407.52-1.31L415.04-1.31L415.04 0L407.52 0L407.52 0Q406.72 0 406.15-0.57L406.15-0.57L406.15-0.57Q405.58-1.14 405.58-1.94L405.58-1.94L405.58-7.34L405.58-7.34Q405.58-8.14 406.15-8.71L406.15-8.71L406.15-8.71Q406.72-9.28 407.52-9.28L407.52-9.28ZM406.90-7.34L406.90-5.30L413.71-5.30L413.71-7.34L413.71-7.34Q413.71-7.60 413.53-7.78L413.53-7.78L413.53-7.78Q413.34-7.97 413.09-7.97L413.09-7.97L407.52-7.97L407.52-7.97Q407.26-7.97 407.08-7.78L407.08-7.78L407.08-7.78Q406.90-7.60 406.90-7.34L406.90-7.34ZM416.70-9.28L424.22-9.28L424.22-9.28Q425.02-9.28 425.59-8.71L425.59-8.71L425.59-8.71Q426.16-8.14 426.16-7.34L426.16-7.34L426.16 0L424.85 0L424.85-7.34L424.85-7.34Q424.85-7.60 424.66-7.78L424.66-7.78L424.66-7.78Q424.48-7.97 424.22-7.97L424.22-7.97L418.66-7.97L418.66-7.97Q418.40-7.97 418.21-7.78L418.21-7.78L418.21-7.78Q418.02-7.60 418.02-7.34L418.02-7.34L418.02 0L416.70 0L416.70-9.28ZM433.15-9.28L433.15-7.97L429.14-7.97L429.14-1.94L429.14-1.94Q429.14-1.68 429.32-1.50L429.32-1.50L429.32-1.50Q429.50-1.31 429.76-1.31L429.76-1.31L433.15-1.31L433.15 0L429.76 0L429.76 0Q428.94 0 428.38-0.57L428.38-0.57L428.38-0.57Q427.82-1.14 427.82-1.94L427.82-1.94L427.82-12.32L429.14-12.32L429.14-9.28L433.15-9.28ZM436.29-9.28L441.86-9.28L441.86-9.28Q442.67-9.28 443.24-8.71L443.24-8.71L443.24-8.71Q443.81-8.14 443.81-7.34L443.81-7.34L443.81-3.98L435.66-3.98L435.66-1.94L435.66-1.94Q435.66-1.68 435.85-1.50L435.85-1.50L435.85-1.50Q436.03-1.31 436.29-1.31L436.29-1.31L443.81-1.31L443.81 0L436.29 0L436.29 0Q435.49 0 434.92-0.57L434.92-0.57L434.92-0.57Q434.35-1.14 434.35-1.94L434.35-1.94L434.35-7.34L434.35-7.34Q434.35-8.14 434.92-8.71L434.92-8.71L434.92-8.71Q435.49-9.28 436.29-9.28L436.29-9.28ZM435.66-7.34L435.66-5.30L442.48-5.30L442.48-7.34L442.48-7.34Q442.48-7.60 442.30-7.78L442.30-7.78L442.30-7.78Q442.11-7.97 441.86-7.97L441.86-7.97L436.29-7.97L436.29-7.97Q436.03-7.97 435.85-7.78L435.85-7.78L435.85-7.78Q435.66-7.60 435.66-7.34L435.66-7.34ZM438.74-12.22L437.46-12.22L438.02-14.45L439.28-14.45L438.74-12.22ZM446.50-9.28L452.06-9.28L452.06-9.28Q452.88-9.28 453.45-8.71L453.45-8.71L453.45-8.71Q454.02-8.14 454.02-7.34L454.02-7.34L454.02-3.98L445.87-3.98L445.87-1.94L445.87-1.94Q445.87-1.68 446.06-1.50L446.06-1.50L446.06-1.50Q446.24-1.31 446.50-1.31L446.50-1.31L454.02-1.31L454.02 0L446.50 0L446.50 0Q445.70 0 445.13-0.57L445.13-0.57L445.13-0.57Q444.56-1.14 444.56-1.94L444.56-1.94L444.56-7.34L444.56-7.34Q444.56-8.14 445.13-8.71L445.13-8.71L445.13-8.71Q445.70-9.28 446.50-9.28L446.50-9.28ZM445.87-7.34L445.87-5.30L452.69-5.30L452.69-7.34L452.69-7.34Q452.69-7.60 452.50-7.78L452.50-7.78L452.50-7.78Q452.32-7.97 452.06-7.97L452.06-7.97L446.50-7.97L446.50-7.97Q446.24-7.97 446.06-7.78L446.06-7.78L446.06-7.78Q445.87-7.60 445.87-7.34L445.87-7.34ZM455.76-5.39L462.00-5.39L462.00-4.08L455.76-4.08L455.76-5.39ZM470.11-11.52L474.90-5.82L479.68-11.52L481.46-11.52L481.46 0L480.16 0L480.16-10.05L474.90-3.79L469.63-10.05L469.63 0L468.34 0L468.34-11.52L470.11-11.52ZM484.37-11.52L490.27-1.26L496.16-11.52L497.68-11.52L491.02 0L489.52 0L482.85-11.52L484.37-11.52ZM510.72-11.52L510.72-10.22L501.15-10.22L501.15-10.22Q500.90-10.22 500.71-10.04L500.71-10.04L500.71-10.04Q500.53-9.86 500.53-9.60L500.53-9.60L500.53-1.92L500.53-1.92Q500.53-1.66 500.71-1.48L500.71-1.48L500.71-1.48Q500.90-1.30 501.15-1.30L501.15-1.30L510.72-1.30L510.72 0L501.15 0L501.15 0Q500.35 0 499.79-0.56L499.79-0.56L499.79-0.56Q499.23-1.12 499.23-1.92L499.23-1.92L499.23-9.60L499.23-9.60Q499.23-10.40 499.79-10.96L499.79-10.96L499.79-10.96Q500.35-11.52 501.15-11.52L501.15-11.52L510.72-11.52ZM516.78-5.39L523.02-5.39L523.02-4.08L516.78-4.08L516.78-5.39ZM531.31-11.52L531.31-11.52L538.99-11.52L538.99-11.52Q539.79-11.52 540.35-10.96L540.35-10.96L540.35-10.96Q540.91-10.40 540.91-9.60L540.91-9.60L540.91 0L539.62 0L539.62-4.21L530.69-4.21L530.69 0L529.39 0L529.39-9.60L529.39-9.60Q529.39-10.40 529.95-10.96L529.95-10.96L529.95-10.96Q530.51-11.52 531.31-11.52ZM530.69-9.60L530.69-5.50L539.62-5.50L539.62-9.60L539.62-9.60Q539.62-9.86 539.43-10.04L539.43-10.04L539.43-10.04Q539.25-10.22 538.99-10.22L538.99-10.22L531.31-10.22L531.31-10.22Q531.06-10.22 530.87-10.04L530.87-10.04L530.87-10.04Q530.69-9.86 530.69-9.60L530.69-9.60ZM542.70-9.28L550.22-9.28L550.22-9.28Q551.02-9.28 551.59-8.71L551.59-8.71L551.59-8.71Q552.16-8.14 552.16-7.34L552.16-7.34L552.16-1.94L552.16-1.94Q552.16-1.14 551.59-0.57L551.59-0.57L551.59-0.57Q551.02 0 550.22 0L550.22 0L544.02 0L544.02 3.68L542.70 3.68L542.70-9.28ZM550.85-1.94L550.85-1.94L550.85-7.34L550.85-7.34Q550.85-7.60 550.66-7.78L550.66-7.78L550.66-7.78Q550.48-7.97 550.22-7.97L550.22-7.97L544.66-7.97L544.66-7.97Q544.40-7.97 544.21-7.78L544.21-7.78L544.21-7.78Q544.02-7.60 544.02-7.34L544.02-7.34L544.02-1.94L544.02-1.94Q544.02-1.68 544.21-1.50L544.21-1.50L544.21-1.50Q544.40-1.31 544.66-1.31L544.66-1.31L550.22-1.31L550.22-1.31Q550.48-1.31 550.66-1.50L550.66-1.50L550.66-1.50Q550.85-1.68 550.85-1.94ZM554.85 0L553.54 0L553.54-9.28L554.85-9.28L554.85 0ZM553.54-11.01L553.54-12.32L554.85-12.32L554.85-11.01L553.54-11.01ZM572.78-9.58L572.78-9.58L572.78-6.21L572.78-6.21Q572.78-5.41 572.22-4.85L572.22-4.85L572.22-4.85Q571.66-4.29 570.86-4.29L570.86-4.29L569.10-4.29L572.72 0L571.01 0L567.41-4.29L563.18-4.29L563.18-4.29Q563.04-4.29 562.56-4.35L562.56-4.35L562.56 0L561.26 0L561.26-11.50L570.86-11.50L570.86-11.50Q571.66-11.50 572.22-10.94L572.22-10.94L572.22-10.94Q572.78-10.38 572.78-9.58ZM563.18-5.60L563.18-5.60L570.86-5.60L570.86-5.60Q571.12-5.60 571.30-5.78L571.30-5.78L571.30-5.78Q571.47-5.95 571.47-6.21L571.47-6.21L571.47-9.58L571.47-9.58Q571.47-9.84 571.30-10.02L571.30-10.02L571.30-10.02Q571.12-10.21 570.86-10.21L570.86-10.21L563.18-10.21L563.18-10.21Q562.93-10.21 562.74-10.02L562.74-10.02L562.74-10.02Q562.56-9.84 562.56-9.58L562.56-9.58L562.56-6.21L562.56-6.21Q562.56-5.95 562.74-5.78L562.74-5.78L562.74-5.78Q562.93-5.60 563.18-5.60ZM576.34-9.28L581.90-9.28L581.90-9.28Q582.72-9.28 583.29-8.71L583.29-8.71L583.29-8.71Q583.86-8.14 583.86-7.34L583.86-7.34L583.86-3.98L575.71-3.98L575.71-1.94L575.71-1.94Q575.71-1.68 575.90-1.50L575.90-1.50L575.90-1.50Q576.08-1.31 576.34-1.31L576.34-1.31L583.86-1.31L583.86 0L576.34 0L576.34 0Q575.54 0 574.97-0.57L574.97-0.57L574.97-0.57Q574.40-1.14 574.40-1.94L574.40-1.94L574.40-7.34L574.40-7.34Q574.40-8.14 574.97-8.71L574.97-8.71L574.97-8.71Q575.54-9.28 576.34-9.28L576.34-9.28ZM575.71-7.34L575.71-5.30L582.53-5.30L582.53-7.34L582.53-7.34Q582.53-7.60 582.34-7.78L582.34-7.78L582.34-7.78Q582.16-7.97 581.90-7.97L581.90-7.97L576.34-7.97L576.34-7.97Q576.08-7.97 575.90-7.78L575.90-7.78L575.90-7.78Q575.71-7.60 575.71-7.34L575.71-7.34ZM594.88-7.34L594.88-7.34L594.88-7.22L593.55-7.22L593.55-7.34L593.55-7.34Q593.55-7.60 593.37-7.78L593.37-7.78L593.37-7.78Q593.18-7.97 592.93-7.97L592.93-7.97L587.36-7.97L587.36-7.97Q587.10-7.97 586.92-7.78L586.92-7.78L586.92-7.78Q586.74-7.60 586.74-7.34L586.74-7.34L586.74-5.92L586.74-5.92Q586.74-5.66 586.92-5.48L586.92-5.48L586.92-5.48Q587.10-5.30 587.36-5.30L587.36-5.30L592.93-5.30L592.93-5.30Q593.74-5.30 594.31-4.73L594.31-4.73L594.31-4.73Q594.88-4.16 594.88-3.36L594.88-3.36L594.88-1.94L594.88-1.94Q594.88-1.14 594.31-0.57L594.31-0.57L594.31-0.57Q593.74 0 592.93 0L592.93 0L587.36 0L587.36 0Q586.56 0 585.99-0.57L585.99-0.57L585.99-0.57Q585.42-1.14 585.42-1.94L585.42-1.94L585.42-2.06L586.74-2.06L586.74-1.94L586.74-1.94Q586.74-1.68 586.92-1.50L586.92-1.50L586.92-1.50Q587.10-1.31 587.36-1.31L587.36-1.31L592.93-1.31L592.93-1.31Q593.18-1.31 593.37-1.50L593.37-1.50L593.37-1.50Q593.55-1.68 593.55-1.94L593.55-1.94L593.55-3.36L593.55-3.36Q593.55-3.62 593.37-3.80L593.37-3.80L593.37-3.80Q593.18-3.98 592.93-3.98L592.93-3.98L587.36-3.98L587.36-3.98Q586.56-3.98 585.99-4.55L585.99-4.55L585.99-4.55Q585.42-5.12 585.42-5.92L585.42-5.92L585.42-7.34L585.42-7.34Q585.42-8.14 585.99-8.71L585.99-8.71L585.99-8.71Q586.56-9.28 587.36-9.28L587.36-9.28L592.93-9.28L592.93-9.28Q593.74-9.28 594.31-8.71L594.31-8.71L594.31-8.71Q594.88-8.14 594.88-7.34ZM601.81-9.28L601.81-7.97L597.79-7.97L597.79-1.94L597.79-1.94Q597.79-1.68 597.98-1.50L597.98-1.50L597.98-1.50Q598.16-1.31 598.42-1.31L598.42-1.31L601.81-1.31L601.81 0L598.42 0L598.42 0Q597.60 0 597.04-0.57L597.04-0.57L597.04-0.57Q596.48-1.14 596.48-1.94L596.48-1.94L596.48-12.32L597.79-12.32L597.79-9.28L601.81-9.28ZM607.49-5.39L613.73-5.39L613.73-4.08L607.49-4.08L607.49-5.39ZM621.84-11.52L626.62-5.82L631.41-11.52L633.18-11.52L633.18 0L631.89 0L631.89-10.05L626.62-3.79L621.36-10.05L621.36 0L620.06 0L620.06-11.52L621.84-11.52ZM643.01-1.94L643.01-9.28L644.32-9.28L644.32-1.94L644.32-1.94Q644.32-1.14 643.75-0.57L643.75-0.57L643.75-0.57Q643.18 0 642.37 0L642.37 0L636.80 0L636.80 0Q636.00 0 635.43-0.57L635.43-0.57L635.43-0.57Q634.86-1.14 634.86-1.94L634.86-1.94L634.86-9.28L636.18-9.28L636.18-1.94L636.18-1.94Q636.18-1.68 636.36-1.50L636.36-1.50L636.36-1.50Q636.54-1.31 636.80-1.31L636.80-1.31L642.37-1.31L642.37-1.31Q642.62-1.31 642.82-1.50L642.82-1.50L642.82-1.50Q643.01-1.68 643.01-1.94L643.01-1.94ZM645.97-1.94L645.97-12.32L647.28-12.32L647.28-1.94L647.28-1.94Q647.28-1.68 647.46-1.50L647.46-1.50L647.46-1.50Q647.65-1.31 647.90-1.31L647.90-1.31L649.47-1.31L649.47 0L647.90 0L647.90 0Q647.10 0 646.54-0.57L646.54-0.57L646.54-0.57Q645.97-1.14 645.97-1.94L645.97-1.94ZM656.14-9.28L656.14-7.97L652.13-7.97L652.13-1.94L652.13-1.94Q652.13-1.68 652.31-1.50L652.31-1.50L652.31-1.50Q652.50-1.31 652.75-1.31L652.75-1.31L656.14-1.31L656.14 0L652.75 0L652.75 0Q651.94 0 651.38-0.57L651.38-0.57L651.38-0.57Q650.82-1.14 650.82-1.94L650.82-1.94L650.82-12.32L652.13-12.32L652.13-9.28L656.14-9.28ZM658.75 0L657.44 0L657.44-9.28L658.75-9.28L658.75 0ZM657.44-11.01L657.44-12.32L658.75-12.32L658.75-11.01L657.44-11.01ZM660.88-5.39L667.12-5.39L667.12-4.08L660.88-4.08L660.88-5.39ZM670.98-9.28L670.98-9.28L676.19-9.28L676.19-7.97L670.98-7.97L670.98-7.97Q670.72-7.97 670.54-7.78L670.54-7.78L670.54-7.78Q670.35-7.60 670.35-7.34L670.35-7.34L670.35 0L669.04 0L669.04-7.34L669.04-7.34Q669.04-8.14 669.61-8.71L669.61-8.71L669.61-8.71Q670.18-9.28 670.98-9.28ZM679.15-9.28L684.72-9.28L684.72-9.28Q685.54-9.28 686.10-8.71L686.10-8.71L686.10-8.71Q686.67-8.14 686.67-7.34L686.67-7.34L686.67-3.98L678.53-3.98L678.53-1.94L678.53-1.94Q678.53-1.68 678.71-1.50L678.71-1.50L678.71-1.50Q678.90-1.31 679.15-1.31L679.15-1.31L686.67-1.31L686.67 0L679.15 0L679.15 0Q678.35 0 677.78-0.57L677.78-0.57L677.78-0.57Q677.22-1.14 677.22-1.94L677.22-1.94L677.22-7.34L677.22-7.34Q677.22-8.14 677.78-8.71L677.78-8.71L677.78-8.71Q678.35-9.28 679.15-9.28L679.15-9.28ZM678.53-7.34L678.53-5.30L685.34-5.30L685.34-7.34L685.34-7.34Q685.34-7.60 685.16-7.78L685.16-7.78L685.16-7.78Q684.98-7.97 684.72-7.97L684.72-7.97L679.15-7.97L679.15-7.97Q678.90-7.97 678.71-7.78L678.71-7.78L678.71-7.78Q678.53-7.60 678.53-7.34L678.53-7.34ZM688.34-9.28L695.86-9.28L695.86-9.28Q696.66-9.28 697.22-8.71L697.22-8.71L697.22-8.71Q697.79-8.14 697.79-7.34L697.79-7.34L697.79-1.94L697.79-1.94Q697.79-1.14 697.22-0.57L697.22-0.57L697.22-0.57Q696.66 0 695.86 0L695.86 0L689.65 0L689.65 3.68L688.34 3.68L688.34-9.28ZM696.48-1.94L696.48-1.94L696.48-7.34L696.48-7.34Q696.48-7.60 696.30-7.78L696.30-7.78L696.30-7.78Q696.11-7.97 695.86-7.97L695.86-7.97L690.29-7.97L690.29-7.97Q690.03-7.97 689.84-7.78L689.84-7.78L689.84-7.78Q689.65-7.60 689.65-7.34L689.65-7.34L689.65-1.94L689.65-1.94Q689.65-1.68 689.84-1.50L689.84-1.50L689.84-1.50Q690.03-1.31 690.29-1.31L690.29-1.31L695.86-1.31L695.86-1.31Q696.11-1.31 696.30-1.50L696.30-1.50L696.30-1.50Q696.48-1.68 696.48-1.94ZM700.85-9.28L700.85-9.28L706.42-9.28L706.42-9.28Q707.23-9.28 707.80-8.71L707.80-8.71L707.80-8.71Q708.37-8.14 708.37-7.34L708.37-7.34L708.37-1.94L708.37-1.94Q708.37-1.14 707.80-0.57L707.80-0.57L707.80-0.57Q707.23 0 706.42 0L706.42 0L700.85 0L700.85 0Q700.05 0 699.48-0.57L699.48-0.57L699.48-0.57Q698.91-1.14 698.91-1.94L698.91-1.94L698.91-7.34L698.91-7.34Q698.91-8.14 699.48-8.71L699.48-8.71L699.48-8.71Q700.05-9.28 700.85-9.28ZM706.42-7.97L706.42-7.97L700.85-7.97L700.85-7.97Q700.59-7.97 700.41-7.78L700.41-7.78L700.41-7.78Q700.22-7.60 700.22-7.34L700.22-7.34L700.22-1.94L700.22-1.94Q700.22-1.68 700.41-1.50L700.41-1.50L700.41-1.50Q700.59-1.31 700.85-1.31L700.85-1.31L706.42-1.31L706.42-1.31Q706.67-1.31 706.86-1.50L706.86-1.50L706.86-1.50Q707.04-1.68 707.04-1.94L707.04-1.94L707.04-7.34L707.04-7.34Q707.04-7.60 706.86-7.78L706.86-7.78L706.86-7.78Q706.67-7.97 706.42-7.97ZM719.07-7.34L719.07-7.34L719.07-7.22L717.74-7.22L717.74-7.34L717.74-7.34Q717.74-7.60 717.56-7.78L717.56-7.78L717.56-7.78Q717.38-7.97 717.12-7.97L717.12-7.97L711.55-7.97L711.55-7.97Q711.30-7.97 711.11-7.78L711.11-7.78L711.11-7.78Q710.93-7.60 710.93-7.34L710.93-7.34L710.93-5.92L710.93-5.92Q710.93-5.66 711.11-5.48L711.11-5.48L711.11-5.48Q711.30-5.30 711.55-5.30L711.55-5.30L717.12-5.30L717.12-5.30Q717.94-5.30 718.50-4.73L718.50-4.73L718.50-4.73Q719.07-4.16 719.07-3.36L719.07-3.36L719.07-1.94L719.07-1.94Q719.07-1.14 718.50-0.57L718.50-0.57L718.50-0.57Q717.94 0 717.12 0L717.12 0L711.55 0L711.55 0Q710.75 0 710.18-0.57L710.18-0.57L710.18-0.57Q709.62-1.14 709.62-1.94L709.62-1.94L709.62-2.06L710.93-2.06L710.93-1.94L710.93-1.94Q710.93-1.68 711.11-1.50L711.11-1.50L711.11-1.50Q711.30-1.31 711.55-1.31L711.55-1.31L717.12-1.31L717.12-1.31Q717.38-1.31 717.56-1.50L717.56-1.50L717.56-1.50Q717.74-1.68 717.74-1.94L717.74-1.94L717.74-3.36L717.74-3.36Q717.74-3.62 717.56-3.80L717.56-3.80L717.56-3.80Q717.38-3.98 717.12-3.98L717.12-3.98L711.55-3.98L711.55-3.98Q710.75-3.98 710.18-4.55L710.18-4.55L710.18-4.55Q709.62-5.12 709.62-5.92L709.62-5.92L709.62-7.34L709.62-7.34Q709.62-8.14 710.18-8.71L710.18-8.71L710.18-8.71Q710.75-9.28 711.55-9.28L711.55-9.28L717.12-9.28L717.12-9.28Q717.94-9.28 718.50-8.71L718.50-8.71L718.50-8.71Q719.07-8.14 719.07-7.34ZM721.97 0L720.66 0L720.66-9.28L721.97-9.28L721.97 0ZM720.66-11.01L720.66-12.32L721.97-12.32L721.97-11.01L720.66-11.01ZM729.33-9.28L729.33-7.97L725.31-7.97L725.31-1.94L725.31-1.94Q725.31-1.68 725.50-1.50L725.50-1.50L725.50-1.50Q725.68-1.31 725.94-1.31L725.94-1.31L729.33-1.31L729.33 0L725.94 0L725.94 0Q725.12 0 724.56-0.57L724.56-0.57L724.56-0.57Q724.00-1.14 724.00-1.94L724.00-1.94L724.00-12.32L725.31-12.32L725.31-9.28L729.33-9.28ZM732.46-9.28L732.46-9.28L738.03-9.28L738.03-9.28Q738.85-9.28 739.42-8.71L739.42-8.71L739.42-8.71Q739.98-8.14 739.98-7.34L739.98-7.34L739.98-1.94L739.98-1.94Q739.98-1.14 739.42-0.57L739.42-0.57L739.42-0.57Q738.85 0 738.03 0L738.03 0L732.46 0L732.46 0Q731.66 0 731.10-0.57L731.10-0.57L731.10-0.57Q730.53-1.14 730.53-1.94L730.53-1.94L730.53-7.34L730.53-7.34Q730.53-8.14 731.10-8.71L731.10-8.71L731.10-8.71Q731.66-9.28 732.46-9.28ZM738.03-7.97L738.03-7.97L732.46-7.97L732.46-7.97Q732.21-7.97 732.02-7.78L732.02-7.78L732.02-7.78Q731.84-7.60 731.84-7.34L731.84-7.34L731.84-1.94L731.84-1.94Q731.84-1.68 732.02-1.50L732.02-1.50L732.02-1.50Q732.21-1.31 732.46-1.31L732.46-1.31L738.03-1.31L738.03-1.31Q738.29-1.31 738.47-1.50L738.47-1.50L738.47-1.50Q738.66-1.68 738.66-1.94L738.66-1.94L738.66-7.34L738.66-7.34Q738.66-7.60 738.47-7.78L738.47-7.78L738.47-7.78Q738.29-7.97 738.03-7.97ZM743.39-9.28L743.39-9.28L748.61-9.28L748.61-7.97L743.39-7.97L743.39-7.97Q743.14-7.97 742.95-7.78L742.95-7.78L742.95-7.78Q742.77-7.60 742.77-7.34L742.77-7.34L742.77 0L741.46 0L741.46-7.34L741.46-7.34Q741.46-8.14 742.02-8.71L742.02-8.71L742.02-8.71Q742.59-9.28 743.39-9.28ZM750.96 0L749.65 0L749.65-9.28L750.96-9.28L750.96 0ZM749.65-11.01L749.65-12.32L750.96-12.32L750.96-11.01L749.65-11.01ZM754.90-9.28L760.46-9.28L760.46-9.28Q761.28-9.28 761.85-8.71L761.85-8.71L761.85-8.71Q762.42-8.14 762.42-7.34L762.42-7.34L762.42-3.98L754.27-3.98L754.27-1.94L754.27-1.94Q754.27-1.68 754.46-1.50L754.46-1.50L754.46-1.50Q754.64-1.31 754.90-1.31L754.90-1.31L762.42-1.31L762.42 0L754.90 0L754.90 0Q754.10 0 753.53-0.57L753.53-0.57L753.53-0.57Q752.96-1.14 752.96-1.94L752.96-1.94L752.96-7.34L752.96-7.34Q752.96-8.14 753.53-8.71L753.53-8.71L753.53-8.71Q754.10-9.28 754.90-9.28L754.90-9.28ZM754.27-7.34L754.27-5.30L761.09-5.30L761.09-7.34L761.09-7.34Q761.09-7.60 760.90-7.78L760.90-7.78L760.90-7.78Q760.72-7.97 760.46-7.97L760.46-7.97L754.90-7.97L754.90-7.97Q754.64-7.97 754.46-7.78L754.46-7.78L754.46-7.78Q754.27-7.60 754.27-7.34L754.27-7.34ZM773.44-7.34L773.44-7.34L773.44-7.22L772.11-7.22L772.11-7.34L772.11-7.34Q772.11-7.60 771.93-7.78L771.93-7.78L771.93-7.78Q771.74-7.97 771.49-7.97L771.49-7.97L765.92-7.97L765.92-7.97Q765.66-7.97 765.48-7.78L765.48-7.78L765.48-7.78Q765.30-7.60 765.30-7.34L765.30-7.34L765.30-5.92L765.30-5.92Q765.30-5.66 765.48-5.48L765.48-5.48L765.48-5.48Q765.66-5.30 765.92-5.30L765.92-5.30L771.49-5.30L771.49-5.30Q772.30-5.30 772.87-4.73L772.87-4.73L772.87-4.73Q773.44-4.16 773.44-3.36L773.44-3.36L773.44-1.94L773.44-1.94Q773.44-1.14 772.87-0.57L772.87-0.57L772.87-0.57Q772.30 0 771.49 0L771.49 0L765.92 0L765.92 0Q765.12 0 764.55-0.57L764.55-0.57L764.55-0.57Q763.98-1.14 763.98-1.94L763.98-1.94L763.98-2.06L765.30-2.06L765.30-1.94L765.30-1.94Q765.30-1.68 765.48-1.50L765.48-1.50L765.48-1.50Q765.66-1.31 765.92-1.31L765.92-1.31L771.49-1.31L771.49-1.31Q771.74-1.31 771.93-1.50L771.93-1.50L771.93-1.50Q772.11-1.68 772.11-1.94L772.11-1.94L772.11-3.36L772.11-3.36Q772.11-3.62 771.93-3.80L771.93-3.80L771.93-3.80Q771.74-3.98 771.49-3.98L771.49-3.98L765.92-3.98L765.92-3.98Q765.12-3.98 764.55-4.55L764.55-4.55L764.55-4.55Q763.98-5.12 763.98-5.92L763.98-5.92L763.98-7.34L763.98-7.34Q763.98-8.14 764.55-8.71L764.55-8.71L764.55-8.71Q765.12-9.28 765.92-9.28L765.92-9.28L771.49-9.28L771.49-9.28Q772.30-9.28 772.87-8.71L772.87-8.71L772.87-8.71Q773.44-8.14 773.44-7.34ZM781.31-1.31L781.31-1.31L781.78-1.31L781.78 0L781.31 0L781.31 0Q780.51 0 779.94-0.57L779.94-0.57L779.94-0.57Q779.38-1.14 779.38-1.94L779.38-1.94L779.38-9.57L779.38-9.57Q779.38-10.38 779.94-10.95L779.94-10.95L779.94-10.95Q780.51-11.52 781.31-11.52L781.31-11.52L781.78-11.52L781.78-10.19L781.31-10.19L781.31-10.19Q781.06-10.19 780.87-10.01L780.87-10.01L780.87-10.01Q780.69-9.82 780.69-9.57L780.69-9.57L780.69-1.94L780.69-1.94Q780.69-1.68 780.87-1.50L780.87-1.50L780.87-1.50Q781.06-1.31 781.31-1.31ZM785.82-11.54L785.82-11.54L793.58-11.54L793.58-11.54Q794.38-11.54 794.95-10.97L794.95-10.97L794.95-10.97Q795.52-10.40 795.52-9.58L795.52-9.58L795.52-6.88L795.52-6.88Q795.52-6.08 794.95-5.51L794.95-5.51L794.95-5.51Q794.38-4.94 793.58-4.94L793.58-4.94L785.82-4.94L785.82-4.94Q785.57-4.94 785.38-4.76L785.38-4.76L785.38-4.76Q785.20-4.58 785.20-4.32L785.20-4.32L785.20-1.94L785.20-1.94Q785.20-1.68 785.38-1.50L785.38-1.50L785.38-1.50Q785.57-1.31 785.82-1.31L785.82-1.31L795.52-1.31L795.52 0L783.89 0L783.89-4.32L783.89-4.32Q783.89-5.14 784.45-5.70L784.45-5.70L784.45-5.70Q785.01-6.26 785.82-6.26L785.82-6.26L793.58-6.26L793.58-6.26Q793.84-6.26 794.02-6.44L794.02-6.44L794.02-6.44Q794.21-6.62 794.21-6.88L794.21-6.88L794.21-9.58L794.21-9.58Q794.21-9.84 794.02-10.02L794.02-10.02L794.02-10.02Q793.84-10.21 793.58-10.21L793.58-10.21L785.82-10.21L785.82-10.21Q785.57-10.21 785.38-10.02L785.38-10.02L785.38-10.02Q785.20-9.84 785.20-9.58L785.20-9.58L785.20-9.14L783.89-9.14L783.89-9.58L783.89-9.58Q783.89-10.40 784.45-10.97L784.45-10.97L784.45-10.97Q785.01-11.54 785.82-11.54ZM802.16-11.01L802.16-12.32L803.49-12.32L803.49-11.01L802.16-11.01ZM802.16-9.28L803.49-9.28L803.49 1.94L803.49 1.94Q803.49 2.75 802.92 3.32L802.92 3.32L802.92 3.32Q802.35 3.89 801.54 3.89L801.54 3.89L797.62 3.89L797.62 2.56L801.54 2.56L801.54 2.56Q801.79 2.56 801.98 2.38L801.98 2.38L801.98 2.38Q802.16 2.19 802.16 1.94L802.16 1.94L802.16-9.28ZM807.18-9.28L807.18-9.28L812.75-9.28L812.75-9.28Q813.57-9.28 814.14-8.71L814.14-8.71L814.14-8.71Q814.70-8.14 814.70-7.34L814.70-7.34L814.70-1.94L814.70-1.94Q814.70-1.14 814.14-0.57L814.14-0.57L814.14-0.57Q813.57 0 812.75 0L812.75 0L807.18 0L807.18 0Q806.38 0 805.82-0.57L805.82-0.57L805.82-0.57Q805.25-1.14 805.25-1.94L805.25-1.94L805.25-7.34L805.25-7.34Q805.25-8.14 805.82-8.71L805.82-8.71L805.82-8.71Q806.38-9.28 807.18-9.28ZM812.75-7.97L812.75-7.97L807.18-7.97L807.18-7.97Q806.93-7.97 806.74-7.78L806.74-7.78L806.74-7.78Q806.56-7.60 806.56-7.34L806.56-7.34L806.56-1.94L806.56-1.94Q806.56-1.68 806.74-1.50L806.74-1.50L806.74-1.50Q806.93-1.31 807.18-1.31L807.18-1.31L812.75-1.31L812.75-1.31Q813.01-1.31 813.19-1.50L813.19-1.50L813.19-1.50Q813.38-1.68 813.38-1.94L813.38-1.94L813.38-7.34L813.38-7.34Q813.38-7.60 813.19-7.78L813.19-7.78L813.19-7.78Q813.01-7.97 812.75-7.97ZM824.13-1.94L824.13-9.28L825.44-9.28L825.44-1.94L825.44-1.94Q825.44-1.14 824.87-0.57L824.87-0.57L824.87-0.57Q824.30 0 823.49 0L823.49 0L817.92 0L817.92 0Q817.12 0 816.55-0.57L816.55-0.57L816.55-0.57Q815.98-1.14 815.98-1.94L815.98-1.94L815.98-9.28L817.30-9.28L817.30-1.94L817.30-1.94Q817.30-1.68 817.48-1.50L817.48-1.50L817.48-1.50Q817.66-1.31 817.92-1.31L817.92-1.31L823.49-1.31L823.49-1.31Q823.74-1.31 823.94-1.50L823.94-1.50L823.94-1.50Q824.13-1.68 824.13-1.94L824.13-1.94ZM829.02-9.28L829.02-9.28L834.24-9.28L834.24-7.97L829.02-7.97L829.02-7.97Q828.77-7.97 828.58-7.78L828.58-7.78L828.58-7.78Q828.40-7.60 828.40-7.34L828.40-7.34L828.40 0L827.09 0L827.09-7.34L827.09-7.34Q827.09-8.14 827.66-8.71L827.66-8.71L827.66-8.71Q828.22-9.28 829.02-9.28ZM844.67-7.34L844.67-7.34L844.67-7.22L843.34-7.22L843.34-7.34L843.34-7.34Q843.34-7.60 843.16-7.78L843.16-7.78L843.16-7.78Q842.98-7.97 842.72-7.97L842.72-7.97L837.15-7.97L837.15-7.97Q836.90-7.97 836.71-7.78L836.71-7.78L836.71-7.78Q836.53-7.60 836.53-7.34L836.53-7.34L836.53-5.92L836.53-5.92Q836.53-5.66 836.71-5.48L836.71-5.48L836.71-5.48Q836.90-5.30 837.15-5.30L837.15-5.30L842.72-5.30L842.72-5.30Q843.54-5.30 844.10-4.73L844.10-4.73L844.10-4.73Q844.67-4.16 844.67-3.36L844.67-3.36L844.67-1.94L844.67-1.94Q844.67-1.14 844.10-0.57L844.10-0.57L844.10-0.57Q843.54 0 842.72 0L842.72 0L837.15 0L837.15 0Q836.35 0 835.78-0.57L835.78-0.57L835.78-0.57Q835.22-1.14 835.22-1.94L835.22-1.94L835.22-2.06L836.53-2.06L836.53-1.94L836.53-1.94Q836.53-1.68 836.71-1.50L836.71-1.50L836.71-1.50Q836.90-1.31 837.15-1.31L837.15-1.31L842.72-1.31L842.72-1.31Q842.98-1.31 843.16-1.50L843.16-1.50L843.16-1.50Q843.34-1.68 843.34-1.94L843.34-1.94L843.34-3.36L843.34-3.36Q843.34-3.62 843.16-3.80L843.16-3.80L843.16-3.80Q842.98-3.98 842.72-3.98L842.72-3.98L837.15-3.98L837.15-3.98Q836.35-3.98 835.78-4.55L835.78-4.55L835.78-4.55Q835.22-5.12 835.22-5.92L835.22-5.92L835.22-7.34L835.22-7.34Q835.22-8.14 835.78-8.71L835.78-8.71L835.78-8.71Q836.35-9.28 837.15-9.28L837.15-9.28L842.72-9.28L842.72-9.28Q843.54-9.28 844.10-8.71L844.10-8.71L844.10-8.71Q844.67-8.14 844.67-7.34ZM846.77 0L846.32 0L846.32-1.31L846.77-1.31L846.77-1.31Q847.02-1.31 847.21-1.50L847.21-1.50L847.21-1.50Q847.39-1.68 847.39-1.94L847.39-1.94L847.39-9.57L847.39-9.57Q847.39-9.82 847.21-10.01L847.21-10.01L847.21-10.01Q847.02-10.19 846.77-10.19L846.77-10.19L846.32-10.19L846.32-11.52L846.77-11.52L846.77-11.52Q847.57-11.52 848.14-10.95L848.14-10.95L848.14-10.95Q848.72-10.38 848.72-9.57L848.72-9.57L848.72-1.94L848.72-1.94Q848.72-1.14 848.14-0.57L848.14-0.57L848.14-0.57Q847.57 0 846.77 0L846.77 0Z" fill="#fedb27"></path></g></g><style>text {
  font-size: 64px;
  font-family: Arial Black;
  dominant-baseline: central;
  text-anchor: middle;
}</style></svg>