<?xml version="1.0" standalone="no"?>
<!DOCTYPE svg PUBLIC "-//W3C//DTD SVG 20010904//EN"
 "http://www.w3.org/TR/2001/REC-SVG-20010904/DTD/svg10.dtd">
<svg version="1.0" xmlns="http://www.w3.org/2000/svg"
 width="100.000000pt" height="100.000000pt" viewBox="0 0 100.000000 100.000000"
 preserveAspectRatio="xMidYMid meet">
<metadata>
Created by potrace 1.10, written by Peter Selinger 2001-2011
</metadata>
<g transform="translate(0.000000,100.000000) scale(0.100000,-0.100000)"
fill="#000000" stroke="none">
<path d="M340 913 c-134 -17 -254 -66 -270 -109 -23 -60 -5 -168 30 -179 11
-3 38 -1 62 5 24 6 60 16 81 21 34 9 41 17 67 73 l28 63 53 6 c69 9 149 9 218
0 l53 -6 28 -63 c26 -56 33 -64 67 -73 21 -5 57 -15 81 -21 24 -6 51 -8 62 -5
35 11 53 119 30 179 -11 31 -85 70 -172 92 -63 15 -345 27 -418 17z"/>
<path d="M347 694 c-4 -4 -7 -21 -7 -37 0 -23 -19 -49 -94 -128 -125 -132
-142 -166 -139 -289 1 -52 6 -108 10 -125 9 -29 12 -30 72 -33 56 -3 63 -1 68
18 5 19 12 20 243 20 231 0 238 -1 243 -20 5 -19 12 -21 68 -18 60 3 63 4 72
33 4 17 9 73 10 125 3 123 -14 158 -138 288 -75 79 -94 105 -97 133 -3 33 -4
34 -48 34 -42 0 -45 -2 -48 -27 -3 -27 -5 -28 -62 -28 -57 0 -59 1 -62 28 -3
24 -8 27 -43 30 -23 2 -44 0 -48 -4z m73 -214 c0 -17 -7 -20 -40 -20 -33 0
-40 3 -40 20 0 17 7 20 40 20 33 0 40 -3 40 -20z m120 0 c0 -17 -7 -20 -40
-20 -33 0 -40 3 -40 20 0 17 7 20 40 20 33 0 40 -3 40 -20z m120 0 c0 -17 -7
-20 -40 -20 -33 0 -40 3 -40 20 0 17 7 20 40 20 33 0 40 -3 40 -20z m-240 -80
c0 -17 -7 -20 -40 -20 -33 0 -40 3 -40 20 0 17 7 20 40 20 33 0 40 -3 40 -20z
m120 0 c0 -17 -7 -20 -40 -20 -33 0 -40 3 -40 20 0 17 7 20 40 20 33 0 40 -3
40 -20z m120 0 c0 -17 -7 -20 -40 -20 -33 0 -40 3 -40 20 0 17 7 20 40 20 33
0 40 -3 40 -20z m-240 -80 c0 -17 -7 -20 -40 -20 -33 0 -40 3 -40 20 0 17 7
20 40 20 33 0 40 -3 40 -20z m120 0 c0 -17 -7 -20 -40 -20 -33 0 -40 3 -40 20
0 17 7 20 40 20 33 0 40 -3 40 -20z m120 0 c0 -17 -7 -20 -40 -20 -33 0 -40 3
-40 20 0 17 7 20 40 20 33 0 40 -3 40 -20z"/>
</g>
</svg>
