<?xml version="1.0" standalone="no"?>
<!DOCTYPE svg PUBLIC "-//W3C//DTD SVG 20010904//EN"
 "http://www.w3.org/TR/2001/REC-SVG-20010904/DTD/svg10.dtd">
<svg version="1.0" xmlns="http://www.w3.org/2000/svg"
 width="100.000000pt" height="100.000000pt" viewBox="0 0 100.000000 100.000000"
 preserveAspectRatio="xMidYMid meet">
<metadata>
Created by potrace 1.10, written by Peter Selinger 2001-2011
</metadata>
<g transform="translate(0.000000,100.000000) scale(0.100000,-0.100000)"
fill="#000000" stroke="none">
<path d="M387 934 c-4 -4 -7 -21 -7 -38 -1 -24 -18 -51 -81 -121 -49 -55 -93
-117 -114 -161 -19 -39 -45 -79 -56 -90 -33 -29 -69 -114 -69 -163 0 -63 19
-119 52 -149 17 -16 28 -37 28 -53 0 -44 21 -89 43 -94 12 -3 58 5 102 17 l80
23 17 50 c19 60 27 63 158 63 131 0 140 -4 157 -61 15 -53 20 -56 130 -84 63
-15 65 -15 85 5 15 14 23 38 26 74 4 48 1 58 -23 86 -62 74 -153 97 -380 97
-149 0 -179 -3 -242 -23 -44 -13 -87 -35 -109 -54 l-36 -32 -19 22 c-21 27
-34 98 -25 144 7 40 43 101 55 94 4 -3 11 -28 14 -56 3 -28 9 -55 12 -60 3 -6
33 -10 67 -10 51 0 61 3 65 20 5 19 14 20 213 20 199 0 208 -1 213 -20 4 -17
14 -20 65 -20 34 0 64 5 67 10 4 6 11 50 18 99 l11 89 -32 63 c-17 35 -67 105
-111 154 -62 70 -80 98 -83 125 -3 34 -4 35 -48 35 -42 0 -45 -2 -48 -27 -3
-26 -6 -28 -52 -28 -46 0 -49 2 -52 28 -3 24 -8 27 -43 30 -23 2 -44 0 -48 -4z
m73 -194 c0 -16 -7 -20 -30 -20 -23 0 -30 4 -30 20 0 16 7 20 30 20 23 0 30
-4 30 -20z m100 0 c0 -16 -7 -20 -30 -20 -23 0 -30 4 -30 20 0 16 7 20 30 20
23 0 30 -4 30 -20z m100 0 c0 -16 -7 -20 -30 -20 -23 0 -30 4 -30 20 0 16 7
20 30 20 23 0 30 -4 30 -20z m-200 -80 c0 -16 -7 -20 -30 -20 -23 0 -30 4 -30
20 0 16 7 20 30 20 23 0 30 -4 30 -20z m100 0 c0 -16 -7 -20 -30 -20 -23 0
-30 4 -30 20 0 16 7 20 30 20 23 0 30 -4 30 -20z m100 0 c0 -16 -7 -20 -30
-20 -23 0 -30 4 -30 20 0 16 7 20 30 20 23 0 30 -4 30 -20z m-200 -80 c0 -16
-7 -20 -30 -20 -23 0 -30 4 -30 20 0 16 7 20 30 20 23 0 30 -4 30 -20z m100 0
c0 -16 -7 -20 -30 -20 -23 0 -30 4 -30 20 0 16 7 20 30 20 23 0 30 -4 30 -20z
m100 0 c0 -16 -7 -20 -30 -20 -23 0 -30 4 -30 20 0 16 7 20 30 20 23 0 30 -4
30 -20z"/>
</g>
</svg>
