<?xml version="1.0" standalone="no"?>
<!DOCTYPE svg PUBLIC "-//W3C//DTD SVG 20010904//EN"
 "http://www.w3.org/TR/2001/REC-SVG-20010904/DTD/svg10.dtd">
<svg version="1.0" xmlns="http://www.w3.org/2000/svg"
 width="448.000000pt" height="433.000000pt" viewBox="0 0 448.000000 433.000000"
 preserveAspectRatio="xMidYMid meet">
<metadata>
Created by potrace 1.16, written by Peter Selinger 2001-2019
</metadata>
<g transform="translate(0.000000,433.000000) scale(0.100000,-0.100000)"
fill="#000000" stroke="none">
<path d="M2025 4223 c-410 -50 -779 -203 -1085 -450 -90 -73 -249 -233 -321
-323 -225 -282 -381 -643 -433 -1007 -20 -143 -21 -424 -1 -576 88 -670 517
-1272 1123 -1576 154 -77 412 -173 412 -152 0 4 -20 12 -45 19 l-45 12 0 238
0 238 -90 -15 c-160 -27 -285 11 -390 118 -66 67 -109 146 -144 261 -30 102
-83 180 -155 230 -72 50 -65 70 22 70 88 -1 168 -62 268 -205 105 -150 190
-205 319 -205 41 0 97 6 125 13 l49 13 26 90 c31 108 67 175 132 248 32 37 45
57 36 60 -7 2 -44 12 -83 21 -206 51 -393 151 -520 279 -139 141 -203 283
-212 478 -12 226 55 432 198 610 31 39 47 68 44 78 -4 8 -13 44 -22 80 -21 90
-14 357 12 454 l18 68 56 -6 c137 -16 346 -113 461 -214 l51 -44 106 22 c200
42 426 42 626 0 l106 -22 51 44 c115 101 324 198 461 214 l56 6 12 -43 c35
-132 43 -375 16 -515 -15 -78 -15 -78 9 -104 45 -48 125 -181 155 -258 92
-241 79 -504 -36 -702 -52 -90 -179 -215 -283 -278 -92 -57 -243 -119 -355
-147 -38 -9 -76 -19 -84 -21 -10 -3 -2 -17 26 -47 59 -60 108 -143 140 -234
l28 -78 3 -397 3 -398 -45 -12 c-25 -7 -46 -15 -46 -19 0 -4 37 4 83 18 246
75 484 201 687 363 97 77 283 266 351 355 220 288 368 643 414 991 20 153 20
434 -1 577 -86 596 -420 1122 -924 1453 -259 170 -574 284 -890 324 -78 9
-406 12 -475 3z"/>
</g>
</svg>
